%TF.GenerationSoftware,KiCad,Pcbnew,9.0.1*%
%TF.CreationDate,2025-04-12T21:10:11-04:00*%
%TF.ProjectId,USB-C-3-way-splitter-V5,5553422d-432d-4332-9d77-61792d73706c,rev?*%
%TF.SameCoordinates,Original*%
%TF.FileFunction,Soldermask,Top*%
%TF.FilePolarity,Negative*%
%FSLAX46Y46*%
G04 Gerber Fmt 4.6, Leading zero omitted, Abs format (unit mm)*
G04 Created by KiCad (PCBNEW 9.0.1) date 2025-04-12 21:10:11*
%MOMM*%
%LPD*%
G01*
G04 APERTURE LIST*
G04 Aperture macros list*
%AMRoundRect*
0 Rectangle with rounded corners*
0 $1 Rounding radius*
0 $2 $3 $4 $5 $6 $7 $8 $9 X,Y pos of 4 corners*
0 Add a 4 corners polygon primitive as box body*
4,1,4,$2,$3,$4,$5,$6,$7,$8,$9,$2,$3,0*
0 Add four circle primitives for the rounded corners*
1,1,$1+$1,$2,$3*
1,1,$1+$1,$4,$5*
1,1,$1+$1,$6,$7*
1,1,$1+$1,$8,$9*
0 Add four rect primitives between the rounded corners*
20,1,$1+$1,$2,$3,$4,$5,0*
20,1,$1+$1,$4,$5,$6,$7,0*
20,1,$1+$1,$6,$7,$8,$9,0*
20,1,$1+$1,$8,$9,$2,$3,0*%
G04 Aperture macros list end*
%ADD10C,5.700000*%
%ADD11RoundRect,0.250000X1.450000X-0.400000X1.450000X0.400000X-1.450000X0.400000X-1.450000X-0.400000X0*%
%ADD12RoundRect,0.112500X0.112500X0.637500X-0.112500X0.637500X-0.112500X-0.637500X0.112500X-0.637500X0*%
%ADD13RoundRect,0.150000X-0.587500X-0.150000X0.587500X-0.150000X0.587500X0.150000X-0.587500X0.150000X0*%
%ADD14RoundRect,0.250000X-0.350000X-0.450000X0.350000X-0.450000X0.350000X0.450000X-0.350000X0.450000X0*%
%ADD15R,1.800000X1.800000*%
%ADD16O,1.350000X1.350000*%
%ADD17C,1.800000*%
%ADD18RoundRect,0.150000X-0.825000X-0.150000X0.825000X-0.150000X0.825000X0.150000X-0.825000X0.150000X0*%
%ADD19RoundRect,0.250000X-0.450000X0.350000X-0.450000X-0.350000X0.450000X-0.350000X0.450000X0.350000X0*%
%ADD20RoundRect,0.250000X0.650000X-0.412500X0.650000X0.412500X-0.650000X0.412500X-0.650000X-0.412500X0*%
%ADD21RoundRect,0.250000X-0.450000X0.325000X-0.450000X-0.325000X0.450000X-0.325000X0.450000X0.325000X0*%
%ADD22RoundRect,0.250000X-0.337500X-0.475000X0.337500X-0.475000X0.337500X0.475000X-0.337500X0.475000X0*%
%ADD23RoundRect,0.250000X-0.325000X-0.450000X0.325000X-0.450000X0.325000X0.450000X-0.325000X0.450000X0*%
%ADD24O,1.800000X1.800000*%
%ADD25RoundRect,0.125000X-0.215000X-0.125000X0.215000X-0.125000X0.215000X0.125000X-0.215000X0.125000X0*%
%ADD26RoundRect,0.087500X-0.252500X-0.087500X0.252500X-0.087500X0.252500X0.087500X-0.252500X0.087500X0*%
%ADD27RoundRect,0.087500X-0.087500X-0.425000X0.087500X-0.425000X0.087500X0.425000X-0.087500X0.425000X0*%
%ADD28RoundRect,0.087500X-0.087500X-0.387500X0.087500X-0.387500X0.087500X0.387500X-0.087500X0.387500X0*%
%ADD29RoundRect,0.250000X0.450000X-0.350000X0.450000X0.350000X-0.450000X0.350000X-0.450000X-0.350000X0*%
%ADD30RoundRect,0.250000X-0.475000X0.337500X-0.475000X-0.337500X0.475000X-0.337500X0.475000X0.337500X0*%
%ADD31RoundRect,0.250000X0.412500X0.650000X-0.412500X0.650000X-0.412500X-0.650000X0.412500X-0.650000X0*%
%ADD32C,2.286000*%
%ADD33RoundRect,0.225000X-0.375000X0.225000X-0.375000X-0.225000X0.375000X-0.225000X0.375000X0.225000X0*%
%ADD34RoundRect,0.225000X0.225000X0.375000X-0.225000X0.375000X-0.225000X-0.375000X0.225000X-0.375000X0*%
%ADD35RoundRect,0.150000X-0.200000X0.150000X-0.200000X-0.150000X0.200000X-0.150000X0.200000X0.150000X0*%
%ADD36RoundRect,0.150000X0.512500X0.150000X-0.512500X0.150000X-0.512500X-0.150000X0.512500X-0.150000X0*%
%ADD37C,0.650000*%
%ADD38R,1.450000X0.600000*%
%ADD39R,1.450000X0.300000*%
%ADD40O,2.100000X1.000000*%
%ADD41O,1.600000X1.000000*%
G04 APERTURE END LIST*
D10*
%TO.C,H4*%
X20100000Y-10000000D03*
%TD*%
D11*
%TO.C,F1*%
X8700000Y1850000D03*
X8700000Y6300000D03*
%TD*%
D12*
%TO.C,D1*%
X14650000Y-5840000D03*
X13350000Y-5840000D03*
X14000000Y-8500000D03*
%TD*%
D13*
%TO.C,Q1*%
X16262500Y4950000D03*
X16262500Y3050000D03*
X18137500Y4000000D03*
%TD*%
D14*
%TO.C,R1*%
X9500000Y-12100000D03*
X11500000Y-12100000D03*
%TD*%
D15*
%TO.C,J3*%
X26000000Y3000000D03*
D16*
X26000000Y1000000D03*
X26000000Y-1000000D03*
D17*
X26000000Y-3000000D03*
%TD*%
D10*
%TO.C,H2*%
X3000000Y-10000000D03*
%TD*%
D18*
%TO.C,U1*%
X8525000Y5000D03*
X8525000Y-1265000D03*
X8525000Y-2535000D03*
X8525000Y-3805000D03*
X13475000Y-3805000D03*
X13475000Y-2535000D03*
X13475000Y-1265000D03*
X13475000Y5000D03*
%TD*%
D19*
%TO.C,R3*%
X15800000Y-100000D03*
X15800000Y-2100000D03*
%TD*%
%TO.C,R7*%
X22300000Y1800000D03*
X22300000Y-200000D03*
%TD*%
D20*
%TO.C,C3*%
X11800000Y9037500D03*
X11800000Y12162500D03*
%TD*%
D21*
%TO.C,D2*%
X9500000Y12225000D03*
X9500000Y10175000D03*
%TD*%
D22*
%TO.C,C5*%
X13500000Y-11000000D03*
X15575000Y-11000000D03*
%TD*%
D23*
%TO.C,D3*%
X19075000Y-4700000D03*
X21125000Y-4700000D03*
%TD*%
D15*
%TO.C,J2*%
X26000000Y12000000D03*
D16*
X26000000Y10000000D03*
X26000000Y8000000D03*
D24*
X26000000Y6000000D03*
%TD*%
D25*
%TO.C,U2*%
X20590000Y5537500D03*
D26*
X20590000Y4962500D03*
X20590000Y4462500D03*
X20590000Y3962500D03*
D25*
X20590000Y3387500D03*
D27*
X21400000Y3325000D03*
D25*
X22210000Y3387500D03*
D26*
X22210000Y3962500D03*
X22210000Y4462500D03*
X22210000Y4962500D03*
D25*
X22210000Y5537500D03*
D27*
X21400000Y5600000D03*
D28*
X21400000Y4462500D03*
%TD*%
D19*
%TO.C,R6*%
X17100000Y-4000000D03*
X17100000Y-6000000D03*
%TD*%
D29*
%TO.C,R5*%
X23100000Y-6700000D03*
X23100000Y-4700000D03*
%TD*%
D30*
%TO.C,C1*%
X20200000Y1800000D03*
X20200000Y-275000D03*
%TD*%
D31*
%TO.C,C2*%
X23462500Y-2500000D03*
X20337500Y-2500000D03*
%TD*%
D32*
%TO.C,H7*%
X23500000Y-12000000D03*
%TD*%
%TO.C,H6*%
X7000000Y-12000000D03*
%TD*%
D33*
%TO.C,D5*%
X13900000Y4950000D03*
X13900000Y1650000D03*
%TD*%
D34*
%TO.C,D4*%
X14750000Y6900000D03*
X11450000Y6900000D03*
%TD*%
D29*
%TO.C,R4*%
X7400000Y8300000D03*
X7400000Y10300000D03*
%TD*%
D10*
%TO.C,H1*%
X3000000Y10000000D03*
%TD*%
D29*
%TO.C,R9*%
X17800000Y-1400000D03*
X17800000Y600000D03*
%TD*%
D19*
%TO.C,R2*%
X11500000Y-8000000D03*
X11500000Y-10000000D03*
%TD*%
D35*
%TO.C,D6*%
X23400000Y6000000D03*
X23400000Y7400000D03*
%TD*%
D36*
%TO.C,U3*%
X9337500Y-9950000D03*
X9337500Y-9000000D03*
X9337500Y-8050000D03*
X7062500Y-8050000D03*
X7062500Y-9000000D03*
X7062500Y-9950000D03*
%TD*%
D37*
%TO.C,J1*%
X3500000Y2890000D03*
X3500000Y-2890000D03*
D38*
X4945000Y3250000D03*
X4945000Y2450000D03*
D39*
X4945000Y1250000D03*
X4945000Y250000D03*
X4945000Y-250000D03*
X4945000Y-1250000D03*
D38*
X4945000Y-2450000D03*
X4945000Y-3250000D03*
X4945000Y-3250000D03*
X4945000Y-2450000D03*
D39*
X4945000Y-1750000D03*
X4945000Y-750000D03*
X4945000Y750000D03*
X4945000Y1750000D03*
D38*
X4945000Y2450000D03*
X4945000Y3250000D03*
D40*
X4030000Y4320000D03*
D41*
X-150000Y4320000D03*
D40*
X4030000Y-4320000D03*
D41*
X-150000Y-4320000D03*
%TD*%
D10*
%TO.C,H3*%
X20100000Y10000000D03*
%TD*%
D15*
%TO.C,J4*%
X26000000Y-6000000D03*
D16*
X26000000Y-8000000D03*
X26000000Y-10000000D03*
D17*
X26000000Y-12000000D03*
%TD*%
D32*
%TO.C,H5*%
X0Y7000000D03*
%TD*%
D19*
%TO.C,R8*%
X11700000Y3800000D03*
X11700000Y1800000D03*
%TD*%
G36*
X3943039Y-4019685D02*
G01*
X3988794Y-4072489D01*
X4000000Y-4124000D01*
X4000000Y-5126000D01*
X3980315Y-5193039D01*
X3927511Y-5238794D01*
X3876000Y-5250000D01*
X-876000Y-5250000D01*
X-943039Y-5230315D01*
X-988794Y-5177511D01*
X-1000000Y-5126000D01*
X-1000000Y-4124000D01*
X-980315Y-4056961D01*
X-927511Y-4011206D01*
X-876000Y-4000000D01*
X3876000Y-4000000D01*
X3943039Y-4019685D01*
G37*
G36*
X3943039Y5230315D02*
G01*
X3988794Y5177511D01*
X4000000Y5126000D01*
X4000000Y4124000D01*
X3980315Y4056961D01*
X3927511Y4011206D01*
X3876000Y4000000D01*
X-876000Y4000000D01*
X-943039Y4019685D01*
X-988794Y4072489D01*
X-1000000Y4124000D01*
X-1000000Y5126000D01*
X-980315Y5193039D01*
X-927511Y5238794D01*
X-876000Y5250000D01*
X3876000Y5250000D01*
X3943039Y5230315D01*
G37*
M02*
