%TF.GenerationSoftware,KiCad,Pcbnew,9.0.1*%
%TF.CreationDate,2025-04-12T21:10:11-04:00*%
%TF.ProjectId,USB-C-3-way-splitter-V5,5553422d-432d-4332-9d77-61792d73706c,rev?*%
%TF.SameCoordinates,Original*%
%TF.FileFunction,Copper,L2,Bot*%
%TF.FilePolarity,Positive*%
%FSLAX46Y46*%
G04 Gerber Fmt 4.6, Leading zero omitted, Abs format (unit mm)*
G04 Created by KiCad (PCBNEW 9.0.1) date 2025-04-12 21:10:11*
%MOMM*%
%LPD*%
G01*
G04 APERTURE LIST*
%TA.AperFunction,ComponentPad*%
%ADD10C,5.700000*%
%TD*%
%TA.AperFunction,ComponentPad*%
%ADD11R,1.800000X1.800000*%
%TD*%
%TA.AperFunction,ComponentPad*%
%ADD12O,1.350000X1.350000*%
%TD*%
%TA.AperFunction,ComponentPad*%
%ADD13C,1.800000*%
%TD*%
%TA.AperFunction,ComponentPad*%
%ADD14O,1.800000X1.800000*%
%TD*%
%TA.AperFunction,ComponentPad*%
%ADD15O,2.100000X1.000000*%
%TD*%
%TA.AperFunction,ComponentPad*%
%ADD16O,1.600000X1.000000*%
%TD*%
%TA.AperFunction,SMDPad,CuDef*%
%ADD17C,2.500000*%
%TD*%
%TA.AperFunction,ViaPad*%
%ADD18C,0.800000*%
%TD*%
%TA.AperFunction,Conductor*%
%ADD19C,0.300000*%
%TD*%
%TA.AperFunction,Conductor*%
%ADD20C,0.500000*%
%TD*%
%TA.AperFunction,Conductor*%
%ADD21C,0.600000*%
%TD*%
G04 APERTURE END LIST*
D10*
%TO.P,H4,1,1*%
%TO.N,GNDPWR*%
X20100000Y-10000000D03*
%TD*%
D11*
%TO.P,J3,1,Pin_1*%
%TO.N,+5V*%
X26000000Y3000000D03*
D12*
%TO.P,J3,2,Pin_2*%
%TO.N,Net-(J3-Pin_2)*%
X26000000Y1000000D03*
%TO.P,J3,3,Pin_3*%
X26000000Y-1000000D03*
D13*
%TO.P,J3,4,Pin_4*%
%TO.N,GND*%
X26000000Y-3000000D03*
%TD*%
D10*
%TO.P,H2,1,1*%
%TO.N,GNDPWR*%
X3000000Y-10000000D03*
%TD*%
D11*
%TO.P,J2,1,Pin_1*%
%TO.N,+5V*%
X26000000Y12000000D03*
D12*
%TO.P,J2,2,Pin_2*%
%TO.N,Net-(J2-Pin_2)*%
X26000000Y10000000D03*
%TO.P,J2,3,Pin_3*%
X26000000Y8000000D03*
D14*
%TO.P,J2,4,Pin_4*%
%TO.N,GND*%
X26000000Y6000000D03*
%TD*%
D10*
%TO.P,H1,1,1*%
%TO.N,GNDPWR*%
X3000000Y10000000D03*
%TD*%
D15*
%TO.P,J1,S1,SHIELD*%
%TO.N,GNDPWR*%
X4030000Y4320000D03*
D16*
X-150000Y4320000D03*
D15*
X4030000Y-4320000D03*
D16*
X-150000Y-4320000D03*
%TD*%
D10*
%TO.P,H3,1,1*%
%TO.N,GNDPWR*%
X20100000Y10000000D03*
%TD*%
D11*
%TO.P,J4,1,Pin_1*%
%TO.N,+5V*%
X26000000Y-6000000D03*
D12*
%TO.P,J4,2,Pin_2*%
%TO.N,Net-(J4-Pin_2)*%
X26000000Y-8000000D03*
%TO.P,J4,3,Pin_3*%
X26000000Y-10000000D03*
D13*
%TO.P,J4,4,Pin_4*%
%TO.N,GND*%
X26000000Y-12000000D03*
%TD*%
D17*
%TO.P,TP4,1,1*%
%TO.N,+1V2*%
X14550000Y-10050000D03*
%TD*%
%TO.P,TP2,1,1*%
%TO.N,CC2*%
X7800000Y-3500000D03*
%TD*%
%TO.P,TP3,1,1*%
%TO.N,EN-OPEN-COL*%
X20250000Y1150000D03*
%TD*%
%TO.P,TP1,1,1*%
%TO.N,CC1*%
X7600000Y500000D03*
%TD*%
D18*
%TO.N,GND*%
X10100000Y-3850000D03*
X17500000Y2900000D03*
X16400000Y9950000D03*
X21800000Y-2200000D03*
X16450000Y10900000D03*
X12400000Y10600000D03*
X6200000Y3600000D03*
X15800000Y-6300000D03*
X5800000Y-4900000D03*
X12500000Y-5200000D03*
X18500000Y-6800000D03*
X10700000Y-11000000D03*
X5800000Y-3900000D03*
X22800000Y7700000D03*
X9600000Y3700000D03*
X6100000Y4700000D03*
X6000000Y7500000D03*
X19000000Y-3200000D03*
X6000000Y-5900000D03*
%TO.N,CC1*%
X9300000Y-5500000D03*
X6750000Y450000D03*
X8600000Y-7300000D03*
%TO.N,CC2*%
X8000000Y-5900000D03*
%TO.N,+1V2*%
X10200000Y-2700000D03*
X15295000Y-3805000D03*
X12775000Y-9025000D03*
%TO.N,EN-OPEN-COL*%
X16900000Y4000000D03*
%TO.N,Net-(D4-A)*%
X12500000Y6800000D03*
X11150000Y750000D03*
%TO.N,Net-(D5-A)*%
X16800000Y1600000D03*
X12000000Y-1200000D03*
%TD*%
D19*
%TO.N,CC1*%
X9300000Y-5500000D02*
X9300000Y-6600000D01*
X9300000Y-6600000D02*
X8600000Y-7300000D01*
%TO.N,CC2*%
X8000000Y-3700000D02*
X7800000Y-3500000D01*
X8000000Y-5900000D02*
X8000000Y-3700000D01*
D20*
%TO.N,+1V2*%
X10200000Y-2700000D02*
X11305000Y-3805000D01*
D19*
X13800000Y-10050000D02*
X12775000Y-9025000D01*
X14550000Y-10050000D02*
X13800000Y-10050000D01*
D20*
X11305000Y-3805000D02*
X15295000Y-3805000D01*
D21*
%TO.N,GNDPWR*%
X4620000Y4320000D02*
X4030000Y4320000D01*
D20*
X3000000Y-10000000D02*
X3302400Y-10302400D01*
X16350000Y12850000D02*
X19200000Y10000000D01*
X5850000Y12850000D02*
X16350000Y12850000D01*
X3000000Y-5350000D02*
X4030000Y-4320000D01*
X4030000Y4320000D02*
X4030000Y8970000D01*
X10400000Y-12100000D02*
X16050000Y-12100000D01*
X8602400Y-10302400D02*
X10400000Y-12100000D01*
X16100000Y-12150000D02*
X18250000Y-10000000D01*
X3000000Y-10000000D02*
X3000000Y-5350000D01*
X19200000Y10000000D02*
X20100000Y10000000D01*
X3000000Y10000000D02*
X5850000Y12850000D01*
D21*
X4030000Y-4320000D02*
X4620000Y-4320000D01*
D20*
X18250000Y-10000000D02*
X20100000Y-10000000D01*
X16050000Y-12100000D02*
X16100000Y-12150000D01*
X4030000Y8970000D02*
X3000000Y10000000D01*
X3302400Y-10302400D02*
X8602400Y-10302400D01*
D19*
%TO.N,EN-OPEN-COL*%
X20250000Y2637500D02*
X19500000Y3387500D01*
X19500000Y3387500D02*
X18887500Y4000000D01*
X20250000Y1150000D02*
X20250000Y2637500D01*
X18887500Y4000000D02*
X16900000Y4000000D01*
D20*
%TO.N,Net-(D4-A)*%
X11150000Y750000D02*
X12500000Y2100000D01*
X12500000Y2100000D02*
X12500000Y6800000D01*
D19*
%TO.N,Net-(D5-A)*%
X15700000Y1600000D02*
X16800000Y1600000D01*
X15700000Y1600000D02*
X12900000Y-1200000D01*
X12900000Y-1200000D02*
X12000000Y-1200000D01*
%TD*%
%TA.AperFunction,Conductor*%
%TO.N,GNDPWR*%
G36*
X1451307Y13179815D02*
G01*
X1497062Y13127011D01*
X1507006Y13057853D01*
X1477981Y12994297D01*
X1442721Y12966142D01*
X1275690Y12876862D01*
X1275672Y12876851D01*
X1002004Y12693992D01*
X1002000Y12693989D01*
X813917Y12539634D01*
X813917Y12539633D01*
X2059300Y11294251D01*
X1957670Y11220412D01*
X1779588Y11042330D01*
X1705747Y10940698D01*
X460365Y12186081D01*
X460364Y12186081D01*
X306010Y11997999D01*
X306007Y11997995D01*
X123148Y11724327D01*
X123137Y11724309D01*
X-32012Y11434044D01*
X-32014Y11434039D01*
X-157974Y11129946D01*
X-253524Y10814961D01*
X-253525Y10814956D01*
X-317738Y10492139D01*
X-350000Y10164571D01*
X-350000Y9835428D01*
X-317738Y9507860D01*
X-253525Y9185043D01*
X-253524Y9185038D01*
X-157974Y8870053D01*
X-32014Y8565960D01*
X-32012Y8565955D01*
X123137Y8275690D01*
X123154Y8275662D01*
X306218Y8001687D01*
X327096Y7935010D01*
X308611Y7867630D01*
X256632Y7820940D01*
X187662Y7809764D01*
X178924Y7811180D01*
X81799Y7830500D01*
X81797Y7830500D01*
X-81797Y7830500D01*
X-81799Y7830500D01*
X-178924Y7811180D01*
X-242248Y7798584D01*
X-393389Y7735979D01*
X-529413Y7645091D01*
X-645091Y7529413D01*
X-735979Y7393389D01*
X-798584Y7242248D01*
X-798585Y7242242D01*
X-830500Y7081799D01*
X-830500Y6918200D01*
X-815347Y6842025D01*
X-798584Y6757752D01*
X-793912Y6746474D01*
X-735980Y6606613D01*
X-735975Y6606604D01*
X-645091Y6470587D01*
X-645088Y6470583D01*
X-529416Y6354911D01*
X-529412Y6354908D01*
X-393395Y6264024D01*
X-393386Y6264019D01*
X-242248Y6201416D01*
X-242242Y6201414D01*
X-81799Y6169500D01*
X-81797Y6169500D01*
X81799Y6169500D01*
X242242Y6201414D01*
X242248Y6201416D01*
X393386Y6264019D01*
X393395Y6264024D01*
X529412Y6354908D01*
X529416Y6354911D01*
X645088Y6470583D01*
X645091Y6470587D01*
X735975Y6606604D01*
X735980Y6606613D01*
X793912Y6746474D01*
X798584Y6757752D01*
X815347Y6842025D01*
X830500Y6918200D01*
X830500Y7081799D01*
X811180Y7178924D01*
X817407Y7248516D01*
X860270Y7303693D01*
X926159Y7326938D01*
X994156Y7310871D01*
X1001687Y7306218D01*
X1275662Y7123154D01*
X1275690Y7123137D01*
X1565955Y6967987D01*
X1565960Y6967985D01*
X1870053Y6842025D01*
X2185038Y6746475D01*
X2185043Y6746474D01*
X2507860Y6682261D01*
X2835428Y6650000D01*
X3164572Y6650000D01*
X3492139Y6682261D01*
X3814956Y6746474D01*
X3814961Y6746475D01*
X4129946Y6842025D01*
X4434039Y6967985D01*
X4434044Y6967987D01*
X4724309Y7123137D01*
X4724327Y7123148D01*
X4998006Y7306014D01*
X5000453Y7307829D01*
X5001038Y7307038D01*
X5061651Y7332778D01*
X5130518Y7320983D01*
X5182076Y7273829D01*
X5200000Y7209611D01*
X5200000Y5331159D01*
X5180315Y5264120D01*
X5127511Y5218365D01*
X5058353Y5208421D01*
X5028547Y5216598D01*
X4871689Y5281570D01*
X4871681Y5281572D01*
X4678495Y5319999D01*
X4678492Y5320000D01*
X4280000Y5320000D01*
X4280000Y4620000D01*
X3780000Y4620000D01*
X3780000Y5320000D01*
X3381508Y5320000D01*
X3381504Y5319999D01*
X3188318Y5281572D01*
X3188306Y5281569D01*
X3006328Y5206192D01*
X3006315Y5206185D01*
X2842537Y5096751D01*
X2842533Y5096748D01*
X2703251Y4957466D01*
X2703248Y4957462D01*
X2593814Y4793684D01*
X2593807Y4793671D01*
X2518430Y4611692D01*
X2518430Y4611690D01*
X2510138Y4570000D01*
X3313012Y4570000D01*
X3295795Y4560060D01*
X3239940Y4504205D01*
X3200444Y4435796D01*
X3180000Y4359496D01*
X3180000Y4280504D01*
X3200444Y4204204D01*
X3239940Y4135795D01*
X3295795Y4079940D01*
X3313012Y4070000D01*
X2510138Y4070000D01*
X2518430Y4028309D01*
X2518430Y4028307D01*
X2593807Y3846328D01*
X2593814Y3846315D01*
X2703248Y3682537D01*
X2703251Y3682533D01*
X2842536Y3543248D01*
X3011387Y3430427D01*
X3009889Y3428185D01*
X3051323Y3386789D01*
X3066206Y3318523D01*
X3041819Y3253047D01*
X3040892Y3251824D01*
X3036283Y3245818D01*
X2959993Y3113681D01*
X2959992Y3113678D01*
X2920500Y2966293D01*
X2920500Y2813707D01*
X2955326Y2683733D01*
X2959993Y2666318D01*
X3036282Y2534182D01*
X3036287Y2534176D01*
X3144176Y2426287D01*
X3144182Y2426282D01*
X3276318Y2349993D01*
X3276317Y2349993D01*
X3320106Y2338259D01*
X3423707Y2310500D01*
X3423710Y2310500D01*
X3576290Y2310500D01*
X3576293Y2310500D01*
X3723678Y2349992D01*
X3723681Y2349993D01*
X3855817Y2426282D01*
X3855823Y2426287D01*
X3963712Y2534176D01*
X3963715Y2534179D01*
X4040008Y2666322D01*
X4079500Y2813707D01*
X4079500Y2966293D01*
X4040008Y3113678D01*
X3963715Y3245821D01*
X3855821Y3353715D01*
X3842003Y3361692D01*
X3793786Y3412257D01*
X3780000Y3469081D01*
X3780000Y4020000D01*
X4280000Y4020000D01*
X4280000Y3320000D01*
X4678495Y3320000D01*
X4871681Y3358427D01*
X4871693Y3358430D01*
X5028548Y3423401D01*
X5098017Y3430870D01*
X5160496Y3399595D01*
X5196148Y3339505D01*
X5200000Y3308840D01*
X5200000Y-3308840D01*
X5180315Y-3375879D01*
X5127511Y-3421634D01*
X5058353Y-3431578D01*
X5028548Y-3423401D01*
X4871693Y-3358430D01*
X4871681Y-3358427D01*
X4678495Y-3320000D01*
X4280000Y-3320000D01*
X4280000Y-4020000D01*
X3780000Y-4020000D01*
X3780000Y-3469081D01*
X3799685Y-3402042D01*
X3842004Y-3361692D01*
X3847654Y-3358430D01*
X3855821Y-3353715D01*
X3963715Y-3245821D01*
X4040008Y-3113678D01*
X4079500Y-2966293D01*
X4079500Y-2813707D01*
X4040008Y-2666322D01*
X3963715Y-2534179D01*
X3855821Y-2426285D01*
X3855819Y-2426284D01*
X3855817Y-2426282D01*
X3723681Y-2349993D01*
X3723682Y-2349993D01*
X3711595Y-2346754D01*
X3576293Y-2310500D01*
X3423707Y-2310500D01*
X3288404Y-2346754D01*
X3276318Y-2349993D01*
X3144182Y-2426282D01*
X3144176Y-2426287D01*
X3036287Y-2534176D01*
X3036282Y-2534182D01*
X2959993Y-2666318D01*
X2959992Y-2666322D01*
X2920500Y-2813707D01*
X2920500Y-2966293D01*
X2959992Y-3113678D01*
X2959993Y-3113681D01*
X3036283Y-3245818D01*
X3040892Y-3251824D01*
X3066088Y-3316993D01*
X3052051Y-3385438D01*
X3010060Y-3428441D01*
X3011387Y-3430427D01*
X2842536Y-3543248D01*
X2703251Y-3682533D01*
X2703248Y-3682537D01*
X2593814Y-3846315D01*
X2593807Y-3846328D01*
X2518430Y-4028307D01*
X2518430Y-4028309D01*
X2510138Y-4070000D01*
X3313012Y-4070000D01*
X3295795Y-4079940D01*
X3239940Y-4135795D01*
X3200444Y-4204204D01*
X3180000Y-4280504D01*
X3180000Y-4359496D01*
X3200444Y-4435796D01*
X3239940Y-4504205D01*
X3295795Y-4560060D01*
X3313012Y-4570000D01*
X2510138Y-4570000D01*
X2518430Y-4611690D01*
X2518430Y-4611692D01*
X2593807Y-4793671D01*
X2593814Y-4793684D01*
X2703248Y-4957462D01*
X2703251Y-4957466D01*
X2842533Y-5096748D01*
X2842537Y-5096751D01*
X3006315Y-5206185D01*
X3006328Y-5206192D01*
X3188306Y-5281569D01*
X3188318Y-5281572D01*
X3381504Y-5319999D01*
X3381508Y-5320000D01*
X3780000Y-5320000D01*
X3780000Y-4620000D01*
X4280000Y-4620000D01*
X4280000Y-5320000D01*
X4678492Y-5320000D01*
X4678495Y-5319999D01*
X4871681Y-5281572D01*
X4871689Y-5281570D01*
X5028547Y-5216598D01*
X5098017Y-5209129D01*
X5160496Y-5240404D01*
X5196148Y-5300493D01*
X5200000Y-5331159D01*
X5200000Y-7209611D01*
X5180315Y-7276650D01*
X5127511Y-7322405D01*
X5058353Y-7332349D01*
X5001006Y-7307083D01*
X5000453Y-7307829D01*
X4998006Y-7306014D01*
X4724327Y-7123148D01*
X4724309Y-7123137D01*
X4434044Y-6967987D01*
X4434039Y-6967985D01*
X4129946Y-6842025D01*
X3814961Y-6746475D01*
X3814956Y-6746474D01*
X3492139Y-6682261D01*
X3164572Y-6650000D01*
X2835428Y-6650000D01*
X2507860Y-6682261D01*
X2185043Y-6746474D01*
X2185038Y-6746475D01*
X1870053Y-6842025D01*
X1565960Y-6967985D01*
X1565955Y-6967987D01*
X1275690Y-7123137D01*
X1275672Y-7123148D01*
X1002004Y-7306007D01*
X1001999Y-7306010D01*
X813917Y-7460364D01*
X813917Y-7460365D01*
X2059301Y-8705748D01*
X1957670Y-8779588D01*
X1779588Y-8957670D01*
X1705748Y-9059301D01*
X460365Y-7813917D01*
X460364Y-7813917D01*
X306010Y-8001999D01*
X306007Y-8002004D01*
X123148Y-8275672D01*
X123137Y-8275690D01*
X-32012Y-8565955D01*
X-32014Y-8565960D01*
X-157974Y-8870053D01*
X-253524Y-9185038D01*
X-253525Y-9185043D01*
X-317738Y-9507860D01*
X-350000Y-9835428D01*
X-350000Y-10164571D01*
X-317738Y-10492139D01*
X-253525Y-10814956D01*
X-253524Y-10814961D01*
X-157974Y-11129946D01*
X-32014Y-11434039D01*
X-32012Y-11434044D01*
X123137Y-11724309D01*
X123148Y-11724327D01*
X306007Y-11997995D01*
X306010Y-11997999D01*
X460364Y-12186081D01*
X460365Y-12186081D01*
X1705747Y-10940698D01*
X1779588Y-11042330D01*
X1957670Y-11220412D01*
X2059300Y-11294250D01*
X813917Y-12539633D01*
X813917Y-12539634D01*
X1002000Y-12693989D01*
X1002004Y-12693992D01*
X1275672Y-12876851D01*
X1275690Y-12876862D01*
X1442721Y-12966142D01*
X1492565Y-13015104D01*
X1508026Y-13083242D01*
X1484194Y-13148922D01*
X1428637Y-13191290D01*
X1384268Y-13199500D01*
X-990243Y-13199500D01*
X-1009638Y-13197973D01*
X-1025888Y-13195399D01*
X-1042250Y-13192808D01*
X-1079144Y-13180821D01*
X-1099762Y-13170316D01*
X-1131150Y-13147511D01*
X-1147511Y-13131150D01*
X-1170316Y-13099762D01*
X-1180821Y-13079144D01*
X-1192808Y-13042250D01*
X-1197973Y-13009642D01*
X-1199500Y-12990243D01*
X-1199500Y-5253878D01*
X-1179815Y-5186839D01*
X-1127011Y-5141084D01*
X-1057853Y-5131140D01*
X-1006609Y-5150776D01*
X-923683Y-5206185D01*
X-923671Y-5206192D01*
X-741693Y-5281569D01*
X-741681Y-5281572D01*
X-548495Y-5319999D01*
X-548492Y-5320000D01*
X-400000Y-5320000D01*
X-400000Y-4620000D01*
X100000Y-4620000D01*
X100000Y-5320000D01*
X248492Y-5320000D01*
X248495Y-5319999D01*
X441681Y-5281572D01*
X441693Y-5281569D01*
X623671Y-5206192D01*
X623684Y-5206185D01*
X787462Y-5096751D01*
X787466Y-5096748D01*
X926748Y-4957466D01*
X926751Y-4957462D01*
X1036185Y-4793684D01*
X1036192Y-4793671D01*
X1111569Y-4611692D01*
X1111569Y-4611690D01*
X1119862Y-4570000D01*
X316988Y-4570000D01*
X334205Y-4560060D01*
X390060Y-4504205D01*
X429556Y-4435796D01*
X450000Y-4359496D01*
X450000Y-4280504D01*
X429556Y-4204204D01*
X390060Y-4135795D01*
X334205Y-4079940D01*
X316988Y-4070000D01*
X1119862Y-4070000D01*
X1111569Y-4028309D01*
X1111569Y-4028307D01*
X1036192Y-3846328D01*
X1036185Y-3846315D01*
X926751Y-3682537D01*
X926748Y-3682533D01*
X787466Y-3543251D01*
X787462Y-3543248D01*
X623684Y-3433814D01*
X623671Y-3433807D01*
X441693Y-3358430D01*
X441681Y-3358427D01*
X248495Y-3320000D01*
X100000Y-3320000D01*
X100000Y-4020000D01*
X-400000Y-4020000D01*
X-400000Y-3320000D01*
X-548495Y-3320000D01*
X-741681Y-3358427D01*
X-741693Y-3358430D01*
X-923671Y-3433807D01*
X-923684Y-3433814D01*
X-1006609Y-3489223D01*
X-1073287Y-3510101D01*
X-1140667Y-3491616D01*
X-1187357Y-3439637D01*
X-1199500Y-3386121D01*
X-1199500Y3386121D01*
X-1179815Y3453160D01*
X-1127011Y3498915D01*
X-1057853Y3508859D01*
X-1006609Y3489223D01*
X-923684Y3433814D01*
X-923671Y3433807D01*
X-741693Y3358430D01*
X-741681Y3358427D01*
X-548495Y3320000D01*
X-400000Y3320000D01*
X-400000Y4020000D01*
X100000Y4020000D01*
X100000Y3320000D01*
X248495Y3320000D01*
X441681Y3358427D01*
X441693Y3358430D01*
X623671Y3433807D01*
X623684Y3433814D01*
X787462Y3543248D01*
X787466Y3543251D01*
X926748Y3682533D01*
X926751Y3682537D01*
X1036185Y3846315D01*
X1036192Y3846328D01*
X1111569Y4028307D01*
X1111569Y4028309D01*
X1119862Y4070000D01*
X316988Y4070000D01*
X334205Y4079940D01*
X390060Y4135795D01*
X429556Y4204204D01*
X450000Y4280504D01*
X450000Y4359496D01*
X429556Y4435796D01*
X390060Y4504205D01*
X334205Y4560060D01*
X316988Y4570000D01*
X1119862Y4570000D01*
X1111569Y4611690D01*
X1111569Y4611692D01*
X1036192Y4793671D01*
X1036185Y4793684D01*
X926751Y4957462D01*
X926748Y4957466D01*
X787466Y5096748D01*
X787462Y5096751D01*
X623684Y5206185D01*
X623671Y5206192D01*
X441693Y5281569D01*
X441681Y5281572D01*
X248495Y5319999D01*
X248492Y5320000D01*
X100000Y5320000D01*
X100000Y4620000D01*
X-400000Y4620000D01*
X-400000Y5320000D01*
X-548492Y5320000D01*
X-548495Y5319999D01*
X-741681Y5281572D01*
X-741693Y5281569D01*
X-923671Y5206192D01*
X-923683Y5206185D01*
X-1006609Y5150776D01*
X-1073286Y5129898D01*
X-1140666Y5148382D01*
X-1187357Y5200361D01*
X-1199500Y5253878D01*
X-1199500Y12990244D01*
X-1197973Y13009643D01*
X-1192808Y13042251D01*
X-1180820Y13079147D01*
X-1170315Y13099764D01*
X-1147511Y13131150D01*
X-1131150Y13147511D01*
X-1099762Y13170316D01*
X-1079144Y13180821D01*
X-1042250Y13192808D01*
X-1025888Y13195399D01*
X-1009638Y13197973D01*
X-990243Y13199500D01*
X1384268Y13199500D01*
X1451307Y13179815D01*
G37*
%TD.AperFunction*%
%TD*%
%TA.AperFunction,Conductor*%
%TO.N,GND*%
G36*
X24756772Y13197890D02*
G01*
X24761863Y13198989D01*
X24785464Y13188568D01*
X24810010Y13180593D01*
X24813072Y13176378D01*
X24817836Y13174275D01*
X24830805Y13151970D01*
X24845974Y13131093D01*
X24845974Y13125884D01*
X24848592Y13121382D01*
X24845974Y13095712D01*
X24845974Y13069907D01*
X24842385Y13060515D01*
X24810880Y12989161D01*
X24802414Y12969988D01*
X24799500Y12944869D01*
X24799500Y11055139D01*
X24799501Y11055136D01*
X24802414Y11030009D01*
X24847794Y10927235D01*
X24927235Y10847794D01*
X25030011Y10802414D01*
X25055130Y10799500D01*
X25055135Y10799500D01*
X25180927Y10799500D01*
X25239118Y10780593D01*
X25275082Y10731093D01*
X25275082Y10669907D01*
X25250931Y10630496D01*
X25242279Y10621844D01*
X25135521Y10462071D01*
X25135521Y10462070D01*
X25061988Y10284544D01*
X25061988Y10284542D01*
X25024500Y10096080D01*
X25024500Y9903919D01*
X25061988Y9715457D01*
X25061988Y9715455D01*
X25135521Y9537929D01*
X25135521Y9537928D01*
X25242279Y9378155D01*
X25378155Y9242279D01*
X25537927Y9135522D01*
X25644295Y9091464D01*
X25690820Y9051727D01*
X25705104Y8992233D01*
X25681689Y8935705D01*
X25644295Y8908536D01*
X25537927Y8864477D01*
X25378155Y8757720D01*
X25242279Y8621844D01*
X25135521Y8462071D01*
X25135521Y8462070D01*
X25061988Y8284544D01*
X25061988Y8284542D01*
X25024500Y8096080D01*
X25024500Y7903919D01*
X25061988Y7715457D01*
X25061988Y7715455D01*
X25135521Y7537929D01*
X25135521Y7537928D01*
X25242279Y7378155D01*
X25378156Y7242278D01*
X25418007Y7215650D01*
X25455886Y7167600D01*
X25458287Y7106461D01*
X25424293Y7055588D01*
X25407948Y7045126D01*
X25371068Y7026335D01*
X25371059Y7026330D01*
X25218257Y6915313D01*
X25084686Y6781742D01*
X24973669Y6628940D01*
X24973667Y6628936D01*
X24887913Y6460633D01*
X24835721Y6300000D01*
X25480385Y6300000D01*
X25440889Y6231591D01*
X25400000Y6078991D01*
X25400000Y5921009D01*
X25440889Y5768409D01*
X25480385Y5700000D01*
X24835722Y5700000D01*
X24835721Y5699999D01*
X24887913Y5539366D01*
X24973667Y5371063D01*
X24973669Y5371059D01*
X25084686Y5218257D01*
X25218257Y5084686D01*
X25371059Y4973669D01*
X25371063Y4973667D01*
X25539366Y4887913D01*
X25699999Y4835721D01*
X25700000Y4835721D01*
X25700000Y5480385D01*
X25768409Y5440889D01*
X25921009Y5400000D01*
X26078991Y5400000D01*
X26231591Y5440889D01*
X26300000Y5480385D01*
X26300000Y4835721D01*
X26460633Y4887913D01*
X26628936Y4973667D01*
X26628940Y4973669D01*
X26781742Y5084686D01*
X26915310Y5218254D01*
X27020407Y5362908D01*
X27069907Y5398872D01*
X27131092Y5398872D01*
X27180593Y5362908D01*
X27199500Y5304717D01*
X27199500Y4248180D01*
X27180593Y4189989D01*
X27131093Y4154025D01*
X27069907Y4154025D01*
X27060512Y4157616D01*
X26969991Y4197585D01*
X26944865Y4200500D01*
X25055136Y4200499D01*
X25030009Y4197585D01*
X24927235Y4152206D01*
X24847794Y4072765D01*
X24802415Y3969991D01*
X24802414Y3969988D01*
X24799500Y3944869D01*
X24799500Y2055139D01*
X24799501Y2055136D01*
X24802414Y2030009D01*
X24847794Y1927235D01*
X24927235Y1847794D01*
X25030011Y1802414D01*
X25055130Y1799500D01*
X25055135Y1799500D01*
X25180927Y1799500D01*
X25239118Y1780593D01*
X25275082Y1731093D01*
X25275082Y1669907D01*
X25250931Y1630496D01*
X25242279Y1621844D01*
X25135521Y1462071D01*
X25135521Y1462070D01*
X25065952Y1294114D01*
X25061988Y1284543D01*
X25058736Y1268193D01*
X25024500Y1096080D01*
X25024500Y903919D01*
X25061988Y715457D01*
X25061988Y715455D01*
X25135521Y537929D01*
X25135521Y537928D01*
X25242279Y378155D01*
X25378155Y242279D01*
X25537927Y135522D01*
X25644295Y91464D01*
X25690820Y51727D01*
X25705104Y-7767D01*
X25681689Y-64295D01*
X25644295Y-91464D01*
X25537927Y-135522D01*
X25378155Y-242279D01*
X25242279Y-378155D01*
X25135521Y-537928D01*
X25135521Y-537929D01*
X25061988Y-715455D01*
X25061988Y-715457D01*
X25024500Y-903919D01*
X25024500Y-1096080D01*
X25061988Y-1284542D01*
X25061988Y-1284544D01*
X25135521Y-1462070D01*
X25135521Y-1462071D01*
X25242279Y-1621844D01*
X25378155Y-1757720D01*
X25418006Y-1784348D01*
X25455885Y-1832398D01*
X25458287Y-1893536D01*
X25424294Y-1944410D01*
X25407949Y-1954873D01*
X25388862Y-1964597D01*
X25844709Y-2420444D01*
X25768409Y-2440889D01*
X25631592Y-2519881D01*
X25519881Y-2631592D01*
X25440889Y-2768409D01*
X25420444Y-2844709D01*
X24964597Y-2388862D01*
X24887916Y-2539359D01*
X24829546Y-2719003D01*
X24800000Y-2905554D01*
X24800000Y-3094445D01*
X24829546Y-3280996D01*
X24887916Y-3460640D01*
X24964597Y-3611136D01*
X25420443Y-3155289D01*
X25440889Y-3231591D01*
X25519881Y-3368408D01*
X25631592Y-3480119D01*
X25768409Y-3559111D01*
X25844707Y-3579555D01*
X25388862Y-4035401D01*
X25539364Y-4112085D01*
X25719003Y-4170453D01*
X25905555Y-4200000D01*
X26094445Y-4200000D01*
X26280996Y-4170453D01*
X26460642Y-4112083D01*
X26460643Y-4112082D01*
X26611136Y-4035401D01*
X26155290Y-3579555D01*
X26231591Y-3559111D01*
X26368408Y-3480119D01*
X26480119Y-3368408D01*
X26559111Y-3231591D01*
X26579555Y-3155290D01*
X27035401Y-3611136D01*
X27085013Y-3603279D01*
X27145445Y-3612850D01*
X27188710Y-3656115D01*
X27199500Y-3701060D01*
X27199500Y-4751819D01*
X27180593Y-4810010D01*
X27131093Y-4845974D01*
X27069907Y-4845974D01*
X27060512Y-4842384D01*
X27052155Y-4838694D01*
X26969991Y-4802415D01*
X26969990Y-4802414D01*
X26969988Y-4802414D01*
X26944868Y-4799500D01*
X25055139Y-4799500D01*
X25055136Y-4799501D01*
X25030009Y-4802414D01*
X24927235Y-4847794D01*
X24847794Y-4927235D01*
X24802414Y-5030011D01*
X24799500Y-5055130D01*
X24799500Y-6944860D01*
X24799501Y-6944863D01*
X24802414Y-6969990D01*
X24827756Y-7027385D01*
X24847794Y-7072765D01*
X24927235Y-7152206D01*
X25030009Y-7197585D01*
X25055135Y-7200500D01*
X25180928Y-7200499D01*
X25239117Y-7219406D01*
X25275081Y-7268906D01*
X25275082Y-7330091D01*
X25250933Y-7369500D01*
X25242282Y-7378151D01*
X25135521Y-7537928D01*
X25135521Y-7537929D01*
X25061988Y-7715455D01*
X25061988Y-7715457D01*
X25024500Y-7903919D01*
X25024500Y-8096080D01*
X25061988Y-8284542D01*
X25061988Y-8284544D01*
X25135521Y-8462070D01*
X25135521Y-8462071D01*
X25242279Y-8621844D01*
X25378155Y-8757720D01*
X25537927Y-8864477D01*
X25644295Y-8908536D01*
X25690820Y-8948273D01*
X25705104Y-9007767D01*
X25681689Y-9064295D01*
X25644295Y-9091464D01*
X25537927Y-9135522D01*
X25378155Y-9242279D01*
X25242279Y-9378155D01*
X25135521Y-9537928D01*
X25135521Y-9537929D01*
X25061988Y-9715455D01*
X25061988Y-9715457D01*
X25024500Y-9903919D01*
X25024500Y-10096080D01*
X25061988Y-10284542D01*
X25061988Y-10284544D01*
X25135521Y-10462070D01*
X25135521Y-10462071D01*
X25242279Y-10621844D01*
X25378155Y-10757720D01*
X25418006Y-10784348D01*
X25455885Y-10832398D01*
X25458287Y-10893536D01*
X25424294Y-10944410D01*
X25407949Y-10954873D01*
X25388862Y-10964597D01*
X25844709Y-11420444D01*
X25768409Y-11440889D01*
X25631592Y-11519881D01*
X25519881Y-11631592D01*
X25440889Y-11768409D01*
X25420444Y-11844709D01*
X24964597Y-11388862D01*
X24887916Y-11539359D01*
X24829546Y-11719003D01*
X24800000Y-11905554D01*
X24800000Y-12094445D01*
X24829546Y-12280996D01*
X24887916Y-12460640D01*
X24964597Y-12611136D01*
X25420443Y-12155289D01*
X25440889Y-12231591D01*
X25519881Y-12368408D01*
X25631592Y-12480119D01*
X25768409Y-12559111D01*
X25844707Y-12579555D01*
X25388862Y-13035401D01*
X25396720Y-13085013D01*
X25387149Y-13145445D01*
X25343884Y-13188710D01*
X25298939Y-13199500D01*
X21077930Y-13199500D01*
X21019739Y-13180593D01*
X20983775Y-13131093D01*
X20983775Y-13069907D01*
X21019739Y-13020407D01*
X21045232Y-13007056D01*
X21163611Y-12965632D01*
X21307544Y-12915269D01*
X21626358Y-12761736D01*
X21925976Y-12573473D01*
X22060354Y-12466310D01*
X22202622Y-12352856D01*
X22202623Y-12352854D01*
X22202633Y-12352847D01*
X22452847Y-12102633D01*
X22496654Y-12047700D01*
X22547716Y-12013993D01*
X22608839Y-12016737D01*
X22656677Y-12054885D01*
X22671153Y-12090110D01*
X22693634Y-12203127D01*
X22701416Y-12242248D01*
X22717466Y-12280996D01*
X22764020Y-12393388D01*
X22821972Y-12480119D01*
X22854909Y-12529413D01*
X22970587Y-12645091D01*
X23106611Y-12735979D01*
X23257752Y-12798584D01*
X23418203Y-12830500D01*
X23418204Y-12830500D01*
X23581796Y-12830500D01*
X23581797Y-12830500D01*
X23742248Y-12798584D01*
X23893389Y-12735979D01*
X24029413Y-12645091D01*
X24145091Y-12529413D01*
X24235979Y-12393389D01*
X24298584Y-12242248D01*
X24330500Y-12081797D01*
X24330500Y-11918203D01*
X24298584Y-11757752D01*
X24235979Y-11606611D01*
X24145091Y-11470587D01*
X24029413Y-11354909D01*
X24029409Y-11354906D01*
X23893388Y-11264020D01*
X23742246Y-11201415D01*
X23581799Y-11169500D01*
X23581797Y-11169500D01*
X23418203Y-11169500D01*
X23418200Y-11169500D01*
X23257755Y-11201415D01*
X23257753Y-11201415D01*
X23257752Y-11201416D01*
X23246671Y-11206006D01*
X23181074Y-11233177D01*
X23120077Y-11237976D01*
X23067908Y-11206006D01*
X23044494Y-11149478D01*
X23049744Y-11109018D01*
X23132140Y-10873544D01*
X23210881Y-10528560D01*
X23250500Y-10176928D01*
X23250500Y-9823072D01*
X23210881Y-9471440D01*
X23132140Y-9126456D01*
X23120781Y-9093995D01*
X23055887Y-8908536D01*
X23015269Y-8792456D01*
X22861736Y-8473642D01*
X22673473Y-8174024D01*
X22673470Y-8174020D01*
X22673468Y-8174017D01*
X22452856Y-7897377D01*
X22452850Y-7897371D01*
X22452847Y-7897367D01*
X22202633Y-7647153D01*
X22202628Y-7647149D01*
X22202622Y-7647143D01*
X21925982Y-7426531D01*
X21925979Y-7426529D01*
X21626355Y-7238262D01*
X21626343Y-7238256D01*
X21307544Y-7084731D01*
X21307542Y-7084730D01*
X20973547Y-6967860D01*
X20628558Y-6889118D01*
X20276929Y-6849500D01*
X20276928Y-6849500D01*
X19923072Y-6849500D01*
X19923070Y-6849500D01*
X19571441Y-6889118D01*
X19226452Y-6967860D01*
X18892457Y-7084730D01*
X18892455Y-7084731D01*
X18573656Y-7238256D01*
X18573644Y-7238262D01*
X18274020Y-7426529D01*
X18274017Y-7426531D01*
X17997377Y-7647143D01*
X17747143Y-7897377D01*
X17526531Y-8174017D01*
X17526529Y-8174020D01*
X17338262Y-8473644D01*
X17338256Y-8473656D01*
X17184731Y-8792455D01*
X17184730Y-8792457D01*
X17067860Y-9126452D01*
X16989118Y-9471441D01*
X16949500Y-9823070D01*
X16949500Y-10176929D01*
X16979102Y-10439657D01*
X16966828Y-10499598D01*
X16950728Y-10520745D01*
X15950971Y-11520504D01*
X15896454Y-11548281D01*
X15880967Y-11549500D01*
X15428673Y-11549500D01*
X15370482Y-11530593D01*
X15334518Y-11481093D01*
X15334518Y-11419907D01*
X15370480Y-11370408D01*
X15560083Y-11232655D01*
X15732655Y-11060083D01*
X15876106Y-10862639D01*
X15986904Y-10645185D01*
X16062321Y-10413076D01*
X16100500Y-10172027D01*
X16100500Y-9927973D01*
X16100500Y-9927969D01*
X16062322Y-9686928D01*
X16048951Y-9645777D01*
X15986904Y-9454815D01*
X15931505Y-9346088D01*
X15876107Y-9237362D01*
X15836878Y-9183369D01*
X15732655Y-9039917D01*
X15560083Y-8867345D01*
X15457007Y-8792456D01*
X15362637Y-8723892D01*
X15145185Y-8613096D01*
X14913071Y-8537677D01*
X14672030Y-8499500D01*
X14672027Y-8499500D01*
X14427973Y-8499500D01*
X14427970Y-8499500D01*
X14186928Y-8537677D01*
X13954814Y-8613096D01*
X13737361Y-8723893D01*
X13737357Y-8723895D01*
X13586165Y-8833743D01*
X13527975Y-8852650D01*
X13469784Y-8833742D01*
X13436511Y-8791535D01*
X13395777Y-8693193D01*
X13395771Y-8693182D01*
X13319114Y-8578458D01*
X13221541Y-8480885D01*
X13106817Y-8404228D01*
X13106806Y-8404222D01*
X12979328Y-8351420D01*
X12843995Y-8324500D01*
X12843993Y-8324500D01*
X12706007Y-8324500D01*
X12706004Y-8324500D01*
X12570672Y-8351420D01*
X12570670Y-8351420D01*
X12443193Y-8404222D01*
X12443182Y-8404228D01*
X12328458Y-8480885D01*
X12230885Y-8578458D01*
X12154228Y-8693182D01*
X12154222Y-8693193D01*
X12101420Y-8820670D01*
X12101420Y-8820672D01*
X12074500Y-8956004D01*
X12074500Y-9093995D01*
X12101420Y-9229327D01*
X12101420Y-9229329D01*
X12154222Y-9356806D01*
X12154228Y-9356817D01*
X12230885Y-9471541D01*
X12328458Y-9569114D01*
X12443182Y-9645771D01*
X12443193Y-9645777D01*
X12487150Y-9663984D01*
X12570672Y-9698580D01*
X12706007Y-9725500D01*
X12797389Y-9725500D01*
X12804986Y-9727968D01*
X12812876Y-9726719D01*
X12833531Y-9737243D01*
X12855580Y-9744407D01*
X12867393Y-9754496D01*
X12970504Y-9857607D01*
X12998281Y-9912124D01*
X12999500Y-9927611D01*
X12999500Y-10172030D01*
X13037677Y-10413071D01*
X13113096Y-10645185D01*
X13223892Y-10862637D01*
X13283304Y-10944410D01*
X13367345Y-11060083D01*
X13539917Y-11232655D01*
X13729519Y-11370408D01*
X13765482Y-11419907D01*
X13765482Y-11481092D01*
X13729518Y-11530593D01*
X13671327Y-11549500D01*
X10669033Y-11549500D01*
X10610842Y-11530593D01*
X10599029Y-11520504D01*
X9836244Y-10757719D01*
X8940415Y-9861890D01*
X8814885Y-9789416D01*
X8814882Y-9789415D01*
X8811337Y-9788465D01*
X8807792Y-9787515D01*
X8807790Y-9787514D01*
X8807790Y-9787515D01*
X8674875Y-9751900D01*
X8674874Y-9751900D01*
X6230953Y-9751900D01*
X6172762Y-9732993D01*
X6136798Y-9683493D01*
X6132575Y-9663984D01*
X6130523Y-9645775D01*
X6110881Y-9471440D01*
X6032140Y-9126456D01*
X6020781Y-9093995D01*
X5955887Y-8908536D01*
X5915269Y-8792456D01*
X5761736Y-8473642D01*
X5573473Y-8174024D01*
X5573470Y-8174020D01*
X5573468Y-8174017D01*
X5352856Y-7897377D01*
X5352850Y-7897371D01*
X5352847Y-7897367D01*
X5217113Y-7761633D01*
X5189338Y-7707119D01*
X5198909Y-7646687D01*
X5237137Y-7606175D01*
X5327571Y-7553286D01*
X5380375Y-7507531D01*
X5422553Y-7462798D01*
X5473439Y-7362722D01*
X5493124Y-7295683D01*
X5505500Y-7209611D01*
X5505500Y-5331159D01*
X5503118Y-5293084D01*
X5499266Y-5262418D01*
X5497454Y-5250045D01*
X5458883Y-5144607D01*
X5423231Y-5084518D01*
X5386696Y-5035065D01*
X5386694Y-5035063D01*
X5297245Y-4967220D01*
X5297244Y-4967219D01*
X5274602Y-4955885D01*
X5257493Y-4947320D01*
X5213921Y-4904365D01*
X5203920Y-4844002D01*
X5219494Y-4803791D01*
X5220414Y-4802415D01*
X5289394Y-4699179D01*
X5349737Y-4553497D01*
X5380500Y-4398842D01*
X5380500Y-4241158D01*
X5349737Y-4086503D01*
X5289394Y-3940821D01*
X5289393Y-3940819D01*
X5289390Y-3940814D01*
X5220004Y-3836972D01*
X5203395Y-3778084D01*
X5224572Y-3720680D01*
X5252335Y-3696516D01*
X5327571Y-3652515D01*
X5380375Y-3606760D01*
X5422553Y-3562027D01*
X5473439Y-3461951D01*
X5493124Y-3394912D01*
X5495560Y-3377969D01*
X6249500Y-3377969D01*
X6249500Y-3622030D01*
X6287677Y-3863071D01*
X6363096Y-4095185D01*
X6473892Y-4312637D01*
X6536522Y-4398840D01*
X6617345Y-4510083D01*
X6789917Y-4682655D01*
X6933369Y-4786878D01*
X6987362Y-4826107D01*
X7026354Y-4845974D01*
X7204815Y-4936904D01*
X7436924Y-5012321D01*
X7436927Y-5012321D01*
X7436929Y-5012322D01*
X7465985Y-5016924D01*
X7520502Y-5044700D01*
X7548281Y-5099216D01*
X7549500Y-5114705D01*
X7549500Y-5318836D01*
X7530593Y-5377027D01*
X7520504Y-5388840D01*
X7455889Y-5453454D01*
X7455885Y-5453458D01*
X7379228Y-5568182D01*
X7379222Y-5568193D01*
X7326420Y-5695670D01*
X7326420Y-5695672D01*
X7299500Y-5831004D01*
X7299500Y-5968995D01*
X7326420Y-6104327D01*
X7326420Y-6104329D01*
X7379222Y-6231806D01*
X7379228Y-6231817D01*
X7455885Y-6346541D01*
X7553458Y-6444114D01*
X7668182Y-6520771D01*
X7668193Y-6520777D01*
X7693099Y-6531093D01*
X7795672Y-6573580D01*
X7931007Y-6600500D01*
X7931008Y-6600500D01*
X8069836Y-6600500D01*
X8128027Y-6619407D01*
X8163991Y-6668907D01*
X8163991Y-6730093D01*
X8139840Y-6769504D01*
X8055889Y-6853454D01*
X8055885Y-6853458D01*
X7979228Y-6968182D01*
X7979222Y-6968193D01*
X7926420Y-7095670D01*
X7926420Y-7095672D01*
X7899500Y-7231004D01*
X7899500Y-7368995D01*
X7926420Y-7504327D01*
X7926420Y-7504329D01*
X7979222Y-7631806D01*
X7979228Y-7631817D01*
X8055885Y-7746541D01*
X8153458Y-7844114D01*
X8268182Y-7920771D01*
X8268193Y-7920777D01*
X8315283Y-7940282D01*
X8395672Y-7973580D01*
X8531007Y-8000500D01*
X8531008Y-8000500D01*
X8668992Y-8000500D01*
X8668993Y-8000500D01*
X8804328Y-7973580D01*
X8931811Y-7920775D01*
X9046542Y-7844114D01*
X9144114Y-7746542D01*
X9220775Y-7631811D01*
X9273580Y-7504328D01*
X9300500Y-7368993D01*
X9300500Y-7277610D01*
X9319407Y-7219419D01*
X9329490Y-7207612D01*
X9660489Y-6876614D01*
X9694731Y-6817304D01*
X9719799Y-6773886D01*
X9750500Y-6659309D01*
X9750500Y-6081164D01*
X9769407Y-6022973D01*
X9779496Y-6011160D01*
X9844114Y-5946542D01*
X9920775Y-5831811D01*
X9973580Y-5704328D01*
X10000500Y-5568993D01*
X10000500Y-5431007D01*
X9973580Y-5295672D01*
X9920775Y-5168189D01*
X9920774Y-5168187D01*
X9920771Y-5168182D01*
X9844114Y-5053458D01*
X9746541Y-4955885D01*
X9631817Y-4879228D01*
X9631806Y-4879222D01*
X9504328Y-4826420D01*
X9368995Y-4799500D01*
X9368993Y-4799500D01*
X9231007Y-4799500D01*
X9231004Y-4799500D01*
X9095672Y-4826420D01*
X9095670Y-4826420D01*
X8968193Y-4879222D01*
X8968182Y-4879228D01*
X8853458Y-4955885D01*
X8755885Y-5053458D01*
X8679228Y-5168182D01*
X8679222Y-5168193D01*
X8640964Y-5260559D01*
X8601228Y-5307085D01*
X8541733Y-5321369D01*
X8485205Y-5297954D01*
X8453235Y-5245785D01*
X8450500Y-5222674D01*
X8450500Y-4969386D01*
X8469407Y-4911195D01*
X8504554Y-4881177D01*
X8612639Y-4826106D01*
X8810083Y-4682655D01*
X8982655Y-4510083D01*
X9126106Y-4312639D01*
X9236904Y-4095185D01*
X9312321Y-3863076D01*
X9320320Y-3812575D01*
X9350500Y-3622030D01*
X9350500Y-3377969D01*
X9312322Y-3136928D01*
X9312321Y-3136924D01*
X9236904Y-2904815D01*
X9126106Y-2687361D01*
X9085160Y-2631004D01*
X9499500Y-2631004D01*
X9499500Y-2768995D01*
X9526420Y-2904327D01*
X9526420Y-2904329D01*
X9579222Y-3031806D01*
X9579228Y-3031817D01*
X9655885Y-3146541D01*
X9753458Y-3244114D01*
X9868182Y-3320771D01*
X9868193Y-3320777D01*
X9915283Y-3340282D01*
X9995672Y-3373580D01*
X10090277Y-3392398D01*
X10140967Y-3419492D01*
X10966985Y-4245510D01*
X11050059Y-4293472D01*
X11092515Y-4317984D01*
X11232525Y-4355500D01*
X11232526Y-4355500D01*
X11377474Y-4355500D01*
X14827984Y-4355500D01*
X14882986Y-4372185D01*
X14963182Y-4425771D01*
X14963193Y-4425777D01*
X15010283Y-4445282D01*
X15090672Y-4478580D01*
X15226007Y-4505500D01*
X15226008Y-4505500D01*
X15363992Y-4505500D01*
X15363993Y-4505500D01*
X15499328Y-4478580D01*
X15626811Y-4425775D01*
X15741542Y-4349114D01*
X15839114Y-4251542D01*
X15915775Y-4136811D01*
X15968580Y-4009328D01*
X15995500Y-3873993D01*
X15995500Y-3736007D01*
X15968580Y-3600672D01*
X15950978Y-3558177D01*
X15915777Y-3473193D01*
X15915771Y-3473182D01*
X15839114Y-3358458D01*
X15741541Y-3260885D01*
X15626817Y-3184228D01*
X15626806Y-3184222D01*
X15499328Y-3131420D01*
X15363995Y-3104500D01*
X15363993Y-3104500D01*
X15226007Y-3104500D01*
X15226004Y-3104500D01*
X15090672Y-3131420D01*
X15090670Y-3131420D01*
X14963193Y-3184222D01*
X14963182Y-3184228D01*
X14882986Y-3237815D01*
X14827984Y-3254500D01*
X11574033Y-3254500D01*
X11515842Y-3235593D01*
X11504029Y-3225504D01*
X10919492Y-2640967D01*
X10892398Y-2590277D01*
X10889505Y-2575734D01*
X10873580Y-2495672D01*
X10833952Y-2400000D01*
X10820777Y-2368193D01*
X10820771Y-2368182D01*
X10744114Y-2253458D01*
X10646541Y-2155885D01*
X10531817Y-2079228D01*
X10531806Y-2079222D01*
X10404328Y-2026420D01*
X10268995Y-1999500D01*
X10268993Y-1999500D01*
X10131007Y-1999500D01*
X10131004Y-1999500D01*
X9995672Y-2026420D01*
X9995670Y-2026420D01*
X9868193Y-2079222D01*
X9868182Y-2079228D01*
X9753458Y-2155885D01*
X9655885Y-2253458D01*
X9579228Y-2368182D01*
X9579222Y-2368193D01*
X9526420Y-2495670D01*
X9526420Y-2495672D01*
X9499500Y-2631004D01*
X9085160Y-2631004D01*
X8982655Y-2489917D01*
X8810083Y-2317345D01*
X8720623Y-2252348D01*
X8612637Y-2173892D01*
X8395185Y-2063096D01*
X8163071Y-1987677D01*
X7922030Y-1949500D01*
X7922027Y-1949500D01*
X7677973Y-1949500D01*
X7677970Y-1949500D01*
X7436928Y-1987677D01*
X7204814Y-2063096D01*
X6987362Y-2173892D01*
X6789918Y-2317344D01*
X6617344Y-2489918D01*
X6473892Y-2687362D01*
X6363096Y-2904814D01*
X6287677Y-3136928D01*
X6249500Y-3377969D01*
X5495560Y-3377969D01*
X5505500Y-3308840D01*
X5505500Y-1131004D01*
X11299500Y-1131004D01*
X11299500Y-1268995D01*
X11326420Y-1404327D01*
X11326420Y-1404329D01*
X11379222Y-1531806D01*
X11379228Y-1531817D01*
X11455885Y-1646541D01*
X11553458Y-1744114D01*
X11668182Y-1820771D01*
X11668193Y-1820777D01*
X11715283Y-1840282D01*
X11795672Y-1873580D01*
X11931007Y-1900500D01*
X11931008Y-1900500D01*
X12068992Y-1900500D01*
X12068993Y-1900500D01*
X12204328Y-1873580D01*
X12331811Y-1820775D01*
X12446542Y-1744114D01*
X12511160Y-1679496D01*
X12565677Y-1651719D01*
X12581164Y-1650500D01*
X12959309Y-1650500D01*
X13049669Y-1626287D01*
X13049672Y-1626287D01*
X13062903Y-1622741D01*
X13073887Y-1619799D01*
X13176614Y-1560489D01*
X15857607Y1120504D01*
X15912124Y1148281D01*
X15927611Y1149500D01*
X16218836Y1149500D01*
X16277027Y1130593D01*
X16288840Y1120504D01*
X16353454Y1055889D01*
X16353458Y1055885D01*
X16468182Y979228D01*
X16468193Y979222D01*
X16595671Y926420D01*
X16731004Y899500D01*
X16731007Y899500D01*
X16868995Y899500D01*
X16959216Y917446D01*
X17004328Y926420D01*
X17004329Y926420D01*
X17131806Y979222D01*
X17131817Y979228D01*
X17246541Y1055885D01*
X17344114Y1153458D01*
X17420773Y1268185D01*
X17420777Y1268193D01*
X17473579Y1395670D01*
X17473580Y1395672D01*
X17500500Y1531007D01*
X17500500Y1668993D01*
X17473580Y1804328D01*
X17420775Y1931811D01*
X17344114Y2046542D01*
X17246542Y2144114D01*
X17131811Y2220775D01*
X17004328Y2273580D01*
X16868993Y2300500D01*
X16731007Y2300500D01*
X16595672Y2273580D01*
X16595670Y2273579D01*
X16468193Y2220777D01*
X16468182Y2220771D01*
X16353458Y2144114D01*
X16288840Y2079496D01*
X16234323Y2051719D01*
X16218836Y2050500D01*
X15640691Y2050500D01*
X15554948Y2027525D01*
X15526113Y2019799D01*
X15526110Y2019797D01*
X15526108Y2019797D01*
X15423390Y1960492D01*
X15423389Y1960491D01*
X15423386Y1960489D01*
X14017712Y554815D01*
X12742393Y-720504D01*
X12735275Y-724130D01*
X12730580Y-730593D01*
X12708531Y-737756D01*
X12687876Y-748281D01*
X12672389Y-749500D01*
X12581164Y-749500D01*
X12522973Y-730593D01*
X12511160Y-720504D01*
X12446541Y-655885D01*
X12331817Y-579228D01*
X12331806Y-579222D01*
X12204328Y-526420D01*
X12068995Y-499500D01*
X12068993Y-499500D01*
X11931007Y-499500D01*
X11931004Y-499500D01*
X11795672Y-526420D01*
X11795670Y-526420D01*
X11668193Y-579222D01*
X11668182Y-579228D01*
X11553458Y-655885D01*
X11455885Y-753458D01*
X11379228Y-868182D01*
X11379222Y-868193D01*
X11326420Y-995670D01*
X11326420Y-995672D01*
X11299500Y-1131004D01*
X5505500Y-1131004D01*
X5505500Y622030D01*
X6049500Y622030D01*
X6049500Y377969D01*
X6087677Y136928D01*
X6163096Y-95185D01*
X6273892Y-312637D01*
X6352348Y-420623D01*
X6417345Y-510083D01*
X6589917Y-682655D01*
X6733369Y-786878D01*
X6787362Y-826107D01*
X6896088Y-881505D01*
X7004815Y-936904D01*
X7236924Y-1012321D01*
X7236925Y-1012321D01*
X7236928Y-1012322D01*
X7477970Y-1050500D01*
X7477973Y-1050500D01*
X7722030Y-1050500D01*
X7861802Y-1028362D01*
X7963071Y-1012322D01*
X7963072Y-1012321D01*
X7963076Y-1012321D01*
X8195185Y-936904D01*
X8412639Y-826106D01*
X8610083Y-682655D01*
X8782655Y-510083D01*
X8926106Y-312639D01*
X9036904Y-95185D01*
X9112321Y136924D01*
X9112795Y139917D01*
X9150500Y377969D01*
X9150500Y622029D01*
X9120986Y808370D01*
X9119303Y818995D01*
X10449500Y818995D01*
X10449500Y681004D01*
X10476420Y545672D01*
X10476420Y545670D01*
X10529222Y418193D01*
X10529228Y418182D01*
X10605885Y303458D01*
X10703458Y205885D01*
X10818182Y129228D01*
X10818193Y129222D01*
X10945671Y76420D01*
X11081004Y49500D01*
X11081007Y49500D01*
X11218995Y49500D01*
X11309216Y67446D01*
X11354328Y76420D01*
X11354329Y76420D01*
X11481806Y129222D01*
X11481817Y129228D01*
X11596541Y205885D01*
X11694114Y303458D01*
X11770771Y418182D01*
X11770777Y418193D01*
X11823579Y545670D01*
X11823580Y545672D01*
X11842398Y640277D01*
X11869492Y690967D01*
X12375067Y1196542D01*
X12940510Y1761985D01*
X13012984Y1887515D01*
X13024852Y1931806D01*
X13024853Y1931809D01*
X13024853Y1931810D01*
X13050500Y2027525D01*
X13050500Y4068995D01*
X16199500Y4068995D01*
X16199500Y3931004D01*
X16226420Y3795672D01*
X16226420Y3795670D01*
X16279222Y3668193D01*
X16279228Y3668182D01*
X16355885Y3553458D01*
X16453458Y3455885D01*
X16568182Y3379228D01*
X16568193Y3379222D01*
X16695671Y3326420D01*
X16831004Y3299500D01*
X16831007Y3299500D01*
X16968995Y3299500D01*
X17059216Y3317446D01*
X17104328Y3326420D01*
X17104329Y3326420D01*
X17231806Y3379222D01*
X17231817Y3379228D01*
X17346541Y3455885D01*
X17411160Y3520504D01*
X17465677Y3548281D01*
X17481164Y3549500D01*
X18659889Y3549500D01*
X18718080Y3530593D01*
X18729893Y3520504D01*
X19223386Y3027010D01*
X19223388Y3027008D01*
X19223388Y3027007D01*
X19564211Y2686183D01*
X19591988Y2631667D01*
X19582417Y2571235D01*
X19539153Y2527971D01*
X19489370Y2502606D01*
X19437366Y2476109D01*
X19437364Y2476108D01*
X19437363Y2476107D01*
X19437361Y2476106D01*
X19239917Y2332655D01*
X19067345Y2160083D01*
X19067344Y2160081D01*
X18923892Y1962637D01*
X18813096Y1745185D01*
X18737677Y1513071D01*
X18699500Y1272030D01*
X18699500Y1027969D01*
X18737677Y786928D01*
X18813096Y554814D01*
X18923892Y337362D01*
X19067344Y139918D01*
X19067345Y139917D01*
X19239917Y-32655D01*
X19381500Y-135521D01*
X19437362Y-176107D01*
X19546088Y-231505D01*
X19654815Y-286904D01*
X19886924Y-362321D01*
X19886925Y-362321D01*
X19886928Y-362322D01*
X20127970Y-400500D01*
X20127973Y-400500D01*
X20372030Y-400500D01*
X20613071Y-362322D01*
X20613072Y-362321D01*
X20613076Y-362321D01*
X20845185Y-286904D01*
X21062639Y-176106D01*
X21260083Y-32655D01*
X21432655Y139917D01*
X21576106Y337361D01*
X21686904Y554815D01*
X21762321Y786924D01*
X21765718Y808370D01*
X21800500Y1027969D01*
X21800500Y1272030D01*
X21762322Y1513071D01*
X21762321Y1513072D01*
X21762321Y1513076D01*
X21686904Y1745185D01*
X21576106Y1962639D01*
X21432655Y2160083D01*
X21260083Y2332655D01*
X21062639Y2476106D01*
X20845185Y2586904D01*
X20768556Y2611802D01*
X20719057Y2647764D01*
X20700995Y2693042D01*
X20700500Y2696801D01*
X20700500Y2696809D01*
X20669799Y2811386D01*
X20669799Y2811387D01*
X20610489Y2914114D01*
X19860491Y3664111D01*
X19860490Y3664114D01*
X19164114Y4360489D01*
X19061387Y4419799D01*
X19037173Y4426286D01*
X18946809Y4450500D01*
X17481164Y4450500D01*
X17422973Y4469407D01*
X17411160Y4479496D01*
X17346542Y4544114D01*
X17231811Y4620775D01*
X17104328Y4673580D01*
X16968993Y4700500D01*
X16831007Y4700500D01*
X16695672Y4673580D01*
X16695670Y4673579D01*
X16568193Y4620777D01*
X16568182Y4620771D01*
X16453458Y4544114D01*
X16355885Y4446541D01*
X16279228Y4331817D01*
X16279222Y4331806D01*
X16241675Y4241158D01*
X16226420Y4204328D01*
X16225658Y4200498D01*
X16199500Y4068995D01*
X13050500Y4068995D01*
X13050500Y6332984D01*
X13067185Y6387986D01*
X13120771Y6468182D01*
X13120777Y6468193D01*
X13173579Y6595670D01*
X13173580Y6595672D01*
X13200500Y6731007D01*
X13200500Y6868993D01*
X13173580Y7004328D01*
X13120775Y7131811D01*
X13044114Y7246542D01*
X12946542Y7344114D01*
X12831811Y7420775D01*
X12704328Y7473580D01*
X12568993Y7500500D01*
X12431007Y7500500D01*
X12295672Y7473580D01*
X12295670Y7473579D01*
X12168193Y7420777D01*
X12168182Y7420771D01*
X12053458Y7344114D01*
X11955885Y7246541D01*
X11879228Y7131817D01*
X11879222Y7131806D01*
X11826420Y7004329D01*
X11826420Y7004327D01*
X11799500Y6868995D01*
X11799500Y6731004D01*
X11826420Y6595672D01*
X11826420Y6595670D01*
X11879222Y6468193D01*
X11879228Y6468182D01*
X11932815Y6387986D01*
X11949500Y6332984D01*
X11949500Y2369033D01*
X11930593Y2310842D01*
X11920504Y2299029D01*
X11090967Y1469492D01*
X11040277Y1442398D01*
X10945672Y1423580D01*
X10945670Y1423579D01*
X10818193Y1370777D01*
X10818182Y1370771D01*
X10703458Y1294114D01*
X10605885Y1196541D01*
X10529228Y1081817D01*
X10529222Y1081806D01*
X10476420Y954329D01*
X10476420Y954327D01*
X10449500Y818995D01*
X9119303Y818995D01*
X9112322Y863071D01*
X9112321Y863072D01*
X9112321Y863076D01*
X9036904Y1095185D01*
X8926106Y1312639D01*
X8782655Y1510083D01*
X8610083Y1682655D01*
X8412639Y1826106D01*
X8195185Y1936904D01*
X7963076Y2012321D01*
X7963072Y2012321D01*
X7963071Y2012322D01*
X7722030Y2050500D01*
X7722027Y2050500D01*
X7477973Y2050500D01*
X7477970Y2050500D01*
X7236928Y2012322D01*
X7236925Y2012321D01*
X7236924Y2012321D01*
X7004815Y1936904D01*
X6907889Y1887518D01*
X6787362Y1826107D01*
X6787361Y1826106D01*
X6589917Y1682655D01*
X6417345Y1510083D01*
X6382462Y1462070D01*
X6273892Y1312637D01*
X6163096Y1095185D01*
X6087677Y863071D01*
X6049500Y622030D01*
X5505500Y622030D01*
X5505500Y3308840D01*
X5503118Y3346916D01*
X5499266Y3377581D01*
X5497454Y3389951D01*
X5458884Y3495389D01*
X5423232Y3555479D01*
X5386696Y3604934D01*
X5297244Y3672780D01*
X5257492Y3692678D01*
X5213922Y3735631D01*
X5203919Y3795993D01*
X5219493Y3836207D01*
X5289390Y3940813D01*
X5289396Y3940825D01*
X5344046Y4072764D01*
X5349737Y4086503D01*
X5380500Y4241158D01*
X5380500Y4398842D01*
X5349737Y4553497D01*
X5289394Y4699179D01*
X5220004Y4803027D01*
X5203396Y4861914D01*
X5224573Y4919318D01*
X5252338Y4943484D01*
X5327571Y4987484D01*
X5380375Y5033239D01*
X5422553Y5077972D01*
X5473439Y5178048D01*
X5493124Y5245087D01*
X5505500Y5331159D01*
X5505500Y7209611D01*
X5494253Y7291741D01*
X5476329Y7355959D01*
X5455768Y7409560D01*
X5388254Y7499264D01*
X5336696Y7546418D01*
X5287384Y7583135D01*
X5250688Y7596713D01*
X5202678Y7634639D01*
X5186127Y7693543D01*
X5207360Y7750926D01*
X5215034Y7759554D01*
X5352847Y7897367D01*
X5352850Y7897371D01*
X5352856Y7897377D01*
X5573468Y8174017D01*
X5573470Y8174020D01*
X5642917Y8284543D01*
X5761736Y8473642D01*
X5915269Y8792456D01*
X5996464Y9024500D01*
X6032139Y9126452D01*
X6034209Y9135522D01*
X6110881Y9471440D01*
X6150500Y9823072D01*
X6150500Y10176928D01*
X6110881Y10528560D01*
X6032140Y10873544D01*
X5915269Y11207544D01*
X5761736Y11526358D01*
X5627449Y11740071D01*
X5612499Y11799402D01*
X5635278Y11856189D01*
X5641271Y11862747D01*
X6049028Y12270504D01*
X6103545Y12298281D01*
X6119032Y12299500D01*
X16080967Y12299500D01*
X16139158Y12280593D01*
X16150971Y12270504D01*
X17148314Y11273160D01*
X17176091Y11218643D01*
X17171754Y11170458D01*
X17067860Y10873547D01*
X16989118Y10528558D01*
X16949500Y10176929D01*
X16949500Y9823070D01*
X16989118Y9471441D01*
X17067860Y9126452D01*
X17184730Y8792457D01*
X17184731Y8792455D01*
X17338256Y8473656D01*
X17338262Y8473644D01*
X17526529Y8174020D01*
X17526531Y8174017D01*
X17747143Y7897377D01*
X17997377Y7647143D01*
X18274017Y7426531D01*
X18274020Y7426529D01*
X18573644Y7238262D01*
X18573656Y7238256D01*
X18892455Y7084731D01*
X18892457Y7084730D01*
X19226452Y6967860D01*
X19571441Y6889118D01*
X19923070Y6849500D01*
X19923072Y6849500D01*
X20276929Y6849500D01*
X20628558Y6889118D01*
X20973547Y6967860D01*
X21307542Y7084730D01*
X21307544Y7084731D01*
X21626343Y7238256D01*
X21626355Y7238262D01*
X21925979Y7426529D01*
X21925982Y7426531D01*
X22202622Y7647143D01*
X22202628Y7647149D01*
X22202633Y7647153D01*
X22452847Y7897367D01*
X22452850Y7897371D01*
X22452856Y7897377D01*
X22673468Y8174017D01*
X22673470Y8174020D01*
X22742917Y8284543D01*
X22861736Y8473642D01*
X23015269Y8792456D01*
X23096464Y9024500D01*
X23132139Y9126452D01*
X23134209Y9135522D01*
X23210881Y9471440D01*
X23250500Y9823072D01*
X23250500Y10176928D01*
X23210881Y10528560D01*
X23132140Y10873544D01*
X23015269Y11207544D01*
X22861736Y11526358D01*
X22673473Y11825976D01*
X22452847Y12102633D01*
X22202633Y12352847D01*
X21925976Y12573473D01*
X21626358Y12761736D01*
X21307544Y12915269D01*
X21151157Y12969991D01*
X21045232Y13007056D01*
X20996552Y13044121D01*
X20978955Y13102721D01*
X20999163Y13160473D01*
X21049458Y13195317D01*
X21077930Y13199500D01*
X24751819Y13199500D01*
X24756772Y13197890D01*
G37*
%TD.AperFunction*%
%TA.AperFunction,Conductor*%
G36*
X27035401Y-12611136D02*
G01*
X27085013Y-12603279D01*
X27145445Y-12612850D01*
X27188710Y-12656115D01*
X27199500Y-12701060D01*
X27199500Y-12992209D01*
X27198281Y-13007697D01*
X27192188Y-13046164D01*
X27182617Y-13075620D01*
X27177832Y-13085013D01*
X27168520Y-13103288D01*
X27150314Y-13128347D01*
X27128347Y-13150314D01*
X27103289Y-13168518D01*
X27079593Y-13180593D01*
X27075621Y-13182617D01*
X27046164Y-13192188D01*
X27018848Y-13196514D01*
X27007695Y-13198281D01*
X26992210Y-13199500D01*
X26701060Y-13199500D01*
X26642869Y-13180593D01*
X26606905Y-13131093D01*
X26603279Y-13085013D01*
X26611136Y-13035401D01*
X26155290Y-12579555D01*
X26231591Y-12559111D01*
X26368408Y-12480119D01*
X26480119Y-12368408D01*
X26559111Y-12231591D01*
X26579555Y-12155290D01*
X27035401Y-12611136D01*
G37*
%TD.AperFunction*%
%TA.AperFunction,Conductor*%
G36*
X27174275Y-7182162D02*
G01*
X27198989Y-7238134D01*
X27199500Y-7248180D01*
X27199500Y-11298938D01*
X27180593Y-11357129D01*
X27131093Y-11393093D01*
X27085014Y-11396719D01*
X27035402Y-11388861D01*
X26579555Y-11844707D01*
X26559111Y-11768409D01*
X26480119Y-11631592D01*
X26368408Y-11519881D01*
X26231591Y-11440889D01*
X26155289Y-11420443D01*
X26611136Y-10964597D01*
X26592050Y-10954873D01*
X26548785Y-10911608D01*
X26539214Y-10851176D01*
X26566991Y-10796659D01*
X26581988Y-10784351D01*
X26621845Y-10757720D01*
X26757720Y-10621845D01*
X26864477Y-10462073D01*
X26938012Y-10284543D01*
X26975500Y-10096078D01*
X26975500Y-9903922D01*
X26938012Y-9715457D01*
X26864478Y-9537929D01*
X26864478Y-9537928D01*
X26757720Y-9378155D01*
X26621844Y-9242279D01*
X26462070Y-9135521D01*
X26355705Y-9091464D01*
X26309179Y-9051728D01*
X26294895Y-8992233D01*
X26318310Y-8935705D01*
X26355705Y-8908536D01*
X26393136Y-8893031D01*
X26462073Y-8864477D01*
X26621845Y-8757720D01*
X26757720Y-8621845D01*
X26864477Y-8462073D01*
X26938012Y-8284543D01*
X26975500Y-8096078D01*
X26975500Y-7903922D01*
X26938012Y-7715457D01*
X26864478Y-7537929D01*
X26864478Y-7537928D01*
X26757720Y-7378155D01*
X26749068Y-7369503D01*
X26721291Y-7314986D01*
X26730862Y-7254554D01*
X26774127Y-7211289D01*
X26819072Y-7200499D01*
X26944861Y-7200499D01*
X26944864Y-7200499D01*
X26969991Y-7197585D01*
X27060512Y-7157615D01*
X27121381Y-7151407D01*
X27174275Y-7182162D01*
G37*
%TD.AperFunction*%
%TA.AperFunction,Conductor*%
G36*
X27174275Y1817836D02*
G01*
X27198989Y1761864D01*
X27199500Y1751819D01*
X27199500Y-2298938D01*
X27180593Y-2357129D01*
X27131093Y-2393093D01*
X27085014Y-2396719D01*
X27035402Y-2388861D01*
X26579555Y-2844707D01*
X26559111Y-2768409D01*
X26480119Y-2631592D01*
X26368408Y-2519881D01*
X26231591Y-2440889D01*
X26155289Y-2420443D01*
X26611136Y-1964597D01*
X26592050Y-1954873D01*
X26548785Y-1911608D01*
X26539214Y-1851176D01*
X26566991Y-1796659D01*
X26581988Y-1784351D01*
X26621845Y-1757720D01*
X26757720Y-1621845D01*
X26864477Y-1462073D01*
X26938012Y-1284543D01*
X26975500Y-1096078D01*
X26975500Y-903922D01*
X26938012Y-715457D01*
X26864478Y-537929D01*
X26864478Y-537928D01*
X26757720Y-378155D01*
X26621844Y-242279D01*
X26462070Y-135521D01*
X26355705Y-91464D01*
X26309179Y-51728D01*
X26294895Y7767D01*
X26318310Y64295D01*
X26355705Y91464D01*
X26462070Y135521D01*
X26462071Y135521D01*
X26621844Y242279D01*
X26757720Y378155D01*
X26864478Y537928D01*
X26864478Y537929D01*
X26938011Y715455D01*
X26938012Y715457D01*
X26975500Y903922D01*
X26975500Y1096078D01*
X26938012Y1284543D01*
X26864477Y1462073D01*
X26757720Y1621845D01*
X26749071Y1630494D01*
X26721291Y1685009D01*
X26730860Y1745441D01*
X26774123Y1788708D01*
X26819071Y1799500D01*
X26944859Y1799500D01*
X26944864Y1799501D01*
X26969990Y1802414D01*
X27060512Y1842384D01*
X27121382Y1848592D01*
X27174275Y1817836D01*
G37*
%TD.AperFunction*%
%TD*%
M02*
