%TF.GenerationSoftware,KiCad,Pcbnew,8.0.2*%
%TF.CreationDate,2024-05-15T22:33:18-04:00*%
%TF.ProjectId,USB-C-3-way-splitter,5553422d-432d-4332-9d77-61792d73706c,rev?*%
%TF.SameCoordinates,Original*%
%TF.FileFunction,Copper,L1,Top*%
%TF.FilePolarity,Positive*%
%FSLAX46Y46*%
G04 Gerber Fmt 4.6, Leading zero omitted, Abs format (unit mm)*
G04 Created by KiCad (PCBNEW 8.0.2) date 2024-05-15 22:33:18*
%MOMM*%
%LPD*%
G01*
G04 APERTURE LIST*
G04 Aperture macros list*
%AMRoundRect*
0 Rectangle with rounded corners*
0 $1 Rounding radius*
0 $2 $3 $4 $5 $6 $7 $8 $9 X,Y pos of 4 corners*
0 Add a 4 corners polygon primitive as box body*
4,1,4,$2,$3,$4,$5,$6,$7,$8,$9,$2,$3,0*
0 Add four circle primitives for the rounded corners*
1,1,$1+$1,$2,$3*
1,1,$1+$1,$4,$5*
1,1,$1+$1,$6,$7*
1,1,$1+$1,$8,$9*
0 Add four rect primitives between the rounded corners*
20,1,$1+$1,$2,$3,$4,$5,0*
20,1,$1+$1,$4,$5,$6,$7,0*
20,1,$1+$1,$6,$7,$8,$9,0*
20,1,$1+$1,$8,$9,$2,$3,0*%
G04 Aperture macros list end*
%TA.AperFunction,ComponentPad*%
%ADD10C,5.700000*%
%TD*%
%TA.AperFunction,SMDPad,CuDef*%
%ADD11RoundRect,0.250000X1.450000X-0.400000X1.450000X0.400000X-1.450000X0.400000X-1.450000X-0.400000X0*%
%TD*%
%TA.AperFunction,SMDPad,CuDef*%
%ADD12RoundRect,0.112500X0.112500X0.637500X-0.112500X0.637500X-0.112500X-0.637500X0.112500X-0.637500X0*%
%TD*%
%TA.AperFunction,SMDPad,CuDef*%
%ADD13RoundRect,0.250000X-0.350000X-0.450000X0.350000X-0.450000X0.350000X0.450000X-0.350000X0.450000X0*%
%TD*%
%TA.AperFunction,ComponentPad*%
%ADD14R,1.800000X1.800000*%
%TD*%
%TA.AperFunction,ComponentPad*%
%ADD15O,1.350000X1.350000*%
%TD*%
%TA.AperFunction,ComponentPad*%
%ADD16C,1.800000*%
%TD*%
%TA.AperFunction,SMDPad,CuDef*%
%ADD17RoundRect,0.150000X-0.825000X-0.150000X0.825000X-0.150000X0.825000X0.150000X-0.825000X0.150000X0*%
%TD*%
%TA.AperFunction,SMDPad,CuDef*%
%ADD18RoundRect,0.250000X-0.450000X0.350000X-0.450000X-0.350000X0.450000X-0.350000X0.450000X0.350000X0*%
%TD*%
%TA.AperFunction,SMDPad,CuDef*%
%ADD19RoundRect,0.250000X0.650000X-0.412500X0.650000X0.412500X-0.650000X0.412500X-0.650000X-0.412500X0*%
%TD*%
%TA.AperFunction,SMDPad,CuDef*%
%ADD20RoundRect,0.225000X0.225000X0.375000X-0.225000X0.375000X-0.225000X-0.375000X0.225000X-0.375000X0*%
%TD*%
%TA.AperFunction,SMDPad,CuDef*%
%ADD21RoundRect,0.250000X0.450000X-0.325000X0.450000X0.325000X-0.450000X0.325000X-0.450000X-0.325000X0*%
%TD*%
%TA.AperFunction,SMDPad,CuDef*%
%ADD22RoundRect,0.250000X-0.337500X-0.475000X0.337500X-0.475000X0.337500X0.475000X-0.337500X0.475000X0*%
%TD*%
%TA.AperFunction,ComponentPad*%
%ADD23O,1.800000X1.800000*%
%TD*%
%TA.AperFunction,SMDPad,CuDef*%
%ADD24RoundRect,0.162500X0.837500X0.162500X-0.837500X0.162500X-0.837500X-0.162500X0.837500X-0.162500X0*%
%TD*%
%TA.AperFunction,SMDPad,CuDef*%
%ADD25RoundRect,0.250000X0.450000X-0.350000X0.450000X0.350000X-0.450000X0.350000X-0.450000X-0.350000X0*%
%TD*%
%TA.AperFunction,SMDPad,CuDef*%
%ADD26RoundRect,0.250000X0.475000X-0.337500X0.475000X0.337500X-0.475000X0.337500X-0.475000X-0.337500X0*%
%TD*%
%TA.AperFunction,SMDPad,CuDef*%
%ADD27RoundRect,0.150000X-0.150000X-0.200000X0.150000X-0.200000X0.150000X0.200000X-0.150000X0.200000X0*%
%TD*%
%TA.AperFunction,SMDPad,CuDef*%
%ADD28RoundRect,0.150000X0.512500X0.150000X-0.512500X0.150000X-0.512500X-0.150000X0.512500X-0.150000X0*%
%TD*%
%TA.AperFunction,SMDPad,CuDef*%
%ADD29R,1.450000X0.600000*%
%TD*%
%TA.AperFunction,SMDPad,CuDef*%
%ADD30R,1.450000X0.300000*%
%TD*%
%TA.AperFunction,ComponentPad*%
%ADD31O,2.100000X1.000000*%
%TD*%
%TA.AperFunction,ComponentPad*%
%ADD32O,1.600000X1.000000*%
%TD*%
%TA.AperFunction,SMDPad,CuDef*%
%ADD33RoundRect,0.225000X-0.375000X0.225000X-0.375000X-0.225000X0.375000X-0.225000X0.375000X0.225000X0*%
%TD*%
%TA.AperFunction,SMDPad,CuDef*%
%ADD34RoundRect,0.250000X-0.650000X0.412500X-0.650000X-0.412500X0.650000X-0.412500X0.650000X0.412500X0*%
%TD*%
%TA.AperFunction,ViaPad*%
%ADD35C,0.800000*%
%TD*%
%TA.AperFunction,Conductor*%
%ADD36C,0.500000*%
%TD*%
%TA.AperFunction,Conductor*%
%ADD37C,1.000000*%
%TD*%
%TA.AperFunction,Conductor*%
%ADD38C,0.300000*%
%TD*%
%TA.AperFunction,Conductor*%
%ADD39C,0.450000*%
%TD*%
%TA.AperFunction,Conductor*%
%ADD40C,0.600000*%
%TD*%
G04 APERTURE END LIST*
D10*
%TO.P,H4,1,1*%
%TO.N,GNDPWR*%
X20100000Y-10000000D03*
%TD*%
D11*
%TO.P,F1,1*%
%TO.N,V-UNFUSED*%
X9100000Y1850000D03*
%TO.P,F1,2*%
%TO.N,VBUS*%
X9100000Y6300000D03*
%TD*%
D12*
%TO.P,D1,1,K*%
%TO.N,+1V2*%
X14650000Y-5840000D03*
%TO.P,D1,2,A*%
%TO.N,GND*%
X13350000Y-5840000D03*
%TO.P,D1,3*%
%TO.N,N/C*%
X14000000Y-8500000D03*
%TD*%
D13*
%TO.P,R1,1*%
%TO.N,CC1*%
X9500000Y-12100000D03*
%TO.P,R1,2*%
%TO.N,GND*%
X11500000Y-12100000D03*
%TD*%
D14*
%TO.P,J3,1,Pin_1*%
%TO.N,+5V*%
X26000000Y3000000D03*
D15*
%TO.P,J3,2,Pin_2*%
%TO.N,Net-(J3-Pin_2)*%
X26000000Y1000000D03*
%TO.P,J3,3,Pin_3*%
X26000000Y-1000000D03*
D16*
%TO.P,J3,4,Pin_4*%
%TO.N,GND*%
X26000000Y-3000000D03*
%TD*%
D10*
%TO.P,H2,1,1*%
%TO.N,GNDPWR*%
X3000000Y-10000000D03*
%TD*%
D17*
%TO.P,U1,1*%
%TO.N,Net-(D4-A)*%
X8525000Y5000D03*
%TO.P,U1,2,-*%
%TO.N,+1V2*%
X8525000Y-1265000D03*
%TO.P,U1,3,+*%
%TO.N,CC1*%
X8525000Y-2535000D03*
%TO.P,U1,4,V-*%
%TO.N,GND*%
X8525000Y-3805000D03*
%TO.P,U1,5,+*%
%TO.N,CC2*%
X13475000Y-3805000D03*
%TO.P,U1,6,-*%
%TO.N,+1V2*%
X13475000Y-2535000D03*
%TO.P,U1,7*%
%TO.N,Net-(D5-A)*%
X13475000Y-1265000D03*
%TO.P,U1,8,V+*%
%TO.N,VBUS*%
X13475000Y5000D03*
%TD*%
D18*
%TO.P,R3,1*%
%TO.N,VBUS*%
X15800000Y-100000D03*
%TO.P,R3,2*%
%TO.N,+1V2*%
X15800000Y-2100000D03*
%TD*%
%TO.P,R7,1*%
%TO.N,EN*%
X20700000Y1300000D03*
%TO.P,R7,2*%
%TO.N,GND*%
X20700000Y-700000D03*
%TD*%
D19*
%TO.P,C3,1*%
%TO.N,VBUS*%
X12600000Y8275000D03*
%TO.P,C3,2*%
%TO.N,GND*%
X12600000Y11400000D03*
%TD*%
D20*
%TO.P,D4,1,K*%
%TO.N,EN*%
X15150000Y2200000D03*
%TO.P,D4,2,A*%
%TO.N,Net-(D4-A)*%
X11850000Y2200000D03*
%TD*%
D21*
%TO.P,D2,1,K*%
%TO.N,GND*%
X8200000Y8200000D03*
%TO.P,D2,2,A*%
%TO.N,Net-(D2-A)*%
X8200000Y10250000D03*
%TD*%
D22*
%TO.P,C5,1*%
%TO.N,+1V2*%
X13500000Y-11000000D03*
%TO.P,C5,2*%
%TO.N,GND*%
X15575000Y-11000000D03*
%TD*%
D21*
%TO.P,D3,1,K*%
%TO.N,GND*%
X21000000Y-5875000D03*
%TO.P,D3,2,A*%
%TO.N,Net-(D3-A)*%
X21000000Y-3825000D03*
%TD*%
D14*
%TO.P,J2,1,Pin_1*%
%TO.N,+5V*%
X26000000Y12000000D03*
D15*
%TO.P,J2,2,Pin_2*%
%TO.N,Net-(J2-Pin_2)*%
X26000000Y10000000D03*
%TO.P,J2,3,Pin_3*%
X26000000Y8000000D03*
D23*
%TO.P,J2,4,Pin_4*%
%TO.N,GND*%
X26000000Y6000000D03*
%TD*%
D24*
%TO.P,U2,1,OUT*%
%TO.N,+5V*%
X23100000Y3100000D03*
%TO.P,U2,2,OUT*%
X23100000Y4050000D03*
%TO.P,U2,3,EN*%
%TO.N,EN*%
X23100000Y5000000D03*
%TO.P,U2,4,GND*%
%TO.N,GND*%
X19680000Y5000000D03*
%TO.P,U2,5,IN*%
%TO.N,VBUS*%
X19680000Y4050000D03*
%TO.P,U2,6,IN*%
X19680000Y3100000D03*
%TD*%
D18*
%TO.P,R6,1*%
%TO.N,VBUS*%
X12100000Y6300000D03*
%TO.P,R6,2*%
%TO.N,Net-(D4-A)*%
X12100000Y4300000D03*
%TD*%
D25*
%TO.P,R5,1*%
%TO.N,+5V*%
X23100000Y-6700000D03*
%TO.P,R5,2*%
%TO.N,Net-(D3-A)*%
X23100000Y-4700000D03*
%TD*%
D26*
%TO.P,C1,1*%
%TO.N,VBUS*%
X14900000Y8162500D03*
%TO.P,C1,2*%
%TO.N,GND*%
X14900000Y10237500D03*
%TD*%
D25*
%TO.P,R4,1*%
%TO.N,VBUS*%
X10200000Y8225000D03*
%TO.P,R4,2*%
%TO.N,Net-(D2-A)*%
X10200000Y10225000D03*
%TD*%
D10*
%TO.P,H1,1,1*%
%TO.N,GNDPWR*%
X3000000Y10000000D03*
%TD*%
D18*
%TO.P,R8,1*%
%TO.N,VBUS*%
X15000000Y6300000D03*
%TO.P,R8,2*%
%TO.N,Net-(D5-A)*%
X15000000Y4300000D03*
%TD*%
%TO.P,R2,1*%
%TO.N,CC2*%
X11500000Y-8000000D03*
%TO.P,R2,2*%
%TO.N,GND*%
X11500000Y-10000000D03*
%TD*%
D27*
%TO.P,D6,1,K*%
%TO.N,+5V*%
X23900000Y6500000D03*
%TO.P,D6,2,A*%
%TO.N,GND*%
X22500000Y6500000D03*
%TD*%
D28*
%TO.P,U3,1,IO1*%
%TO.N,unconnected-(U3-IO1-Pad1)*%
X9337500Y-9950000D03*
%TO.P,U3,2,VN*%
%TO.N,GND*%
X9337500Y-9000000D03*
%TO.P,U3,3,IO2*%
%TO.N,CC1*%
X9337500Y-8050000D03*
%TO.P,U3,4,IO3*%
%TO.N,CC2*%
X7062500Y-8050000D03*
%TO.P,U3,5,VP*%
%TO.N,V-UNFUSED*%
X7062500Y-9000000D03*
%TO.P,U3,6,IO4*%
%TO.N,unconnected-(U3-IO4-Pad6)*%
X7062500Y-9950000D03*
%TD*%
D29*
%TO.P,J1,A1,GND*%
%TO.N,GND*%
X4945000Y3250000D03*
%TO.P,J1,A4,VBUS*%
%TO.N,V-UNFUSED*%
X4945000Y2450000D03*
D30*
%TO.P,J1,A5,CC1*%
%TO.N,CC1*%
X4945000Y1250000D03*
%TO.P,J1,A6,D+*%
%TO.N,unconnected-(J1-D+-PadA6)*%
X4945000Y250000D03*
%TO.P,J1,A7,D-*%
%TO.N,unconnected-(J1-D--PadA7)*%
X4945000Y-250000D03*
%TO.P,J1,A8,SBU1*%
%TO.N,unconnected-(J1-SBU1-PadA8)*%
X4945000Y-1250000D03*
D29*
%TO.P,J1,A9,VBUS*%
%TO.N,V-UNFUSED*%
X4945000Y-2450000D03*
%TO.P,J1,A12,GND*%
%TO.N,GND*%
X4945000Y-3250000D03*
%TO.P,J1,B1,GND*%
X4945000Y-3250000D03*
%TO.P,J1,B4,VBUS*%
%TO.N,V-UNFUSED*%
X4945000Y-2450000D03*
D30*
%TO.P,J1,B5,CC2*%
%TO.N,CC2*%
X4945000Y-1750000D03*
%TO.P,J1,B6,D+*%
%TO.N,unconnected-(J1-D+-PadB6)*%
X4945000Y-750000D03*
%TO.P,J1,B7,D-*%
%TO.N,unconnected-(J1-D--PadB7)*%
X4945000Y750000D03*
%TO.P,J1,B8,SBU2*%
%TO.N,unconnected-(J1-SBU2-PadB8)*%
X4945000Y1750000D03*
D29*
%TO.P,J1,B9,VBUS*%
%TO.N,V-UNFUSED*%
X4945000Y2450000D03*
%TO.P,J1,B12,GND*%
%TO.N,GND*%
X4945000Y3250000D03*
D31*
%TO.P,J1,S1,SHIELD*%
%TO.N,GNDPWR*%
X4030000Y4320000D03*
D32*
X-150000Y4320000D03*
D31*
X4030000Y-4320000D03*
D32*
X-150000Y-4320000D03*
%TD*%
D10*
%TO.P,H3,1,1*%
%TO.N,GNDPWR*%
X20100000Y10000000D03*
%TD*%
D14*
%TO.P,J4,1,Pin_1*%
%TO.N,+5V*%
X26000000Y-6000000D03*
D15*
%TO.P,J4,2,Pin_2*%
%TO.N,Net-(J4-Pin_2)*%
X26000000Y-8000000D03*
%TO.P,J4,3,Pin_3*%
X26000000Y-10000000D03*
D16*
%TO.P,J4,4,Pin_4*%
%TO.N,GND*%
X26000000Y-12000000D03*
%TD*%
D33*
%TO.P,D5,1,K*%
%TO.N,EN*%
X18100000Y1050000D03*
%TO.P,D5,2,A*%
%TO.N,Net-(D5-A)*%
X18100000Y-2250000D03*
%TD*%
D34*
%TO.P,C2,1*%
%TO.N,+5V*%
X23000000Y1212500D03*
%TO.P,C2,2*%
%TO.N,GND*%
X23000000Y-1912500D03*
%TD*%
D35*
%TO.N,GND*%
X18175000Y-4725000D03*
X20000000Y6000000D03*
X10100000Y-3850000D03*
X19500000Y-1000000D03*
X16400000Y9950000D03*
X22850000Y-550000D03*
X16450000Y10900000D03*
X12600000Y10050000D03*
X21000000Y6000000D03*
X6200000Y3600000D03*
X15800000Y-6300000D03*
X5800000Y-4900000D03*
X12500000Y-5200000D03*
X16400000Y-8900000D03*
X10700000Y-11000000D03*
X5800000Y-3900000D03*
X19000000Y6000000D03*
X6100000Y4700000D03*
X6000000Y7500000D03*
X6000000Y-5900000D03*
%TO.N,VBUS*%
X17850000Y2800000D03*
X17950000Y-450000D03*
%TO.N,CC1*%
X9300000Y-5500000D03*
X6750000Y450000D03*
X8600000Y-7300000D03*
%TO.N,CC2*%
X8000000Y-5900000D03*
%TO.N,+1V2*%
X12775000Y-9025000D03*
%TO.N,EN*%
X19550000Y1100000D03*
%TD*%
D36*
%TO.N,GND*%
X8525000Y-3805000D02*
X10055000Y-3805000D01*
X10055000Y-3805000D02*
X10100000Y-3850000D01*
%TO.N,VBUS*%
X15800000Y-100000D02*
X17600000Y-100000D01*
X17600000Y-100000D02*
X17950000Y-450000D01*
X13580000Y-100000D02*
X13475000Y5000D01*
X15800000Y-100000D02*
X13580000Y-100000D01*
%TO.N,+5V*%
X25150000Y-6000000D02*
X26000000Y-6000000D01*
X23100000Y-6700000D02*
X24450000Y-6700000D01*
X24450000Y-6700000D02*
X25150000Y-6000000D01*
D37*
X26037500Y-6062500D02*
X26100000Y-6000000D01*
D38*
%TO.N,CC1*%
X6750000Y450000D02*
X6770000Y450000D01*
X10175000Y-4625000D02*
X9300000Y-5500000D01*
X9300000Y-7400000D02*
X9300000Y-8012500D01*
X9500000Y-12100000D02*
X8200000Y-10800000D01*
X6750000Y470000D02*
X6750000Y450000D01*
X4945000Y1250000D02*
X5970000Y1250000D01*
X5970000Y1250000D02*
X6750000Y470000D01*
X8600000Y-7300000D02*
X9200000Y-7300000D01*
X8200000Y-10800000D02*
X8200000Y-8500000D01*
X7835000Y-2535000D02*
X8525000Y-2535000D01*
X10625000Y-4625000D02*
X10175000Y-4625000D01*
X8650000Y-8050000D02*
X9337500Y-8050000D01*
X10185000Y-2535000D02*
X11000000Y-3350000D01*
X11000000Y-4250000D02*
X10625000Y-4625000D01*
X9200000Y-7300000D02*
X9300000Y-7400000D01*
X8525000Y-2535000D02*
X10185000Y-2535000D01*
X11000000Y-3350000D02*
X11000000Y-4250000D01*
X7000000Y-1700000D02*
X7835000Y-2535000D01*
X9300000Y-8012500D02*
X9337500Y-8050000D01*
X6770000Y450000D02*
X7000000Y220000D01*
X7000000Y220000D02*
X7000000Y-1700000D01*
X8200000Y-8500000D02*
X8650000Y-8050000D01*
%TO.N,CC2*%
X10600000Y-5600000D02*
X9850000Y-6350000D01*
X8300000Y-5900000D02*
X8750000Y-6350000D01*
X8000000Y-6200000D02*
X8000000Y-5900000D01*
X11500000Y-8000000D02*
X9850000Y-6350000D01*
X11550000Y-5600000D02*
X10600000Y-5600000D01*
X7300000Y-4900000D02*
X8300000Y-5900000D01*
X7300000Y-4900000D02*
X7200000Y-4800000D01*
X7062500Y-8050000D02*
X7062500Y-7137500D01*
X11550000Y-4500000D02*
X12245000Y-3805000D01*
X7062500Y-7137500D02*
X8000000Y-6200000D01*
X6950000Y-2750000D02*
X5950000Y-1750000D01*
X7200000Y-4800000D02*
X7200000Y-3000000D01*
X12245000Y-3805000D02*
X13475000Y-3805000D01*
X5950000Y-1750000D02*
X4945000Y-1750000D01*
X8000000Y-5900000D02*
X8300000Y-5900000D01*
X11550000Y-5600000D02*
X11550000Y-4500000D01*
X7200000Y-3000000D02*
X6950000Y-2750000D01*
X8300000Y-5900000D02*
X8300000Y-5900000D01*
X8750000Y-6350000D02*
X9850000Y-6350000D01*
D36*
%TO.N,+1V2*%
X14835000Y-2535000D02*
X15200000Y-2900000D01*
X11735000Y-2535000D02*
X13475000Y-2535000D01*
X15800000Y-2300000D02*
X15200000Y-2900000D01*
D38*
X13100000Y-8700000D02*
X13100000Y-7750000D01*
X14300000Y-7050000D02*
X14650000Y-6700000D01*
D36*
X13475000Y-2535000D02*
X14835000Y-2535000D01*
X15300000Y-3000000D02*
X15300000Y-5190000D01*
X15800000Y-2100000D02*
X15800000Y-2300000D01*
D38*
X12775000Y-10275000D02*
X13500000Y-11000000D01*
X12775000Y-9025000D02*
X13100000Y-8700000D01*
D36*
X10465000Y-1265000D02*
X11735000Y-2535000D01*
D38*
X13100000Y-7750000D02*
X13800000Y-7050000D01*
D36*
X15300000Y-5190000D02*
X14650000Y-5840000D01*
D38*
X12775000Y-9025000D02*
X12775000Y-10275000D01*
D36*
X15200000Y-2900000D02*
X15300000Y-3000000D01*
D38*
X14650000Y-6700000D02*
X14650000Y-5840000D01*
X13800000Y-7050000D02*
X14300000Y-7050000D01*
D36*
X8525000Y-1265000D02*
X10465000Y-1265000D01*
D37*
%TO.N,Net-(D2-A)*%
X10175000Y10250000D02*
X10200000Y10225000D01*
X8100000Y10250000D02*
X10175000Y10250000D01*
D36*
%TO.N,Net-(D3-A)*%
X23100000Y-4700000D02*
X21875000Y-4700000D01*
X21875000Y-4700000D02*
X21000000Y-3825000D01*
%TO.N,Net-(J3-Pin_2)*%
X26000000Y-1000000D02*
X26000000Y1000000D01*
%TO.N,Net-(J4-Pin_2)*%
X26000000Y-8000000D02*
X26000000Y-10000000D01*
%TO.N,EN*%
X19600000Y1050000D02*
X20700000Y1050000D01*
X16600000Y1500000D02*
X17650000Y1500000D01*
X20700000Y1050000D02*
X21000000Y1350000D01*
X21450000Y4450000D02*
X21450000Y1800000D01*
X23100000Y5000000D02*
X22000000Y5000000D01*
X21450000Y1800000D02*
X21000000Y1350000D01*
X15150000Y2200000D02*
X15900000Y2200000D01*
X19550000Y1100000D02*
X19600000Y1050000D01*
X17650000Y1500000D02*
X18100000Y1050000D01*
X15900000Y2200000D02*
X16600000Y1500000D01*
X22000000Y5000000D02*
X21450000Y4450000D01*
X18100000Y1050000D02*
X19500000Y1050000D01*
X18100000Y1050000D02*
X17950000Y1050000D01*
X19500000Y1050000D02*
X19550000Y1100000D01*
%TO.N,Net-(J2-Pin_2)*%
X26000000Y10000000D02*
X26000000Y8000000D01*
D38*
%TO.N,Net-(D4-A)*%
X10305000Y5000D02*
X8525000Y5000D01*
X11850000Y1550000D02*
X10305000Y5000D01*
X11850000Y2200000D02*
X11850000Y1550000D01*
X12100000Y4300000D02*
X12100000Y2450000D01*
X12100000Y2450000D02*
X11850000Y2200000D01*
%TO.N,Net-(D5-A)*%
X13700000Y3400000D02*
X13700000Y2300000D01*
X14900000Y-1100000D02*
X16950000Y-1100000D01*
X15400000Y4300000D02*
X14600000Y4300000D01*
X11700000Y300000D02*
X11700000Y-700000D01*
X16950000Y-1100000D02*
X18100000Y-2250000D01*
X11700000Y-700000D02*
X12265000Y-1265000D01*
X12265000Y-1265000D02*
X13475000Y-1265000D01*
X14600000Y4300000D02*
X13700000Y3400000D01*
X14735000Y-1265000D02*
X14900000Y-1100000D01*
X13700000Y2300000D02*
X11700000Y300000D01*
X13475000Y-1265000D02*
X14735000Y-1265000D01*
D39*
%TO.N,V-UNFUSED*%
X3750000Y2002972D02*
X4197028Y2450000D01*
D38*
X7000000Y-5600000D02*
X6700000Y-5300000D01*
D39*
X4197028Y2450000D02*
X4945000Y2450000D01*
X4197028Y-2450000D02*
X3750000Y-2002972D01*
D38*
X6700000Y-3139790D02*
X6010210Y-2450000D01*
X6458167Y-9000000D02*
X5929083Y-8470917D01*
X6700000Y-5300000D02*
X6700000Y-3139790D01*
X5929083Y-8470917D02*
X5929083Y-7370917D01*
X7062500Y-9000000D02*
X6458167Y-9000000D01*
D40*
X6050000Y2450000D02*
X4945000Y2450000D01*
D39*
X3750000Y-2002972D02*
X3750000Y2002972D01*
D38*
X6010210Y-2450000D02*
X4945000Y-2450000D01*
X7000000Y-6300000D02*
X7000000Y-5600000D01*
D40*
X9200000Y1850000D02*
X6650000Y1850000D01*
X6650000Y1850000D02*
X6050000Y2450000D01*
D38*
X5929083Y-7370917D02*
X7000000Y-6300000D01*
D39*
X4945000Y-2450000D02*
X4197028Y-2450000D01*
%TD*%
%TA.AperFunction,Conductor*%
%TO.N,VBUS*%
G36*
X16410771Y8980315D02*
G01*
X16437052Y8957655D01*
X17781718Y7420892D01*
X17807627Y7373302D01*
X18389221Y5337719D01*
X18388711Y5267852D01*
X18387035Y5262704D01*
X18382433Y5249551D01*
X18382432Y5249548D01*
X18379500Y5218275D01*
X18379500Y4781723D01*
X18382432Y4750450D01*
X18382432Y4750448D01*
X18428529Y4618714D01*
X18428534Y4618705D01*
X18511410Y4506411D01*
X18511411Y4506410D01*
X18623705Y4423534D01*
X18623714Y4423529D01*
X18755449Y4377432D01*
X18786724Y4374500D01*
X18786728Y4374500D01*
X20573276Y4374500D01*
X20604548Y4377432D01*
X20635046Y4388104D01*
X20704825Y4391665D01*
X20765452Y4356936D01*
X20797679Y4294943D01*
X20800000Y4271062D01*
X20800000Y2324500D01*
X20780315Y2257461D01*
X20727511Y2211706D01*
X20676000Y2200500D01*
X20206898Y2200500D01*
X20118436Y2189877D01*
X19977658Y2134361D01*
X19977657Y2134360D01*
X19977656Y2134360D01*
X19857077Y2042922D01*
X19765638Y1922341D01*
X19765637Y1922339D01*
X19748550Y1879010D01*
X19705644Y1823866D01*
X19639736Y1800673D01*
X19633196Y1800500D01*
X19464944Y1800500D01*
X19299775Y1759790D01*
X19149148Y1680734D01*
X19093782Y1631684D01*
X19030549Y1601963D01*
X19011555Y1600500D01*
X18949263Y1600500D01*
X18882224Y1620185D01*
X18856227Y1644238D01*
X18856072Y1644083D01*
X18852080Y1648074D01*
X18850460Y1649573D01*
X18850078Y1650078D01*
X18734975Y1737364D01*
X18600590Y1790359D01*
X18516144Y1800500D01*
X18516138Y1800500D01*
X18179387Y1800500D01*
X18112348Y1820185D01*
X18091706Y1836819D01*
X18049515Y1879010D01*
X17988015Y1940510D01*
X17862485Y2012984D01*
X17722475Y2050500D01*
X17722472Y2050500D01*
X16879386Y2050500D01*
X16812347Y2070185D01*
X16791705Y2086819D01*
X16548004Y2330520D01*
X16238015Y2640510D01*
X16112485Y2712984D01*
X16091908Y2718497D01*
X16032247Y2754861D01*
X16001717Y2817707D01*
X16000000Y2838272D01*
X16000000Y3895318D01*
X16000470Y3903194D01*
X16000279Y3903206D01*
X16000500Y3906896D01*
X16000500Y4693107D01*
X16000279Y4696799D01*
X16000471Y4696810D01*
X16000000Y4704683D01*
X16000000Y5200000D01*
X15504681Y5200000D01*
X15496805Y5200470D01*
X15496794Y5200279D01*
X15493103Y5200500D01*
X15493102Y5200500D01*
X14506898Y5200500D01*
X14506897Y5200500D01*
X14503206Y5200279D01*
X14503194Y5200470D01*
X14495319Y5200000D01*
X12604681Y5200000D01*
X12596805Y5200470D01*
X12596794Y5200279D01*
X12593103Y5200500D01*
X12593102Y5200500D01*
X11606898Y5200500D01*
X11606897Y5200500D01*
X11603206Y5200279D01*
X11603194Y5200470D01*
X11595319Y5200000D01*
X7524000Y5200000D01*
X7456961Y5219685D01*
X7411206Y5272489D01*
X7400000Y5324000D01*
X7400000Y7076000D01*
X7419685Y7143039D01*
X7472489Y7188794D01*
X7524000Y7200000D01*
X9200000Y7200000D01*
X9200000Y7820318D01*
X9200470Y7828194D01*
X9200279Y7828206D01*
X9200500Y7831896D01*
X9200500Y8568107D01*
X9200279Y8571799D01*
X9200471Y8571810D01*
X9200000Y8579683D01*
X9200000Y8876000D01*
X9219685Y8943039D01*
X9272489Y8988794D01*
X9324000Y9000000D01*
X16343732Y9000000D01*
X16410771Y8980315D01*
G37*
%TD.AperFunction*%
%TD*%
%TA.AperFunction,Conductor*%
%TO.N,+5V*%
G36*
X24543039Y12980315D02*
G01*
X24588794Y12927511D01*
X24600000Y12876000D01*
X24600000Y12500000D01*
X25666027Y12500000D01*
X25631592Y12480119D01*
X25519881Y12368408D01*
X25440889Y12231591D01*
X25400000Y12078991D01*
X25400000Y11921009D01*
X25440889Y11768409D01*
X25519881Y11631592D01*
X25631592Y11519881D01*
X25666027Y11500000D01*
X24600000Y11500000D01*
X24600000Y11052155D01*
X24606401Y10992627D01*
X24606403Y10992620D01*
X24656645Y10857913D01*
X24656649Y10857906D01*
X24742809Y10742812D01*
X24742812Y10742809D01*
X24857906Y10656649D01*
X24857913Y10656645D01*
X24992620Y10606403D01*
X24992626Y10606401D01*
X25023030Y10603132D01*
X25087580Y10576392D01*
X25127427Y10518998D01*
X25129918Y10449173D01*
X25119130Y10421391D01*
X25094396Y10375116D01*
X25038614Y10191229D01*
X25019780Y10000000D01*
X25038614Y9808770D01*
X25094396Y9624881D01*
X25184973Y9455424D01*
X25184977Y9455417D01*
X25306879Y9306879D01*
X25404165Y9227039D01*
X25443499Y9169293D01*
X25449500Y9131186D01*
X25449500Y8868812D01*
X25429815Y8801773D01*
X25404166Y8772960D01*
X25306880Y8693120D01*
X25306879Y8693119D01*
X25184977Y8544582D01*
X25184973Y8544575D01*
X25094396Y8375118D01*
X25038614Y8191229D01*
X25019780Y8000000D01*
X25038614Y7808770D01*
X25094396Y7624881D01*
X25184973Y7455424D01*
X25184977Y7455417D01*
X25306879Y7306879D01*
X25397902Y7232179D01*
X25437236Y7174433D01*
X25439107Y7104588D01*
X25402919Y7044820D01*
X25384514Y7030899D01*
X25273439Y6962125D01*
X25273437Y6962123D01*
X25109020Y6812238D01*
X24974943Y6634691D01*
X24974938Y6634683D01*
X24875775Y6435538D01*
X24875769Y6435523D01*
X24814885Y6221537D01*
X24814884Y6221535D01*
X24794357Y6000000D01*
X24794357Y5999999D01*
X24814884Y5778464D01*
X24814885Y5778462D01*
X24875769Y5564476D01*
X24875775Y5564461D01*
X24974938Y5365316D01*
X24974943Y5365308D01*
X25109020Y5187761D01*
X25273437Y5037876D01*
X25273439Y5037874D01*
X25462595Y4920754D01*
X25462601Y4920752D01*
X25509320Y4902653D01*
X25670060Y4840382D01*
X25888757Y4799500D01*
X25888759Y4799500D01*
X26111241Y4799500D01*
X26111243Y4799500D01*
X26329940Y4840382D01*
X26537401Y4920753D01*
X26537404Y4920754D01*
X26726560Y5037874D01*
X26726562Y5037876D01*
X26892462Y5189113D01*
X26955266Y5219730D01*
X27024653Y5211532D01*
X27078593Y5167122D01*
X27099961Y5100600D01*
X27100000Y5097476D01*
X27100000Y4521686D01*
X27080315Y4454647D01*
X27027511Y4408892D01*
X26962743Y4398397D01*
X26947841Y4399999D01*
X26947828Y4400000D01*
X26500000Y4400000D01*
X26500000Y3333973D01*
X26480119Y3368408D01*
X26368408Y3480119D01*
X26231591Y3559111D01*
X26078991Y3600000D01*
X25921009Y3600000D01*
X25768409Y3559111D01*
X25631592Y3480119D01*
X25519881Y3368408D01*
X25440889Y3231591D01*
X25400000Y3078991D01*
X25400000Y2921009D01*
X25440889Y2768409D01*
X25519881Y2631592D01*
X25631592Y2519881D01*
X25666027Y2500000D01*
X24600000Y2500000D01*
X24600000Y2052155D01*
X24606401Y1992627D01*
X24606403Y1992620D01*
X24656645Y1857913D01*
X24656649Y1857906D01*
X24742809Y1742812D01*
X24742812Y1742809D01*
X24857906Y1656649D01*
X24857913Y1656645D01*
X24992620Y1606403D01*
X24992626Y1606401D01*
X25023030Y1603132D01*
X25087580Y1576392D01*
X25127427Y1518998D01*
X25129918Y1449173D01*
X25119130Y1421391D01*
X25094396Y1375116D01*
X25038614Y1191229D01*
X25019780Y1000000D01*
X25038614Y808770D01*
X25094396Y624881D01*
X25184973Y455424D01*
X25184977Y455417D01*
X25306879Y306879D01*
X25404165Y227039D01*
X25443499Y169293D01*
X25449500Y131186D01*
X25449500Y-131186D01*
X25429815Y-198225D01*
X25404165Y-227039D01*
X25306879Y-306879D01*
X25184977Y-455417D01*
X25184973Y-455424D01*
X25094396Y-624881D01*
X25038614Y-808770D01*
X25019780Y-1000000D01*
X25038614Y-1191229D01*
X25094396Y-1375118D01*
X25184973Y-1544575D01*
X25184977Y-1544582D01*
X25306879Y-1693120D01*
X25397902Y-1767820D01*
X25437236Y-1825565D01*
X25439107Y-1895410D01*
X25402920Y-1955178D01*
X25384515Y-1969100D01*
X25273436Y-2037877D01*
X25109020Y-2187761D01*
X24974943Y-2365308D01*
X24974938Y-2365316D01*
X24875775Y-2564461D01*
X24875769Y-2564476D01*
X24814885Y-2778462D01*
X24814884Y-2778464D01*
X24794357Y-2999999D01*
X24794357Y-3000000D01*
X24814884Y-3221535D01*
X24814885Y-3221537D01*
X24875769Y-3435523D01*
X24875775Y-3435538D01*
X24974938Y-3634683D01*
X24974943Y-3634691D01*
X25109020Y-3812238D01*
X25273437Y-3962123D01*
X25273439Y-3962125D01*
X25462595Y-4079245D01*
X25462596Y-4079245D01*
X25462599Y-4079247D01*
X25670060Y-4159618D01*
X25888757Y-4200500D01*
X25888759Y-4200500D01*
X26111241Y-4200500D01*
X26111243Y-4200500D01*
X26329940Y-4159618D01*
X26537401Y-4079247D01*
X26726562Y-3962124D01*
X26890981Y-3812236D01*
X26890980Y-3812236D01*
X26892462Y-3810886D01*
X26955266Y-3780269D01*
X27024653Y-3788466D01*
X27078593Y-3832876D01*
X27099961Y-3899398D01*
X27100000Y-3902523D01*
X27100000Y-4478313D01*
X27080315Y-4545352D01*
X27027511Y-4591107D01*
X26962750Y-4601603D01*
X26947840Y-4600000D01*
X26500000Y-4600000D01*
X26500000Y-5666026D01*
X26480119Y-5631592D01*
X26368408Y-5519881D01*
X26231591Y-5440889D01*
X26078991Y-5400000D01*
X25921009Y-5400000D01*
X25768409Y-5440889D01*
X25631592Y-5519881D01*
X25519881Y-5631592D01*
X25440889Y-5768409D01*
X25400000Y-5921009D01*
X25400000Y-6078991D01*
X25440889Y-6231591D01*
X25519881Y-6368408D01*
X25631592Y-6480119D01*
X25666027Y-6500000D01*
X24600000Y-6500000D01*
X24600000Y-6876000D01*
X24580315Y-6943039D01*
X24527511Y-6988794D01*
X24476000Y-7000000D01*
X24224000Y-7000000D01*
X24156961Y-6980315D01*
X24111206Y-6927511D01*
X24100000Y-6876000D01*
X24100000Y-5104683D01*
X24100471Y-5096810D01*
X24100279Y-5096799D01*
X24100500Y-5093107D01*
X24100500Y-5052155D01*
X24600000Y-5052155D01*
X24600000Y-5500000D01*
X25500000Y-5500000D01*
X25500000Y-4600000D01*
X25052155Y-4600000D01*
X24992627Y-4606401D01*
X24992620Y-4606403D01*
X24857913Y-4656645D01*
X24857906Y-4656649D01*
X24742812Y-4742809D01*
X24742809Y-4742812D01*
X24656649Y-4857906D01*
X24656645Y-4857913D01*
X24606403Y-4992620D01*
X24606401Y-4992627D01*
X24600000Y-5052155D01*
X24100500Y-5052155D01*
X24100500Y-4306896D01*
X24100279Y-4303206D01*
X24100470Y-4303194D01*
X24100000Y-4295318D01*
X24100000Y-2684352D01*
X24119685Y-2617313D01*
X24125187Y-2609439D01*
X24134361Y-2597342D01*
X24189877Y-2456564D01*
X24200500Y-2368102D01*
X24200500Y-1456898D01*
X24189877Y-1368436D01*
X24134361Y-1227658D01*
X24134360Y-1227656D01*
X24134359Y-1227654D01*
X24125195Y-1215569D01*
X24100373Y-1150257D01*
X24100000Y-1140646D01*
X24100000Y500000D01*
X22224000Y500000D01*
X22156961Y519685D01*
X22111206Y572489D01*
X22100000Y624000D01*
X22100000Y3947844D01*
X24600000Y3947844D01*
X24600000Y3500000D01*
X25500000Y3500000D01*
X25500000Y4400000D01*
X25052172Y4400000D01*
X25052155Y4399999D01*
X24992627Y4393598D01*
X24992620Y4393596D01*
X24857913Y4343354D01*
X24857906Y4343350D01*
X24742812Y4257190D01*
X24742809Y4257187D01*
X24656649Y4142093D01*
X24656645Y4142086D01*
X24606403Y4007379D01*
X24606401Y4007372D01*
X24600000Y3947844D01*
X22100000Y3947844D01*
X22100000Y4250500D01*
X22119685Y4317539D01*
X22172489Y4363294D01*
X22224000Y4374500D01*
X23993276Y4374500D01*
X24024549Y4377432D01*
X24024551Y4377432D01*
X24156285Y4423529D01*
X24156294Y4423534D01*
X24268588Y4506410D01*
X24268589Y4506411D01*
X24351465Y4618705D01*
X24351466Y4618707D01*
X24351469Y4618711D01*
X24353555Y4624674D01*
X24397567Y4750448D01*
X24397567Y4750450D01*
X24400500Y4781723D01*
X24400500Y5218276D01*
X24397567Y5249549D01*
X24397567Y5249551D01*
X24351470Y5381285D01*
X24351469Y5381289D01*
X24268589Y5493589D01*
X24156289Y5576469D01*
X24086045Y5601048D01*
X24024550Y5622567D01*
X23993276Y5625500D01*
X23993272Y5625500D01*
X22816200Y5625500D01*
X22749161Y5645185D01*
X22703406Y5697989D01*
X22693462Y5767147D01*
X22722487Y5830703D01*
X22775245Y5866541D01*
X22862880Y5897206D01*
X22862882Y5897207D01*
X22972150Y5977850D01*
X23052793Y6087118D01*
X23064006Y6119163D01*
X23097646Y6215298D01*
X23097646Y6215300D01*
X23100500Y6245730D01*
X23100500Y6376000D01*
X23120185Y6443039D01*
X23172989Y6488794D01*
X23224500Y6500000D01*
X24100000Y6500000D01*
X24100000Y12876000D01*
X24119685Y12943039D01*
X24172489Y12988794D01*
X24224000Y13000000D01*
X24476000Y13000000D01*
X24543039Y12980315D01*
G37*
%TD.AperFunction*%
%TA.AperFunction,Conductor*%
G36*
X26500000Y-6376000D02*
G01*
X26480315Y-6443039D01*
X26427511Y-6488794D01*
X26376000Y-6500000D01*
X26333973Y-6500000D01*
X26368408Y-6480119D01*
X26480119Y-6368408D01*
X26500000Y-6333973D01*
X26500000Y-6376000D01*
G37*
%TD.AperFunction*%
%TA.AperFunction,Conductor*%
G36*
X26500000Y2624000D02*
G01*
X26480315Y2556961D01*
X26427511Y2511206D01*
X26376000Y2500000D01*
X26333973Y2500000D01*
X26368408Y2519881D01*
X26480119Y2631592D01*
X26500000Y2666026D01*
X26500000Y2624000D01*
G37*
%TD.AperFunction*%
%TA.AperFunction,Conductor*%
G36*
X26500000Y11624000D02*
G01*
X26480315Y11556961D01*
X26427511Y11511206D01*
X26376000Y11500000D01*
X26333973Y11500000D01*
X26368408Y11519881D01*
X26480119Y11631592D01*
X26500000Y11666026D01*
X26500000Y11624000D01*
G37*
%TD.AperFunction*%
%TA.AperFunction,Conductor*%
G36*
X26443039Y12480315D02*
G01*
X26488794Y12427511D01*
X26500000Y12376000D01*
X26500000Y12333973D01*
X26480119Y12368408D01*
X26368408Y12480119D01*
X26333973Y12500000D01*
X26376000Y12500000D01*
X26443039Y12480315D01*
G37*
%TD.AperFunction*%
%TD*%
%TA.AperFunction,Conductor*%
%TO.N,GNDPWR*%
G36*
X1441011Y13179815D02*
G01*
X1486766Y13127011D01*
X1496710Y13057853D01*
X1467685Y12994297D01*
X1430975Y12966679D01*
X1431501Y12965689D01*
X1428522Y12964109D01*
X1117282Y12776843D01*
X1117266Y12776832D01*
X828071Y12556993D01*
X828070Y12556992D01*
X811888Y12541664D01*
X811888Y12541662D01*
X2059300Y11294250D01*
X1957670Y11220412D01*
X1779588Y11042330D01*
X1705747Y10940697D01*
X460970Y12185475D01*
X460969Y12185475D01*
X329177Y12030319D01*
X329170Y12030309D01*
X125318Y11729651D01*
X125316Y11729647D01*
X-44838Y11408702D01*
X-44847Y11408684D01*
X-179302Y11071227D01*
X-179304Y11071220D01*
X-276480Y10721222D01*
X-276482Y10721214D01*
X-335253Y10362728D01*
X-354920Y10000002D01*
X-354920Y9999997D01*
X-335253Y9637271D01*
X-276482Y9278785D01*
X-276480Y9278777D01*
X-179304Y8928779D01*
X-179302Y8928772D01*
X-44847Y8591315D01*
X-44838Y8591297D01*
X125316Y8270352D01*
X125318Y8270348D01*
X307198Y8002096D01*
X328527Y7935562D01*
X310499Y7868058D01*
X258838Y7821017D01*
X189945Y7809374D01*
X180373Y7810892D01*
X81799Y7830500D01*
X81797Y7830500D01*
X-81797Y7830500D01*
X-81799Y7830500D01*
X-180372Y7810892D01*
X-242248Y7798584D01*
X-393389Y7735979D01*
X-529413Y7645091D01*
X-645091Y7529413D01*
X-735979Y7393389D01*
X-798584Y7242248D01*
X-798585Y7242242D01*
X-830500Y7081799D01*
X-830500Y6918200D01*
X-823569Y6883359D01*
X-798584Y6757752D01*
X-753951Y6650000D01*
X-735980Y6606613D01*
X-735975Y6606604D01*
X-645091Y6470587D01*
X-645088Y6470583D01*
X-529416Y6354911D01*
X-529412Y6354908D01*
X-393395Y6264024D01*
X-393386Y6264019D01*
X-242248Y6201416D01*
X-242242Y6201414D01*
X-81799Y6169500D01*
X-81797Y6169500D01*
X81799Y6169500D01*
X242242Y6201414D01*
X242248Y6201416D01*
X393386Y6264019D01*
X393395Y6264024D01*
X529412Y6354908D01*
X529416Y6354911D01*
X645088Y6470583D01*
X645091Y6470587D01*
X735975Y6606604D01*
X735980Y6606613D01*
X753951Y6650000D01*
X798584Y6757752D01*
X823569Y6883359D01*
X830500Y6918200D01*
X830500Y7081799D01*
X810121Y7184248D01*
X816348Y7253840D01*
X859211Y7309017D01*
X925100Y7332262D01*
X993097Y7316195D01*
X1006779Y7307156D01*
X1117266Y7223167D01*
X1117282Y7223156D01*
X1428522Y7035890D01*
X1428535Y7035883D01*
X1758205Y6883360D01*
X1758210Y6883359D01*
X2102461Y6767367D01*
X2457235Y6689275D01*
X2818366Y6650000D01*
X3181633Y6650000D01*
X3542764Y6689275D01*
X3897538Y6767367D01*
X4241789Y6883359D01*
X4241794Y6883360D01*
X4571464Y7035883D01*
X4571477Y7035890D01*
X4882717Y7223156D01*
X4882733Y7223167D01*
X5000959Y7313039D01*
X5066241Y7337938D01*
X5134622Y7323591D01*
X5184391Y7274552D01*
X5200000Y7214323D01*
X5200000Y5331159D01*
X5180315Y5264120D01*
X5127511Y5218365D01*
X5058353Y5208421D01*
X5028547Y5216598D01*
X4871689Y5281570D01*
X4871681Y5281572D01*
X4678495Y5319999D01*
X4678492Y5320000D01*
X4280000Y5320000D01*
X4280000Y4620000D01*
X3780000Y4620000D01*
X3780000Y5320000D01*
X3381508Y5320000D01*
X3381504Y5319999D01*
X3188318Y5281572D01*
X3188306Y5281569D01*
X3006328Y5206192D01*
X3006315Y5206185D01*
X2842537Y5096751D01*
X2842533Y5096748D01*
X2703251Y4957466D01*
X2703248Y4957462D01*
X2593814Y4793684D01*
X2593807Y4793671D01*
X2518430Y4611692D01*
X2518430Y4611690D01*
X2510138Y4570000D01*
X3313012Y4570000D01*
X3295795Y4560060D01*
X3239940Y4504205D01*
X3200444Y4435796D01*
X3180000Y4359496D01*
X3180000Y4280504D01*
X3200444Y4204204D01*
X3239940Y4135795D01*
X3295795Y4079940D01*
X3313012Y4070000D01*
X2510138Y4070000D01*
X2518430Y4028309D01*
X2518430Y4028307D01*
X2593807Y3846328D01*
X2593814Y3846315D01*
X2703248Y3682537D01*
X2703251Y3682533D01*
X2842536Y3543248D01*
X3011387Y3430427D01*
X3009889Y3428185D01*
X3051323Y3386789D01*
X3066206Y3318523D01*
X3041819Y3253047D01*
X3040892Y3251824D01*
X3036283Y3245818D01*
X2959993Y3113681D01*
X2959992Y3113678D01*
X2920500Y2966293D01*
X2920500Y2813707D01*
X2935611Y2757314D01*
X2959993Y2666318D01*
X3036282Y2534182D01*
X3036287Y2534176D01*
X3144176Y2426287D01*
X3144182Y2426282D01*
X3276318Y2349993D01*
X3276327Y2349989D01*
X3278464Y2349417D01*
X3280061Y2348443D01*
X3283826Y2346884D01*
X3283582Y2346296D01*
X3338122Y2313048D01*
X3368647Y2250199D01*
X3360347Y2180824D01*
X3353747Y2167642D01*
X3353497Y2167209D01*
X3324500Y2058990D01*
X3324500Y-1946954D01*
X3324500Y-2058990D01*
X3329223Y-2076614D01*
X3353497Y-2167208D01*
X3353498Y-2167211D01*
X3353747Y-2167642D01*
X3353846Y-2168051D01*
X3356608Y-2174719D01*
X3355568Y-2175149D01*
X3370222Y-2235541D01*
X3347372Y-2301569D01*
X3292452Y-2344761D01*
X3278464Y-2349417D01*
X3276327Y-2349989D01*
X3276318Y-2349993D01*
X3144182Y-2426282D01*
X3144176Y-2426287D01*
X3036287Y-2534176D01*
X3036282Y-2534182D01*
X2959993Y-2666318D01*
X2959992Y-2666322D01*
X2920500Y-2813707D01*
X2920500Y-2966293D01*
X2959992Y-3113678D01*
X2959993Y-3113681D01*
X3036283Y-3245818D01*
X3040892Y-3251824D01*
X3066088Y-3316993D01*
X3052051Y-3385438D01*
X3010060Y-3428441D01*
X3011387Y-3430427D01*
X2842536Y-3543248D01*
X2703251Y-3682533D01*
X2703248Y-3682537D01*
X2593814Y-3846315D01*
X2593807Y-3846328D01*
X2518430Y-4028307D01*
X2518430Y-4028309D01*
X2510138Y-4070000D01*
X3313012Y-4070000D01*
X3295795Y-4079940D01*
X3239940Y-4135795D01*
X3200444Y-4204204D01*
X3180000Y-4280504D01*
X3180000Y-4359496D01*
X3200444Y-4435796D01*
X3239940Y-4504205D01*
X3295795Y-4560060D01*
X3313012Y-4570000D01*
X2510138Y-4570000D01*
X2518430Y-4611690D01*
X2518430Y-4611692D01*
X2593807Y-4793671D01*
X2593814Y-4793684D01*
X2703248Y-4957462D01*
X2703251Y-4957466D01*
X2842533Y-5096748D01*
X2842537Y-5096751D01*
X3006315Y-5206185D01*
X3006328Y-5206192D01*
X3188306Y-5281569D01*
X3188318Y-5281572D01*
X3381504Y-5319999D01*
X3381508Y-5320000D01*
X3780000Y-5320000D01*
X3780000Y-4620000D01*
X4280000Y-4620000D01*
X4280000Y-5320000D01*
X4678492Y-5320000D01*
X4678495Y-5319999D01*
X4871681Y-5281572D01*
X4871689Y-5281570D01*
X5028547Y-5216598D01*
X5098017Y-5209129D01*
X5160496Y-5240404D01*
X5196148Y-5300493D01*
X5200000Y-5331159D01*
X5200000Y-7214323D01*
X5180315Y-7281362D01*
X5127511Y-7327117D01*
X5058353Y-7337061D01*
X5000959Y-7313039D01*
X4882733Y-7223167D01*
X4882717Y-7223156D01*
X4571477Y-7035890D01*
X4571464Y-7035883D01*
X4241794Y-6883360D01*
X4241789Y-6883359D01*
X3897538Y-6767367D01*
X3542764Y-6689275D01*
X3181633Y-6650000D01*
X2818366Y-6650000D01*
X2457235Y-6689275D01*
X2102461Y-6767367D01*
X1758210Y-6883359D01*
X1758205Y-6883360D01*
X1428535Y-7035883D01*
X1428522Y-7035890D01*
X1117282Y-7223156D01*
X1117266Y-7223167D01*
X828075Y-7443002D01*
X811888Y-7458335D01*
X811887Y-7458335D01*
X2059301Y-8705748D01*
X1957670Y-8779588D01*
X1779588Y-8957670D01*
X1705748Y-9059300D01*
X460970Y-7814522D01*
X460969Y-7814523D01*
X329177Y-7969680D01*
X329170Y-7969690D01*
X125318Y-8270348D01*
X125316Y-8270352D01*
X-44838Y-8591297D01*
X-44847Y-8591315D01*
X-179302Y-8928772D01*
X-179304Y-8928779D01*
X-276480Y-9278777D01*
X-276482Y-9278785D01*
X-335253Y-9637271D01*
X-354920Y-9999997D01*
X-354920Y-10000002D01*
X-335253Y-10362728D01*
X-276482Y-10721214D01*
X-276480Y-10721222D01*
X-179304Y-11071220D01*
X-179302Y-11071227D01*
X-44847Y-11408684D01*
X-44838Y-11408702D01*
X125316Y-11729647D01*
X125318Y-11729651D01*
X329170Y-12030309D01*
X329177Y-12030319D01*
X460969Y-12185475D01*
X460970Y-12185475D01*
X1705748Y-10940698D01*
X1779588Y-11042330D01*
X1957670Y-11220412D01*
X2059299Y-11294250D01*
X811888Y-12541662D01*
X811888Y-12541664D01*
X828070Y-12556992D01*
X828071Y-12556993D01*
X1117266Y-12776832D01*
X1117282Y-12776843D01*
X1428522Y-12964109D01*
X1431501Y-12965689D01*
X1430755Y-12967094D01*
X1478608Y-13008962D01*
X1497971Y-13076095D01*
X1477964Y-13143040D01*
X1424941Y-13188540D01*
X1373972Y-13199500D01*
X-990243Y-13199500D01*
X-1009638Y-13197973D01*
X-1025888Y-13195399D01*
X-1042250Y-13192808D01*
X-1079144Y-13180821D01*
X-1099762Y-13170316D01*
X-1131150Y-13147511D01*
X-1147511Y-13131150D01*
X-1170316Y-13099762D01*
X-1180821Y-13079144D01*
X-1192808Y-13042250D01*
X-1197973Y-13009642D01*
X-1199500Y-12990243D01*
X-1199500Y-5253878D01*
X-1179815Y-5186839D01*
X-1127011Y-5141084D01*
X-1057853Y-5131140D01*
X-1006609Y-5150776D01*
X-923683Y-5206185D01*
X-923671Y-5206192D01*
X-741693Y-5281569D01*
X-741681Y-5281572D01*
X-548495Y-5319999D01*
X-548492Y-5320000D01*
X-400000Y-5320000D01*
X-400000Y-4620000D01*
X100000Y-4620000D01*
X100000Y-5320000D01*
X248492Y-5320000D01*
X248495Y-5319999D01*
X441681Y-5281572D01*
X441693Y-5281569D01*
X623671Y-5206192D01*
X623684Y-5206185D01*
X787462Y-5096751D01*
X787466Y-5096748D01*
X926748Y-4957466D01*
X926751Y-4957462D01*
X1036185Y-4793684D01*
X1036192Y-4793671D01*
X1111569Y-4611692D01*
X1111569Y-4611690D01*
X1119862Y-4570000D01*
X316988Y-4570000D01*
X334205Y-4560060D01*
X390060Y-4504205D01*
X429556Y-4435796D01*
X450000Y-4359496D01*
X450000Y-4280504D01*
X429556Y-4204204D01*
X390060Y-4135795D01*
X334205Y-4079940D01*
X316988Y-4070000D01*
X1119862Y-4070000D01*
X1111569Y-4028309D01*
X1111569Y-4028307D01*
X1036192Y-3846328D01*
X1036185Y-3846315D01*
X926751Y-3682537D01*
X926748Y-3682533D01*
X787466Y-3543251D01*
X787462Y-3543248D01*
X623684Y-3433814D01*
X623671Y-3433807D01*
X441693Y-3358430D01*
X441681Y-3358427D01*
X248495Y-3320000D01*
X100000Y-3320000D01*
X100000Y-4020000D01*
X-400000Y-4020000D01*
X-400000Y-3320000D01*
X-548495Y-3320000D01*
X-741681Y-3358427D01*
X-741693Y-3358430D01*
X-923671Y-3433807D01*
X-923684Y-3433814D01*
X-1006609Y-3489223D01*
X-1073287Y-3510101D01*
X-1140667Y-3491616D01*
X-1187357Y-3439637D01*
X-1199500Y-3386121D01*
X-1199500Y3386121D01*
X-1179815Y3453160D01*
X-1127011Y3498915D01*
X-1057853Y3508859D01*
X-1006609Y3489223D01*
X-923684Y3433814D01*
X-923671Y3433807D01*
X-741693Y3358430D01*
X-741681Y3358427D01*
X-548495Y3320000D01*
X-400000Y3320000D01*
X-400000Y4020000D01*
X100000Y4020000D01*
X100000Y3320000D01*
X248495Y3320000D01*
X441681Y3358427D01*
X441693Y3358430D01*
X623671Y3433807D01*
X623684Y3433814D01*
X787462Y3543248D01*
X787466Y3543251D01*
X926748Y3682533D01*
X926751Y3682537D01*
X1036185Y3846315D01*
X1036192Y3846328D01*
X1111569Y4028307D01*
X1111569Y4028309D01*
X1119862Y4070000D01*
X316988Y4070000D01*
X334205Y4079940D01*
X390060Y4135795D01*
X429556Y4204204D01*
X450000Y4280504D01*
X450000Y4359496D01*
X429556Y4435796D01*
X390060Y4504205D01*
X334205Y4560060D01*
X316988Y4570000D01*
X1119862Y4570000D01*
X1111569Y4611690D01*
X1111569Y4611692D01*
X1036192Y4793671D01*
X1036185Y4793684D01*
X926751Y4957462D01*
X926748Y4957466D01*
X787466Y5096748D01*
X787462Y5096751D01*
X623684Y5206185D01*
X623671Y5206192D01*
X441693Y5281569D01*
X441681Y5281572D01*
X248495Y5319999D01*
X248492Y5320000D01*
X100000Y5320000D01*
X100000Y4620000D01*
X-400000Y4620000D01*
X-400000Y5320000D01*
X-548492Y5320000D01*
X-548495Y5319999D01*
X-741681Y5281572D01*
X-741693Y5281569D01*
X-923671Y5206192D01*
X-923683Y5206185D01*
X-1006609Y5150776D01*
X-1073286Y5129898D01*
X-1140666Y5148382D01*
X-1187357Y5200361D01*
X-1199500Y5253878D01*
X-1199500Y12990244D01*
X-1197973Y13009643D01*
X-1192808Y13042251D01*
X-1180820Y13079147D01*
X-1170315Y13099764D01*
X-1147511Y13131150D01*
X-1131150Y13147511D01*
X-1099762Y13170316D01*
X-1079144Y13180821D01*
X-1042250Y13192808D01*
X-1025888Y13195399D01*
X-1009638Y13197973D01*
X-990243Y13199500D01*
X1373972Y13199500D01*
X1441011Y13179815D01*
G37*
%TD.AperFunction*%
%TD*%
%TA.AperFunction,Conductor*%
%TO.N,GND*%
G36*
X21730300Y690958D02*
G01*
X21779052Y653987D01*
X21796217Y608033D01*
X21801483Y559048D01*
X21812681Y507574D01*
X21812686Y507554D01*
X21812688Y507548D01*
X21823646Y469342D01*
X21831028Y456719D01*
X21880327Y372426D01*
X21926079Y319625D01*
X21926080Y319624D01*
X21970814Y277446D01*
X22070885Y226562D01*
X22070892Y226559D01*
X22137921Y206877D01*
X22137931Y206875D01*
X22206629Y196997D01*
X22224000Y194500D01*
X23695500Y194500D01*
X23753691Y175593D01*
X23789655Y126093D01*
X23794500Y95500D01*
X23794500Y-1140666D01*
X23794728Y-1152448D01*
X23795103Y-1162105D01*
X23814802Y-1258789D01*
X23839476Y-1323713D01*
X23839624Y-1324101D01*
X23843005Y-1330202D01*
X23851657Y-1345817D01*
X23857158Y-1357479D01*
X23886569Y-1432059D01*
X23892766Y-1456573D01*
X23894294Y-1469296D01*
X23895000Y-1481101D01*
X23895000Y-2343897D01*
X23894293Y-2355709D01*
X23892764Y-2368433D01*
X23886569Y-2392939D01*
X23858444Y-2464260D01*
X23855587Y-2470802D01*
X23826562Y-2531236D01*
X23826561Y-2531237D01*
X23806877Y-2598273D01*
X23806875Y-2598283D01*
X23794500Y-2684352D01*
X23794500Y-3712085D01*
X23775593Y-3770276D01*
X23726093Y-3806240D01*
X23683696Y-3810379D01*
X23593106Y-3799500D01*
X23593102Y-3799500D01*
X22606898Y-3799500D01*
X22606893Y-3799500D01*
X22518434Y-3810123D01*
X22377660Y-3865637D01*
X22377656Y-3865640D01*
X22257081Y-3957075D01*
X22257078Y-3957078D01*
X22178382Y-4060852D01*
X22128157Y-4095794D01*
X22066984Y-4094540D01*
X22018232Y-4057569D01*
X22000500Y-4001032D01*
X22000500Y-3456899D01*
X22000499Y-3456893D01*
X21989877Y-3368436D01*
X21934361Y-3227658D01*
X21842922Y-3107078D01*
X21722342Y-3015639D01*
X21722341Y-3015638D01*
X21722339Y-3015637D01*
X21581565Y-2960123D01*
X21493106Y-2949500D01*
X21493102Y-2949500D01*
X20506898Y-2949500D01*
X20506893Y-2949500D01*
X20418434Y-2960123D01*
X20277660Y-3015637D01*
X20277656Y-3015640D01*
X20157081Y-3107075D01*
X20157075Y-3107081D01*
X20065640Y-3227656D01*
X20065637Y-3227660D01*
X20010123Y-3368434D01*
X19999500Y-3456893D01*
X19999500Y-4193106D01*
X20010123Y-4281565D01*
X20065637Y-4422339D01*
X20065638Y-4422341D01*
X20065639Y-4422342D01*
X20157078Y-4542922D01*
X20277658Y-4634361D01*
X20277659Y-4634361D01*
X20277660Y-4634362D01*
X20336603Y-4657606D01*
X20418436Y-4689877D01*
X20506898Y-4700500D01*
X21055967Y-4700500D01*
X21114158Y-4719407D01*
X21125970Y-4729496D01*
X21332419Y-4935944D01*
X21536985Y-5140510D01*
X21662515Y-5212984D01*
X21802525Y-5250500D01*
X21802526Y-5250500D01*
X21947474Y-5250500D01*
X22069929Y-5250500D01*
X22128120Y-5269407D01*
X22162026Y-5313180D01*
X22164425Y-5319265D01*
X22165639Y-5322342D01*
X22257078Y-5442922D01*
X22377658Y-5534361D01*
X22377659Y-5534361D01*
X22377660Y-5534362D01*
X22448047Y-5562119D01*
X22518436Y-5589877D01*
X22606898Y-5600500D01*
X22606900Y-5600500D01*
X23593100Y-5600500D01*
X23593102Y-5600500D01*
X23681564Y-5589877D01*
X23681567Y-5589875D01*
X23683695Y-5589620D01*
X23743725Y-5601454D01*
X23785335Y-5646312D01*
X23794500Y-5687914D01*
X23794500Y-5712085D01*
X23775593Y-5770276D01*
X23726093Y-5806240D01*
X23683696Y-5810379D01*
X23593106Y-5799500D01*
X23593102Y-5799500D01*
X22606898Y-5799500D01*
X22606893Y-5799500D01*
X22518434Y-5810123D01*
X22377660Y-5865637D01*
X22377656Y-5865640D01*
X22257081Y-5957075D01*
X22257075Y-5957081D01*
X22165640Y-6077656D01*
X22165637Y-6077660D01*
X22110123Y-6218434D01*
X22099500Y-6306893D01*
X22099500Y-7093106D01*
X22110123Y-7181565D01*
X22165637Y-7322339D01*
X22165638Y-7322341D01*
X22165639Y-7322342D01*
X22199833Y-7367434D01*
X22248746Y-7431935D01*
X22257898Y-7458257D01*
X22298226Y-7474126D01*
X22377658Y-7534361D01*
X22377660Y-7534361D01*
X22377660Y-7534362D01*
X22417536Y-7550087D01*
X22518436Y-7589877D01*
X22606898Y-7600500D01*
X22606900Y-7600500D01*
X23593100Y-7600500D01*
X23593102Y-7600500D01*
X23681564Y-7589877D01*
X23822342Y-7534361D01*
X23942922Y-7442922D01*
X24030085Y-7327979D01*
X24080310Y-7293038D01*
X24134371Y-7292822D01*
X24134470Y-7292372D01*
X24136504Y-7292814D01*
X24136868Y-7292813D01*
X24137586Y-7293023D01*
X24137928Y-7293124D01*
X24224000Y-7305500D01*
X24224001Y-7305500D01*
X24475996Y-7305500D01*
X24476000Y-7305500D01*
X24540941Y-7298518D01*
X24540949Y-7298516D01*
X24540951Y-7298516D01*
X24592425Y-7287318D01*
X24592426Y-7287317D01*
X24592452Y-7287312D01*
X24630658Y-7276354D01*
X24727571Y-7219675D01*
X24780375Y-7173920D01*
X24792340Y-7161229D01*
X24846014Y-7131861D01*
X24906701Y-7139650D01*
X24920320Y-7147469D01*
X24927233Y-7152204D01*
X24927235Y-7152206D01*
X25030009Y-7197585D01*
X25055135Y-7200500D01*
X25184867Y-7200499D01*
X25243056Y-7219406D01*
X25279020Y-7268906D01*
X25279021Y-7330091D01*
X25261395Y-7362303D01*
X25184975Y-7455421D01*
X25184969Y-7455430D01*
X25094397Y-7624880D01*
X25094395Y-7624885D01*
X25038614Y-7808768D01*
X25038613Y-7808773D01*
X25019780Y-7999996D01*
X25019780Y-8000003D01*
X25038613Y-8191226D01*
X25038614Y-8191231D01*
X25094395Y-8375114D01*
X25094397Y-8375119D01*
X25184969Y-8544569D01*
X25184975Y-8544578D01*
X25184977Y-8544581D01*
X25248791Y-8622339D01*
X25306877Y-8693117D01*
X25306878Y-8693118D01*
X25306880Y-8693120D01*
X25413305Y-8780461D01*
X25446292Y-8831991D01*
X25449500Y-8856988D01*
X25449500Y-9143010D01*
X25430593Y-9201201D01*
X25413306Y-9219537D01*
X25317891Y-9297844D01*
X25306879Y-9306881D01*
X25306875Y-9306885D01*
X25184976Y-9455420D01*
X25184969Y-9455430D01*
X25094397Y-9624880D01*
X25094395Y-9624885D01*
X25038614Y-9808768D01*
X25038613Y-9808773D01*
X25019780Y-9999996D01*
X25019780Y-10000003D01*
X25038613Y-10191226D01*
X25038614Y-10191231D01*
X25094395Y-10375114D01*
X25094397Y-10375119D01*
X25184969Y-10544569D01*
X25184975Y-10544578D01*
X25184977Y-10544581D01*
X25234196Y-10604555D01*
X25306875Y-10693115D01*
X25306884Y-10693124D01*
X25425333Y-10790332D01*
X25458320Y-10841863D01*
X25454718Y-10902942D01*
X25415903Y-10950239D01*
X25414645Y-10951031D01*
X25390343Y-10966078D01*
X25844709Y-11420444D01*
X25768409Y-11440889D01*
X25631592Y-11519881D01*
X25519881Y-11631592D01*
X25440889Y-11768409D01*
X25420444Y-11844709D01*
X24964045Y-11388310D01*
X24964044Y-11388310D01*
X24876240Y-11564647D01*
X24815379Y-11778554D01*
X24794859Y-12000000D01*
X24815379Y-12221445D01*
X24876240Y-12435350D01*
X24964044Y-12611688D01*
X24964045Y-12611688D01*
X25420443Y-12155289D01*
X25440889Y-12231591D01*
X25519881Y-12368408D01*
X25631592Y-12480119D01*
X25768409Y-12559111D01*
X25844708Y-12579555D01*
X25390342Y-13033921D01*
X25392491Y-13052446D01*
X25401454Y-13063039D01*
X25405971Y-13124057D01*
X25373761Y-13176077D01*
X25317125Y-13199230D01*
X25309815Y-13199500D01*
X21075945Y-13199500D01*
X21017754Y-13180593D01*
X20981790Y-13131093D01*
X20981790Y-13069907D01*
X21017754Y-13020407D01*
X21048538Y-13005369D01*
X21067174Y-13000000D01*
X21142184Y-12978390D01*
X21469105Y-12842975D01*
X21778808Y-12671808D01*
X22067400Y-12467041D01*
X22331250Y-12231250D01*
X22500025Y-12042389D01*
X22552898Y-12011600D01*
X22613771Y-12017768D01*
X22659394Y-12058539D01*
X22670941Y-12089044D01*
X22693122Y-12200554D01*
X22701416Y-12242248D01*
X22726100Y-12301840D01*
X22764020Y-12393388D01*
X22840495Y-12507841D01*
X22854909Y-12529413D01*
X22970587Y-12645091D01*
X23106611Y-12735979D01*
X23257752Y-12798584D01*
X23418203Y-12830500D01*
X23418204Y-12830500D01*
X23581796Y-12830500D01*
X23581797Y-12830500D01*
X23742248Y-12798584D01*
X23893389Y-12735979D01*
X24029413Y-12645091D01*
X24145091Y-12529413D01*
X24235979Y-12393389D01*
X24298584Y-12242248D01*
X24330500Y-12081797D01*
X24330500Y-11918203D01*
X24298584Y-11757752D01*
X24235979Y-11606611D01*
X24145091Y-11470587D01*
X24029413Y-11354909D01*
X23893389Y-11264021D01*
X23893390Y-11264021D01*
X23893388Y-11264020D01*
X23742246Y-11201415D01*
X23581799Y-11169500D01*
X23581797Y-11169500D01*
X23418203Y-11169500D01*
X23418200Y-11169500D01*
X23257752Y-11201416D01*
X23257750Y-11201416D01*
X23182439Y-11232611D01*
X23121442Y-11237411D01*
X23069273Y-11205442D01*
X23045859Y-11148914D01*
X23053089Y-11103265D01*
X23078390Y-11042184D01*
X23176350Y-10702157D01*
X23235623Y-10353300D01*
X23236690Y-10334310D01*
X23255464Y-10000004D01*
X23255464Y-9999995D01*
X23235624Y-9646709D01*
X23235621Y-9646689D01*
X23231916Y-9624880D01*
X23176350Y-9297843D01*
X23078390Y-8957816D01*
X22950630Y-8649376D01*
X22942973Y-8630890D01*
X22822483Y-8412882D01*
X22771808Y-8321192D01*
X22724321Y-8254266D01*
X22567043Y-8032603D01*
X22567041Y-8032600D01*
X22331250Y-7768750D01*
X22172440Y-7626828D01*
X22148872Y-7586358D01*
X22141205Y-7586516D01*
X22103895Y-7565573D01*
X22067400Y-7532959D01*
X21967811Y-7462297D01*
X21778810Y-7328193D01*
X21469108Y-7157026D01*
X21469109Y-7157026D01*
X21142182Y-7021609D01*
X20802155Y-6923649D01*
X20453310Y-6864378D01*
X20453290Y-6864375D01*
X20100005Y-6844536D01*
X20099995Y-6844536D01*
X19746709Y-6864375D01*
X19746689Y-6864378D01*
X19397844Y-6923649D01*
X19057817Y-7021609D01*
X18730890Y-7157026D01*
X18421189Y-7328193D01*
X18132603Y-7532956D01*
X17868757Y-7768743D01*
X17868743Y-7768757D01*
X17632956Y-8032603D01*
X17428193Y-8321189D01*
X17257026Y-8630890D01*
X17121609Y-8957817D01*
X17023649Y-9297844D01*
X16964378Y-9646689D01*
X16964375Y-9646709D01*
X16944536Y-9999995D01*
X16944536Y-10000004D01*
X16964375Y-10353290D01*
X16964378Y-10353310D01*
X17023649Y-10702155D01*
X17121609Y-11042182D01*
X17257026Y-11369109D01*
X17428193Y-11678810D01*
X17627255Y-11959361D01*
X17632959Y-11967400D01*
X17868750Y-12231250D01*
X18132600Y-12467041D01*
X18421192Y-12671808D01*
X18730891Y-12842973D01*
X18730890Y-12842973D01*
X18730895Y-12842975D01*
X19057816Y-12978390D01*
X19095203Y-12989161D01*
X19151462Y-13005369D01*
X19202144Y-13039647D01*
X19222999Y-13097168D01*
X19206061Y-13155962D01*
X19157799Y-13193572D01*
X19124055Y-13199500D01*
X10198968Y-13199500D01*
X10140777Y-13180593D01*
X10104813Y-13131093D01*
X10104813Y-13069907D01*
X10139147Y-13021617D01*
X10242922Y-12942922D01*
X10334361Y-12822342D01*
X10389877Y-12681564D01*
X10400500Y-12593102D01*
X10400500Y-11606898D01*
X10389877Y-11518436D01*
X10343172Y-11400000D01*
X10334362Y-11377660D01*
X10334361Y-11377659D01*
X10334361Y-11377658D01*
X10242922Y-11257078D01*
X10122342Y-11165639D01*
X10122341Y-11165638D01*
X10122339Y-11165637D01*
X9981565Y-11110123D01*
X9893106Y-11099500D01*
X9893102Y-11099500D01*
X9177610Y-11099500D01*
X9119419Y-11080593D01*
X9107606Y-11070503D01*
X8756607Y-10719503D01*
X8728830Y-10664987D01*
X8738401Y-10604555D01*
X8781666Y-10561290D01*
X8826611Y-10550500D01*
X9904273Y-10550500D01*
X9904273Y-10550499D01*
X9934699Y-10547646D01*
X10062882Y-10502793D01*
X10172150Y-10422150D01*
X10252793Y-10312882D01*
X10297646Y-10184699D01*
X10300499Y-10154273D01*
X10300500Y-10154273D01*
X10300500Y-9745727D01*
X10300499Y-9745725D01*
X10297646Y-9715305D01*
X10297646Y-9715301D01*
X10252793Y-9587118D01*
X10251186Y-9584941D01*
X10172154Y-9477855D01*
X10172152Y-9477853D01*
X10172150Y-9477850D01*
X10172146Y-9477847D01*
X10172144Y-9477845D01*
X10062883Y-9397207D01*
X9934703Y-9352355D01*
X9934694Y-9352353D01*
X9904274Y-9349500D01*
X9904266Y-9349500D01*
X8770734Y-9349500D01*
X8770731Y-9349500D01*
X8758740Y-9350624D01*
X8699038Y-9337230D01*
X8658612Y-9291303D01*
X8650500Y-9252056D01*
X8650500Y-8747943D01*
X8669407Y-8689752D01*
X8718907Y-8653788D01*
X8758746Y-8649376D01*
X8770728Y-8650500D01*
X8770734Y-8650500D01*
X9904273Y-8650500D01*
X9904273Y-8650499D01*
X9934699Y-8647646D01*
X10062882Y-8602793D01*
X10172150Y-8522150D01*
X10252793Y-8412882D01*
X10297646Y-8284699D01*
X10300499Y-8254273D01*
X10300500Y-8254273D01*
X10300500Y-7845727D01*
X10300499Y-7845725D01*
X10297646Y-7815305D01*
X10297646Y-7815301D01*
X10252793Y-7687118D01*
X10217613Y-7639451D01*
X10199912Y-7615466D01*
X10183849Y-7567260D01*
X10177834Y-7568213D01*
X10134533Y-7550087D01*
X10062883Y-7497207D01*
X9934703Y-7452355D01*
X9934694Y-7452353D01*
X9904274Y-7449500D01*
X9904266Y-7449500D01*
X9849500Y-7449500D01*
X9791309Y-7430593D01*
X9755345Y-7381093D01*
X9750500Y-7350500D01*
X9750500Y-7340692D01*
X9750500Y-7340691D01*
X9719799Y-7226114D01*
X9716081Y-7219675D01*
X9686005Y-7167581D01*
X9686005Y-7167580D01*
X9665382Y-7131861D01*
X9660489Y-7123386D01*
X9506604Y-6969501D01*
X9478829Y-6914987D01*
X9488400Y-6854555D01*
X9531665Y-6811290D01*
X9576610Y-6800500D01*
X9622389Y-6800500D01*
X9680580Y-6819407D01*
X9692393Y-6829496D01*
X10263325Y-7400428D01*
X10291102Y-7454945D01*
X10289914Y-7462443D01*
X10309454Y-7462297D01*
X10349571Y-7486674D01*
X10470504Y-7607607D01*
X10498281Y-7662124D01*
X10499500Y-7677611D01*
X10499500Y-8393106D01*
X10510123Y-8481565D01*
X10565637Y-8622339D01*
X10565638Y-8622341D01*
X10565639Y-8622342D01*
X10657078Y-8742922D01*
X10777658Y-8834361D01*
X10777659Y-8834361D01*
X10777660Y-8834362D01*
X10835036Y-8856988D01*
X10918436Y-8889877D01*
X11006898Y-8900500D01*
X11006900Y-8900500D01*
X11972724Y-8900500D01*
X12030915Y-8919407D01*
X12066879Y-8968907D01*
X12071002Y-9011432D01*
X12069355Y-9025000D01*
X12089860Y-9193872D01*
X12150182Y-9352930D01*
X12246817Y-9492929D01*
X12291149Y-9532203D01*
X12322167Y-9584941D01*
X12324500Y-9606305D01*
X12324500Y-10334310D01*
X12329588Y-10353297D01*
X12329588Y-10353300D01*
X12329589Y-10353300D01*
X12355202Y-10448891D01*
X12414507Y-10551609D01*
X12414509Y-10551611D01*
X12414511Y-10551614D01*
X12583005Y-10720108D01*
X12610781Y-10774623D01*
X12612000Y-10790110D01*
X12612000Y-11518106D01*
X12622623Y-11606565D01*
X12678137Y-11747339D01*
X12678138Y-11747341D01*
X12678139Y-11747342D01*
X12769578Y-11867922D01*
X12890158Y-11959361D01*
X12890159Y-11959361D01*
X12890160Y-11959362D01*
X12910533Y-11967396D01*
X13030936Y-12014877D01*
X13119398Y-12025500D01*
X13119400Y-12025500D01*
X13880600Y-12025500D01*
X13880602Y-12025500D01*
X13969064Y-12014877D01*
X14109842Y-11959361D01*
X14230422Y-11867922D01*
X14321861Y-11747342D01*
X14377377Y-11606564D01*
X14388000Y-11518102D01*
X14388000Y-10481898D01*
X14377377Y-10393436D01*
X14321861Y-10252658D01*
X14230422Y-10132078D01*
X14109842Y-10040639D01*
X14109841Y-10040638D01*
X14109839Y-10040637D01*
X13969065Y-9985123D01*
X13880606Y-9974500D01*
X13880602Y-9974500D01*
X13324500Y-9974500D01*
X13266309Y-9955593D01*
X13230345Y-9906093D01*
X13225500Y-9875500D01*
X13225500Y-9606305D01*
X13244407Y-9548114D01*
X13258846Y-9532207D01*
X13303183Y-9492929D01*
X13382558Y-9377935D01*
X13431173Y-9340786D01*
X13492341Y-9339308D01*
X13542695Y-9374065D01*
X13544562Y-9377030D01*
X13544633Y-9376979D01*
X13549209Y-9383278D01*
X13549211Y-9383281D01*
X13641719Y-9475789D01*
X13758285Y-9535182D01*
X13854997Y-9550500D01*
X14145002Y-9550499D01*
X14145005Y-9550499D01*
X14170647Y-9546437D01*
X14241715Y-9535182D01*
X14358281Y-9475789D01*
X14450789Y-9383281D01*
X14510182Y-9266715D01*
X14525500Y-9170003D01*
X14525499Y-7829998D01*
X14525499Y-7829994D01*
X14520083Y-7795803D01*
X14510182Y-7733285D01*
X14450789Y-7616719D01*
X14450787Y-7616717D01*
X14450786Y-7616715D01*
X14447042Y-7611562D01*
X14428134Y-7553372D01*
X14447041Y-7495181D01*
X14477631Y-7467636D01*
X14576614Y-7410489D01*
X15010490Y-6976614D01*
X15069799Y-6873887D01*
X15088123Y-6805500D01*
X15100500Y-6759309D01*
X15100500Y-6747615D01*
X15111289Y-6702672D01*
X15160182Y-6606715D01*
X15175500Y-6510003D01*
X15175499Y-6134031D01*
X15194406Y-6075841D01*
X15204488Y-6064035D01*
X15740510Y-5528015D01*
X15812984Y-5402485D01*
X15821116Y-5372138D01*
X15834180Y-5323385D01*
X15846572Y-5277133D01*
X15850500Y-5262475D01*
X15850500Y-3099500D01*
X15869407Y-3041309D01*
X15918907Y-3005345D01*
X15949500Y-3000500D01*
X16293100Y-3000500D01*
X16293102Y-3000500D01*
X16381564Y-2989877D01*
X16522342Y-2934361D01*
X16642922Y-2842922D01*
X16734361Y-2722342D01*
X16789877Y-2581564D01*
X16800500Y-2493102D01*
X16800500Y-1826611D01*
X16819407Y-1768420D01*
X16868907Y-1732456D01*
X16930093Y-1732456D01*
X16969504Y-1756607D01*
X17170504Y-1957607D01*
X17198281Y-2012124D01*
X17199500Y-2027611D01*
X17199500Y-2516148D01*
X17209641Y-2600591D01*
X17262634Y-2734972D01*
X17262635Y-2734974D01*
X17262636Y-2734975D01*
X17349922Y-2850078D01*
X17465025Y-2937364D01*
X17465026Y-2937364D01*
X17465027Y-2937365D01*
X17522737Y-2960123D01*
X17599410Y-2990359D01*
X17683856Y-3000500D01*
X17683858Y-3000500D01*
X18516142Y-3000500D01*
X18516144Y-3000500D01*
X18600590Y-2990359D01*
X18734975Y-2937364D01*
X18850078Y-2850078D01*
X18937364Y-2734975D01*
X18990359Y-2600590D01*
X19000500Y-2516144D01*
X19000500Y-1983856D01*
X18990359Y-1899410D01*
X18937364Y-1765025D01*
X18850078Y-1649922D01*
X18734975Y-1562636D01*
X18734974Y-1562635D01*
X18734972Y-1562634D01*
X18600591Y-1509641D01*
X18516148Y-1499500D01*
X18516144Y-1499500D01*
X18027612Y-1499500D01*
X17969421Y-1480593D01*
X17957608Y-1470504D01*
X17806608Y-1319504D01*
X17778831Y-1264987D01*
X17788402Y-1204555D01*
X17831667Y-1161290D01*
X17876612Y-1150500D01*
X18035053Y-1150500D01*
X18035056Y-1150500D01*
X18200225Y-1109790D01*
X18350852Y-1030734D01*
X18478183Y-917929D01*
X18574818Y-777930D01*
X18635140Y-618872D01*
X18655645Y-450000D01*
X18655021Y-444865D01*
X18651370Y-414796D01*
X18635140Y-281128D01*
X18574818Y-122070D01*
X18478183Y17929D01*
X18436186Y55135D01*
X18355748Y126398D01*
X18324729Y179138D01*
X18330635Y240037D01*
X18371208Y285835D01*
X18421397Y299500D01*
X18516148Y299500D01*
X18600591Y309641D01*
X18734972Y362634D01*
X18747885Y372426D01*
X18850078Y449922D01*
X18857962Y460319D01*
X18908188Y495261D01*
X18936846Y499500D01*
X19162407Y499500D01*
X19208415Y488160D01*
X19299776Y440209D01*
X19464941Y399500D01*
X19464944Y399500D01*
X19635058Y399500D01*
X19800223Y440209D01*
X19848677Y465640D01*
X19869199Y476411D01*
X19929511Y486712D01*
X19975026Y467635D01*
X19977656Y465640D01*
X19977660Y465637D01*
X20118434Y410123D01*
X20206893Y399500D01*
X20206898Y399500D01*
X21193106Y399500D01*
X21281565Y410123D01*
X21422339Y465637D01*
X21422343Y465640D01*
X21422796Y465983D01*
X21542922Y557078D01*
X21548948Y565025D01*
X21618901Y657270D01*
X21669127Y692212D01*
X21730300Y690958D01*
G37*
%TD.AperFunction*%
%TA.AperFunction,Conductor*%
G36*
X27035953Y-12611688D02*
G01*
X27084561Y-12603759D01*
X27145037Y-12613052D01*
X27188501Y-12656116D01*
X27199500Y-12701468D01*
X27199500Y-12992209D01*
X27198281Y-13007697D01*
X27192188Y-13046164D01*
X27182617Y-13075620D01*
X27169941Y-13100500D01*
X27168520Y-13103288D01*
X27150314Y-13128347D01*
X27128347Y-13150314D01*
X27103289Y-13168518D01*
X27079593Y-13180593D01*
X27075621Y-13182617D01*
X27046164Y-13192188D01*
X27018848Y-13196514D01*
X27007695Y-13198281D01*
X26992210Y-13199500D01*
X26690182Y-13199500D01*
X26631991Y-13180593D01*
X26596027Y-13131093D01*
X26596027Y-13069907D01*
X26607277Y-13054421D01*
X26609656Y-13033920D01*
X26155291Y-12579555D01*
X26231591Y-12559111D01*
X26368408Y-12480119D01*
X26480119Y-12368408D01*
X26559111Y-12231591D01*
X26579555Y-12155290D01*
X27035953Y-12611688D01*
G37*
%TD.AperFunction*%
%TA.AperFunction,Conductor*%
G36*
X27174275Y-7182162D02*
G01*
X27198989Y-7238134D01*
X27199500Y-7248180D01*
X27199500Y-11298530D01*
X27180593Y-11356721D01*
X27131093Y-11392685D01*
X27084562Y-11396239D01*
X27035953Y-11388310D01*
X26579555Y-11844707D01*
X26559111Y-11768409D01*
X26480119Y-11631592D01*
X26368408Y-11519881D01*
X26231591Y-11440889D01*
X26155289Y-11420443D01*
X26609655Y-10966078D01*
X26585354Y-10951031D01*
X26545833Y-10904322D01*
X26541314Y-10843304D01*
X26573525Y-10791283D01*
X26574667Y-10790332D01*
X26693111Y-10693128D01*
X26693114Y-10693124D01*
X26693120Y-10693120D01*
X26815023Y-10544581D01*
X26815027Y-10544572D01*
X26815030Y-10544569D01*
X26880467Y-10422144D01*
X26905605Y-10375114D01*
X26961385Y-10191231D01*
X26961386Y-10191226D01*
X26980220Y-10000003D01*
X26980220Y-9999996D01*
X26961386Y-9808773D01*
X26961385Y-9808768D01*
X26942264Y-9745734D01*
X26905605Y-9624886D01*
X26905602Y-9624880D01*
X26815030Y-9455430D01*
X26815025Y-9455423D01*
X26815023Y-9455419D01*
X26693120Y-9306880D01*
X26586693Y-9219537D01*
X26553707Y-9168006D01*
X26550500Y-9143010D01*
X26550500Y-8856988D01*
X26569407Y-8798797D01*
X26586692Y-8780462D01*
X26693120Y-8693120D01*
X26815023Y-8544581D01*
X26815027Y-8544572D01*
X26815030Y-8544569D01*
X26885417Y-8412883D01*
X26905605Y-8375114D01*
X26961385Y-8191231D01*
X26961386Y-8191226D01*
X26980220Y-8000003D01*
X26980220Y-7999996D01*
X26961386Y-7808773D01*
X26961385Y-7808768D01*
X26944464Y-7752988D01*
X26905605Y-7624886D01*
X26896369Y-7607607D01*
X26815030Y-7455430D01*
X26815024Y-7455421D01*
X26815023Y-7455419D01*
X26751206Y-7377658D01*
X26738605Y-7362303D01*
X26716306Y-7305326D01*
X26731755Y-7246124D01*
X26779052Y-7207308D01*
X26815134Y-7200499D01*
X26944861Y-7200499D01*
X26944864Y-7200499D01*
X26969991Y-7197585D01*
X27060512Y-7157615D01*
X27121381Y-7151407D01*
X27174275Y-7182162D01*
G37*
%TD.AperFunction*%
%TA.AperFunction,Conductor*%
G36*
X14708090Y-4298743D02*
G01*
X14744423Y-4347973D01*
X14749500Y-4379269D01*
X14749500Y-4690500D01*
X14730593Y-4748691D01*
X14681093Y-4784655D01*
X14650501Y-4789500D01*
X14504995Y-4789500D01*
X14417662Y-4803332D01*
X14408285Y-4804818D01*
X14338826Y-4840209D01*
X14291719Y-4864211D01*
X14199211Y-4956719D01*
X14139818Y-5073284D01*
X14124500Y-5169995D01*
X14124500Y-5661188D01*
X14121127Y-5686810D01*
X14099500Y-5767526D01*
X14099500Y-5912473D01*
X14121127Y-5993189D01*
X14124500Y-6018811D01*
X14124501Y-6500500D01*
X14105594Y-6558691D01*
X14056094Y-6594655D01*
X14025501Y-6599500D01*
X13740691Y-6599500D01*
X13683402Y-6614850D01*
X13626112Y-6630201D01*
X13582696Y-6655266D01*
X13582697Y-6655267D01*
X13523388Y-6689509D01*
X12739509Y-7473388D01*
X12676976Y-7581697D01*
X12631506Y-7622637D01*
X12570656Y-7629032D01*
X12517668Y-7598439D01*
X12492946Y-7543999D01*
X12489877Y-7518436D01*
X12447308Y-7410488D01*
X12434362Y-7377660D01*
X12434361Y-7377659D01*
X12434361Y-7377658D01*
X12342922Y-7257078D01*
X12222342Y-7165639D01*
X12222341Y-7165638D01*
X12222339Y-7165637D01*
X12081565Y-7110123D01*
X11993106Y-7099500D01*
X11993102Y-7099500D01*
X11277611Y-7099500D01*
X11219420Y-7080593D01*
X11207607Y-7070504D01*
X10557107Y-6420004D01*
X10529330Y-6365487D01*
X10538901Y-6305055D01*
X10557107Y-6279996D01*
X10757607Y-6079496D01*
X10812124Y-6051719D01*
X10827611Y-6050500D01*
X11609307Y-6050500D01*
X11609309Y-6050500D01*
X11723886Y-6019799D01*
X11723888Y-6019797D01*
X11723890Y-6019797D01*
X11826608Y-5960492D01*
X11826608Y-5960491D01*
X11826613Y-5960489D01*
X11910489Y-5876613D01*
X11948730Y-5810379D01*
X11969797Y-5773890D01*
X11969797Y-5773888D01*
X11969799Y-5773886D01*
X12000500Y-5659309D01*
X12000500Y-4727609D01*
X12019407Y-4669418D01*
X12029490Y-4657612D01*
X12314922Y-4372179D01*
X12369437Y-4344403D01*
X12429869Y-4353974D01*
X12431182Y-4354656D01*
X12437117Y-4357793D01*
X12498493Y-4379269D01*
X12565301Y-4402646D01*
X12595725Y-4405499D01*
X12595727Y-4405500D01*
X12595734Y-4405500D01*
X14354273Y-4405500D01*
X14354273Y-4405499D01*
X14384699Y-4402646D01*
X14512882Y-4357793D01*
X14591712Y-4299613D01*
X14649759Y-4280272D01*
X14708090Y-4298743D01*
G37*
%TD.AperFunction*%
%TA.AperFunction,Conductor*%
G36*
X5947981Y-3024874D02*
G01*
X6220504Y-3297397D01*
X6248281Y-3351914D01*
X6249500Y-3367401D01*
X6249500Y-5359311D01*
X6268996Y-5432068D01*
X6268997Y-5432072D01*
X6280198Y-5473881D01*
X6280203Y-5473892D01*
X6339507Y-5576609D01*
X6339509Y-5576611D01*
X6339511Y-5576614D01*
X6520505Y-5757608D01*
X6548281Y-5812123D01*
X6549500Y-5827610D01*
X6549500Y-6072389D01*
X6530593Y-6130580D01*
X6520504Y-6142393D01*
X5674504Y-6988393D01*
X5619987Y-7016170D01*
X5559555Y-7006599D01*
X5516290Y-6963334D01*
X5505500Y-6918389D01*
X5505500Y-5331167D01*
X5505500Y-5331159D01*
X5503118Y-5293084D01*
X5499266Y-5262418D01*
X5497454Y-5250045D01*
X5493600Y-5239511D01*
X5458885Y-5144612D01*
X5458884Y-5144609D01*
X5423235Y-5084524D01*
X5423231Y-5084518D01*
X5386696Y-5035065D01*
X5386694Y-5035063D01*
X5297245Y-4967220D01*
X5297244Y-4967219D01*
X5276268Y-4956719D01*
X5257493Y-4947320D01*
X5213921Y-4904365D01*
X5203920Y-4844002D01*
X5219494Y-4803791D01*
X5222362Y-4799500D01*
X5289394Y-4699179D01*
X5349737Y-4553497D01*
X5380500Y-4398842D01*
X5380500Y-4241158D01*
X5349737Y-4086503D01*
X5289394Y-3940821D01*
X5289393Y-3940819D01*
X5289390Y-3940814D01*
X5254017Y-3887876D01*
X5201789Y-3809711D01*
X5090289Y-3698211D01*
X5038059Y-3663312D01*
X4959185Y-3610609D01*
X4959174Y-3610603D01*
X4813497Y-3550263D01*
X4658844Y-3519500D01*
X4658842Y-3519500D01*
X3929043Y-3519500D01*
X3870852Y-3500593D01*
X3834888Y-3451093D01*
X3834888Y-3389907D01*
X3859037Y-3350498D01*
X3963715Y-3245821D01*
X4040008Y-3113678D01*
X4040009Y-3113673D01*
X4042490Y-3107685D01*
X4045468Y-3108918D01*
X4071526Y-3068594D01*
X4128598Y-3046539D01*
X4145414Y-3047051D01*
X4150006Y-3047583D01*
X4150009Y-3047585D01*
X4175135Y-3050500D01*
X5714864Y-3050499D01*
X5739991Y-3047585D01*
X5837991Y-3004313D01*
X5898857Y-2998105D01*
X5947981Y-3024874D01*
G37*
%TD.AperFunction*%
%TA.AperFunction,Conductor*%
G36*
X10015580Y-3004407D02*
G01*
X10027393Y-3014496D01*
X10520504Y-3507607D01*
X10548281Y-3562124D01*
X10549500Y-3577611D01*
X10549500Y-4022389D01*
X10530593Y-4080580D01*
X10520504Y-4092393D01*
X10467393Y-4145504D01*
X10412876Y-4173281D01*
X10397389Y-4174500D01*
X10115691Y-4174500D01*
X10070508Y-4186606D01*
X10025325Y-4198713D01*
X10025324Y-4198712D01*
X10001112Y-4205201D01*
X10001109Y-4205202D01*
X9898390Y-4264507D01*
X9392393Y-4770504D01*
X9337876Y-4798281D01*
X9322389Y-4799500D01*
X9214941Y-4799500D01*
X9049776Y-4840209D01*
X8899146Y-4919267D01*
X8771818Y-5032069D01*
X8771816Y-5032072D01*
X8696969Y-5140507D01*
X8675182Y-5172070D01*
X8617797Y-5323386D01*
X8615267Y-5330056D01*
X8576954Y-5377760D01*
X8517917Y-5393834D01*
X8460708Y-5372138D01*
X8457051Y-5369053D01*
X8400852Y-5319266D01*
X8400851Y-5319265D01*
X8320576Y-5277133D01*
X8296580Y-5259477D01*
X7679496Y-4642393D01*
X7651719Y-4587876D01*
X7650500Y-4572389D01*
X7650500Y-3234500D01*
X7669407Y-3176309D01*
X7718907Y-3140345D01*
X7749500Y-3135500D01*
X9404273Y-3135500D01*
X9404273Y-3135499D01*
X9434699Y-3132646D01*
X9562882Y-3087793D01*
X9648135Y-3024874D01*
X9675275Y-3004844D01*
X9733323Y-2985503D01*
X9734063Y-2985500D01*
X9957389Y-2985500D01*
X10015580Y-3004407D01*
G37*
%TD.AperFunction*%
%TA.AperFunction,Conductor*%
G36*
X19182246Y13180593D02*
G01*
X19218210Y13131093D01*
X19218210Y13069907D01*
X19182246Y13020407D01*
X19151462Y13005369D01*
X19131657Y12999663D01*
X19057816Y12978390D01*
X18810622Y12875999D01*
X18730890Y12842973D01*
X18627220Y12785676D01*
X18421192Y12671808D01*
X18421189Y12671806D01*
X18276896Y12569424D01*
X18132600Y12467041D01*
X17868750Y12231250D01*
X17632959Y11967400D01*
X17632956Y11967396D01*
X17428193Y11678810D01*
X17257026Y11369109D01*
X17121609Y11042182D01*
X17023649Y10702155D01*
X16964378Y10353310D01*
X16964375Y10353290D01*
X16944536Y10000004D01*
X16944536Y9999995D01*
X16964375Y9646709D01*
X16964378Y9646689D01*
X17023649Y9297844D01*
X17121610Y8957814D01*
X17141925Y8908770D01*
X17146725Y8847773D01*
X17114756Y8795604D01*
X17058228Y8772190D01*
X16998733Y8786474D01*
X16975957Y8805691D01*
X16666964Y9158828D01*
X16636545Y9189026D01*
X16610264Y9211686D01*
X16596919Y9222553D01*
X16496843Y9273439D01*
X16429804Y9293124D01*
X16343732Y9305500D01*
X11104463Y9305500D01*
X11046272Y9324407D01*
X11010308Y9373907D01*
X11010308Y9435093D01*
X11039406Y9476016D01*
X11038133Y9477290D01*
X11042917Y9482074D01*
X11042922Y9482078D01*
X11134361Y9602658D01*
X11189877Y9743436D01*
X11200500Y9831898D01*
X11200500Y10618102D01*
X11189877Y10706564D01*
X11134361Y10847342D01*
X11042922Y10967922D01*
X10922342Y11059361D01*
X10781564Y11114877D01*
X10693102Y11125500D01*
X9706898Y11125500D01*
X9618436Y11114877D01*
X9477661Y11059362D01*
X9472693Y11057403D01*
X9436374Y11050500D01*
X8963626Y11050500D01*
X8927307Y11057403D01*
X8922339Y11059362D01*
X8781564Y11114877D01*
X8693102Y11125500D01*
X7706898Y11125500D01*
X7618436Y11114877D01*
X7548047Y11087119D01*
X7477660Y11059362D01*
X7477659Y11059361D01*
X7477658Y11059361D01*
X7357078Y10967922D01*
X7357075Y10967918D01*
X7265640Y10847343D01*
X7265637Y10847339D01*
X7210123Y10706565D01*
X7199500Y10618106D01*
X7199500Y9881893D01*
X7210123Y9793434D01*
X7265637Y9652660D01*
X7265640Y9652656D01*
X7357075Y9532081D01*
X7357081Y9532075D01*
X7477656Y9440640D01*
X7477660Y9440637D01*
X7618434Y9385123D01*
X7706893Y9374500D01*
X7706898Y9374500D01*
X8693106Y9374500D01*
X8781565Y9385123D01*
X8927307Y9442597D01*
X8963626Y9449500D01*
X9100021Y9449500D01*
X9158212Y9430593D01*
X9194176Y9381093D01*
X9194176Y9319907D01*
X9158212Y9270407D01*
X9150008Y9265047D01*
X9072429Y9219675D01*
X9019625Y9173920D01*
X8977447Y9129187D01*
X8977446Y9129185D01*
X8926562Y9029114D01*
X8926559Y9029107D01*
X8906877Y8962078D01*
X8906875Y8962068D01*
X8894500Y8875999D01*
X8894500Y8579686D01*
X8894956Y8564417D01*
X8895000Y8561462D01*
X8895000Y7838552D01*
X8894956Y7835599D01*
X8894500Y7820316D01*
X8894500Y7604500D01*
X8875593Y7546309D01*
X8826093Y7510345D01*
X8795500Y7505500D01*
X7524000Y7505500D01*
X7459059Y7498518D01*
X7459051Y7498516D01*
X7459048Y7498516D01*
X7407574Y7487318D01*
X7407569Y7487316D01*
X7407548Y7487312D01*
X7369342Y7476354D01*
X7272429Y7419675D01*
X7219625Y7373920D01*
X7177447Y7329187D01*
X7177446Y7329185D01*
X7126562Y7229114D01*
X7126559Y7229107D01*
X7106877Y7162078D01*
X7106875Y7162068D01*
X7094500Y7075999D01*
X7094500Y5324003D01*
X7101483Y5259048D01*
X7112681Y5207574D01*
X7112686Y5207554D01*
X7112688Y5207548D01*
X7121148Y5178051D01*
X7123646Y5169342D01*
X7180327Y5072426D01*
X7226079Y5019625D01*
X7226080Y5019624D01*
X7270814Y4977446D01*
X7370885Y4926562D01*
X7370892Y4926559D01*
X7437921Y4906877D01*
X7437931Y4906875D01*
X7506629Y4896997D01*
X7524000Y4894500D01*
X11012085Y4894500D01*
X11070276Y4875593D01*
X11106240Y4826093D01*
X11110379Y4783696D01*
X11099500Y4693106D01*
X11099500Y3906893D01*
X11110123Y3818434D01*
X11165637Y3677660D01*
X11165640Y3677656D01*
X11257075Y3557081D01*
X11257081Y3557075D01*
X11377656Y3465640D01*
X11377660Y3465637D01*
X11518434Y3410123D01*
X11562304Y3404855D01*
X11617825Y3379144D01*
X11647631Y3325709D01*
X11649500Y3306561D01*
X11649500Y3196205D01*
X11630593Y3138014D01*
X11581093Y3102050D01*
X11562310Y3097912D01*
X11499410Y3090359D01*
X11440818Y3067253D01*
X11365027Y3037365D01*
X11365026Y3037364D01*
X11365025Y3037364D01*
X11249922Y2950078D01*
X11162636Y2834975D01*
X11162634Y2834972D01*
X11109640Y2700588D01*
X11108085Y2694436D01*
X11106349Y2694874D01*
X11084151Y2646946D01*
X11030714Y2617145D01*
X10969966Y2624445D01*
X10948681Y2639309D01*
X10948318Y2638830D01*
X10942919Y2642924D01*
X10822342Y2734361D01*
X10681564Y2789877D01*
X10593102Y2800500D01*
X7606898Y2800500D01*
X7518436Y2789877D01*
X7448047Y2762119D01*
X7377660Y2734362D01*
X7377659Y2734361D01*
X7377658Y2734361D01*
X7257078Y2642922D01*
X7257075Y2642918D01*
X7165640Y2522343D01*
X7165638Y2522340D01*
X7162026Y2513180D01*
X7123088Y2465983D01*
X7069929Y2450500D01*
X6939742Y2450500D01*
X6881551Y2469407D01*
X6869739Y2479496D01*
X6821624Y2527611D01*
X6538671Y2810562D01*
X6538670Y2810565D01*
X6530520Y2818714D01*
X6530520Y2818716D01*
X6418716Y2930520D01*
X6331904Y2980639D01*
X6281785Y3009577D01*
X6129057Y3050501D01*
X5970943Y3050501D01*
X5964880Y3050501D01*
X5964864Y3050500D01*
X4857968Y3050500D01*
X4857956Y3050499D01*
X4175136Y3050499D01*
X4150009Y3047585D01*
X4150007Y3047584D01*
X4145407Y3047051D01*
X4085425Y3059129D01*
X4043998Y3104157D01*
X4042698Y3107771D01*
X4042490Y3107685D01*
X4040009Y3113674D01*
X4040008Y3113678D01*
X3963715Y3245821D01*
X3859037Y3350498D01*
X3831262Y3405013D01*
X3840833Y3465445D01*
X3884098Y3508710D01*
X3929043Y3519500D01*
X4658844Y3519500D01*
X4761945Y3540008D01*
X4813497Y3550263D01*
X4813498Y3550263D01*
X4959174Y3610603D01*
X4959185Y3610609D01*
X5057959Y3676609D01*
X5090289Y3698211D01*
X5201789Y3809711D01*
X5266724Y3906893D01*
X5289390Y3940814D01*
X5289396Y3940825D01*
X5329622Y4037942D01*
X5349737Y4086503D01*
X5380500Y4241158D01*
X5380500Y4398842D01*
X5349737Y4553497D01*
X5289394Y4699179D01*
X5220004Y4803027D01*
X5203396Y4861914D01*
X5224573Y4919318D01*
X5252338Y4943484D01*
X5327571Y4987484D01*
X5380375Y5033239D01*
X5422553Y5077972D01*
X5473439Y5178048D01*
X5493124Y5245087D01*
X5505500Y5331159D01*
X5505500Y7214323D01*
X5495730Y7290965D01*
X5480121Y7351194D01*
X5462941Y7400011D01*
X5398810Y7492163D01*
X5349041Y7541202D01*
X5301126Y7579729D01*
X5301127Y7579729D01*
X5301125Y7579730D01*
X5254472Y7598994D01*
X5207904Y7638678D01*
X5193555Y7698157D01*
X5216906Y7754711D01*
X5226286Y7764314D01*
X5231250Y7768750D01*
X5467041Y8032600D01*
X5671808Y8321192D01*
X5804601Y8561462D01*
X5842973Y8630890D01*
X5907418Y8786474D01*
X5978390Y8957816D01*
X6076350Y9297843D01*
X6135623Y9646700D01*
X6135958Y9652656D01*
X6155464Y9999995D01*
X6155464Y10000004D01*
X6135624Y10353290D01*
X6135623Y10353294D01*
X6135623Y10353300D01*
X6076350Y10702157D01*
X5978390Y11042184D01*
X5842975Y11369105D01*
X5671808Y11678808D01*
X5467041Y11967400D01*
X5231250Y12231250D01*
X5228213Y12233963D01*
X5197421Y12286833D01*
X5203586Y12347707D01*
X5244197Y12393240D01*
X5327571Y12442001D01*
X5380375Y12487756D01*
X5422553Y12532489D01*
X5473439Y12632565D01*
X5493124Y12699604D01*
X5505500Y12785676D01*
X5505500Y13075500D01*
X5503950Y13089920D01*
X5516530Y13149798D01*
X5561903Y13190846D01*
X5602383Y13199500D01*
X19124055Y13199500D01*
X19182246Y13180593D01*
G37*
%TD.AperFunction*%
%TA.AperFunction,Conductor*%
G36*
X23809988Y13180593D02*
G01*
X23845952Y13131093D01*
X23845952Y13069907D01*
X23840044Y13055628D01*
X23826562Y13029114D01*
X23826559Y13029107D01*
X23806877Y12962078D01*
X23806875Y12962068D01*
X23794500Y12875999D01*
X23794500Y7249500D01*
X23775593Y7191309D01*
X23726093Y7155345D01*
X23698025Y7150899D01*
X23698027Y7150846D01*
X23698040Y7150717D01*
X23698033Y7150716D01*
X23698039Y7150608D01*
X23695746Y7150500D01*
X23695734Y7150500D01*
X23665301Y7147646D01*
X23537118Y7102793D01*
X23537117Y7102792D01*
X23537116Y7102792D01*
X23500813Y7075999D01*
X23427850Y7022150D01*
X23427847Y7022146D01*
X23427845Y7022144D01*
X23347207Y6912883D01*
X23332832Y6871802D01*
X23295766Y6823121D01*
X23239388Y6805500D01*
X23224500Y6805500D01*
X23159559Y6798518D01*
X23159551Y6798516D01*
X23159548Y6798516D01*
X23108074Y6787318D01*
X23108069Y6787316D01*
X23108048Y6787312D01*
X23069842Y6776354D01*
X22972929Y6719675D01*
X22920125Y6673920D01*
X22877947Y6629187D01*
X22877946Y6629185D01*
X22827062Y6529114D01*
X22827059Y6529107D01*
X22807377Y6462078D01*
X22807375Y6462068D01*
X22795000Y6375999D01*
X22795000Y6292184D01*
X22789443Y6259483D01*
X22784571Y6245561D01*
X22770780Y6219469D01*
X22762544Y6208311D01*
X22741682Y6187451D01*
X22730526Y6179217D01*
X22704434Y6165426D01*
X22693580Y6161627D01*
X22674344Y6154897D01*
X22603582Y6119250D01*
X22550824Y6083412D01*
X22509205Y6049429D01*
X22444594Y5957612D01*
X22415569Y5894056D01*
X22415568Y5894052D01*
X22395786Y5835843D01*
X22395785Y5835841D01*
X22395785Y5835839D01*
X22391072Y5723667D01*
X22391072Y5723663D01*
X22390933Y5720344D01*
X22369599Y5662998D01*
X22318633Y5629144D01*
X22292020Y5625500D01*
X22206721Y5625500D01*
X22206717Y5625499D01*
X22175451Y5622567D01*
X22043711Y5576469D01*
X22034736Y5569845D01*
X21976688Y5550503D01*
X21975947Y5550500D01*
X21927525Y5550500D01*
X21794748Y5514922D01*
X21787515Y5512984D01*
X21661985Y5440510D01*
X21009490Y4788015D01*
X20962529Y4706676D01*
X20917061Y4665737D01*
X20856211Y4659341D01*
X20836480Y4665758D01*
X20822619Y4671937D01*
X20800522Y4681790D01*
X20689255Y4696768D01*
X20689253Y4696767D01*
X20689253Y4696768D01*
X20642735Y4694394D01*
X20619476Y4693207D01*
X20580486Y4685555D01*
X20561623Y4681853D01*
X20542557Y4680000D01*
X18832556Y4680000D01*
X18799861Y4685555D01*
X18782154Y4691750D01*
X18756067Y4705538D01*
X18741880Y4716008D01*
X18721013Y4736872D01*
X18710533Y4751072D01*
X18696749Y4777153D01*
X18690553Y4794863D01*
X18685000Y4827552D01*
X18685000Y5199357D01*
X18685430Y5208571D01*
X18685539Y5209740D01*
X18685790Y5212420D01*
X18686634Y5219028D01*
X18694203Y5265622D01*
X18694713Y5335489D01*
X18682967Y5421646D01*
X18143746Y7308923D01*
X18145940Y7370068D01*
X18183655Y7418246D01*
X18242486Y7435055D01*
X18296225Y7416860D01*
X18421189Y7328193D01*
X18730891Y7157026D01*
X18730890Y7157026D01*
X19057817Y7021609D01*
X19397844Y6923649D01*
X19746689Y6864378D01*
X19746709Y6864375D01*
X20099995Y6844536D01*
X20100000Y6844536D01*
X20100005Y6844536D01*
X20453290Y6864375D01*
X20453310Y6864378D01*
X20802155Y6923649D01*
X21142182Y7021609D01*
X21469109Y7157026D01*
X21778810Y7328193D01*
X22067396Y7532956D01*
X22067400Y7532959D01*
X22331250Y7768750D01*
X22567041Y8032600D01*
X22771808Y8321192D01*
X22904601Y8561462D01*
X22942973Y8630890D01*
X23007418Y8786474D01*
X23078390Y8957816D01*
X23176350Y9297843D01*
X23235623Y9646700D01*
X23235958Y9652656D01*
X23255464Y9999995D01*
X23255464Y10000004D01*
X23235624Y10353290D01*
X23235623Y10353294D01*
X23235623Y10353300D01*
X23176350Y10702157D01*
X23078390Y11042184D01*
X22942975Y11369105D01*
X22771808Y11678808D01*
X22567041Y11967400D01*
X22331250Y12231250D01*
X22067400Y12467041D01*
X21778808Y12671808D01*
X21469105Y12842975D01*
X21142184Y12978390D01*
X21048538Y13005369D01*
X20997856Y13039647D01*
X20977001Y13097168D01*
X20993939Y13155962D01*
X21042201Y13193572D01*
X21075945Y13199500D01*
X23751797Y13199500D01*
X23809988Y13180593D01*
G37*
%TD.AperFunction*%
%TD*%
M02*
