%TF.GenerationSoftware,KiCad,Pcbnew,8.0.2*%
%TF.CreationDate,2024-05-15T22:33:18-04:00*%
%TF.ProjectId,USB-C-3-way-splitter,5553422d-432d-4332-9d77-61792d73706c,rev?*%
%TF.SameCoordinates,Original*%
%TF.FileFunction,Legend,Bot*%
%TF.FilePolarity,Positive*%
%FSLAX46Y46*%
G04 Gerber Fmt 4.6, Leading zero omitted, Abs format (unit mm)*
G04 Created by KiCad (PCBNEW 8.0.2) date 2024-05-15 22:33:18*
%MOMM*%
%LPD*%
G01*
G04 APERTURE LIST*
%ADD10C,0.150000*%
%ADD11C,0.300000*%
%ADD12C,0.200000*%
%ADD13C,0.120000*%
G04 APERTURE END LIST*
D10*
X24715601Y2911800D02*
X23801316Y2911800D01*
X24258458Y2454657D02*
X24258458Y3368942D01*
X22658459Y3654657D02*
X23229887Y3654657D01*
X23229887Y3654657D02*
X23287030Y3083228D01*
X23287030Y3083228D02*
X23229887Y3140371D01*
X23229887Y3140371D02*
X23115602Y3197514D01*
X23115602Y3197514D02*
X22829887Y3197514D01*
X22829887Y3197514D02*
X22715602Y3140371D01*
X22715602Y3140371D02*
X22658459Y3083228D01*
X22658459Y3083228D02*
X22601316Y2968942D01*
X22601316Y2968942D02*
X22601316Y2683228D01*
X22601316Y2683228D02*
X22658459Y2568942D01*
X22658459Y2568942D02*
X22715602Y2511800D01*
X22715602Y2511800D02*
X22829887Y2454657D01*
X22829887Y2454657D02*
X23115602Y2454657D01*
X23115602Y2454657D02*
X23229887Y2511800D01*
X23229887Y2511800D02*
X23287030Y2568942D01*
X22258459Y3654657D02*
X21858459Y2454657D01*
X21858459Y2454657D02*
X21458459Y3654657D01*
D11*
X21045489Y-1465114D02*
X20545489Y-1465114D01*
X20331203Y-2250828D02*
X21045489Y-2250828D01*
X21045489Y-2250828D02*
X21045489Y-750828D01*
X21045489Y-750828D02*
X20331203Y-750828D01*
X19688346Y-2250828D02*
X19688346Y-750828D01*
X19688346Y-750828D02*
X18831203Y-2250828D01*
X18831203Y-2250828D02*
X18831203Y-750828D01*
X7157971Y5588346D02*
X7229400Y5659774D01*
X7229400Y5659774D02*
X7300828Y5874060D01*
X7300828Y5874060D02*
X7300828Y6016917D01*
X7300828Y6016917D02*
X7229400Y6231203D01*
X7229400Y6231203D02*
X7086542Y6374060D01*
X7086542Y6374060D02*
X6943685Y6445489D01*
X6943685Y6445489D02*
X6657971Y6516917D01*
X6657971Y6516917D02*
X6443685Y6516917D01*
X6443685Y6516917D02*
X6157971Y6445489D01*
X6157971Y6445489D02*
X6015114Y6374060D01*
X6015114Y6374060D02*
X5872257Y6231203D01*
X5872257Y6231203D02*
X5800828Y6016917D01*
X5800828Y6016917D02*
X5800828Y5874060D01*
X5800828Y5874060D02*
X5872257Y5659774D01*
X5872257Y5659774D02*
X5943685Y5588346D01*
X7157971Y4088346D02*
X7229400Y4159774D01*
X7229400Y4159774D02*
X7300828Y4374060D01*
X7300828Y4374060D02*
X7300828Y4516917D01*
X7300828Y4516917D02*
X7229400Y4731203D01*
X7229400Y4731203D02*
X7086542Y4874060D01*
X7086542Y4874060D02*
X6943685Y4945489D01*
X6943685Y4945489D02*
X6657971Y5016917D01*
X6657971Y5016917D02*
X6443685Y5016917D01*
X6443685Y5016917D02*
X6157971Y4945489D01*
X6157971Y4945489D02*
X6015114Y4874060D01*
X6015114Y4874060D02*
X5872257Y4731203D01*
X5872257Y4731203D02*
X5800828Y4516917D01*
X5800828Y4516917D02*
X5800828Y4374060D01*
X5800828Y4374060D02*
X5872257Y4159774D01*
X5872257Y4159774D02*
X5943685Y4088346D01*
X7300828Y2659774D02*
X7300828Y3516917D01*
X7300828Y3088346D02*
X5800828Y3088346D01*
X5800828Y3088346D02*
X6015114Y3231203D01*
X6015114Y3231203D02*
X6157971Y3374060D01*
X6157971Y3374060D02*
X6229400Y3516917D01*
D10*
X16377506Y13130180D02*
X16377506Y12415895D01*
X16377506Y12415895D02*
X16425125Y12273038D01*
X16425125Y12273038D02*
X16520363Y12177800D01*
X16520363Y12177800D02*
X16663220Y12130180D01*
X16663220Y12130180D02*
X16758458Y12130180D01*
X15425125Y12130180D02*
X15901315Y12130180D01*
X15901315Y12130180D02*
X15901315Y13130180D01*
X14520363Y12225419D02*
X14567982Y12177800D01*
X14567982Y12177800D02*
X14710839Y12130180D01*
X14710839Y12130180D02*
X14806077Y12130180D01*
X14806077Y12130180D02*
X14948934Y12177800D01*
X14948934Y12177800D02*
X15044172Y12273038D01*
X15044172Y12273038D02*
X15091791Y12368276D01*
X15091791Y12368276D02*
X15139410Y12558752D01*
X15139410Y12558752D02*
X15139410Y12701609D01*
X15139410Y12701609D02*
X15091791Y12892085D01*
X15091791Y12892085D02*
X15044172Y12987323D01*
X15044172Y12987323D02*
X14948934Y13082561D01*
X14948934Y13082561D02*
X14806077Y13130180D01*
X14806077Y13130180D02*
X14710839Y13130180D01*
X14710839Y13130180D02*
X14567982Y13082561D01*
X14567982Y13082561D02*
X14520363Y13034942D01*
X13806077Y13130180D02*
X13806077Y12415895D01*
X13806077Y12415895D02*
X13853696Y12273038D01*
X13853696Y12273038D02*
X13948934Y12177800D01*
X13948934Y12177800D02*
X14091791Y12130180D01*
X14091791Y12130180D02*
X14187029Y12130180D01*
X12853696Y12130180D02*
X13329886Y12130180D01*
X13329886Y12130180D02*
X13329886Y13130180D01*
X11948934Y12225419D02*
X11996553Y12177800D01*
X11996553Y12177800D02*
X12139410Y12130180D01*
X12139410Y12130180D02*
X12234648Y12130180D01*
X12234648Y12130180D02*
X12377505Y12177800D01*
X12377505Y12177800D02*
X12472743Y12273038D01*
X12472743Y12273038D02*
X12520362Y12368276D01*
X12520362Y12368276D02*
X12567981Y12558752D01*
X12567981Y12558752D02*
X12567981Y12701609D01*
X12567981Y12701609D02*
X12520362Y12892085D01*
X12520362Y12892085D02*
X12472743Y12987323D01*
X12472743Y12987323D02*
X12377505Y13082561D01*
X12377505Y13082561D02*
X12234648Y13130180D01*
X12234648Y13130180D02*
X12139410Y13130180D01*
X12139410Y13130180D02*
X11996553Y13082561D01*
X11996553Y13082561D02*
X11948934Y13034942D01*
X11234648Y13130180D02*
X11234648Y12415895D01*
X11234648Y12415895D02*
X11282267Y12273038D01*
X11282267Y12273038D02*
X11377505Y12177800D01*
X11377505Y12177800D02*
X11520362Y12130180D01*
X11520362Y12130180D02*
X11615600Y12130180D01*
X10282267Y12130180D02*
X10758457Y12130180D01*
X10758457Y12130180D02*
X10758457Y13130180D01*
X9377505Y12225419D02*
X9425124Y12177800D01*
X9425124Y12177800D02*
X9567981Y12130180D01*
X9567981Y12130180D02*
X9663219Y12130180D01*
X9663219Y12130180D02*
X9806076Y12177800D01*
X9806076Y12177800D02*
X9901314Y12273038D01*
X9901314Y12273038D02*
X9948933Y12368276D01*
X9948933Y12368276D02*
X9996552Y12558752D01*
X9996552Y12558752D02*
X9996552Y12701609D01*
X9996552Y12701609D02*
X9948933Y12892085D01*
X9948933Y12892085D02*
X9901314Y12987323D01*
X9901314Y12987323D02*
X9806076Y13082561D01*
X9806076Y13082561D02*
X9663219Y13130180D01*
X9663219Y13130180D02*
X9567981Y13130180D01*
X9567981Y13130180D02*
X9425124Y13082561D01*
X9425124Y13082561D02*
X9377505Y13034942D01*
X8663219Y13130180D02*
X8663219Y12415895D01*
X8663219Y12415895D02*
X8710838Y12273038D01*
X8710838Y12273038D02*
X8806076Y12177800D01*
X8806076Y12177800D02*
X8948933Y12130180D01*
X8948933Y12130180D02*
X9044171Y12130180D01*
X7710838Y12130180D02*
X8187028Y12130180D01*
X8187028Y12130180D02*
X8187028Y13130180D01*
X6806076Y12225419D02*
X6853695Y12177800D01*
X6853695Y12177800D02*
X6996552Y12130180D01*
X6996552Y12130180D02*
X7091790Y12130180D01*
X7091790Y12130180D02*
X7234647Y12177800D01*
X7234647Y12177800D02*
X7329885Y12273038D01*
X7329885Y12273038D02*
X7377504Y12368276D01*
X7377504Y12368276D02*
X7425123Y12558752D01*
X7425123Y12558752D02*
X7425123Y12701609D01*
X7425123Y12701609D02*
X7377504Y12892085D01*
X7377504Y12892085D02*
X7329885Y12987323D01*
X7329885Y12987323D02*
X7234647Y13082561D01*
X7234647Y13082561D02*
X7091790Y13130180D01*
X7091790Y13130180D02*
X6996552Y13130180D01*
X6996552Y13130180D02*
X6853695Y13082561D01*
X6853695Y13082561D02*
X6806076Y13034942D01*
D12*
X9946943Y8132707D02*
X10918372Y8132707D01*
X10918372Y8132707D02*
X11032658Y8075564D01*
X11032658Y8075564D02*
X11089801Y8018422D01*
X11089801Y8018422D02*
X11146943Y7904136D01*
X11146943Y7904136D02*
X11146943Y7675564D01*
X11146943Y7675564D02*
X11089801Y7561279D01*
X11089801Y7561279D02*
X11032658Y7504136D01*
X11032658Y7504136D02*
X10918372Y7446993D01*
X10918372Y7446993D02*
X9946943Y7446993D01*
X11089801Y6932707D02*
X11146943Y6761279D01*
X11146943Y6761279D02*
X11146943Y6475564D01*
X11146943Y6475564D02*
X11089801Y6361279D01*
X11089801Y6361279D02*
X11032658Y6304136D01*
X11032658Y6304136D02*
X10918372Y6246993D01*
X10918372Y6246993D02*
X10804086Y6246993D01*
X10804086Y6246993D02*
X10689801Y6304136D01*
X10689801Y6304136D02*
X10632658Y6361279D01*
X10632658Y6361279D02*
X10575515Y6475564D01*
X10575515Y6475564D02*
X10518372Y6704136D01*
X10518372Y6704136D02*
X10461229Y6818421D01*
X10461229Y6818421D02*
X10404086Y6875564D01*
X10404086Y6875564D02*
X10289801Y6932707D01*
X10289801Y6932707D02*
X10175515Y6932707D01*
X10175515Y6932707D02*
X10061229Y6875564D01*
X10061229Y6875564D02*
X10004086Y6818421D01*
X10004086Y6818421D02*
X9946943Y6704136D01*
X9946943Y6704136D02*
X9946943Y6418421D01*
X9946943Y6418421D02*
X10004086Y6246993D01*
X10518372Y5332707D02*
X10575515Y5161279D01*
X10575515Y5161279D02*
X10632658Y5104136D01*
X10632658Y5104136D02*
X10746943Y5046993D01*
X10746943Y5046993D02*
X10918372Y5046993D01*
X10918372Y5046993D02*
X11032658Y5104136D01*
X11032658Y5104136D02*
X11089801Y5161279D01*
X11089801Y5161279D02*
X11146943Y5275564D01*
X11146943Y5275564D02*
X11146943Y5732707D01*
X11146943Y5732707D02*
X9946943Y5732707D01*
X9946943Y5732707D02*
X9946943Y5332707D01*
X9946943Y5332707D02*
X10004086Y5218422D01*
X10004086Y5218422D02*
X10061229Y5161279D01*
X10061229Y5161279D02*
X10175515Y5104136D01*
X10175515Y5104136D02*
X10289801Y5104136D01*
X10289801Y5104136D02*
X10404086Y5161279D01*
X10404086Y5161279D02*
X10461229Y5218422D01*
X10461229Y5218422D02*
X10518372Y5332707D01*
X10518372Y5332707D02*
X10518372Y5732707D01*
X10689801Y4532707D02*
X10689801Y3618422D01*
X11032658Y2361279D02*
X11089801Y2418422D01*
X11089801Y2418422D02*
X11146943Y2589850D01*
X11146943Y2589850D02*
X11146943Y2704136D01*
X11146943Y2704136D02*
X11089801Y2875565D01*
X11089801Y2875565D02*
X10975515Y2989850D01*
X10975515Y2989850D02*
X10861229Y3046993D01*
X10861229Y3046993D02*
X10632658Y3104136D01*
X10632658Y3104136D02*
X10461229Y3104136D01*
X10461229Y3104136D02*
X10232658Y3046993D01*
X10232658Y3046993D02*
X10118372Y2989850D01*
X10118372Y2989850D02*
X10004086Y2875565D01*
X10004086Y2875565D02*
X9946943Y2704136D01*
X9946943Y2704136D02*
X9946943Y2589850D01*
X9946943Y2589850D02*
X10004086Y2418422D01*
X10004086Y2418422D02*
X10061229Y2361279D01*
X11089801Y989850D02*
X11146943Y818422D01*
X11146943Y818422D02*
X11146943Y532707D01*
X11146943Y532707D02*
X11089801Y418422D01*
X11089801Y418422D02*
X11032658Y361279D01*
X11032658Y361279D02*
X10918372Y304136D01*
X10918372Y304136D02*
X10804086Y304136D01*
X10804086Y304136D02*
X10689801Y361279D01*
X10689801Y361279D02*
X10632658Y418422D01*
X10632658Y418422D02*
X10575515Y532707D01*
X10575515Y532707D02*
X10518372Y761279D01*
X10518372Y761279D02*
X10461229Y875564D01*
X10461229Y875564D02*
X10404086Y932707D01*
X10404086Y932707D02*
X10289801Y989850D01*
X10289801Y989850D02*
X10175515Y989850D01*
X10175515Y989850D02*
X10061229Y932707D01*
X10061229Y932707D02*
X10004086Y875564D01*
X10004086Y875564D02*
X9946943Y761279D01*
X9946943Y761279D02*
X9946943Y475564D01*
X9946943Y475564D02*
X10004086Y304136D01*
X10346943Y-210149D02*
X11546943Y-210149D01*
X10404086Y-210149D02*
X10346943Y-324435D01*
X10346943Y-324435D02*
X10346943Y-553006D01*
X10346943Y-553006D02*
X10404086Y-667292D01*
X10404086Y-667292D02*
X10461229Y-724435D01*
X10461229Y-724435D02*
X10575515Y-781577D01*
X10575515Y-781577D02*
X10918372Y-781577D01*
X10918372Y-781577D02*
X11032658Y-724435D01*
X11032658Y-724435D02*
X11089801Y-667292D01*
X11089801Y-667292D02*
X11146943Y-553006D01*
X11146943Y-553006D02*
X11146943Y-324435D01*
X11146943Y-324435D02*
X11089801Y-210149D01*
X11146943Y-1467291D02*
X11089801Y-1353006D01*
X11089801Y-1353006D02*
X10975515Y-1295863D01*
X10975515Y-1295863D02*
X9946943Y-1295863D01*
X11146943Y-1924434D02*
X10346943Y-1924434D01*
X9946943Y-1924434D02*
X10004086Y-1867291D01*
X10004086Y-1867291D02*
X10061229Y-1924434D01*
X10061229Y-1924434D02*
X10004086Y-1981577D01*
X10004086Y-1981577D02*
X9946943Y-1924434D01*
X9946943Y-1924434D02*
X10061229Y-1924434D01*
X10346943Y-2324434D02*
X10346943Y-2781577D01*
X9946943Y-2495863D02*
X10975515Y-2495863D01*
X10975515Y-2495863D02*
X11089801Y-2553006D01*
X11089801Y-2553006D02*
X11146943Y-2667291D01*
X11146943Y-2667291D02*
X11146943Y-2781577D01*
X10346943Y-3010148D02*
X10346943Y-3467291D01*
X9946943Y-3181577D02*
X10975515Y-3181577D01*
X10975515Y-3181577D02*
X11089801Y-3238720D01*
X11089801Y-3238720D02*
X11146943Y-3353005D01*
X11146943Y-3353005D02*
X11146943Y-3467291D01*
X11089801Y-4324434D02*
X11146943Y-4210148D01*
X11146943Y-4210148D02*
X11146943Y-3981577D01*
X11146943Y-3981577D02*
X11089801Y-3867291D01*
X11089801Y-3867291D02*
X10975515Y-3810148D01*
X10975515Y-3810148D02*
X10518372Y-3810148D01*
X10518372Y-3810148D02*
X10404086Y-3867291D01*
X10404086Y-3867291D02*
X10346943Y-3981577D01*
X10346943Y-3981577D02*
X10346943Y-4210148D01*
X10346943Y-4210148D02*
X10404086Y-4324434D01*
X10404086Y-4324434D02*
X10518372Y-4381577D01*
X10518372Y-4381577D02*
X10632658Y-4381577D01*
X10632658Y-4381577D02*
X10746943Y-3810148D01*
X11146943Y-4895862D02*
X10346943Y-4895862D01*
X10575515Y-4895862D02*
X10461229Y-4953005D01*
X10461229Y-4953005D02*
X10404086Y-5010148D01*
X10404086Y-5010148D02*
X10346943Y-5124433D01*
X10346943Y-5124433D02*
X10346943Y-5238719D01*
X9946943Y-6381576D02*
X11146943Y-6781576D01*
X11146943Y-6781576D02*
X9946943Y-7181576D01*
X9946943Y-7467290D02*
X9946943Y-8210147D01*
X9946943Y-8210147D02*
X10404086Y-7810147D01*
X10404086Y-7810147D02*
X10404086Y-7981576D01*
X10404086Y-7981576D02*
X10461229Y-8095862D01*
X10461229Y-8095862D02*
X10518372Y-8153004D01*
X10518372Y-8153004D02*
X10632658Y-8210147D01*
X10632658Y-8210147D02*
X10918372Y-8210147D01*
X10918372Y-8210147D02*
X11032658Y-8153004D01*
X11032658Y-8153004D02*
X11089801Y-8095862D01*
X11089801Y-8095862D02*
X11146943Y-7981576D01*
X11146943Y-7981576D02*
X11146943Y-7638719D01*
X11146943Y-7638719D02*
X11089801Y-7524433D01*
X11089801Y-7524433D02*
X11032658Y-7467290D01*
X13078876Y8132707D02*
X11878876Y8132707D01*
X11878876Y8132707D02*
X11878876Y7675564D01*
X11878876Y7675564D02*
X11936019Y7561279D01*
X11936019Y7561279D02*
X11993162Y7504136D01*
X11993162Y7504136D02*
X12107448Y7446993D01*
X12107448Y7446993D02*
X12278876Y7446993D01*
X12278876Y7446993D02*
X12393162Y7504136D01*
X12393162Y7504136D02*
X12450305Y7561279D01*
X12450305Y7561279D02*
X12507448Y7675564D01*
X12507448Y7675564D02*
X12507448Y8132707D01*
X12278876Y7046993D02*
X13078876Y6761279D01*
X12278876Y6475564D02*
X13078876Y6761279D01*
X13078876Y6761279D02*
X13364591Y6875564D01*
X13364591Y6875564D02*
X13421734Y6932707D01*
X13421734Y6932707D02*
X13478876Y7046993D01*
X13078876Y5846993D02*
X13021734Y5961278D01*
X13021734Y5961278D02*
X12907448Y6018421D01*
X12907448Y6018421D02*
X11878876Y6018421D01*
X13078876Y5218422D02*
X13021734Y5332707D01*
X13021734Y5332707D02*
X12964591Y5389850D01*
X12964591Y5389850D02*
X12850305Y5446993D01*
X12850305Y5446993D02*
X12507448Y5446993D01*
X12507448Y5446993D02*
X12393162Y5389850D01*
X12393162Y5389850D02*
X12336019Y5332707D01*
X12336019Y5332707D02*
X12278876Y5218422D01*
X12278876Y5218422D02*
X12278876Y5046993D01*
X12278876Y5046993D02*
X12336019Y4932707D01*
X12336019Y4932707D02*
X12393162Y4875565D01*
X12393162Y4875565D02*
X12507448Y4818422D01*
X12507448Y4818422D02*
X12850305Y4818422D01*
X12850305Y4818422D02*
X12964591Y4875565D01*
X12964591Y4875565D02*
X13021734Y4932707D01*
X13021734Y4932707D02*
X13078876Y5046993D01*
X13078876Y5046993D02*
X13078876Y5218422D01*
X12278876Y4304136D02*
X13078876Y4304136D01*
X12393162Y4304136D02*
X12336019Y4246993D01*
X12336019Y4246993D02*
X12278876Y4132708D01*
X12278876Y4132708D02*
X12278876Y3961279D01*
X12278876Y3961279D02*
X12336019Y3846993D01*
X12336019Y3846993D02*
X12450305Y3789851D01*
X12450305Y3789851D02*
X13078876Y3789851D01*
X13078876Y2304136D02*
X11878876Y2304136D01*
X11878876Y2304136D02*
X12736019Y1904136D01*
X12736019Y1904136D02*
X11878876Y1504136D01*
X11878876Y1504136D02*
X13078876Y1504136D01*
X13078876Y418422D02*
X12450305Y418422D01*
X12450305Y418422D02*
X12336019Y475564D01*
X12336019Y475564D02*
X12278876Y589850D01*
X12278876Y589850D02*
X12278876Y818422D01*
X12278876Y818422D02*
X12336019Y932707D01*
X13021734Y418422D02*
X13078876Y532707D01*
X13078876Y532707D02*
X13078876Y818422D01*
X13078876Y818422D02*
X13021734Y932707D01*
X13021734Y932707D02*
X12907448Y989850D01*
X12907448Y989850D02*
X12793162Y989850D01*
X12793162Y989850D02*
X12678876Y932707D01*
X12678876Y932707D02*
X12621734Y818422D01*
X12621734Y818422D02*
X12621734Y532707D01*
X12621734Y532707D02*
X12564591Y418422D01*
X12278876Y-38720D02*
X13078876Y-324434D01*
X12278876Y-610149D02*
X13078876Y-324434D01*
X13078876Y-324434D02*
X13364591Y-210149D01*
X13364591Y-210149D02*
X13421734Y-153006D01*
X13421734Y-153006D02*
X13478876Y-38720D01*
X11878876Y-1867292D02*
X11878876Y-2667292D01*
X11878876Y-2667292D02*
X13078876Y-2153006D01*
X11993162Y-3981578D02*
X11936019Y-4038721D01*
X11936019Y-4038721D02*
X11878876Y-4153007D01*
X11878876Y-4153007D02*
X11878876Y-4438721D01*
X11878876Y-4438721D02*
X11936019Y-4553007D01*
X11936019Y-4553007D02*
X11993162Y-4610149D01*
X11993162Y-4610149D02*
X12107448Y-4667292D01*
X12107448Y-4667292D02*
X12221734Y-4667292D01*
X12221734Y-4667292D02*
X12393162Y-4610149D01*
X12393162Y-4610149D02*
X13078876Y-3924435D01*
X13078876Y-3924435D02*
X13078876Y-4667292D01*
X11878876Y-5410149D02*
X11878876Y-5524435D01*
X11878876Y-5524435D02*
X11936019Y-5638721D01*
X11936019Y-5638721D02*
X11993162Y-5695864D01*
X11993162Y-5695864D02*
X12107448Y-5753006D01*
X12107448Y-5753006D02*
X12336019Y-5810149D01*
X12336019Y-5810149D02*
X12621734Y-5810149D01*
X12621734Y-5810149D02*
X12850305Y-5753006D01*
X12850305Y-5753006D02*
X12964591Y-5695864D01*
X12964591Y-5695864D02*
X13021734Y-5638721D01*
X13021734Y-5638721D02*
X13078876Y-5524435D01*
X13078876Y-5524435D02*
X13078876Y-5410149D01*
X13078876Y-5410149D02*
X13021734Y-5295864D01*
X13021734Y-5295864D02*
X12964591Y-5238721D01*
X12964591Y-5238721D02*
X12850305Y-5181578D01*
X12850305Y-5181578D02*
X12621734Y-5124435D01*
X12621734Y-5124435D02*
X12336019Y-5124435D01*
X12336019Y-5124435D02*
X12107448Y-5181578D01*
X12107448Y-5181578D02*
X11993162Y-5238721D01*
X11993162Y-5238721D02*
X11936019Y-5295864D01*
X11936019Y-5295864D02*
X11878876Y-5410149D01*
X11993162Y-6267292D02*
X11936019Y-6324435D01*
X11936019Y-6324435D02*
X11878876Y-6438721D01*
X11878876Y-6438721D02*
X11878876Y-6724435D01*
X11878876Y-6724435D02*
X11936019Y-6838721D01*
X11936019Y-6838721D02*
X11993162Y-6895863D01*
X11993162Y-6895863D02*
X12107448Y-6953006D01*
X12107448Y-6953006D02*
X12221734Y-6953006D01*
X12221734Y-6953006D02*
X12393162Y-6895863D01*
X12393162Y-6895863D02*
X13078876Y-6210149D01*
X13078876Y-6210149D02*
X13078876Y-6953006D01*
X12278876Y-7981578D02*
X13078876Y-7981578D01*
X11821734Y-7695863D02*
X12678876Y-7410149D01*
X12678876Y-7410149D02*
X12678876Y-8153006D01*
X13810809Y7561279D02*
X13810809Y8132707D01*
X13810809Y8132707D02*
X14382238Y8189850D01*
X14382238Y8189850D02*
X14325095Y8132707D01*
X14325095Y8132707D02*
X14267952Y8018422D01*
X14267952Y8018422D02*
X14267952Y7732707D01*
X14267952Y7732707D02*
X14325095Y7618422D01*
X14325095Y7618422D02*
X14382238Y7561279D01*
X14382238Y7561279D02*
X14496524Y7504136D01*
X14496524Y7504136D02*
X14782238Y7504136D01*
X14782238Y7504136D02*
X14896524Y7561279D01*
X14896524Y7561279D02*
X14953667Y7618422D01*
X14953667Y7618422D02*
X15010809Y7732707D01*
X15010809Y7732707D02*
X15010809Y8018422D01*
X15010809Y8018422D02*
X14953667Y8132707D01*
X14953667Y8132707D02*
X14896524Y8189850D01*
X13810809Y7161279D02*
X15010809Y6761279D01*
X15010809Y6761279D02*
X13810809Y6361279D01*
X13810809Y5161279D02*
X13810809Y4418422D01*
X13810809Y4418422D02*
X14267952Y4818422D01*
X14267952Y4818422D02*
X14267952Y4646993D01*
X14267952Y4646993D02*
X14325095Y4532708D01*
X14325095Y4532708D02*
X14382238Y4475565D01*
X14382238Y4475565D02*
X14496524Y4418422D01*
X14496524Y4418422D02*
X14782238Y4418422D01*
X14782238Y4418422D02*
X14896524Y4475565D01*
X14896524Y4475565D02*
X14953667Y4532708D01*
X14953667Y4532708D02*
X15010809Y4646993D01*
X15010809Y4646993D02*
X15010809Y4989850D01*
X15010809Y4989850D02*
X14953667Y5104136D01*
X14953667Y5104136D02*
X14896524Y5161279D01*
X14667952Y3961279D02*
X14667952Y3389851D01*
X15010809Y4075565D02*
X13810809Y3675565D01*
X13810809Y3675565D02*
X15010809Y3275565D01*
X15010809Y1961279D02*
X14210809Y1961279D01*
X13810809Y1961279D02*
X13867952Y2018422D01*
X13867952Y2018422D02*
X13925095Y1961279D01*
X13925095Y1961279D02*
X13867952Y1904136D01*
X13867952Y1904136D02*
X13810809Y1961279D01*
X13810809Y1961279D02*
X13925095Y1961279D01*
X14210809Y1389850D02*
X15010809Y1389850D01*
X14325095Y1389850D02*
X14267952Y1332707D01*
X14267952Y1332707D02*
X14210809Y1218422D01*
X14210809Y1218422D02*
X14210809Y1046993D01*
X14210809Y1046993D02*
X14267952Y932707D01*
X14267952Y932707D02*
X14382238Y875565D01*
X14382238Y875565D02*
X15010809Y875565D01*
X15742742Y8246993D02*
X15742742Y7504136D01*
X15742742Y7504136D02*
X16199885Y7904136D01*
X16199885Y7904136D02*
X16199885Y7732707D01*
X16199885Y7732707D02*
X16257028Y7618422D01*
X16257028Y7618422D02*
X16314171Y7561279D01*
X16314171Y7561279D02*
X16428457Y7504136D01*
X16428457Y7504136D02*
X16714171Y7504136D01*
X16714171Y7504136D02*
X16828457Y7561279D01*
X16828457Y7561279D02*
X16885600Y7618422D01*
X16885600Y7618422D02*
X16942742Y7732707D01*
X16942742Y7732707D02*
X16942742Y8075564D01*
X16942742Y8075564D02*
X16885600Y8189850D01*
X16885600Y8189850D02*
X16828457Y8246993D01*
X16942742Y7104136D02*
X16142742Y6475565D01*
X16142742Y7104136D02*
X16942742Y6475565D01*
X15742742Y4532707D02*
X15742742Y5104135D01*
X15742742Y5104135D02*
X16314171Y5161278D01*
X16314171Y5161278D02*
X16257028Y5104135D01*
X16257028Y5104135D02*
X16199885Y4989850D01*
X16199885Y4989850D02*
X16199885Y4704135D01*
X16199885Y4704135D02*
X16257028Y4589850D01*
X16257028Y4589850D02*
X16314171Y4532707D01*
X16314171Y4532707D02*
X16428457Y4475564D01*
X16428457Y4475564D02*
X16714171Y4475564D01*
X16714171Y4475564D02*
X16828457Y4532707D01*
X16828457Y4532707D02*
X16885600Y4589850D01*
X16885600Y4589850D02*
X16942742Y4704135D01*
X16942742Y4704135D02*
X16942742Y4989850D01*
X16942742Y4989850D02*
X16885600Y5104135D01*
X16885600Y5104135D02*
X16828457Y5161278D01*
X15742742Y4132707D02*
X16942742Y3732707D01*
X16942742Y3732707D02*
X15742742Y3332707D01*
X16942742Y1389850D02*
X16942742Y2075564D01*
X16942742Y1732707D02*
X15742742Y1732707D01*
X15742742Y1732707D02*
X15914171Y1846993D01*
X15914171Y1846993D02*
X16028457Y1961278D01*
X16028457Y1961278D02*
X16085600Y2075564D01*
X16599885Y932707D02*
X16599885Y361279D01*
X16942742Y1046993D02*
X15742742Y646993D01*
X15742742Y646993D02*
X16942742Y246993D01*
X16942742Y-1238720D02*
X16885600Y-1124435D01*
X16885600Y-1124435D02*
X16828457Y-1067292D01*
X16828457Y-1067292D02*
X16714171Y-1010149D01*
X16714171Y-1010149D02*
X16371314Y-1010149D01*
X16371314Y-1010149D02*
X16257028Y-1067292D01*
X16257028Y-1067292D02*
X16199885Y-1124435D01*
X16199885Y-1124435D02*
X16142742Y-1238720D01*
X16142742Y-1238720D02*
X16142742Y-1410149D01*
X16142742Y-1410149D02*
X16199885Y-1524435D01*
X16199885Y-1524435D02*
X16257028Y-1581578D01*
X16257028Y-1581578D02*
X16371314Y-1638720D01*
X16371314Y-1638720D02*
X16714171Y-1638720D01*
X16714171Y-1638720D02*
X16828457Y-1581578D01*
X16828457Y-1581578D02*
X16885600Y-1524435D01*
X16885600Y-1524435D02*
X16942742Y-1410149D01*
X16942742Y-1410149D02*
X16942742Y-1238720D01*
X16142742Y-2667292D02*
X16942742Y-2667292D01*
X16142742Y-2153006D02*
X16771314Y-2153006D01*
X16771314Y-2153006D02*
X16885600Y-2210149D01*
X16885600Y-2210149D02*
X16942742Y-2324434D01*
X16942742Y-2324434D02*
X16942742Y-2495863D01*
X16942742Y-2495863D02*
X16885600Y-2610149D01*
X16885600Y-2610149D02*
X16828457Y-2667292D01*
X16142742Y-3067291D02*
X16142742Y-3524434D01*
X15742742Y-3238720D02*
X16771314Y-3238720D01*
X16771314Y-3238720D02*
X16885600Y-3295863D01*
X16885600Y-3295863D02*
X16942742Y-3410148D01*
X16942742Y-3410148D02*
X16942742Y-3524434D01*
D11*
X7657971Y-6411653D02*
X7729400Y-6340225D01*
X7729400Y-6340225D02*
X7800828Y-6125939D01*
X7800828Y-6125939D02*
X7800828Y-5983082D01*
X7800828Y-5983082D02*
X7729400Y-5768796D01*
X7729400Y-5768796D02*
X7586542Y-5625939D01*
X7586542Y-5625939D02*
X7443685Y-5554510D01*
X7443685Y-5554510D02*
X7157971Y-5483082D01*
X7157971Y-5483082D02*
X6943685Y-5483082D01*
X6943685Y-5483082D02*
X6657971Y-5554510D01*
X6657971Y-5554510D02*
X6515114Y-5625939D01*
X6515114Y-5625939D02*
X6372257Y-5768796D01*
X6372257Y-5768796D02*
X6300828Y-5983082D01*
X6300828Y-5983082D02*
X6300828Y-6125939D01*
X6300828Y-6125939D02*
X6372257Y-6340225D01*
X6372257Y-6340225D02*
X6443685Y-6411653D01*
X7657971Y-7911653D02*
X7729400Y-7840225D01*
X7729400Y-7840225D02*
X7800828Y-7625939D01*
X7800828Y-7625939D02*
X7800828Y-7483082D01*
X7800828Y-7483082D02*
X7729400Y-7268796D01*
X7729400Y-7268796D02*
X7586542Y-7125939D01*
X7586542Y-7125939D02*
X7443685Y-7054510D01*
X7443685Y-7054510D02*
X7157971Y-6983082D01*
X7157971Y-6983082D02*
X6943685Y-6983082D01*
X6943685Y-6983082D02*
X6657971Y-7054510D01*
X6657971Y-7054510D02*
X6515114Y-7125939D01*
X6515114Y-7125939D02*
X6372257Y-7268796D01*
X6372257Y-7268796D02*
X6300828Y-7483082D01*
X6300828Y-7483082D02*
X6300828Y-7625939D01*
X6300828Y-7625939D02*
X6372257Y-7840225D01*
X6372257Y-7840225D02*
X6443685Y-7911653D01*
X6443685Y-8483082D02*
X6372257Y-8554510D01*
X6372257Y-8554510D02*
X6300828Y-8697368D01*
X6300828Y-8697368D02*
X6300828Y-9054510D01*
X6300828Y-9054510D02*
X6372257Y-9197368D01*
X6372257Y-9197368D02*
X6443685Y-9268796D01*
X6443685Y-9268796D02*
X6586542Y-9340225D01*
X6586542Y-9340225D02*
X6729400Y-9340225D01*
X6729400Y-9340225D02*
X6943685Y-9268796D01*
X6943685Y-9268796D02*
X7800828Y-8411653D01*
X7800828Y-8411653D02*
X7800828Y-9340225D01*
X14495489Y-12529400D02*
X13352632Y-12529400D01*
X13924060Y-13100828D02*
X13924060Y-11957971D01*
X11852631Y-13100828D02*
X12709774Y-13100828D01*
X12281203Y-13100828D02*
X12281203Y-11600828D01*
X12281203Y-11600828D02*
X12424060Y-11815114D01*
X12424060Y-11815114D02*
X12566917Y-11957971D01*
X12566917Y-11957971D02*
X12709774Y-12029400D01*
X11209775Y-12957971D02*
X11138346Y-13029400D01*
X11138346Y-13029400D02*
X11209775Y-13100828D01*
X11209775Y-13100828D02*
X11281203Y-13029400D01*
X11281203Y-13029400D02*
X11209775Y-12957971D01*
X11209775Y-12957971D02*
X11209775Y-13100828D01*
X10566917Y-11743685D02*
X10495489Y-11672257D01*
X10495489Y-11672257D02*
X10352632Y-11600828D01*
X10352632Y-11600828D02*
X9995489Y-11600828D01*
X9995489Y-11600828D02*
X9852632Y-11672257D01*
X9852632Y-11672257D02*
X9781203Y-11743685D01*
X9781203Y-11743685D02*
X9709774Y-11886542D01*
X9709774Y-11886542D02*
X9709774Y-12029400D01*
X9709774Y-12029400D02*
X9781203Y-12243685D01*
X9781203Y-12243685D02*
X10638346Y-13100828D01*
X10638346Y-13100828D02*
X9709774Y-13100828D01*
X9281203Y-11600828D02*
X8781203Y-13100828D01*
X8781203Y-13100828D02*
X8281203Y-11600828D01*
D10*
X24765601Y404657D02*
X24765601Y1604657D01*
X24765601Y1604657D02*
X24479887Y1604657D01*
X24479887Y1604657D02*
X24308458Y1547514D01*
X24308458Y1547514D02*
X24194173Y1433228D01*
X24194173Y1433228D02*
X24137030Y1318942D01*
X24137030Y1318942D02*
X24079887Y1090371D01*
X24079887Y1090371D02*
X24079887Y918942D01*
X24079887Y918942D02*
X24137030Y690371D01*
X24137030Y690371D02*
X24194173Y576085D01*
X24194173Y576085D02*
X24308458Y461800D01*
X24308458Y461800D02*
X24479887Y404657D01*
X24479887Y404657D02*
X24765601Y404657D01*
X23565601Y861800D02*
X22651316Y861800D01*
X23108458Y404657D02*
X23108458Y1318942D01*
X24765601Y-1595342D02*
X24765601Y-395342D01*
X24765601Y-395342D02*
X24479887Y-395342D01*
X24479887Y-395342D02*
X24308458Y-452485D01*
X24308458Y-452485D02*
X24194173Y-566771D01*
X24194173Y-566771D02*
X24137030Y-681057D01*
X24137030Y-681057D02*
X24079887Y-909628D01*
X24079887Y-909628D02*
X24079887Y-1081057D01*
X24079887Y-1081057D02*
X24137030Y-1309628D01*
X24137030Y-1309628D02*
X24194173Y-1423914D01*
X24194173Y-1423914D02*
X24308458Y-1538200D01*
X24308458Y-1538200D02*
X24479887Y-1595342D01*
X24479887Y-1595342D02*
X24765601Y-1595342D01*
X23565601Y-1138200D02*
X22651316Y-1138200D01*
X24137030Y-2452485D02*
X24251316Y-2395342D01*
X24251316Y-2395342D02*
X24422744Y-2395342D01*
X24422744Y-2395342D02*
X24594173Y-2452485D01*
X24594173Y-2452485D02*
X24708458Y-2566771D01*
X24708458Y-2566771D02*
X24765601Y-2681057D01*
X24765601Y-2681057D02*
X24822744Y-2909628D01*
X24822744Y-2909628D02*
X24822744Y-3081057D01*
X24822744Y-3081057D02*
X24765601Y-3309628D01*
X24765601Y-3309628D02*
X24708458Y-3423914D01*
X24708458Y-3423914D02*
X24594173Y-3538200D01*
X24594173Y-3538200D02*
X24422744Y-3595342D01*
X24422744Y-3595342D02*
X24308458Y-3595342D01*
X24308458Y-3595342D02*
X24137030Y-3538200D01*
X24137030Y-3538200D02*
X24079887Y-3481057D01*
X24079887Y-3481057D02*
X24079887Y-3081057D01*
X24079887Y-3081057D02*
X24308458Y-3081057D01*
X23565601Y-3595342D02*
X23565601Y-2395342D01*
X23565601Y-2395342D02*
X22879887Y-3595342D01*
X22879887Y-3595342D02*
X22879887Y-2395342D01*
X22308458Y-3595342D02*
X22308458Y-2395342D01*
X22308458Y-2395342D02*
X22022744Y-2395342D01*
X22022744Y-2395342D02*
X21851315Y-2452485D01*
X21851315Y-2452485D02*
X21737030Y-2566771D01*
X21737030Y-2566771D02*
X21679887Y-2681057D01*
X21679887Y-2681057D02*
X21622744Y-2909628D01*
X21622744Y-2909628D02*
X21622744Y-3081057D01*
X21622744Y-3081057D02*
X21679887Y-3309628D01*
X21679887Y-3309628D02*
X21737030Y-3423914D01*
X21737030Y-3423914D02*
X21851315Y-3538200D01*
X21851315Y-3538200D02*
X22022744Y-3595342D01*
X22022744Y-3595342D02*
X22308458Y-3595342D01*
X12761904Y-9504819D02*
X12190476Y-9504819D01*
X12476190Y-10504819D02*
X12476190Y-9504819D01*
X11857142Y-10504819D02*
X11857142Y-9504819D01*
X11857142Y-9504819D02*
X11476190Y-9504819D01*
X11476190Y-9504819D02*
X11380952Y-9552438D01*
X11380952Y-9552438D02*
X11333333Y-9600057D01*
X11333333Y-9600057D02*
X11285714Y-9695295D01*
X11285714Y-9695295D02*
X11285714Y-9838152D01*
X11285714Y-9838152D02*
X11333333Y-9933390D01*
X11333333Y-9933390D02*
X11380952Y-9981009D01*
X11380952Y-9981009D02*
X11476190Y-10028628D01*
X11476190Y-10028628D02*
X11857142Y-10028628D01*
X10428571Y-9838152D02*
X10428571Y-10504819D01*
X10666666Y-9457200D02*
X10904761Y-10171485D01*
X10904761Y-10171485D02*
X10285714Y-10171485D01*
X8454819Y-5488095D02*
X8454819Y-6059523D01*
X9454819Y-5773809D02*
X8454819Y-5773809D01*
X9454819Y-6392857D02*
X8454819Y-6392857D01*
X8454819Y-6392857D02*
X8454819Y-6773809D01*
X8454819Y-6773809D02*
X8502438Y-6869047D01*
X8502438Y-6869047D02*
X8550057Y-6916666D01*
X8550057Y-6916666D02*
X8645295Y-6964285D01*
X8645295Y-6964285D02*
X8788152Y-6964285D01*
X8788152Y-6964285D02*
X8883390Y-6916666D01*
X8883390Y-6916666D02*
X8931009Y-6869047D01*
X8931009Y-6869047D02*
X8978628Y-6773809D01*
X8978628Y-6773809D02*
X8978628Y-6392857D01*
X8550057Y-7345238D02*
X8502438Y-7392857D01*
X8502438Y-7392857D02*
X8454819Y-7488095D01*
X8454819Y-7488095D02*
X8454819Y-7726190D01*
X8454819Y-7726190D02*
X8502438Y-7821428D01*
X8502438Y-7821428D02*
X8550057Y-7869047D01*
X8550057Y-7869047D02*
X8645295Y-7916666D01*
X8645295Y-7916666D02*
X8740533Y-7916666D01*
X8740533Y-7916666D02*
X8883390Y-7869047D01*
X8883390Y-7869047D02*
X9454819Y-7297619D01*
X9454819Y-7297619D02*
X9454819Y-7916666D01*
X20961904Y3995180D02*
X20390476Y3995180D01*
X20676190Y2995180D02*
X20676190Y3995180D01*
X20057142Y2995180D02*
X20057142Y3995180D01*
X20057142Y3995180D02*
X19676190Y3995180D01*
X19676190Y3995180D02*
X19580952Y3947561D01*
X19580952Y3947561D02*
X19533333Y3899942D01*
X19533333Y3899942D02*
X19485714Y3804704D01*
X19485714Y3804704D02*
X19485714Y3661847D01*
X19485714Y3661847D02*
X19533333Y3566609D01*
X19533333Y3566609D02*
X19580952Y3518990D01*
X19580952Y3518990D02*
X19676190Y3471371D01*
X19676190Y3471371D02*
X20057142Y3471371D01*
X19152380Y3995180D02*
X18533333Y3995180D01*
X18533333Y3995180D02*
X18866666Y3614228D01*
X18866666Y3614228D02*
X18723809Y3614228D01*
X18723809Y3614228D02*
X18628571Y3566609D01*
X18628571Y3566609D02*
X18580952Y3518990D01*
X18580952Y3518990D02*
X18533333Y3423752D01*
X18533333Y3423752D02*
X18533333Y3185657D01*
X18533333Y3185657D02*
X18580952Y3090419D01*
X18580952Y3090419D02*
X18628571Y3042800D01*
X18628571Y3042800D02*
X18723809Y2995180D01*
X18723809Y2995180D02*
X19009523Y2995180D01*
X19009523Y2995180D02*
X19104761Y3042800D01*
X19104761Y3042800D02*
X19152380Y3090419D01*
X8354819Y4761904D02*
X8354819Y4190476D01*
X9354819Y4476190D02*
X8354819Y4476190D01*
X9354819Y3857142D02*
X8354819Y3857142D01*
X8354819Y3857142D02*
X8354819Y3476190D01*
X8354819Y3476190D02*
X8402438Y3380952D01*
X8402438Y3380952D02*
X8450057Y3333333D01*
X8450057Y3333333D02*
X8545295Y3285714D01*
X8545295Y3285714D02*
X8688152Y3285714D01*
X8688152Y3285714D02*
X8783390Y3333333D01*
X8783390Y3333333D02*
X8831009Y3380952D01*
X8831009Y3380952D02*
X8878628Y3476190D01*
X8878628Y3476190D02*
X8878628Y3857142D01*
X9354819Y2333333D02*
X9354819Y2904761D01*
X9354819Y2619047D02*
X8354819Y2619047D01*
X8354819Y2619047D02*
X8497676Y2714285D01*
X8497676Y2714285D02*
X8592914Y2809523D01*
X8592914Y2809523D02*
X8640533Y2904761D01*
D13*
%TO.C,TP4*%
X16000000Y-10050000D02*
G75*
G02*
X13100000Y-10050000I-1450000J0D01*
G01*
X13100000Y-10050000D02*
G75*
G02*
X16000000Y-10050000I1450000J0D01*
G01*
%TO.C,TP2*%
X9250000Y-3500000D02*
G75*
G02*
X6350000Y-3500000I-1450000J0D01*
G01*
X6350000Y-3500000D02*
G75*
G02*
X9250000Y-3500000I1450000J0D01*
G01*
%TO.C,TP3*%
X21700000Y1150000D02*
G75*
G02*
X18800000Y1150000I-1450000J0D01*
G01*
X18800000Y1150000D02*
G75*
G02*
X21700000Y1150000I1450000J0D01*
G01*
%TO.C,TP1*%
X9050000Y500000D02*
G75*
G02*
X6150000Y500000I-1450000J0D01*
G01*
X6150000Y500000D02*
G75*
G02*
X9050000Y500000I1450000J0D01*
G01*
%TD*%
M02*
