%TF.GenerationSoftware,KiCad,Pcbnew,8.0.3*%
%TF.CreationDate,2024-07-08T02:18:10-04:00*%
%TF.ProjectId,USB-C-3-way-splitter-V4,5553422d-432d-4332-9d77-61792d73706c,rev?*%
%TF.SameCoordinates,Original*%
%TF.FileFunction,Paste,Top*%
%TF.FilePolarity,Positive*%
%FSLAX46Y46*%
G04 Gerber Fmt 4.6, Leading zero omitted, Abs format (unit mm)*
G04 Created by KiCad (PCBNEW 8.0.3) date 2024-07-08 02:18:10*
%MOMM*%
%LPD*%
G01*
G04 APERTURE LIST*
G04 Aperture macros list*
%AMRoundRect*
0 Rectangle with rounded corners*
0 $1 Rounding radius*
0 $2 $3 $4 $5 $6 $7 $8 $9 X,Y pos of 4 corners*
0 Add a 4 corners polygon primitive as box body*
4,1,4,$2,$3,$4,$5,$6,$7,$8,$9,$2,$3,0*
0 Add four circle primitives for the rounded corners*
1,1,$1+$1,$2,$3*
1,1,$1+$1,$4,$5*
1,1,$1+$1,$6,$7*
1,1,$1+$1,$8,$9*
0 Add four rect primitives between the rounded corners*
20,1,$1+$1,$2,$3,$4,$5,0*
20,1,$1+$1,$4,$5,$6,$7,0*
20,1,$1+$1,$6,$7,$8,$9,0*
20,1,$1+$1,$8,$9,$2,$3,0*%
G04 Aperture macros list end*
%ADD10RoundRect,0.250000X0.412500X0.650000X-0.412500X0.650000X-0.412500X-0.650000X0.412500X-0.650000X0*%
%ADD11RoundRect,0.087500X-0.087500X-0.387500X0.087500X-0.387500X0.087500X0.387500X-0.087500X0.387500X0*%
%ADD12RoundRect,0.087500X-0.087500X-0.425000X0.087500X-0.425000X0.087500X0.425000X-0.087500X0.425000X0*%
%ADD13RoundRect,0.125000X-0.215000X-0.125000X0.215000X-0.125000X0.215000X0.125000X-0.215000X0.125000X0*%
%ADD14RoundRect,0.087500X-0.252500X-0.087500X0.252500X-0.087500X0.252500X0.087500X-0.252500X0.087500X0*%
%ADD15RoundRect,0.250000X0.450000X-0.350000X0.450000X0.350000X-0.450000X0.350000X-0.450000X-0.350000X0*%
%ADD16RoundRect,0.250000X-0.450000X0.350000X-0.450000X-0.350000X0.450000X-0.350000X0.450000X0.350000X0*%
%ADD17RoundRect,0.150000X-0.587500X-0.150000X0.587500X-0.150000X0.587500X0.150000X-0.587500X0.150000X0*%
%ADD18RoundRect,0.225000X-0.375000X0.225000X-0.375000X-0.225000X0.375000X-0.225000X0.375000X0.225000X0*%
%ADD19RoundRect,0.225000X0.225000X0.375000X-0.225000X0.375000X-0.225000X-0.375000X0.225000X-0.375000X0*%
%ADD20RoundRect,0.250000X1.450000X-0.400000X1.450000X0.400000X-1.450000X0.400000X-1.450000X-0.400000X0*%
%ADD21RoundRect,0.112500X0.112500X0.637500X-0.112500X0.637500X-0.112500X-0.637500X0.112500X-0.637500X0*%
%ADD22RoundRect,0.250000X-0.350000X-0.450000X0.350000X-0.450000X0.350000X0.450000X-0.350000X0.450000X0*%
%ADD23RoundRect,0.150000X-0.825000X-0.150000X0.825000X-0.150000X0.825000X0.150000X-0.825000X0.150000X0*%
%ADD24RoundRect,0.250000X0.650000X-0.412500X0.650000X0.412500X-0.650000X0.412500X-0.650000X-0.412500X0*%
%ADD25RoundRect,0.250000X-0.450000X0.325000X-0.450000X-0.325000X0.450000X-0.325000X0.450000X0.325000X0*%
%ADD26RoundRect,0.250000X-0.337500X-0.475000X0.337500X-0.475000X0.337500X0.475000X-0.337500X0.475000X0*%
%ADD27RoundRect,0.250000X-0.325000X-0.450000X0.325000X-0.450000X0.325000X0.450000X-0.325000X0.450000X0*%
%ADD28RoundRect,0.250000X-0.475000X0.337500X-0.475000X-0.337500X0.475000X-0.337500X0.475000X0.337500X0*%
%ADD29RoundRect,0.150000X-0.200000X0.150000X-0.200000X-0.150000X0.200000X-0.150000X0.200000X0.150000X0*%
%ADD30RoundRect,0.150000X0.512500X0.150000X-0.512500X0.150000X-0.512500X-0.150000X0.512500X-0.150000X0*%
%ADD31R,1.450000X0.600000*%
%ADD32R,1.450000X0.300000*%
G04 APERTURE END LIST*
D10*
%TO.C,C2*%
X23462500Y-2500000D03*
X20337500Y-2500000D03*
%TD*%
D11*
%TO.C,U2*%
X21400000Y4462500D03*
D12*
X21400000Y5600000D03*
D13*
X22210000Y5537500D03*
D14*
X22210000Y4962500D03*
X22210000Y4462500D03*
X22210000Y3962500D03*
D13*
X22210000Y3387500D03*
D12*
X21400000Y3325000D03*
D13*
X20590000Y3387500D03*
D14*
X20590000Y3962500D03*
X20590000Y4462500D03*
X20590000Y4962500D03*
D13*
X20590000Y5537500D03*
%TD*%
D15*
%TO.C,R9*%
X17800000Y-1400000D03*
X17800000Y600000D03*
%TD*%
D16*
%TO.C,R8*%
X11700000Y3800000D03*
X11700000Y1800000D03*
%TD*%
D17*
%TO.C,Q1*%
X16262500Y4950000D03*
X16262500Y3050000D03*
X18137500Y4000000D03*
%TD*%
D18*
%TO.C,D5*%
X13900000Y4950000D03*
X13900000Y1650000D03*
%TD*%
D19*
%TO.C,D4*%
X14750000Y6900000D03*
X11450000Y6900000D03*
%TD*%
D20*
%TO.C,F1*%
X8700000Y1850000D03*
X8700000Y6300000D03*
%TD*%
D21*
%TO.C,D1*%
X14650000Y-5840000D03*
X13350000Y-5840000D03*
X14000000Y-8500000D03*
%TD*%
D22*
%TO.C,R1*%
X9500000Y-12100000D03*
X11500000Y-12100000D03*
%TD*%
D23*
%TO.C,U1*%
X8525000Y5000D03*
X8525000Y-1265000D03*
X8525000Y-2535000D03*
X8525000Y-3805000D03*
X13475000Y-3805000D03*
X13475000Y-2535000D03*
X13475000Y-1265000D03*
X13475000Y5000D03*
%TD*%
D16*
%TO.C,R3*%
X15800000Y-100000D03*
X15800000Y-2100000D03*
%TD*%
%TO.C,R7*%
X22300000Y1800000D03*
X22300000Y-200000D03*
%TD*%
D24*
%TO.C,C3*%
X11800000Y9037500D03*
X11800000Y12162500D03*
%TD*%
D25*
%TO.C,D2*%
X9500000Y12225000D03*
X9500000Y10175000D03*
%TD*%
D26*
%TO.C,C5*%
X13500000Y-11000000D03*
X15575000Y-11000000D03*
%TD*%
D27*
%TO.C,D3*%
X19075000Y-4700000D03*
X21125000Y-4700000D03*
%TD*%
D16*
%TO.C,R6*%
X17100000Y-4000000D03*
X17100000Y-6000000D03*
%TD*%
D15*
%TO.C,R5*%
X23100000Y-4700000D03*
X23100000Y-6700000D03*
%TD*%
D28*
%TO.C,C1*%
X20200000Y1800000D03*
X20200000Y-275000D03*
%TD*%
D15*
%TO.C,R4*%
X7400000Y8300000D03*
X7400000Y10300000D03*
%TD*%
D16*
%TO.C,R2*%
X11500000Y-8000000D03*
X11500000Y-10000000D03*
%TD*%
D29*
%TO.C,D6*%
X23400000Y6000000D03*
X23400000Y7400000D03*
%TD*%
D30*
%TO.C,U3*%
X9337500Y-9950000D03*
X9337500Y-9000000D03*
X9337500Y-8050000D03*
X7062500Y-8050000D03*
X7062500Y-9000000D03*
X7062500Y-9950000D03*
%TD*%
D31*
%TO.C,J1*%
X4945000Y3250000D03*
X4945000Y2450000D03*
D32*
X4945000Y1250000D03*
X4945000Y250000D03*
X4945000Y-250000D03*
X4945000Y-1250000D03*
D31*
X4945000Y-2450000D03*
X4945000Y-3250000D03*
X4945000Y-3250000D03*
X4945000Y-2450000D03*
D32*
X4945000Y-1750000D03*
X4945000Y-750000D03*
X4945000Y750000D03*
X4945000Y1750000D03*
D31*
X4945000Y2450000D03*
X4945000Y3250000D03*
%TD*%
M02*
