%TF.GenerationSoftware,KiCad,Pcbnew,8.0.3*%
%TF.CreationDate,2024-07-08T02:18:10-04:00*%
%TF.ProjectId,USB-C-3-way-splitter-V4,5553422d-432d-4332-9d77-61792d73706c,rev?*%
%TF.SameCoordinates,Original*%
%TF.FileFunction,Copper,L2,Bot*%
%TF.FilePolarity,Positive*%
%FSLAX46Y46*%
G04 Gerber Fmt 4.6, Leading zero omitted, Abs format (unit mm)*
G04 Created by KiCad (PCBNEW 8.0.3) date 2024-07-08 02:18:10*
%MOMM*%
%LPD*%
G01*
G04 APERTURE LIST*
%TA.AperFunction,ComponentPad*%
%ADD10C,5.700000*%
%TD*%
%TA.AperFunction,ComponentPad*%
%ADD11R,1.800000X1.800000*%
%TD*%
%TA.AperFunction,ComponentPad*%
%ADD12O,1.350000X1.350000*%
%TD*%
%TA.AperFunction,ComponentPad*%
%ADD13C,1.800000*%
%TD*%
%TA.AperFunction,ComponentPad*%
%ADD14O,1.800000X1.800000*%
%TD*%
%TA.AperFunction,ComponentPad*%
%ADD15O,2.100000X1.000000*%
%TD*%
%TA.AperFunction,ComponentPad*%
%ADD16O,1.600000X1.000000*%
%TD*%
%TA.AperFunction,SMDPad,CuDef*%
%ADD17C,2.500000*%
%TD*%
%TA.AperFunction,ViaPad*%
%ADD18C,0.800000*%
%TD*%
%TA.AperFunction,Conductor*%
%ADD19C,0.300000*%
%TD*%
%TA.AperFunction,Conductor*%
%ADD20C,0.500000*%
%TD*%
%TA.AperFunction,Conductor*%
%ADD21C,0.600000*%
%TD*%
G04 APERTURE END LIST*
D10*
%TO.P,H4,1,1*%
%TO.N,GNDPWR*%
X20100000Y-10000000D03*
%TD*%
D11*
%TO.P,J3,1,Pin_1*%
%TO.N,+5V*%
X26000000Y3000000D03*
D12*
%TO.P,J3,2,Pin_2*%
%TO.N,Net-(J3-Pin_2)*%
X26000000Y1000000D03*
%TO.P,J3,3,Pin_3*%
X26000000Y-1000000D03*
D13*
%TO.P,J3,4,Pin_4*%
%TO.N,GND*%
X26000000Y-3000000D03*
%TD*%
D10*
%TO.P,H2,1,1*%
%TO.N,GNDPWR*%
X3000000Y-10000000D03*
%TD*%
D11*
%TO.P,J2,1,Pin_1*%
%TO.N,+5V*%
X26000000Y12000000D03*
D12*
%TO.P,J2,2,Pin_2*%
%TO.N,Net-(J2-Pin_2)*%
X26000000Y10000000D03*
%TO.P,J2,3,Pin_3*%
X26000000Y8000000D03*
D14*
%TO.P,J2,4,Pin_4*%
%TO.N,GND*%
X26000000Y6000000D03*
%TD*%
D10*
%TO.P,H1,1,1*%
%TO.N,GNDPWR*%
X3000000Y10000000D03*
%TD*%
D15*
%TO.P,J1,S1,SHIELD*%
%TO.N,GNDPWR*%
X4030000Y4320000D03*
D16*
X-150000Y4320000D03*
D15*
X4030000Y-4320000D03*
D16*
X-150000Y-4320000D03*
%TD*%
D10*
%TO.P,H3,1,1*%
%TO.N,GNDPWR*%
X20100000Y10000000D03*
%TD*%
D11*
%TO.P,J4,1,Pin_1*%
%TO.N,+5V*%
X26000000Y-6000000D03*
D12*
%TO.P,J4,2,Pin_2*%
%TO.N,Net-(J4-Pin_2)*%
X26000000Y-8000000D03*
%TO.P,J4,3,Pin_3*%
X26000000Y-10000000D03*
D13*
%TO.P,J4,4,Pin_4*%
%TO.N,GND*%
X26000000Y-12000000D03*
%TD*%
D17*
%TO.P,TP4,1,1*%
%TO.N,+1V2*%
X14550000Y-10050000D03*
%TD*%
%TO.P,TP2,1,1*%
%TO.N,CC2*%
X7800000Y-3500000D03*
%TD*%
%TO.P,TP3,1,1*%
%TO.N,EN-OPEN-COL*%
X20250000Y1150000D03*
%TD*%
%TO.P,TP1,1,1*%
%TO.N,CC1*%
X7600000Y500000D03*
%TD*%
D18*
%TO.N,GND*%
X19000000Y-3200000D03*
%TO.N,Net-(D5-A)*%
X16800000Y1600000D03*
%TO.N,EN-OPEN-COL*%
X16900000Y4000000D03*
%TO.N,GND*%
X22800000Y7700000D03*
X21800000Y-2200000D03*
X17500000Y2900000D03*
%TO.N,Net-(D4-A)*%
X12500000Y6800000D03*
%TO.N,Net-(D5-A)*%
X12000000Y-1200000D03*
%TO.N,GND*%
X9600000Y3700000D03*
X10100000Y-3850000D03*
X16400000Y9950000D03*
X16450000Y10900000D03*
X12400000Y10600000D03*
X6200000Y3600000D03*
X15800000Y-6300000D03*
X5800000Y-4900000D03*
X12500000Y-5200000D03*
X18500000Y-6800000D03*
X10700000Y-11000000D03*
X5800000Y-3900000D03*
X6100000Y4700000D03*
X6000000Y7500000D03*
X6000000Y-5900000D03*
%TO.N,CC1*%
X9300000Y-5500000D03*
X6750000Y450000D03*
X8600000Y-7300000D03*
%TO.N,CC2*%
X8000000Y-5900000D03*
%TO.N,+1V2*%
X12775000Y-9025000D03*
%TO.N,Net-(D4-A)*%
X11150000Y750000D03*
%TD*%
D19*
%TO.N,Net-(D5-A)*%
X15700000Y1600000D02*
X16800000Y1600000D01*
%TO.N,EN-OPEN-COL*%
X18887500Y4000000D02*
X16900000Y4000000D01*
X19500000Y3387500D02*
X18887500Y4000000D01*
X20250000Y1150000D02*
X20250000Y2637500D01*
X20250000Y2637500D02*
X19500000Y3387500D01*
%TO.N,Net-(D5-A)*%
X15700000Y1600000D02*
X12900000Y-1200000D01*
D20*
%TO.N,Net-(D4-A)*%
X12500000Y2100000D02*
X12500000Y6800000D01*
X11150000Y750000D02*
X12500000Y2100000D01*
D19*
%TO.N,Net-(D5-A)*%
X12900000Y-1200000D02*
X12000000Y-1200000D01*
%TO.N,CC1*%
X9300000Y-5500000D02*
X9300000Y-6600000D01*
X9300000Y-6600000D02*
X8600000Y-7300000D01*
%TO.N,CC2*%
X8000000Y-3700000D02*
X7800000Y-3500000D01*
X8000000Y-5900000D02*
X8000000Y-3700000D01*
%TO.N,+1V2*%
X13800000Y-10050000D02*
X12775000Y-9025000D01*
X14550000Y-10050000D02*
X13800000Y-10050000D01*
D21*
%TO.N,GNDPWR*%
X4620000Y4320000D02*
X4030000Y4320000D01*
D20*
X3000000Y-10000000D02*
X3302400Y-10302400D01*
X16350000Y12850000D02*
X19200000Y10000000D01*
X5850000Y12850000D02*
X16350000Y12850000D01*
X3000000Y-5350000D02*
X4030000Y-4320000D01*
X4030000Y4320000D02*
X4030000Y8970000D01*
X10400000Y-12100000D02*
X16050000Y-12100000D01*
X8602400Y-10302400D02*
X10400000Y-12100000D01*
X16100000Y-12150000D02*
X18250000Y-10000000D01*
X3000000Y-10000000D02*
X3000000Y-5350000D01*
X19200000Y10000000D02*
X20100000Y10000000D01*
X3000000Y10000000D02*
X5850000Y12850000D01*
D21*
X4030000Y-4320000D02*
X4620000Y-4320000D01*
D20*
X18250000Y-10000000D02*
X20100000Y-10000000D01*
X16050000Y-12100000D02*
X16100000Y-12150000D01*
X4030000Y8970000D02*
X3000000Y10000000D01*
X3302400Y-10302400D02*
X8602400Y-10302400D01*
%TD*%
%TA.AperFunction,Conductor*%
%TO.N,GNDPWR*%
G36*
X1441011Y13179815D02*
G01*
X1486766Y13127011D01*
X1496710Y13057853D01*
X1467685Y12994297D01*
X1430975Y12966679D01*
X1431501Y12965689D01*
X1428522Y12964109D01*
X1117282Y12776843D01*
X1117266Y12776832D01*
X828071Y12556993D01*
X828070Y12556992D01*
X811888Y12541664D01*
X811888Y12541662D01*
X2059300Y11294250D01*
X1957670Y11220412D01*
X1779588Y11042330D01*
X1705747Y10940697D01*
X460970Y12185475D01*
X460969Y12185475D01*
X329177Y12030319D01*
X329170Y12030309D01*
X125318Y11729651D01*
X125316Y11729647D01*
X-44838Y11408702D01*
X-44847Y11408684D01*
X-179302Y11071227D01*
X-179304Y11071220D01*
X-276480Y10721222D01*
X-276482Y10721214D01*
X-335253Y10362728D01*
X-354920Y10000002D01*
X-354920Y9999997D01*
X-335253Y9637271D01*
X-276482Y9278785D01*
X-276480Y9278777D01*
X-179304Y8928779D01*
X-179302Y8928772D01*
X-44847Y8591315D01*
X-44838Y8591297D01*
X125316Y8270352D01*
X125318Y8270348D01*
X307198Y8002096D01*
X328527Y7935562D01*
X310499Y7868058D01*
X258838Y7821017D01*
X189945Y7809374D01*
X180373Y7810892D01*
X81799Y7830500D01*
X81797Y7830500D01*
X-81797Y7830500D01*
X-81799Y7830500D01*
X-180372Y7810892D01*
X-242248Y7798584D01*
X-393389Y7735979D01*
X-529413Y7645091D01*
X-645091Y7529413D01*
X-735979Y7393389D01*
X-798584Y7242248D01*
X-798585Y7242242D01*
X-830500Y7081799D01*
X-830500Y6918200D01*
X-823569Y6883359D01*
X-798584Y6757752D01*
X-753951Y6650000D01*
X-735980Y6606613D01*
X-735975Y6606604D01*
X-645091Y6470587D01*
X-645088Y6470583D01*
X-529416Y6354911D01*
X-529412Y6354908D01*
X-393395Y6264024D01*
X-393386Y6264019D01*
X-242248Y6201416D01*
X-242242Y6201414D01*
X-81799Y6169500D01*
X-81797Y6169500D01*
X81799Y6169500D01*
X242242Y6201414D01*
X242248Y6201416D01*
X393386Y6264019D01*
X393395Y6264024D01*
X529412Y6354908D01*
X529416Y6354911D01*
X645088Y6470583D01*
X645091Y6470587D01*
X735975Y6606604D01*
X735980Y6606613D01*
X753951Y6650000D01*
X798584Y6757752D01*
X823569Y6883359D01*
X830500Y6918200D01*
X830500Y7081799D01*
X810121Y7184248D01*
X816348Y7253840D01*
X859211Y7309017D01*
X925100Y7332262D01*
X993097Y7316195D01*
X1006779Y7307156D01*
X1117266Y7223167D01*
X1117282Y7223156D01*
X1428522Y7035890D01*
X1428535Y7035883D01*
X1758205Y6883360D01*
X1758210Y6883359D01*
X2102461Y6767367D01*
X2457235Y6689275D01*
X2818366Y6650000D01*
X3181633Y6650000D01*
X3542764Y6689275D01*
X3897538Y6767367D01*
X4241789Y6883359D01*
X4241794Y6883360D01*
X4571464Y7035883D01*
X4571477Y7035890D01*
X4882717Y7223156D01*
X4882733Y7223167D01*
X5000959Y7313039D01*
X5066241Y7337938D01*
X5134622Y7323591D01*
X5184391Y7274552D01*
X5200000Y7214323D01*
X5200000Y5331159D01*
X5180315Y5264120D01*
X5127511Y5218365D01*
X5058353Y5208421D01*
X5028547Y5216598D01*
X4871689Y5281570D01*
X4871681Y5281572D01*
X4678495Y5319999D01*
X4678492Y5320000D01*
X4280000Y5320000D01*
X4280000Y4620000D01*
X3780000Y4620000D01*
X3780000Y5320000D01*
X3381508Y5320000D01*
X3381504Y5319999D01*
X3188318Y5281572D01*
X3188306Y5281569D01*
X3006328Y5206192D01*
X3006315Y5206185D01*
X2842537Y5096751D01*
X2842533Y5096748D01*
X2703251Y4957466D01*
X2703248Y4957462D01*
X2593814Y4793684D01*
X2593807Y4793671D01*
X2518430Y4611692D01*
X2518430Y4611690D01*
X2510138Y4570000D01*
X3313012Y4570000D01*
X3295795Y4560060D01*
X3239940Y4504205D01*
X3200444Y4435796D01*
X3180000Y4359496D01*
X3180000Y4280504D01*
X3200444Y4204204D01*
X3239940Y4135795D01*
X3295795Y4079940D01*
X3313012Y4070000D01*
X2510138Y4070000D01*
X2518430Y4028309D01*
X2518430Y4028307D01*
X2593807Y3846328D01*
X2593814Y3846315D01*
X2703248Y3682537D01*
X2703251Y3682533D01*
X2842536Y3543248D01*
X3011387Y3430427D01*
X3009889Y3428185D01*
X3051323Y3386789D01*
X3066206Y3318523D01*
X3041819Y3253047D01*
X3040892Y3251824D01*
X3036283Y3245818D01*
X2959993Y3113681D01*
X2959993Y3113680D01*
X2959992Y3113678D01*
X2920500Y2966293D01*
X2920500Y2813707D01*
X2955326Y2683733D01*
X2959993Y2666318D01*
X3036282Y2534182D01*
X3036287Y2534176D01*
X3144176Y2426287D01*
X3144182Y2426282D01*
X3276318Y2349993D01*
X3276317Y2349993D01*
X3320106Y2338259D01*
X3423707Y2310500D01*
X3423710Y2310500D01*
X3576290Y2310500D01*
X3576293Y2310500D01*
X3723678Y2349992D01*
X3723681Y2349993D01*
X3855817Y2426282D01*
X3855823Y2426287D01*
X3963712Y2534176D01*
X3963715Y2534179D01*
X4040008Y2666322D01*
X4079500Y2813707D01*
X4079500Y2966293D01*
X4040008Y3113678D01*
X4032747Y3126253D01*
X4028275Y3134001D01*
X4011803Y3201901D01*
X4034656Y3267928D01*
X4089578Y3311118D01*
X4135663Y3320000D01*
X4678495Y3320000D01*
X4871681Y3358427D01*
X4871693Y3358430D01*
X5028548Y3423401D01*
X5098017Y3430870D01*
X5160496Y3399595D01*
X5196148Y3339505D01*
X5200000Y3308840D01*
X5200000Y-3308840D01*
X5180315Y-3375879D01*
X5127511Y-3421634D01*
X5058353Y-3431578D01*
X5028548Y-3423401D01*
X4871693Y-3358430D01*
X4871681Y-3358427D01*
X4678495Y-3320000D01*
X4135663Y-3320000D01*
X4068624Y-3300315D01*
X4022869Y-3247511D01*
X4012925Y-3178353D01*
X4028275Y-3134001D01*
X4032747Y-3126253D01*
X4040008Y-3113678D01*
X4079500Y-2966293D01*
X4079500Y-2813707D01*
X4040008Y-2666322D01*
X3963715Y-2534179D01*
X3855821Y-2426285D01*
X3855819Y-2426284D01*
X3855817Y-2426282D01*
X3723681Y-2349993D01*
X3723682Y-2349993D01*
X3711595Y-2346754D01*
X3576293Y-2310500D01*
X3423707Y-2310500D01*
X3288404Y-2346754D01*
X3276318Y-2349993D01*
X3144182Y-2426282D01*
X3144176Y-2426287D01*
X3036287Y-2534176D01*
X3036282Y-2534182D01*
X2959993Y-2666318D01*
X2959992Y-2666322D01*
X2920500Y-2813707D01*
X2920500Y-2966293D01*
X2959992Y-3113678D01*
X2959993Y-3113681D01*
X3036283Y-3245818D01*
X3040892Y-3251824D01*
X3066088Y-3316993D01*
X3052051Y-3385438D01*
X3010060Y-3428441D01*
X3011387Y-3430427D01*
X2842536Y-3543248D01*
X2703251Y-3682533D01*
X2703248Y-3682537D01*
X2593814Y-3846315D01*
X2593807Y-3846328D01*
X2518430Y-4028307D01*
X2518430Y-4028309D01*
X2510138Y-4070000D01*
X3313012Y-4070000D01*
X3295795Y-4079940D01*
X3239940Y-4135795D01*
X3200444Y-4204204D01*
X3180000Y-4280504D01*
X3180000Y-4359496D01*
X3200444Y-4435796D01*
X3239940Y-4504205D01*
X3295795Y-4560060D01*
X3313012Y-4570000D01*
X2510138Y-4570000D01*
X2518430Y-4611690D01*
X2518430Y-4611692D01*
X2593807Y-4793671D01*
X2593814Y-4793684D01*
X2703248Y-4957462D01*
X2703251Y-4957466D01*
X2842533Y-5096748D01*
X2842537Y-5096751D01*
X3006315Y-5206185D01*
X3006328Y-5206192D01*
X3188306Y-5281569D01*
X3188318Y-5281572D01*
X3381504Y-5319999D01*
X3381508Y-5320000D01*
X3780000Y-5320000D01*
X3780000Y-4620000D01*
X4280000Y-4620000D01*
X4280000Y-5320000D01*
X4678492Y-5320000D01*
X4678495Y-5319999D01*
X4871681Y-5281572D01*
X4871689Y-5281570D01*
X5028547Y-5216598D01*
X5098017Y-5209129D01*
X5160496Y-5240404D01*
X5196148Y-5300493D01*
X5200000Y-5331159D01*
X5200000Y-7214323D01*
X5180315Y-7281362D01*
X5127511Y-7327117D01*
X5058353Y-7337061D01*
X5000959Y-7313039D01*
X4882733Y-7223167D01*
X4882717Y-7223156D01*
X4571477Y-7035890D01*
X4571464Y-7035883D01*
X4241794Y-6883360D01*
X4241789Y-6883359D01*
X3897538Y-6767367D01*
X3542764Y-6689275D01*
X3181633Y-6650000D01*
X2818366Y-6650000D01*
X2457235Y-6689275D01*
X2102461Y-6767367D01*
X1758210Y-6883359D01*
X1758205Y-6883360D01*
X1428535Y-7035883D01*
X1428522Y-7035890D01*
X1117282Y-7223156D01*
X1117266Y-7223167D01*
X828075Y-7443002D01*
X811888Y-7458335D01*
X811887Y-7458335D01*
X2059301Y-8705748D01*
X1957670Y-8779588D01*
X1779588Y-8957670D01*
X1705748Y-9059300D01*
X460970Y-7814522D01*
X460969Y-7814523D01*
X329177Y-7969680D01*
X329170Y-7969690D01*
X125318Y-8270348D01*
X125316Y-8270352D01*
X-44838Y-8591297D01*
X-44847Y-8591315D01*
X-179302Y-8928772D01*
X-179304Y-8928779D01*
X-276480Y-9278777D01*
X-276482Y-9278785D01*
X-335253Y-9637271D01*
X-354920Y-9999997D01*
X-354920Y-10000002D01*
X-335253Y-10362728D01*
X-276482Y-10721214D01*
X-276480Y-10721222D01*
X-179304Y-11071220D01*
X-179302Y-11071227D01*
X-44847Y-11408684D01*
X-44838Y-11408702D01*
X125316Y-11729647D01*
X125318Y-11729651D01*
X329170Y-12030309D01*
X329177Y-12030319D01*
X460969Y-12185475D01*
X460970Y-12185475D01*
X1705748Y-10940698D01*
X1779588Y-11042330D01*
X1957670Y-11220412D01*
X2059299Y-11294250D01*
X811888Y-12541662D01*
X811888Y-12541664D01*
X828070Y-12556992D01*
X828071Y-12556993D01*
X1117266Y-12776832D01*
X1117282Y-12776843D01*
X1428522Y-12964109D01*
X1431501Y-12965689D01*
X1430755Y-12967094D01*
X1478608Y-13008962D01*
X1497971Y-13076095D01*
X1477964Y-13143040D01*
X1424941Y-13188540D01*
X1373972Y-13199500D01*
X-990243Y-13199500D01*
X-1009638Y-13197973D01*
X-1025888Y-13195399D01*
X-1042250Y-13192808D01*
X-1079144Y-13180821D01*
X-1099762Y-13170316D01*
X-1131150Y-13147511D01*
X-1147511Y-13131150D01*
X-1170316Y-13099762D01*
X-1180821Y-13079144D01*
X-1192808Y-13042250D01*
X-1197973Y-13009642D01*
X-1199500Y-12990243D01*
X-1199500Y-5253878D01*
X-1179815Y-5186839D01*
X-1127011Y-5141084D01*
X-1057853Y-5131140D01*
X-1006609Y-5150776D01*
X-923683Y-5206185D01*
X-923671Y-5206192D01*
X-741693Y-5281569D01*
X-741681Y-5281572D01*
X-548495Y-5319999D01*
X-548492Y-5320000D01*
X-400000Y-5320000D01*
X-400000Y-4620000D01*
X100000Y-4620000D01*
X100000Y-5320000D01*
X248492Y-5320000D01*
X248495Y-5319999D01*
X441681Y-5281572D01*
X441693Y-5281569D01*
X623671Y-5206192D01*
X623684Y-5206185D01*
X787462Y-5096751D01*
X787466Y-5096748D01*
X926748Y-4957466D01*
X926751Y-4957462D01*
X1036185Y-4793684D01*
X1036192Y-4793671D01*
X1111569Y-4611692D01*
X1111569Y-4611690D01*
X1119862Y-4570000D01*
X316988Y-4570000D01*
X334205Y-4560060D01*
X390060Y-4504205D01*
X429556Y-4435796D01*
X450000Y-4359496D01*
X450000Y-4280504D01*
X429556Y-4204204D01*
X390060Y-4135795D01*
X334205Y-4079940D01*
X316988Y-4070000D01*
X1119862Y-4070000D01*
X1111569Y-4028309D01*
X1111569Y-4028307D01*
X1036192Y-3846328D01*
X1036185Y-3846315D01*
X926751Y-3682537D01*
X926748Y-3682533D01*
X787466Y-3543251D01*
X787462Y-3543248D01*
X623684Y-3433814D01*
X623671Y-3433807D01*
X441693Y-3358430D01*
X441681Y-3358427D01*
X248495Y-3320000D01*
X100000Y-3320000D01*
X100000Y-4020000D01*
X-400000Y-4020000D01*
X-400000Y-3320000D01*
X-548495Y-3320000D01*
X-741681Y-3358427D01*
X-741693Y-3358430D01*
X-923671Y-3433807D01*
X-923684Y-3433814D01*
X-1006609Y-3489223D01*
X-1073287Y-3510101D01*
X-1140667Y-3491616D01*
X-1187357Y-3439637D01*
X-1199500Y-3386121D01*
X-1199500Y3386121D01*
X-1179815Y3453160D01*
X-1127011Y3498915D01*
X-1057853Y3508859D01*
X-1006609Y3489223D01*
X-923684Y3433814D01*
X-923671Y3433807D01*
X-741693Y3358430D01*
X-741681Y3358427D01*
X-548495Y3320000D01*
X-400000Y3320000D01*
X-400000Y4020000D01*
X100000Y4020000D01*
X100000Y3320000D01*
X248495Y3320000D01*
X441681Y3358427D01*
X441693Y3358430D01*
X623671Y3433807D01*
X623684Y3433814D01*
X787462Y3543248D01*
X787466Y3543251D01*
X926748Y3682533D01*
X926751Y3682537D01*
X1036185Y3846315D01*
X1036192Y3846328D01*
X1111569Y4028307D01*
X1111569Y4028309D01*
X1119862Y4070000D01*
X316988Y4070000D01*
X334205Y4079940D01*
X390060Y4135795D01*
X429556Y4204204D01*
X450000Y4280504D01*
X450000Y4359496D01*
X429556Y4435796D01*
X390060Y4504205D01*
X334205Y4560060D01*
X316988Y4570000D01*
X1119862Y4570000D01*
X1111569Y4611690D01*
X1111569Y4611692D01*
X1036192Y4793671D01*
X1036185Y4793684D01*
X926751Y4957462D01*
X926748Y4957466D01*
X787466Y5096748D01*
X787462Y5096751D01*
X623684Y5206185D01*
X623671Y5206192D01*
X441693Y5281569D01*
X441681Y5281572D01*
X248495Y5319999D01*
X248492Y5320000D01*
X100000Y5320000D01*
X100000Y4620000D01*
X-400000Y4620000D01*
X-400000Y5320000D01*
X-548492Y5320000D01*
X-548495Y5319999D01*
X-741681Y5281572D01*
X-741693Y5281569D01*
X-923671Y5206192D01*
X-923683Y5206185D01*
X-1006609Y5150776D01*
X-1073286Y5129898D01*
X-1140666Y5148382D01*
X-1187357Y5200361D01*
X-1199500Y5253878D01*
X-1199500Y12990244D01*
X-1197973Y13009643D01*
X-1192808Y13042251D01*
X-1180820Y13079147D01*
X-1170315Y13099764D01*
X-1147511Y13131150D01*
X-1131150Y13147511D01*
X-1099762Y13170316D01*
X-1079144Y13180821D01*
X-1042250Y13192808D01*
X-1025888Y13195399D01*
X-1009638Y13197973D01*
X-990243Y13199500D01*
X1373972Y13199500D01*
X1441011Y13179815D01*
G37*
%TD.AperFunction*%
%TD*%
%TA.AperFunction,Conductor*%
%TO.N,GND*%
G36*
X24810010Y13180593D02*
G01*
X24845974Y13131093D01*
X24845974Y13069907D01*
X24842385Y13060515D01*
X24810880Y12989161D01*
X24802414Y12969988D01*
X24799500Y12944869D01*
X24799500Y11055139D01*
X24799501Y11055136D01*
X24802414Y11030009D01*
X24847794Y10927235D01*
X24927235Y10847794D01*
X25030011Y10802414D01*
X25055130Y10799500D01*
X25055135Y10799500D01*
X25184866Y10799500D01*
X25243057Y10780593D01*
X25279021Y10731093D01*
X25279021Y10669907D01*
X25261394Y10637695D01*
X25184977Y10544581D01*
X25184976Y10544579D01*
X25184969Y10544569D01*
X25094397Y10375119D01*
X25094395Y10375114D01*
X25038614Y10191231D01*
X25038613Y10191226D01*
X25019780Y10000003D01*
X25019780Y9999996D01*
X25038613Y9808773D01*
X25038614Y9808768D01*
X25094395Y9624885D01*
X25094397Y9624880D01*
X25184969Y9455430D01*
X25184976Y9455420D01*
X25306875Y9306884D01*
X25306884Y9306875D01*
X25455420Y9184976D01*
X25455430Y9184969D01*
X25624880Y9094397D01*
X25629375Y9092536D01*
X25628824Y9091207D01*
X25673957Y9059750D01*
X25694002Y9001941D01*
X25676239Y8943391D01*
X25629232Y8907808D01*
X25629375Y8907464D01*
X25628053Y8906916D01*
X25627454Y8906463D01*
X25625156Y8905716D01*
X25624890Y8905606D01*
X25624886Y8905605D01*
X25624881Y8905602D01*
X25624880Y8905602D01*
X25455430Y8815030D01*
X25455423Y8815025D01*
X25455419Y8815023D01*
X25376158Y8749975D01*
X25306884Y8693124D01*
X25306875Y8693115D01*
X25255813Y8630895D01*
X25184977Y8544581D01*
X25184976Y8544579D01*
X25184969Y8544569D01*
X25094397Y8375119D01*
X25094395Y8375114D01*
X25038614Y8191231D01*
X25038613Y8191226D01*
X25019780Y8000003D01*
X25019780Y7999996D01*
X25038613Y7808773D01*
X25038614Y7808768D01*
X25094395Y7624885D01*
X25094397Y7624880D01*
X25184969Y7455430D01*
X25184976Y7455420D01*
X25306875Y7306884D01*
X25306884Y7306875D01*
X25425333Y7209667D01*
X25458320Y7158135D01*
X25454718Y7097056D01*
X25415903Y7049759D01*
X25414645Y7048968D01*
X25273744Y6961725D01*
X25109391Y6811898D01*
X25109387Y6811893D01*
X24975369Y6634426D01*
X24975364Y6634417D01*
X24876239Y6435347D01*
X24837730Y6300000D01*
X25480385Y6300000D01*
X25440889Y6231591D01*
X25400000Y6078991D01*
X25400000Y5921009D01*
X25440889Y5768409D01*
X25480385Y5700000D01*
X24837731Y5700000D01*
X24837730Y5699999D01*
X24876239Y5564652D01*
X24975364Y5365582D01*
X24975369Y5365573D01*
X25109387Y5188106D01*
X25109391Y5188101D01*
X25273744Y5038274D01*
X25462816Y4921205D01*
X25462821Y4921202D01*
X25670199Y4840863D01*
X25700000Y4835293D01*
X25700000Y5480385D01*
X25768409Y5440889D01*
X25921009Y5400000D01*
X26078991Y5400000D01*
X26231591Y5440889D01*
X26300000Y5480385D01*
X26300000Y4835293D01*
X26329800Y4840863D01*
X26537178Y4921202D01*
X26537183Y4921205D01*
X26726255Y5038274D01*
X26890608Y5188101D01*
X26890612Y5188106D01*
X27021496Y5361423D01*
X27071653Y5396466D01*
X27132827Y5395335D01*
X27181654Y5358463D01*
X27199500Y5301762D01*
X27199500Y4248180D01*
X27180593Y4189989D01*
X27131093Y4154025D01*
X27069907Y4154025D01*
X27060512Y4157616D01*
X26969991Y4197585D01*
X26944865Y4200500D01*
X25055136Y4200499D01*
X25030009Y4197585D01*
X24927235Y4152206D01*
X24847794Y4072765D01*
X24802415Y3969991D01*
X24802414Y3969988D01*
X24799500Y3944869D01*
X24799500Y2055139D01*
X24799501Y2055136D01*
X24802414Y2030009D01*
X24847794Y1927235D01*
X24927235Y1847794D01*
X25030011Y1802414D01*
X25055130Y1799500D01*
X25055135Y1799500D01*
X25184866Y1799500D01*
X25243057Y1780593D01*
X25279021Y1731093D01*
X25279021Y1669907D01*
X25261394Y1637695D01*
X25184977Y1544581D01*
X25184976Y1544579D01*
X25184969Y1544569D01*
X25094397Y1375119D01*
X25094395Y1375114D01*
X25038614Y1191231D01*
X25038613Y1191226D01*
X25019780Y1000003D01*
X25019780Y999996D01*
X25038613Y808773D01*
X25038614Y808768D01*
X25094395Y624885D01*
X25094397Y624880D01*
X25184969Y455430D01*
X25184976Y455420D01*
X25306875Y306884D01*
X25306884Y306875D01*
X25455420Y184976D01*
X25455430Y184969D01*
X25624880Y94397D01*
X25629375Y92536D01*
X25628824Y91207D01*
X25673957Y59750D01*
X25694002Y1941D01*
X25676239Y-56609D01*
X25629232Y-92191D01*
X25629375Y-92536D01*
X25628053Y-93083D01*
X25627454Y-93537D01*
X25625156Y-94283D01*
X25624880Y-94397D01*
X25455430Y-184969D01*
X25455420Y-184976D01*
X25306884Y-306875D01*
X25306875Y-306884D01*
X25184976Y-455420D01*
X25184969Y-455430D01*
X25094397Y-624880D01*
X25094395Y-624885D01*
X25038614Y-808768D01*
X25038613Y-808773D01*
X25019780Y-999996D01*
X25019780Y-1000003D01*
X25038613Y-1191226D01*
X25038614Y-1191231D01*
X25094395Y-1375114D01*
X25094397Y-1375119D01*
X25184969Y-1544569D01*
X25184975Y-1544578D01*
X25184977Y-1544581D01*
X25198034Y-1560491D01*
X25306875Y-1693115D01*
X25306884Y-1693124D01*
X25425333Y-1790332D01*
X25458320Y-1841863D01*
X25454718Y-1902942D01*
X25415903Y-1950239D01*
X25414645Y-1951031D01*
X25390343Y-1966078D01*
X25844709Y-2420444D01*
X25768409Y-2440889D01*
X25631592Y-2519881D01*
X25519881Y-2631592D01*
X25440889Y-2768409D01*
X25420444Y-2844709D01*
X24964045Y-2388310D01*
X24964044Y-2388310D01*
X24876240Y-2564647D01*
X24815379Y-2778554D01*
X24794859Y-3000000D01*
X24815379Y-3221445D01*
X24876240Y-3435350D01*
X24964044Y-3611688D01*
X24964045Y-3611688D01*
X25420443Y-3155289D01*
X25440889Y-3231591D01*
X25519881Y-3368408D01*
X25631592Y-3480119D01*
X25768409Y-3559111D01*
X25844708Y-3579555D01*
X25390343Y-4033920D01*
X25462819Y-4078796D01*
X25670200Y-4159136D01*
X25888804Y-4200000D01*
X26111196Y-4200000D01*
X26329799Y-4159136D01*
X26537176Y-4078798D01*
X26537176Y-4078797D01*
X26609655Y-4033919D01*
X26155291Y-3579555D01*
X26231591Y-3559111D01*
X26368408Y-3480119D01*
X26480119Y-3368408D01*
X26559111Y-3231591D01*
X26579555Y-3155290D01*
X27035953Y-3611688D01*
X27084561Y-3603759D01*
X27145037Y-3613052D01*
X27188501Y-3656116D01*
X27199500Y-3701468D01*
X27199500Y-4751819D01*
X27180593Y-4810010D01*
X27131093Y-4845974D01*
X27069907Y-4845974D01*
X27060512Y-4842384D01*
X26969991Y-4802415D01*
X26969990Y-4802414D01*
X26969988Y-4802414D01*
X26944868Y-4799500D01*
X25055139Y-4799500D01*
X25055136Y-4799501D01*
X25030009Y-4802414D01*
X24927235Y-4847794D01*
X24847794Y-4927235D01*
X24802414Y-5030011D01*
X24799500Y-5055130D01*
X24799500Y-6944860D01*
X24799501Y-6944863D01*
X24802414Y-6969990D01*
X24825206Y-7021609D01*
X24847794Y-7072765D01*
X24927235Y-7152206D01*
X25030009Y-7197585D01*
X25055135Y-7200500D01*
X25184867Y-7200499D01*
X25243056Y-7219406D01*
X25279020Y-7268906D01*
X25279021Y-7330091D01*
X25261395Y-7362303D01*
X25184975Y-7455421D01*
X25184969Y-7455430D01*
X25094397Y-7624880D01*
X25094395Y-7624885D01*
X25038614Y-7808768D01*
X25038613Y-7808773D01*
X25019780Y-7999996D01*
X25019780Y-8000003D01*
X25038613Y-8191226D01*
X25038614Y-8191231D01*
X25094395Y-8375114D01*
X25094397Y-8375119D01*
X25184969Y-8544569D01*
X25184975Y-8544578D01*
X25184977Y-8544581D01*
X25235810Y-8606521D01*
X25306875Y-8693115D01*
X25306884Y-8693124D01*
X25376158Y-8749975D01*
X25455419Y-8815023D01*
X25455423Y-8815025D01*
X25455430Y-8815030D01*
X25624880Y-8905602D01*
X25624886Y-8905605D01*
X25624890Y-8905606D01*
X25629375Y-8907464D01*
X25628824Y-8908792D01*
X25673957Y-8940250D01*
X25694002Y-8998059D01*
X25676239Y-9056609D01*
X25629232Y-9092191D01*
X25629375Y-9092536D01*
X25628053Y-9093083D01*
X25627454Y-9093537D01*
X25625156Y-9094283D01*
X25624880Y-9094397D01*
X25455430Y-9184969D01*
X25455420Y-9184976D01*
X25306884Y-9306875D01*
X25306875Y-9306884D01*
X25184976Y-9455420D01*
X25184969Y-9455430D01*
X25094397Y-9624880D01*
X25094395Y-9624885D01*
X25038614Y-9808768D01*
X25038613Y-9808773D01*
X25019780Y-9999996D01*
X25019780Y-10000003D01*
X25038613Y-10191226D01*
X25038614Y-10191231D01*
X25094395Y-10375114D01*
X25094397Y-10375119D01*
X25184969Y-10544569D01*
X25184975Y-10544578D01*
X25184977Y-10544581D01*
X25235810Y-10606521D01*
X25306875Y-10693115D01*
X25306884Y-10693124D01*
X25425333Y-10790332D01*
X25458320Y-10841863D01*
X25454718Y-10902942D01*
X25415903Y-10950239D01*
X25414645Y-10951031D01*
X25390343Y-10966078D01*
X25844709Y-11420444D01*
X25768409Y-11440889D01*
X25631592Y-11519881D01*
X25519881Y-11631592D01*
X25440889Y-11768409D01*
X25420444Y-11844709D01*
X24964045Y-11388310D01*
X24964044Y-11388310D01*
X24876240Y-11564647D01*
X24815379Y-11778554D01*
X24794859Y-12000000D01*
X24815379Y-12221445D01*
X24876240Y-12435350D01*
X24964044Y-12611688D01*
X24964045Y-12611688D01*
X25420443Y-12155289D01*
X25440889Y-12231591D01*
X25519881Y-12368408D01*
X25631592Y-12480119D01*
X25768409Y-12559111D01*
X25844708Y-12579555D01*
X25390342Y-13033921D01*
X25392491Y-13052446D01*
X25401454Y-13063039D01*
X25405971Y-13124057D01*
X25373761Y-13176077D01*
X25317125Y-13199230D01*
X25309815Y-13199500D01*
X21075945Y-13199500D01*
X21017754Y-13180593D01*
X20981790Y-13131093D01*
X20981790Y-13069907D01*
X21017754Y-13020407D01*
X21048538Y-13005369D01*
X21067174Y-13000000D01*
X21142184Y-12978390D01*
X21469105Y-12842975D01*
X21778808Y-12671808D01*
X22067400Y-12467041D01*
X22331250Y-12231250D01*
X22500025Y-12042389D01*
X22552898Y-12011600D01*
X22613771Y-12017768D01*
X22659394Y-12058539D01*
X22670941Y-12089044D01*
X22693122Y-12200554D01*
X22701416Y-12242248D01*
X22726100Y-12301840D01*
X22764020Y-12393388D01*
X22840495Y-12507841D01*
X22854909Y-12529413D01*
X22970587Y-12645091D01*
X23106611Y-12735979D01*
X23257752Y-12798584D01*
X23418203Y-12830500D01*
X23418204Y-12830500D01*
X23581796Y-12830500D01*
X23581797Y-12830500D01*
X23742248Y-12798584D01*
X23893389Y-12735979D01*
X24029413Y-12645091D01*
X24145091Y-12529413D01*
X24235979Y-12393389D01*
X24298584Y-12242248D01*
X24330500Y-12081797D01*
X24330500Y-11918203D01*
X24298584Y-11757752D01*
X24235979Y-11606611D01*
X24145091Y-11470587D01*
X24029413Y-11354909D01*
X23959598Y-11308260D01*
X23893388Y-11264020D01*
X23742246Y-11201415D01*
X23581799Y-11169500D01*
X23581797Y-11169500D01*
X23418203Y-11169500D01*
X23418200Y-11169500D01*
X23257752Y-11201416D01*
X23257750Y-11201416D01*
X23182439Y-11232611D01*
X23121442Y-11237411D01*
X23069273Y-11205442D01*
X23045859Y-11148914D01*
X23053089Y-11103265D01*
X23078390Y-11042184D01*
X23176350Y-10702157D01*
X23235623Y-10353300D01*
X23238993Y-10293302D01*
X23255464Y-10000004D01*
X23255464Y-9999995D01*
X23235624Y-9646709D01*
X23235621Y-9646689D01*
X23231916Y-9624880D01*
X23176350Y-9297843D01*
X23078390Y-8957816D01*
X22942975Y-8630895D01*
X22942973Y-8630890D01*
X22771806Y-8321189D01*
X22567043Y-8032603D01*
X22567041Y-8032600D01*
X22331250Y-7768750D01*
X22067400Y-7532959D01*
X21977075Y-7468870D01*
X21778810Y-7328193D01*
X21469108Y-7157026D01*
X21469109Y-7157026D01*
X21142182Y-7021609D01*
X20802155Y-6923649D01*
X20453310Y-6864378D01*
X20453290Y-6864375D01*
X20100005Y-6844536D01*
X20099995Y-6844536D01*
X19746709Y-6864375D01*
X19746689Y-6864378D01*
X19397844Y-6923649D01*
X19057817Y-7021609D01*
X18730890Y-7157026D01*
X18421189Y-7328193D01*
X18132603Y-7532956D01*
X17868757Y-7768743D01*
X17868743Y-7768757D01*
X17632956Y-8032603D01*
X17428193Y-8321189D01*
X17257026Y-8630890D01*
X17121609Y-8957817D01*
X17023649Y-9297844D01*
X16964378Y-9646689D01*
X16964375Y-9646709D01*
X16944536Y-9999995D01*
X16944536Y-10000004D01*
X16964375Y-10353290D01*
X16964378Y-10353311D01*
X16978145Y-10434338D01*
X16969252Y-10494874D01*
X16950548Y-10520925D01*
X15950971Y-11520504D01*
X15896454Y-11548281D01*
X15880967Y-11549500D01*
X15421538Y-11549500D01*
X15363347Y-11530593D01*
X15327383Y-11481093D01*
X15327383Y-11419907D01*
X15363347Y-11370407D01*
X15369810Y-11366089D01*
X15403875Y-11345213D01*
X15464179Y-11308259D01*
X15649759Y-11149759D01*
X15808259Y-10964179D01*
X15935777Y-10756089D01*
X16029172Y-10530612D01*
X16086146Y-10293302D01*
X16105294Y-10050000D01*
X16086146Y-9806698D01*
X16029172Y-9569388D01*
X15935777Y-9343911D01*
X15913084Y-9306880D01*
X15808260Y-9135823D01*
X15808259Y-9135821D01*
X15772145Y-9093537D01*
X15649767Y-8950250D01*
X15649764Y-8950247D01*
X15649759Y-8950241D01*
X15649752Y-8950235D01*
X15649749Y-8950232D01*
X15464184Y-8791745D01*
X15464176Y-8791739D01*
X15256092Y-8664224D01*
X15256081Y-8664219D01*
X15030616Y-8570829D01*
X15030613Y-8570828D01*
X14793300Y-8513853D01*
X14550000Y-8494706D01*
X14306699Y-8513853D01*
X14069386Y-8570828D01*
X14069383Y-8570829D01*
X13843918Y-8664219D01*
X13843907Y-8664224D01*
X13635819Y-8791742D01*
X13591650Y-8829464D01*
X13535122Y-8852877D01*
X13475627Y-8838592D01*
X13435892Y-8792065D01*
X13434809Y-8789336D01*
X13399818Y-8697070D01*
X13303183Y-8557071D01*
X13289082Y-8544579D01*
X13175853Y-8444267D01*
X13175852Y-8444266D01*
X13025225Y-8365210D01*
X13025224Y-8365209D01*
X13025223Y-8365209D01*
X12860058Y-8324500D01*
X12860056Y-8324500D01*
X12689944Y-8324500D01*
X12689941Y-8324500D01*
X12524776Y-8365209D01*
X12374146Y-8444267D01*
X12246818Y-8557069D01*
X12246816Y-8557072D01*
X12152906Y-8693124D01*
X12150182Y-8697070D01*
X12096511Y-8838592D01*
X12089860Y-8856129D01*
X12077513Y-8957817D01*
X12069355Y-9025000D01*
X12089860Y-9193872D01*
X12150182Y-9352930D01*
X12246817Y-9492929D01*
X12374148Y-9605734D01*
X12524775Y-9684790D01*
X12689944Y-9725500D01*
X12797389Y-9725500D01*
X12855580Y-9744407D01*
X12867393Y-9754496D01*
X12974704Y-9861807D01*
X13002481Y-9916324D01*
X13003395Y-9939577D01*
X12994706Y-10049999D01*
X13013853Y-10293300D01*
X13070828Y-10530613D01*
X13070829Y-10530616D01*
X13164219Y-10756081D01*
X13164224Y-10756092D01*
X13291739Y-10964176D01*
X13291745Y-10964184D01*
X13358361Y-11042182D01*
X13450241Y-11149759D01*
X13450247Y-11149764D01*
X13450250Y-11149767D01*
X13584025Y-11264021D01*
X13635821Y-11308259D01*
X13635823Y-11308260D01*
X13730190Y-11366089D01*
X13769926Y-11412615D01*
X13774727Y-11473611D01*
X13742757Y-11525780D01*
X13686229Y-11549195D01*
X13678462Y-11549500D01*
X10669033Y-11549500D01*
X10610842Y-11530593D01*
X10599029Y-11520504D01*
X9771640Y-10693115D01*
X8940415Y-9861890D01*
X8814885Y-9789416D01*
X8814882Y-9789415D01*
X8811337Y-9788465D01*
X8807792Y-9787515D01*
X8807790Y-9787514D01*
X8807790Y-9787515D01*
X8674875Y-9751900D01*
X8674874Y-9751900D01*
X6235128Y-9751900D01*
X6176937Y-9732993D01*
X6140973Y-9683493D01*
X6136284Y-9658453D01*
X6135624Y-9646709D01*
X6135621Y-9646689D01*
X6131916Y-9624880D01*
X6076350Y-9297843D01*
X5978390Y-8957816D01*
X5842975Y-8630895D01*
X5842973Y-8630890D01*
X5671806Y-8321189D01*
X5467043Y-8032603D01*
X5467041Y-8032600D01*
X5267017Y-7808773D01*
X5231247Y-7768746D01*
X5228206Y-7766029D01*
X5197419Y-7713154D01*
X5203590Y-7652280D01*
X5244198Y-7606758D01*
X5327571Y-7557998D01*
X5380375Y-7512243D01*
X5422553Y-7467510D01*
X5473439Y-7367434D01*
X5493124Y-7300395D01*
X5505500Y-7214323D01*
X5505500Y-5331159D01*
X5503118Y-5293084D01*
X5499266Y-5262418D01*
X5497454Y-5250045D01*
X5468929Y-5172070D01*
X5458885Y-5144612D01*
X5458884Y-5144609D01*
X5423235Y-5084524D01*
X5401523Y-5055135D01*
X5386696Y-5035065D01*
X5386694Y-5035063D01*
X5327061Y-4989834D01*
X5297244Y-4967219D01*
X5283153Y-4960165D01*
X5257493Y-4947320D01*
X5213921Y-4904365D01*
X5203920Y-4844002D01*
X5219494Y-4803791D01*
X5220414Y-4802415D01*
X5289394Y-4699179D01*
X5349737Y-4553497D01*
X5380500Y-4398842D01*
X5380500Y-4241158D01*
X5349737Y-4086503D01*
X5289394Y-3940821D01*
X5289393Y-3940819D01*
X5289390Y-3940814D01*
X5220004Y-3836972D01*
X5203395Y-3778084D01*
X5224572Y-3720680D01*
X5252335Y-3696516D01*
X5327571Y-3652515D01*
X5380375Y-3606760D01*
X5422553Y-3562027D01*
X5454092Y-3500000D01*
X6244706Y-3500000D01*
X6263853Y-3743300D01*
X6320828Y-3980613D01*
X6320829Y-3980616D01*
X6414219Y-4206081D01*
X6414224Y-4206092D01*
X6541739Y-4414176D01*
X6541745Y-4414184D01*
X6660729Y-4553497D01*
X6700241Y-4599759D01*
X6885821Y-4758259D01*
X6885823Y-4758260D01*
X7093907Y-4885775D01*
X7093918Y-4885780D01*
X7319381Y-4979170D01*
X7319385Y-4979171D01*
X7319386Y-4979171D01*
X7319388Y-4979172D01*
X7473612Y-5016198D01*
X7525780Y-5048166D01*
X7549195Y-5104694D01*
X7549500Y-5112462D01*
X7549500Y-5318693D01*
X7530593Y-5376884D01*
X7516150Y-5392795D01*
X7471819Y-5432068D01*
X7471817Y-5432071D01*
X7375182Y-5572070D01*
X7314860Y-5731128D01*
X7294355Y-5900000D01*
X7314860Y-6068872D01*
X7375182Y-6227930D01*
X7471817Y-6367929D01*
X7599148Y-6480734D01*
X7749775Y-6559790D01*
X7914944Y-6600500D01*
X7914947Y-6600500D01*
X8072165Y-6600500D01*
X8130356Y-6619407D01*
X8166320Y-6668907D01*
X8166320Y-6730093D01*
X8137814Y-6773603D01*
X8071818Y-6832069D01*
X8071816Y-6832072D01*
X8008605Y-6923649D01*
X7975182Y-6972070D01*
X7936995Y-7072764D01*
X7914860Y-7131129D01*
X7895966Y-7286735D01*
X7894355Y-7300000D01*
X7914860Y-7468872D01*
X7975182Y-7627930D01*
X8070506Y-7766029D01*
X8071816Y-7767927D01*
X8071818Y-7767930D01*
X8114260Y-7805530D01*
X8199148Y-7880734D01*
X8349775Y-7959790D01*
X8514944Y-8000500D01*
X8514947Y-8000500D01*
X8685053Y-8000500D01*
X8685056Y-8000500D01*
X8850225Y-7959790D01*
X9000852Y-7880734D01*
X9128183Y-7767929D01*
X9224818Y-7627930D01*
X9285140Y-7468872D01*
X9305645Y-7300000D01*
X9304033Y-7286731D01*
X9315786Y-7226689D01*
X9332304Y-7204797D01*
X9660489Y-6876614D01*
X9694731Y-6817304D01*
X9719799Y-6773886D01*
X9750500Y-6659309D01*
X9750500Y-6081305D01*
X9769407Y-6023114D01*
X9783846Y-6007207D01*
X9828183Y-5967929D01*
X9924818Y-5827930D01*
X9985140Y-5668872D01*
X10005645Y-5500000D01*
X9985140Y-5331128D01*
X9924818Y-5172070D01*
X9828183Y-5032071D01*
X9825855Y-5030009D01*
X9700853Y-4919267D01*
X9700852Y-4919266D01*
X9550225Y-4840210D01*
X9550224Y-4840209D01*
X9550223Y-4840209D01*
X9385058Y-4799500D01*
X9385056Y-4799500D01*
X9214944Y-4799500D01*
X9214941Y-4799500D01*
X9049776Y-4840209D01*
X8899146Y-4919267D01*
X8771818Y-5032069D01*
X8771816Y-5032072D01*
X8675182Y-5172068D01*
X8655380Y-5224283D01*
X8645611Y-5250045D01*
X8642067Y-5259389D01*
X8603753Y-5307093D01*
X8544717Y-5323167D01*
X8487508Y-5301471D01*
X8453977Y-5250291D01*
X8450500Y-5224283D01*
X8450500Y-4974768D01*
X8469407Y-4916577D01*
X8502882Y-4887990D01*
X8502772Y-4887810D01*
X8503909Y-4887112D01*
X8504564Y-4886554D01*
X8506083Y-4885779D01*
X8506089Y-4885777D01*
X8714179Y-4758259D01*
X8899759Y-4599759D01*
X9058259Y-4414179D01*
X9185777Y-4206089D01*
X9279172Y-3980612D01*
X9336146Y-3743302D01*
X9355294Y-3500000D01*
X9336146Y-3256698D01*
X9279172Y-3019388D01*
X9185777Y-2793911D01*
X9176366Y-2778554D01*
X9100765Y-2655184D01*
X9058259Y-2585821D01*
X8899759Y-2400241D01*
X8899752Y-2400235D01*
X8899749Y-2400232D01*
X8714184Y-2241745D01*
X8714176Y-2241739D01*
X8506092Y-2114224D01*
X8506081Y-2114219D01*
X8280616Y-2020829D01*
X8280613Y-2020828D01*
X8043300Y-1963853D01*
X7800000Y-1944706D01*
X7556699Y-1963853D01*
X7319386Y-2020828D01*
X7319383Y-2020829D01*
X7093918Y-2114219D01*
X7093907Y-2114224D01*
X6885823Y-2241739D01*
X6885815Y-2241745D01*
X6700250Y-2400232D01*
X6700232Y-2400250D01*
X6541745Y-2585815D01*
X6541739Y-2585823D01*
X6414224Y-2793907D01*
X6414219Y-2793918D01*
X6320829Y-3019383D01*
X6320828Y-3019386D01*
X6263853Y-3256699D01*
X6244706Y-3500000D01*
X5454092Y-3500000D01*
X5473439Y-3461951D01*
X5493124Y-3394912D01*
X5505500Y-3308840D01*
X5505500Y-1200000D01*
X11294355Y-1200000D01*
X11314860Y-1368872D01*
X11375182Y-1527930D01*
X11471817Y-1667929D01*
X11599148Y-1780734D01*
X11749775Y-1859790D01*
X11914944Y-1900500D01*
X11914947Y-1900500D01*
X12085053Y-1900500D01*
X12085056Y-1900500D01*
X12250225Y-1859790D01*
X12400852Y-1780734D01*
X12519753Y-1675396D01*
X12575847Y-1650962D01*
X12585402Y-1650500D01*
X12959306Y-1650500D01*
X12959309Y-1650500D01*
X13070244Y-1620775D01*
X13073887Y-1619799D01*
X13176614Y-1560489D01*
X15857607Y1120504D01*
X15912124Y1148281D01*
X15927611Y1149500D01*
X16214598Y1149500D01*
X16272789Y1130593D01*
X16280243Y1124605D01*
X16313552Y1095096D01*
X16399146Y1019267D01*
X16549776Y940209D01*
X16714941Y899500D01*
X16714944Y899500D01*
X16885058Y899500D01*
X17050223Y940209D01*
X17050225Y940210D01*
X17200852Y1019266D01*
X17315127Y1120504D01*
X17328181Y1132069D01*
X17328183Y1132071D01*
X17424818Y1272070D01*
X17485140Y1431128D01*
X17505645Y1600000D01*
X17485140Y1768872D01*
X17424818Y1927930D01*
X17328183Y2067929D01*
X17200852Y2180734D01*
X17050225Y2259790D01*
X16885056Y2300500D01*
X16714944Y2300500D01*
X16549775Y2259790D01*
X16399148Y2180734D01*
X16399146Y2180732D01*
X16280247Y2075397D01*
X16224153Y2050962D01*
X16214598Y2050500D01*
X15640691Y2050500D01*
X15554948Y2027525D01*
X15526113Y2019799D01*
X15526110Y2019797D01*
X15526108Y2019797D01*
X15423390Y1960492D01*
X15423389Y1960491D01*
X15423386Y1960489D01*
X14044027Y581130D01*
X12742393Y-720504D01*
X12687876Y-748281D01*
X12672389Y-749500D01*
X12585402Y-749500D01*
X12527211Y-730593D01*
X12519753Y-724603D01*
X12515126Y-720504D01*
X12400852Y-619266D01*
X12250225Y-540210D01*
X12250224Y-540209D01*
X12250223Y-540209D01*
X12085058Y-499500D01*
X12085056Y-499500D01*
X11914944Y-499500D01*
X11914941Y-499500D01*
X11749776Y-540209D01*
X11599146Y-619267D01*
X11471818Y-732069D01*
X11471816Y-732072D01*
X11418876Y-808769D01*
X11375182Y-872070D01*
X11314860Y-1031128D01*
X11294355Y-1200000D01*
X5505500Y-1200000D01*
X5505500Y449997D01*
X6044355Y449997D01*
X6056282Y351766D01*
X6056699Y347601D01*
X6063853Y256699D01*
X6120828Y19386D01*
X6120829Y19383D01*
X6214219Y-206081D01*
X6214224Y-206092D01*
X6341739Y-414176D01*
X6341745Y-414184D01*
X6449380Y-540209D01*
X6500241Y-599759D01*
X6500247Y-599764D01*
X6500250Y-599767D01*
X6685815Y-758254D01*
X6685821Y-758259D01*
X6685823Y-758260D01*
X6893907Y-885775D01*
X6893909Y-885776D01*
X6893911Y-885777D01*
X7119388Y-979172D01*
X7356698Y-1036146D01*
X7600000Y-1055294D01*
X7843302Y-1036146D01*
X8080612Y-979172D01*
X8306089Y-885777D01*
X8514179Y-758259D01*
X8699759Y-599759D01*
X8858259Y-414179D01*
X8985777Y-206089D01*
X9079172Y19388D01*
X9136146Y256698D01*
X9155294Y500000D01*
X9136146Y743302D01*
X9134538Y750001D01*
X10444355Y750001D01*
X10444355Y749998D01*
X10451494Y691203D01*
X10464860Y581128D01*
X10495628Y499998D01*
X10525182Y422070D01*
X10621816Y282072D01*
X10621818Y282069D01*
X10749146Y169267D01*
X10899776Y90209D01*
X11064941Y49500D01*
X11064944Y49500D01*
X11235058Y49500D01*
X11400223Y90209D01*
X11400225Y90210D01*
X11550852Y169266D01*
X11678183Y282071D01*
X11774818Y422070D01*
X11835140Y581128D01*
X11841454Y633132D01*
X11867237Y688619D01*
X11869728Y691203D01*
X12396455Y1217930D01*
X12940510Y1761985D01*
X13012984Y1887515D01*
X13023627Y1927235D01*
X13023814Y1927931D01*
X13050500Y2027525D01*
X13050500Y4000000D01*
X16194355Y4000000D01*
X16214860Y3831128D01*
X16228185Y3795993D01*
X16275182Y3672070D01*
X16371816Y3532072D01*
X16371818Y3532069D01*
X16499146Y3419267D01*
X16649776Y3340209D01*
X16814941Y3299500D01*
X16814944Y3299500D01*
X16985058Y3299500D01*
X17150223Y3340209D01*
X17221375Y3377553D01*
X17300852Y3419266D01*
X17419753Y3524603D01*
X17475847Y3549038D01*
X17485402Y3549500D01*
X18659889Y3549500D01*
X18718080Y3530593D01*
X18729893Y3520504D01*
X19223386Y3027010D01*
X19223388Y3027008D01*
X19223388Y3027007D01*
X19560957Y2689437D01*
X19588734Y2634921D01*
X19579163Y2574489D01*
X19542680Y2535023D01*
X19335828Y2408264D01*
X19335815Y2408254D01*
X19161986Y2259790D01*
X19150241Y2249759D01*
X19150235Y2249752D01*
X19150232Y2249749D01*
X18991745Y2064184D01*
X18991739Y2064176D01*
X18864224Y1856092D01*
X18864219Y1856081D01*
X18770829Y1630616D01*
X18770828Y1630613D01*
X18713853Y1393300D01*
X18694706Y1150000D01*
X18713853Y906699D01*
X18770828Y669386D01*
X18770829Y669383D01*
X18864219Y443918D01*
X18864224Y443907D01*
X18991739Y235823D01*
X18991745Y235815D01*
X19150232Y50250D01*
X19150250Y50232D01*
X19335815Y-108254D01*
X19335821Y-108259D01*
X19335823Y-108260D01*
X19543907Y-235775D01*
X19543918Y-235780D01*
X19769383Y-329170D01*
X19769388Y-329172D01*
X20006698Y-386146D01*
X20250000Y-405294D01*
X20493302Y-386146D01*
X20730612Y-329172D01*
X20956089Y-235777D01*
X21164179Y-108259D01*
X21313629Y19383D01*
X21349749Y50232D01*
X21349752Y50235D01*
X21349759Y50241D01*
X21357881Y59750D01*
X21508254Y235815D01*
X21508254Y235816D01*
X21508259Y235821D01*
X21635777Y443911D01*
X21729172Y669388D01*
X21786146Y906698D01*
X21805294Y1150000D01*
X21786146Y1393302D01*
X21729172Y1630612D01*
X21635777Y1856089D01*
X21508259Y2064179D01*
X21349759Y2249759D01*
X21164179Y2408259D01*
X20956089Y2535777D01*
X20862629Y2574489D01*
X20760988Y2616590D01*
X20714462Y2656326D01*
X20702332Y2690582D01*
X20702179Y2690541D01*
X20701655Y2692496D01*
X20700719Y2695140D01*
X20700500Y2696801D01*
X20700500Y2696809D01*
X20669799Y2811386D01*
X20669799Y2811387D01*
X20610489Y2914114D01*
X19860491Y3664111D01*
X19860490Y3664114D01*
X19164114Y4360489D01*
X19061387Y4419799D01*
X19037173Y4426286D01*
X18946809Y4450500D01*
X17485402Y4450500D01*
X17427211Y4469407D01*
X17419753Y4475397D01*
X17300852Y4580734D01*
X17150225Y4659790D01*
X16985056Y4700500D01*
X16814944Y4700500D01*
X16649775Y4659790D01*
X16499148Y4580734D01*
X16371817Y4467929D01*
X16275182Y4327930D01*
X16214860Y4168872D01*
X16194355Y4000000D01*
X13050500Y4000000D01*
X13050500Y6333553D01*
X13068025Y6389792D01*
X13124818Y6472070D01*
X13185140Y6631128D01*
X13205645Y6800000D01*
X13185140Y6968872D01*
X13124818Y7127930D01*
X13028183Y7267929D01*
X12900852Y7380734D01*
X12750225Y7459790D01*
X12585056Y7500500D01*
X12414944Y7500500D01*
X12249775Y7459790D01*
X12099148Y7380734D01*
X11971817Y7267929D01*
X11875182Y7127930D01*
X11814860Y6968872D01*
X11814860Y6968870D01*
X11794355Y6800001D01*
X11794355Y6799998D01*
X11814860Y6631129D01*
X11875182Y6472070D01*
X11931975Y6389792D01*
X11949500Y6333553D01*
X11949500Y2369033D01*
X11930593Y2310842D01*
X11920504Y2299029D01*
X11093788Y1472313D01*
X11047476Y1446194D01*
X10989105Y1431807D01*
X10899777Y1409791D01*
X10899775Y1409790D01*
X10749148Y1330734D01*
X10621817Y1217929D01*
X10525182Y1077930D01*
X10464860Y918872D01*
X10464860Y918870D01*
X10444355Y750001D01*
X9134538Y750001D01*
X9079172Y980612D01*
X8985777Y1206089D01*
X8858259Y1414179D01*
X8699759Y1599759D01*
X8514179Y1758259D01*
X8306089Y1885777D01*
X8080612Y1979172D01*
X7843302Y2036146D01*
X7600000Y2055294D01*
X7356698Y2036146D01*
X7119388Y1979172D01*
X7119386Y1979171D01*
X7119383Y1979170D01*
X6893918Y1885780D01*
X6893907Y1885775D01*
X6757877Y1802415D01*
X6685821Y1758259D01*
X6685816Y1758254D01*
X6685815Y1758254D01*
X6500521Y1599998D01*
X6500241Y1599759D01*
X6500235Y1599752D01*
X6500232Y1599749D01*
X6341745Y1414184D01*
X6341739Y1414176D01*
X6214224Y1206092D01*
X6214219Y1206081D01*
X6120829Y980616D01*
X6120828Y980613D01*
X6063853Y743300D01*
X6044706Y499998D01*
X6044706Y499996D01*
X6046178Y481280D01*
X6045762Y461588D01*
X6044355Y449997D01*
X5505500Y449997D01*
X5505500Y3308840D01*
X5503118Y3346916D01*
X5499266Y3377581D01*
X5497454Y3389951D01*
X5458884Y3495389D01*
X5423232Y3555479D01*
X5386696Y3604934D01*
X5297244Y3672780D01*
X5257492Y3692678D01*
X5213922Y3735631D01*
X5203919Y3795993D01*
X5219493Y3836207D01*
X5289390Y3940813D01*
X5289396Y3940825D01*
X5344046Y4072764D01*
X5349737Y4086503D01*
X5380500Y4241158D01*
X5380500Y4398842D01*
X5349737Y4553497D01*
X5289394Y4699179D01*
X5220004Y4803027D01*
X5203396Y4861914D01*
X5224573Y4919318D01*
X5252338Y4943484D01*
X5327571Y4987484D01*
X5380375Y5033239D01*
X5422553Y5077972D01*
X5473439Y5178048D01*
X5493124Y5245087D01*
X5505500Y5331159D01*
X5505500Y7214323D01*
X5495730Y7290965D01*
X5480121Y7351194D01*
X5462941Y7400011D01*
X5398810Y7492163D01*
X5349041Y7541202D01*
X5301126Y7579729D01*
X5301127Y7579729D01*
X5301125Y7579730D01*
X5254472Y7598994D01*
X5207904Y7638678D01*
X5193555Y7698157D01*
X5216906Y7754711D01*
X5226286Y7764314D01*
X5231250Y7768750D01*
X5467041Y8032600D01*
X5671808Y8321192D01*
X5724758Y8416998D01*
X5842973Y8630890D01*
X5956762Y8905602D01*
X5978390Y8957816D01*
X6076350Y9297843D01*
X6135623Y9646700D01*
X6155464Y10000000D01*
X6135623Y10353300D01*
X6076350Y10702157D01*
X5978390Y11042184D01*
X5842975Y11369105D01*
X5671808Y11678808D01*
X5631166Y11736086D01*
X5612912Y11794483D01*
X5632470Y11852458D01*
X5641902Y11863378D01*
X6049028Y12270504D01*
X6103545Y12298281D01*
X6119032Y12299500D01*
X16080967Y12299500D01*
X16139158Y12280593D01*
X16150971Y12270504D01*
X17150308Y11271166D01*
X17178085Y11216649D01*
X17171768Y11163276D01*
X17121609Y11042182D01*
X17023649Y10702155D01*
X16964378Y10353310D01*
X16964375Y10353290D01*
X16944536Y10000004D01*
X16944536Y9999995D01*
X16964375Y9646709D01*
X16964378Y9646689D01*
X17023649Y9297844D01*
X17121609Y8957817D01*
X17257026Y8630890D01*
X17428193Y8321189D01*
X17632956Y8032603D01*
X17868743Y7768757D01*
X17868757Y7768743D01*
X18132603Y7532956D01*
X18421189Y7328193D01*
X18730891Y7157026D01*
X18730890Y7157026D01*
X19057817Y7021609D01*
X19397844Y6923649D01*
X19746689Y6864378D01*
X19746709Y6864375D01*
X20099995Y6844536D01*
X20100000Y6844536D01*
X20100005Y6844536D01*
X20453290Y6864375D01*
X20453310Y6864378D01*
X20802155Y6923649D01*
X21142182Y7021609D01*
X21469109Y7157026D01*
X21778810Y7328193D01*
X22067396Y7532956D01*
X22067400Y7532959D01*
X22331250Y7768750D01*
X22567041Y8032600D01*
X22771808Y8321192D01*
X22824758Y8416998D01*
X22942973Y8630890D01*
X23056762Y8905602D01*
X23078390Y8957816D01*
X23176350Y9297843D01*
X23235623Y9646700D01*
X23255464Y10000000D01*
X23235623Y10353300D01*
X23176350Y10702157D01*
X23078390Y11042184D01*
X22942975Y11369105D01*
X22771808Y11678808D01*
X22567041Y11967400D01*
X22331250Y12231250D01*
X22067400Y12467041D01*
X21778808Y12671808D01*
X21469105Y12842975D01*
X21142184Y12978390D01*
X21048538Y13005369D01*
X20997856Y13039647D01*
X20977001Y13097168D01*
X20993939Y13155962D01*
X21042201Y13193572D01*
X21075945Y13199500D01*
X24751819Y13199500D01*
X24810010Y13180593D01*
G37*
%TD.AperFunction*%
%TA.AperFunction,Conductor*%
G36*
X27035953Y-12611688D02*
G01*
X27084561Y-12603759D01*
X27145037Y-12613052D01*
X27188501Y-12656116D01*
X27199500Y-12701468D01*
X27199500Y-12992209D01*
X27198281Y-13007697D01*
X27192188Y-13046164D01*
X27182617Y-13075620D01*
X27182246Y-13076350D01*
X27168520Y-13103288D01*
X27150314Y-13128347D01*
X27128347Y-13150314D01*
X27103289Y-13168518D01*
X27079593Y-13180593D01*
X27075621Y-13182617D01*
X27046164Y-13192188D01*
X27018848Y-13196514D01*
X27007695Y-13198281D01*
X26992210Y-13199500D01*
X26690182Y-13199500D01*
X26631991Y-13180593D01*
X26596027Y-13131093D01*
X26596027Y-13069907D01*
X26607277Y-13054421D01*
X26609656Y-13033920D01*
X26155291Y-12579555D01*
X26231591Y-12559111D01*
X26368408Y-12480119D01*
X26480119Y-12368408D01*
X26559111Y-12231591D01*
X26579555Y-12155290D01*
X27035953Y-12611688D01*
G37*
%TD.AperFunction*%
%TA.AperFunction,Conductor*%
G36*
X27174275Y-7182162D02*
G01*
X27198989Y-7238134D01*
X27199500Y-7248180D01*
X27199500Y-11298530D01*
X27180593Y-11356721D01*
X27131093Y-11392685D01*
X27084562Y-11396239D01*
X27035953Y-11388310D01*
X26579555Y-11844707D01*
X26559111Y-11768409D01*
X26480119Y-11631592D01*
X26368408Y-11519881D01*
X26231591Y-11440889D01*
X26155289Y-11420443D01*
X26609655Y-10966078D01*
X26585354Y-10951031D01*
X26545833Y-10904322D01*
X26541314Y-10843304D01*
X26573525Y-10791283D01*
X26574667Y-10790332D01*
X26693111Y-10693128D01*
X26693114Y-10693124D01*
X26693120Y-10693120D01*
X26815023Y-10544581D01*
X26815027Y-10544572D01*
X26815030Y-10544569D01*
X26905602Y-10375119D01*
X26905605Y-10375114D01*
X26961385Y-10191231D01*
X26961386Y-10191226D01*
X26980220Y-10000003D01*
X26980220Y-9999996D01*
X26961386Y-9808773D01*
X26961385Y-9808768D01*
X26936125Y-9725499D01*
X26905605Y-9624886D01*
X26875940Y-9569386D01*
X26815030Y-9455430D01*
X26815025Y-9455423D01*
X26815023Y-9455419D01*
X26749975Y-9376158D01*
X26693124Y-9306884D01*
X26693115Y-9306875D01*
X26606521Y-9235810D01*
X26544581Y-9184977D01*
X26544578Y-9184975D01*
X26544569Y-9184969D01*
X26375119Y-9094397D01*
X26370625Y-9092536D01*
X26371175Y-9091206D01*
X26326046Y-9059756D01*
X26305997Y-9001949D01*
X26323755Y-8943397D01*
X26370766Y-8907806D01*
X26370625Y-8907464D01*
X26371938Y-8906920D01*
X26372538Y-8906466D01*
X26374847Y-8905715D01*
X26375105Y-8905607D01*
X26375114Y-8905605D01*
X26467679Y-8856128D01*
X26544569Y-8815030D01*
X26544572Y-8815027D01*
X26544581Y-8815023D01*
X26693120Y-8693120D01*
X26815023Y-8544581D01*
X26815027Y-8544572D01*
X26815030Y-8544569D01*
X26905602Y-8375119D01*
X26905605Y-8375114D01*
X26961385Y-8191231D01*
X26961386Y-8191226D01*
X26980220Y-8000003D01*
X26980220Y-7999996D01*
X26961386Y-7808773D01*
X26961385Y-7808768D01*
X26944464Y-7752988D01*
X26905605Y-7624886D01*
X26900148Y-7614677D01*
X26815030Y-7455430D01*
X26815024Y-7455421D01*
X26815023Y-7455419D01*
X26742818Y-7367437D01*
X26738605Y-7362303D01*
X26716306Y-7305326D01*
X26731755Y-7246124D01*
X26779052Y-7207308D01*
X26815134Y-7200499D01*
X26944861Y-7200499D01*
X26944864Y-7200499D01*
X26969991Y-7197585D01*
X27060512Y-7157615D01*
X27121381Y-7151407D01*
X27174275Y-7182162D01*
G37*
%TD.AperFunction*%
%TA.AperFunction,Conductor*%
G36*
X27174275Y1817836D02*
G01*
X27198989Y1761864D01*
X27199500Y1751819D01*
X27199500Y-2298530D01*
X27180593Y-2356721D01*
X27131093Y-2392685D01*
X27084562Y-2396239D01*
X27035953Y-2388310D01*
X26579555Y-2844707D01*
X26559111Y-2768409D01*
X26480119Y-2631592D01*
X26368408Y-2519881D01*
X26231591Y-2440889D01*
X26155289Y-2420443D01*
X26609655Y-1966078D01*
X26585354Y-1951031D01*
X26545833Y-1904322D01*
X26541314Y-1843304D01*
X26573525Y-1791283D01*
X26574667Y-1790332D01*
X26693111Y-1693128D01*
X26693114Y-1693124D01*
X26693120Y-1693120D01*
X26815023Y-1544581D01*
X26815027Y-1544572D01*
X26815030Y-1544569D01*
X26905602Y-1375119D01*
X26905605Y-1375114D01*
X26961385Y-1191231D01*
X26961386Y-1191226D01*
X26980220Y-1000003D01*
X26980220Y-999996D01*
X26961386Y-808773D01*
X26961385Y-808768D01*
X26934610Y-720504D01*
X26905605Y-624886D01*
X26892179Y-599767D01*
X26815030Y-455430D01*
X26815025Y-455423D01*
X26815023Y-455419D01*
X26711413Y-329170D01*
X26693124Y-306884D01*
X26693115Y-306875D01*
X26606478Y-235775D01*
X26544581Y-184977D01*
X26544578Y-184975D01*
X26544569Y-184969D01*
X26375119Y-94397D01*
X26370625Y-92536D01*
X26371175Y-91206D01*
X26326046Y-59756D01*
X26305997Y-1949D01*
X26323755Y56603D01*
X26370766Y92193D01*
X26370625Y92536D01*
X26371938Y93079D01*
X26372538Y93534D01*
X26374847Y94284D01*
X26375119Y94397D01*
X26544569Y184969D01*
X26544579Y184976D01*
X26544581Y184977D01*
X26631973Y256698D01*
X26693115Y306875D01*
X26693124Y306884D01*
X26805575Y443907D01*
X26815023Y455419D01*
X26815025Y455423D01*
X26815030Y455430D01*
X26905602Y624880D01*
X26905604Y624885D01*
X26905605Y624886D01*
X26961385Y808769D01*
X26961386Y808773D01*
X26980220Y999996D01*
X26980220Y1000003D01*
X26961386Y1191226D01*
X26961385Y1191231D01*
X26953286Y1217930D01*
X26905605Y1375114D01*
X26853651Y1472313D01*
X26815030Y1544569D01*
X26815027Y1544572D01*
X26815023Y1544581D01*
X26738603Y1637697D01*
X26716305Y1694671D01*
X26731753Y1753874D01*
X26779050Y1792690D01*
X26815132Y1799500D01*
X26944859Y1799500D01*
X26944864Y1799501D01*
X26969990Y1802414D01*
X27060512Y1842384D01*
X27121382Y1848592D01*
X27174275Y1817836D01*
G37*
%TD.AperFunction*%
%TD*%
M02*
