%TF.GenerationSoftware,KiCad,Pcbnew,7.0.10*%
%TF.CreationDate,2024-02-14T20:39:14-05:00*%
%TF.ProjectId,USB-C-3-way-splitter,5553422d-432d-4332-9d77-61792d73706c,rev?*%
%TF.SameCoordinates,Original*%
%TF.FileFunction,Paste,Top*%
%TF.FilePolarity,Positive*%
%FSLAX46Y46*%
G04 Gerber Fmt 4.6, Leading zero omitted, Abs format (unit mm)*
G04 Created by KiCad (PCBNEW 7.0.10) date 2024-02-14 20:39:14*
%MOMM*%
%LPD*%
G01*
G04 APERTURE LIST*
G04 Aperture macros list*
%AMRoundRect*
0 Rectangle with rounded corners*
0 $1 Rounding radius*
0 $2 $3 $4 $5 $6 $7 $8 $9 X,Y pos of 4 corners*
0 Add a 4 corners polygon primitive as box body*
4,1,4,$2,$3,$4,$5,$6,$7,$8,$9,$2,$3,0*
0 Add four circle primitives for the rounded corners*
1,1,$1+$1,$2,$3*
1,1,$1+$1,$4,$5*
1,1,$1+$1,$6,$7*
1,1,$1+$1,$8,$9*
0 Add four rect primitives between the rounded corners*
20,1,$1+$1,$2,$3,$4,$5,0*
20,1,$1+$1,$4,$5,$6,$7,0*
20,1,$1+$1,$6,$7,$8,$9,0*
20,1,$1+$1,$8,$9,$2,$3,0*%
G04 Aperture macros list end*
%ADD10RoundRect,0.250000X-0.337500X-0.475000X0.337500X-0.475000X0.337500X0.475000X-0.337500X0.475000X0*%
%ADD11RoundRect,0.250000X-0.450000X0.350000X-0.450000X-0.350000X0.450000X-0.350000X0.450000X0.350000X0*%
%ADD12RoundRect,0.225000X0.225000X0.375000X-0.225000X0.375000X-0.225000X-0.375000X0.225000X-0.375000X0*%
%ADD13RoundRect,0.250000X-0.475000X0.337500X-0.475000X-0.337500X0.475000X-0.337500X0.475000X0.337500X0*%
%ADD14RoundRect,0.250000X-0.325000X-0.450000X0.325000X-0.450000X0.325000X0.450000X-0.325000X0.450000X0*%
%ADD15RoundRect,0.250000X-0.350000X-0.450000X0.350000X-0.450000X0.350000X0.450000X-0.350000X0.450000X0*%
%ADD16RoundRect,0.150000X-0.825000X-0.150000X0.825000X-0.150000X0.825000X0.150000X-0.825000X0.150000X0*%
%ADD17RoundRect,0.250000X0.650000X-0.412500X0.650000X0.412500X-0.650000X0.412500X-0.650000X-0.412500X0*%
%ADD18R,2.000000X0.650000*%
%ADD19RoundRect,0.250000X-0.412500X-0.650000X0.412500X-0.650000X0.412500X0.650000X-0.412500X0.650000X0*%
%ADD20RoundRect,0.250000X0.350000X0.450000X-0.350000X0.450000X-0.350000X-0.450000X0.350000X-0.450000X0*%
%ADD21RoundRect,0.250000X0.475000X-0.337500X0.475000X0.337500X-0.475000X0.337500X-0.475000X-0.337500X0*%
%ADD22R,1.450000X0.600000*%
%ADD23R,1.450000X0.300000*%
%ADD24RoundRect,0.250000X-0.400000X-1.450000X0.400000X-1.450000X0.400000X1.450000X-0.400000X1.450000X0*%
%ADD25RoundRect,0.250000X0.450000X-0.350000X0.450000X0.350000X-0.450000X0.350000X-0.450000X-0.350000X0*%
%ADD26R,1.500000X0.450000*%
G04 APERTURE END LIST*
D10*
%TO.C,C5*%
X23562500Y-7300000D03*
X25637500Y-7300000D03*
%TD*%
D11*
%TO.C,R5*%
X25100000Y4500000D03*
X25100000Y2500000D03*
%TD*%
D12*
%TO.C,D4*%
X21000000Y700000D03*
X17700000Y700000D03*
%TD*%
D13*
%TO.C,C2*%
X23000000Y4537500D03*
X23000000Y2462500D03*
%TD*%
D14*
%TO.C,D2*%
X9375000Y-1900000D03*
X11425000Y-1900000D03*
%TD*%
D15*
%TO.C,R4*%
X8400000Y200000D03*
X10400000Y200000D03*
%TD*%
D16*
%TO.C,U1*%
X11325000Y-3800000D03*
X11325000Y-5070000D03*
X11325000Y-6340000D03*
X11325000Y-7610000D03*
X16275000Y-7610000D03*
X16275000Y-6340000D03*
X16275000Y-5070000D03*
X16275000Y-3800000D03*
%TD*%
D14*
%TO.C,D3*%
X23175000Y500000D03*
X25225000Y500000D03*
%TD*%
D17*
%TO.C,C4*%
X24800000Y-5162500D03*
X24800000Y-2037500D03*
%TD*%
D18*
%TO.C,U2*%
X20610000Y4050000D03*
X20610000Y5000000D03*
X20610000Y5950000D03*
X17190000Y5950000D03*
X17190000Y5000000D03*
X17190000Y4050000D03*
%TD*%
D15*
%TO.C,R2*%
X15000000Y-9500000D03*
X17000000Y-9500000D03*
%TD*%
D12*
%TO.C,D5*%
X21000000Y-1700000D03*
X17700000Y-1700000D03*
%TD*%
D19*
%TO.C,C3*%
X12637500Y8500000D03*
X15762500Y8500000D03*
%TD*%
D20*
%TO.C,R3*%
X20600000Y-4500000D03*
X18600000Y-4500000D03*
%TD*%
D15*
%TO.C,R7*%
X13500000Y-1900000D03*
X15500000Y-1900000D03*
%TD*%
D21*
%TO.C,C1*%
X14700000Y4162500D03*
X14700000Y6237500D03*
%TD*%
D22*
%TO.C,J1*%
X4945000Y3250000D03*
X4945000Y2450000D03*
D23*
X4945000Y1250000D03*
X4945000Y250000D03*
X4945000Y-250000D03*
X4945000Y-1250000D03*
D22*
X4945000Y-2450000D03*
X4945000Y-3250000D03*
X4945000Y-3250000D03*
X4945000Y-2450000D03*
D23*
X4945000Y-1750000D03*
X4945000Y-750000D03*
X4945000Y750000D03*
X4945000Y1750000D03*
D22*
X4945000Y2450000D03*
X4945000Y3250000D03*
%TD*%
D15*
%TO.C,R6*%
X12200000Y200000D03*
X14200000Y200000D03*
%TD*%
D24*
%TO.C,F1*%
X8175000Y3300000D03*
X12625000Y3300000D03*
%TD*%
D25*
%TO.C,R1*%
X8900000Y-6000000D03*
X8900000Y-4000000D03*
%TD*%
D26*
%TO.C,D1*%
X18800000Y-6300000D03*
X18800000Y-7600000D03*
X21460000Y-6950000D03*
%TD*%
M02*
