%TF.GenerationSoftware,KiCad,Pcbnew,8.0.1*%
%TF.CreationDate,2024-04-13T19:43:34-04:00*%
%TF.ProjectId,USB-C-3-way-splitter,5553422d-432d-4332-9d77-61792d73706c,rev?*%
%TF.SameCoordinates,Original*%
%TF.FileFunction,Legend,Bot*%
%TF.FilePolarity,Positive*%
%FSLAX46Y46*%
G04 Gerber Fmt 4.6, Leading zero omitted, Abs format (unit mm)*
G04 Created by KiCad (PCBNEW 8.0.1) date 2024-04-13 19:43:34*
%MOMM*%
%LPD*%
G01*
G04 APERTURE LIST*
%ADD10C,0.150000*%
%ADD11C,0.300000*%
%ADD12C,0.200000*%
%ADD13C,0.120000*%
G04 APERTURE END LIST*
D10*
X24715601Y2911800D02*
X23801316Y2911800D01*
X24258458Y2454657D02*
X24258458Y3368942D01*
X22658459Y3654657D02*
X23229887Y3654657D01*
X23229887Y3654657D02*
X23287030Y3083228D01*
X23287030Y3083228D02*
X23229887Y3140371D01*
X23229887Y3140371D02*
X23115602Y3197514D01*
X23115602Y3197514D02*
X22829887Y3197514D01*
X22829887Y3197514D02*
X22715602Y3140371D01*
X22715602Y3140371D02*
X22658459Y3083228D01*
X22658459Y3083228D02*
X22601316Y2968942D01*
X22601316Y2968942D02*
X22601316Y2683228D01*
X22601316Y2683228D02*
X22658459Y2568942D01*
X22658459Y2568942D02*
X22715602Y2511800D01*
X22715602Y2511800D02*
X22829887Y2454657D01*
X22829887Y2454657D02*
X23115602Y2454657D01*
X23115602Y2454657D02*
X23229887Y2511800D01*
X23229887Y2511800D02*
X23287030Y2568942D01*
X22258459Y3654657D02*
X21858459Y2454657D01*
X21858459Y2454657D02*
X21458459Y3654657D01*
D11*
X21045489Y-1465114D02*
X20545489Y-1465114D01*
X20331203Y-2250828D02*
X21045489Y-2250828D01*
X21045489Y-2250828D02*
X21045489Y-750828D01*
X21045489Y-750828D02*
X20331203Y-750828D01*
X19688346Y-2250828D02*
X19688346Y-750828D01*
X19688346Y-750828D02*
X18831203Y-2250828D01*
X18831203Y-2250828D02*
X18831203Y-750828D01*
X12038346Y-107971D02*
X12109774Y-179400D01*
X12109774Y-179400D02*
X12324060Y-250828D01*
X12324060Y-250828D02*
X12466917Y-250828D01*
X12466917Y-250828D02*
X12681203Y-179400D01*
X12681203Y-179400D02*
X12824060Y-36542D01*
X12824060Y-36542D02*
X12895489Y106314D01*
X12895489Y106314D02*
X12966917Y392028D01*
X12966917Y392028D02*
X12966917Y606314D01*
X12966917Y606314D02*
X12895489Y892028D01*
X12895489Y892028D02*
X12824060Y1034885D01*
X12824060Y1034885D02*
X12681203Y1177742D01*
X12681203Y1177742D02*
X12466917Y1249171D01*
X12466917Y1249171D02*
X12324060Y1249171D01*
X12324060Y1249171D02*
X12109774Y1177742D01*
X12109774Y1177742D02*
X12038346Y1106314D01*
X10538346Y-107971D02*
X10609774Y-179400D01*
X10609774Y-179400D02*
X10824060Y-250828D01*
X10824060Y-250828D02*
X10966917Y-250828D01*
X10966917Y-250828D02*
X11181203Y-179400D01*
X11181203Y-179400D02*
X11324060Y-36542D01*
X11324060Y-36542D02*
X11395489Y106314D01*
X11395489Y106314D02*
X11466917Y392028D01*
X11466917Y392028D02*
X11466917Y606314D01*
X11466917Y606314D02*
X11395489Y892028D01*
X11395489Y892028D02*
X11324060Y1034885D01*
X11324060Y1034885D02*
X11181203Y1177742D01*
X11181203Y1177742D02*
X10966917Y1249171D01*
X10966917Y1249171D02*
X10824060Y1249171D01*
X10824060Y1249171D02*
X10609774Y1177742D01*
X10609774Y1177742D02*
X10538346Y1106314D01*
X9109774Y-250828D02*
X9966917Y-250828D01*
X9538346Y-250828D02*
X9538346Y1249171D01*
X9538346Y1249171D02*
X9681203Y1034885D01*
X9681203Y1034885D02*
X9824060Y892028D01*
X9824060Y892028D02*
X9966917Y820600D01*
D10*
X16377506Y13130180D02*
X16377506Y12415895D01*
X16377506Y12415895D02*
X16425125Y12273038D01*
X16425125Y12273038D02*
X16520363Y12177800D01*
X16520363Y12177800D02*
X16663220Y12130180D01*
X16663220Y12130180D02*
X16758458Y12130180D01*
X15425125Y12130180D02*
X15901315Y12130180D01*
X15901315Y12130180D02*
X15901315Y13130180D01*
X14520363Y12225419D02*
X14567982Y12177800D01*
X14567982Y12177800D02*
X14710839Y12130180D01*
X14710839Y12130180D02*
X14806077Y12130180D01*
X14806077Y12130180D02*
X14948934Y12177800D01*
X14948934Y12177800D02*
X15044172Y12273038D01*
X15044172Y12273038D02*
X15091791Y12368276D01*
X15091791Y12368276D02*
X15139410Y12558752D01*
X15139410Y12558752D02*
X15139410Y12701609D01*
X15139410Y12701609D02*
X15091791Y12892085D01*
X15091791Y12892085D02*
X15044172Y12987323D01*
X15044172Y12987323D02*
X14948934Y13082561D01*
X14948934Y13082561D02*
X14806077Y13130180D01*
X14806077Y13130180D02*
X14710839Y13130180D01*
X14710839Y13130180D02*
X14567982Y13082561D01*
X14567982Y13082561D02*
X14520363Y13034942D01*
X13806077Y13130180D02*
X13806077Y12415895D01*
X13806077Y12415895D02*
X13853696Y12273038D01*
X13853696Y12273038D02*
X13948934Y12177800D01*
X13948934Y12177800D02*
X14091791Y12130180D01*
X14091791Y12130180D02*
X14187029Y12130180D01*
X12853696Y12130180D02*
X13329886Y12130180D01*
X13329886Y12130180D02*
X13329886Y13130180D01*
X11948934Y12225419D02*
X11996553Y12177800D01*
X11996553Y12177800D02*
X12139410Y12130180D01*
X12139410Y12130180D02*
X12234648Y12130180D01*
X12234648Y12130180D02*
X12377505Y12177800D01*
X12377505Y12177800D02*
X12472743Y12273038D01*
X12472743Y12273038D02*
X12520362Y12368276D01*
X12520362Y12368276D02*
X12567981Y12558752D01*
X12567981Y12558752D02*
X12567981Y12701609D01*
X12567981Y12701609D02*
X12520362Y12892085D01*
X12520362Y12892085D02*
X12472743Y12987323D01*
X12472743Y12987323D02*
X12377505Y13082561D01*
X12377505Y13082561D02*
X12234648Y13130180D01*
X12234648Y13130180D02*
X12139410Y13130180D01*
X12139410Y13130180D02*
X11996553Y13082561D01*
X11996553Y13082561D02*
X11948934Y13034942D01*
X11234648Y13130180D02*
X11234648Y12415895D01*
X11234648Y12415895D02*
X11282267Y12273038D01*
X11282267Y12273038D02*
X11377505Y12177800D01*
X11377505Y12177800D02*
X11520362Y12130180D01*
X11520362Y12130180D02*
X11615600Y12130180D01*
X10282267Y12130180D02*
X10758457Y12130180D01*
X10758457Y12130180D02*
X10758457Y13130180D01*
X9377505Y12225419D02*
X9425124Y12177800D01*
X9425124Y12177800D02*
X9567981Y12130180D01*
X9567981Y12130180D02*
X9663219Y12130180D01*
X9663219Y12130180D02*
X9806076Y12177800D01*
X9806076Y12177800D02*
X9901314Y12273038D01*
X9901314Y12273038D02*
X9948933Y12368276D01*
X9948933Y12368276D02*
X9996552Y12558752D01*
X9996552Y12558752D02*
X9996552Y12701609D01*
X9996552Y12701609D02*
X9948933Y12892085D01*
X9948933Y12892085D02*
X9901314Y12987323D01*
X9901314Y12987323D02*
X9806076Y13082561D01*
X9806076Y13082561D02*
X9663219Y13130180D01*
X9663219Y13130180D02*
X9567981Y13130180D01*
X9567981Y13130180D02*
X9425124Y13082561D01*
X9425124Y13082561D02*
X9377505Y13034942D01*
X8663219Y13130180D02*
X8663219Y12415895D01*
X8663219Y12415895D02*
X8710838Y12273038D01*
X8710838Y12273038D02*
X8806076Y12177800D01*
X8806076Y12177800D02*
X8948933Y12130180D01*
X8948933Y12130180D02*
X9044171Y12130180D01*
X7710838Y12130180D02*
X8187028Y12130180D01*
X8187028Y12130180D02*
X8187028Y13130180D01*
X6806076Y12225419D02*
X6853695Y12177800D01*
X6853695Y12177800D02*
X6996552Y12130180D01*
X6996552Y12130180D02*
X7091790Y12130180D01*
X7091790Y12130180D02*
X7234647Y12177800D01*
X7234647Y12177800D02*
X7329885Y12273038D01*
X7329885Y12273038D02*
X7377504Y12368276D01*
X7377504Y12368276D02*
X7425123Y12558752D01*
X7425123Y12558752D02*
X7425123Y12701609D01*
X7425123Y12701609D02*
X7377504Y12892085D01*
X7377504Y12892085D02*
X7329885Y12987323D01*
X7329885Y12987323D02*
X7234647Y13082561D01*
X7234647Y13082561D02*
X7091790Y13130180D01*
X7091790Y13130180D02*
X6996552Y13130180D01*
X6996552Y13130180D02*
X6853695Y13082561D01*
X6853695Y13082561D02*
X6806076Y13034942D01*
D12*
X13810809Y8132707D02*
X14782238Y8132707D01*
X14782238Y8132707D02*
X14896524Y8075564D01*
X14896524Y8075564D02*
X14953667Y8018422D01*
X14953667Y8018422D02*
X15010809Y7904136D01*
X15010809Y7904136D02*
X15010809Y7675564D01*
X15010809Y7675564D02*
X14953667Y7561279D01*
X14953667Y7561279D02*
X14896524Y7504136D01*
X14896524Y7504136D02*
X14782238Y7446993D01*
X14782238Y7446993D02*
X13810809Y7446993D01*
X14953667Y6932707D02*
X15010809Y6761279D01*
X15010809Y6761279D02*
X15010809Y6475564D01*
X15010809Y6475564D02*
X14953667Y6361279D01*
X14953667Y6361279D02*
X14896524Y6304136D01*
X14896524Y6304136D02*
X14782238Y6246993D01*
X14782238Y6246993D02*
X14667952Y6246993D01*
X14667952Y6246993D02*
X14553667Y6304136D01*
X14553667Y6304136D02*
X14496524Y6361279D01*
X14496524Y6361279D02*
X14439381Y6475564D01*
X14439381Y6475564D02*
X14382238Y6704136D01*
X14382238Y6704136D02*
X14325095Y6818421D01*
X14325095Y6818421D02*
X14267952Y6875564D01*
X14267952Y6875564D02*
X14153667Y6932707D01*
X14153667Y6932707D02*
X14039381Y6932707D01*
X14039381Y6932707D02*
X13925095Y6875564D01*
X13925095Y6875564D02*
X13867952Y6818421D01*
X13867952Y6818421D02*
X13810809Y6704136D01*
X13810809Y6704136D02*
X13810809Y6418421D01*
X13810809Y6418421D02*
X13867952Y6246993D01*
X14382238Y5332707D02*
X14439381Y5161279D01*
X14439381Y5161279D02*
X14496524Y5104136D01*
X14496524Y5104136D02*
X14610809Y5046993D01*
X14610809Y5046993D02*
X14782238Y5046993D01*
X14782238Y5046993D02*
X14896524Y5104136D01*
X14896524Y5104136D02*
X14953667Y5161279D01*
X14953667Y5161279D02*
X15010809Y5275564D01*
X15010809Y5275564D02*
X15010809Y5732707D01*
X15010809Y5732707D02*
X13810809Y5732707D01*
X13810809Y5732707D02*
X13810809Y5332707D01*
X13810809Y5332707D02*
X13867952Y5218422D01*
X13867952Y5218422D02*
X13925095Y5161279D01*
X13925095Y5161279D02*
X14039381Y5104136D01*
X14039381Y5104136D02*
X14153667Y5104136D01*
X14153667Y5104136D02*
X14267952Y5161279D01*
X14267952Y5161279D02*
X14325095Y5218422D01*
X14325095Y5218422D02*
X14382238Y5332707D01*
X14382238Y5332707D02*
X14382238Y5732707D01*
X14553667Y4532707D02*
X14553667Y3618422D01*
X14896524Y2361279D02*
X14953667Y2418422D01*
X14953667Y2418422D02*
X15010809Y2589850D01*
X15010809Y2589850D02*
X15010809Y2704136D01*
X15010809Y2704136D02*
X14953667Y2875565D01*
X14953667Y2875565D02*
X14839381Y2989850D01*
X14839381Y2989850D02*
X14725095Y3046993D01*
X14725095Y3046993D02*
X14496524Y3104136D01*
X14496524Y3104136D02*
X14325095Y3104136D01*
X14325095Y3104136D02*
X14096524Y3046993D01*
X14096524Y3046993D02*
X13982238Y2989850D01*
X13982238Y2989850D02*
X13867952Y2875565D01*
X13867952Y2875565D02*
X13810809Y2704136D01*
X13810809Y2704136D02*
X13810809Y2589850D01*
X13810809Y2589850D02*
X13867952Y2418422D01*
X13867952Y2418422D02*
X13925095Y2361279D01*
X14953667Y989850D02*
X15010809Y818422D01*
X15010809Y818422D02*
X15010809Y532707D01*
X15010809Y532707D02*
X14953667Y418422D01*
X14953667Y418422D02*
X14896524Y361279D01*
X14896524Y361279D02*
X14782238Y304136D01*
X14782238Y304136D02*
X14667952Y304136D01*
X14667952Y304136D02*
X14553667Y361279D01*
X14553667Y361279D02*
X14496524Y418422D01*
X14496524Y418422D02*
X14439381Y532707D01*
X14439381Y532707D02*
X14382238Y761279D01*
X14382238Y761279D02*
X14325095Y875564D01*
X14325095Y875564D02*
X14267952Y932707D01*
X14267952Y932707D02*
X14153667Y989850D01*
X14153667Y989850D02*
X14039381Y989850D01*
X14039381Y989850D02*
X13925095Y932707D01*
X13925095Y932707D02*
X13867952Y875564D01*
X13867952Y875564D02*
X13810809Y761279D01*
X13810809Y761279D02*
X13810809Y475564D01*
X13810809Y475564D02*
X13867952Y304136D01*
X14210809Y-210149D02*
X15410809Y-210149D01*
X14267952Y-210149D02*
X14210809Y-324435D01*
X14210809Y-324435D02*
X14210809Y-553006D01*
X14210809Y-553006D02*
X14267952Y-667292D01*
X14267952Y-667292D02*
X14325095Y-724435D01*
X14325095Y-724435D02*
X14439381Y-781577D01*
X14439381Y-781577D02*
X14782238Y-781577D01*
X14782238Y-781577D02*
X14896524Y-724435D01*
X14896524Y-724435D02*
X14953667Y-667292D01*
X14953667Y-667292D02*
X15010809Y-553006D01*
X15010809Y-553006D02*
X15010809Y-324435D01*
X15010809Y-324435D02*
X14953667Y-210149D01*
X15010809Y-1467291D02*
X14953667Y-1353006D01*
X14953667Y-1353006D02*
X14839381Y-1295863D01*
X14839381Y-1295863D02*
X13810809Y-1295863D01*
X15010809Y-1924434D02*
X14210809Y-1924434D01*
X13810809Y-1924434D02*
X13867952Y-1867291D01*
X13867952Y-1867291D02*
X13925095Y-1924434D01*
X13925095Y-1924434D02*
X13867952Y-1981577D01*
X13867952Y-1981577D02*
X13810809Y-1924434D01*
X13810809Y-1924434D02*
X13925095Y-1924434D01*
X14210809Y-2324434D02*
X14210809Y-2781577D01*
X13810809Y-2495863D02*
X14839381Y-2495863D01*
X14839381Y-2495863D02*
X14953667Y-2553006D01*
X14953667Y-2553006D02*
X15010809Y-2667291D01*
X15010809Y-2667291D02*
X15010809Y-2781577D01*
X14210809Y-3010148D02*
X14210809Y-3467291D01*
X13810809Y-3181577D02*
X14839381Y-3181577D01*
X14839381Y-3181577D02*
X14953667Y-3238720D01*
X14953667Y-3238720D02*
X15010809Y-3353005D01*
X15010809Y-3353005D02*
X15010809Y-3467291D01*
X14953667Y-4324434D02*
X15010809Y-4210148D01*
X15010809Y-4210148D02*
X15010809Y-3981577D01*
X15010809Y-3981577D02*
X14953667Y-3867291D01*
X14953667Y-3867291D02*
X14839381Y-3810148D01*
X14839381Y-3810148D02*
X14382238Y-3810148D01*
X14382238Y-3810148D02*
X14267952Y-3867291D01*
X14267952Y-3867291D02*
X14210809Y-3981577D01*
X14210809Y-3981577D02*
X14210809Y-4210148D01*
X14210809Y-4210148D02*
X14267952Y-4324434D01*
X14267952Y-4324434D02*
X14382238Y-4381577D01*
X14382238Y-4381577D02*
X14496524Y-4381577D01*
X14496524Y-4381577D02*
X14610809Y-3810148D01*
X15010809Y-4895862D02*
X14210809Y-4895862D01*
X14439381Y-4895862D02*
X14325095Y-4953005D01*
X14325095Y-4953005D02*
X14267952Y-5010148D01*
X14267952Y-5010148D02*
X14210809Y-5124433D01*
X14210809Y-5124433D02*
X14210809Y-5238719D01*
X13810809Y-6381576D02*
X15010809Y-6781576D01*
X15010809Y-6781576D02*
X13810809Y-7181576D01*
X13925095Y-7524433D02*
X13867952Y-7581576D01*
X13867952Y-7581576D02*
X13810809Y-7695862D01*
X13810809Y-7695862D02*
X13810809Y-7981576D01*
X13810809Y-7981576D02*
X13867952Y-8095862D01*
X13867952Y-8095862D02*
X13925095Y-8153004D01*
X13925095Y-8153004D02*
X14039381Y-8210147D01*
X14039381Y-8210147D02*
X14153667Y-8210147D01*
X14153667Y-8210147D02*
X14325095Y-8153004D01*
X14325095Y-8153004D02*
X15010809Y-7467290D01*
X15010809Y-7467290D02*
X15010809Y-8210147D01*
X16942742Y8132707D02*
X15742742Y8132707D01*
X15742742Y8132707D02*
X15742742Y7675564D01*
X15742742Y7675564D02*
X15799885Y7561279D01*
X15799885Y7561279D02*
X15857028Y7504136D01*
X15857028Y7504136D02*
X15971314Y7446993D01*
X15971314Y7446993D02*
X16142742Y7446993D01*
X16142742Y7446993D02*
X16257028Y7504136D01*
X16257028Y7504136D02*
X16314171Y7561279D01*
X16314171Y7561279D02*
X16371314Y7675564D01*
X16371314Y7675564D02*
X16371314Y8132707D01*
X16142742Y7046993D02*
X16942742Y6761279D01*
X16142742Y6475564D02*
X16942742Y6761279D01*
X16942742Y6761279D02*
X17228457Y6875564D01*
X17228457Y6875564D02*
X17285600Y6932707D01*
X17285600Y6932707D02*
X17342742Y7046993D01*
X16942742Y5846993D02*
X16885600Y5961278D01*
X16885600Y5961278D02*
X16771314Y6018421D01*
X16771314Y6018421D02*
X15742742Y6018421D01*
X16942742Y5218422D02*
X16885600Y5332707D01*
X16885600Y5332707D02*
X16828457Y5389850D01*
X16828457Y5389850D02*
X16714171Y5446993D01*
X16714171Y5446993D02*
X16371314Y5446993D01*
X16371314Y5446993D02*
X16257028Y5389850D01*
X16257028Y5389850D02*
X16199885Y5332707D01*
X16199885Y5332707D02*
X16142742Y5218422D01*
X16142742Y5218422D02*
X16142742Y5046993D01*
X16142742Y5046993D02*
X16199885Y4932707D01*
X16199885Y4932707D02*
X16257028Y4875565D01*
X16257028Y4875565D02*
X16371314Y4818422D01*
X16371314Y4818422D02*
X16714171Y4818422D01*
X16714171Y4818422D02*
X16828457Y4875565D01*
X16828457Y4875565D02*
X16885600Y4932707D01*
X16885600Y4932707D02*
X16942742Y5046993D01*
X16942742Y5046993D02*
X16942742Y5218422D01*
X16142742Y4304136D02*
X16942742Y4304136D01*
X16257028Y4304136D02*
X16199885Y4246993D01*
X16199885Y4246993D02*
X16142742Y4132708D01*
X16142742Y4132708D02*
X16142742Y3961279D01*
X16142742Y3961279D02*
X16199885Y3846993D01*
X16199885Y3846993D02*
X16314171Y3789851D01*
X16314171Y3789851D02*
X16942742Y3789851D01*
X16599885Y2361279D02*
X16599885Y1789851D01*
X16942742Y2475565D02*
X15742742Y2075565D01*
X15742742Y2075565D02*
X16942742Y1675565D01*
X16142742Y1275565D02*
X17342742Y1275565D01*
X16199885Y1275565D02*
X16142742Y1161280D01*
X16142742Y1161280D02*
X16142742Y932708D01*
X16142742Y932708D02*
X16199885Y818422D01*
X16199885Y818422D02*
X16257028Y761280D01*
X16257028Y761280D02*
X16371314Y704137D01*
X16371314Y704137D02*
X16714171Y704137D01*
X16714171Y704137D02*
X16828457Y761280D01*
X16828457Y761280D02*
X16885600Y818422D01*
X16885600Y818422D02*
X16942742Y932708D01*
X16942742Y932708D02*
X16942742Y1161280D01*
X16942742Y1161280D02*
X16885600Y1275565D01*
X16942742Y189851D02*
X16142742Y189851D01*
X16371314Y189851D02*
X16257028Y132708D01*
X16257028Y132708D02*
X16199885Y75566D01*
X16199885Y75566D02*
X16142742Y-38719D01*
X16142742Y-38719D02*
X16142742Y-153005D01*
X16942742Y-553005D02*
X16142742Y-553005D01*
X15742742Y-553005D02*
X15799885Y-495862D01*
X15799885Y-495862D02*
X15857028Y-553005D01*
X15857028Y-553005D02*
X15799885Y-610148D01*
X15799885Y-610148D02*
X15742742Y-553005D01*
X15742742Y-553005D02*
X15857028Y-553005D01*
X16942742Y-1295862D02*
X16885600Y-1181577D01*
X16885600Y-1181577D02*
X16771314Y-1124434D01*
X16771314Y-1124434D02*
X15742742Y-1124434D01*
X16942742Y-3295862D02*
X16942742Y-2610148D01*
X16942742Y-2953005D02*
X15742742Y-2953005D01*
X15742742Y-2953005D02*
X15914171Y-2838719D01*
X15914171Y-2838719D02*
X16028457Y-2724434D01*
X16028457Y-2724434D02*
X16085600Y-2610148D01*
X15742742Y-3695862D02*
X15742742Y-4438719D01*
X15742742Y-4438719D02*
X16199885Y-4038719D01*
X16199885Y-4038719D02*
X16199885Y-4210148D01*
X16199885Y-4210148D02*
X16257028Y-4324434D01*
X16257028Y-4324434D02*
X16314171Y-4381576D01*
X16314171Y-4381576D02*
X16428457Y-4438719D01*
X16428457Y-4438719D02*
X16714171Y-4438719D01*
X16714171Y-4438719D02*
X16828457Y-4381576D01*
X16828457Y-4381576D02*
X16885600Y-4324434D01*
X16885600Y-4324434D02*
X16942742Y-4210148D01*
X16942742Y-4210148D02*
X16942742Y-3867291D01*
X16942742Y-3867291D02*
X16885600Y-3753005D01*
X16885600Y-3753005D02*
X16828457Y-3695862D01*
X15857028Y-5810148D02*
X15799885Y-5867291D01*
X15799885Y-5867291D02*
X15742742Y-5981577D01*
X15742742Y-5981577D02*
X15742742Y-6267291D01*
X15742742Y-6267291D02*
X15799885Y-6381577D01*
X15799885Y-6381577D02*
X15857028Y-6438719D01*
X15857028Y-6438719D02*
X15971314Y-6495862D01*
X15971314Y-6495862D02*
X16085600Y-6495862D01*
X16085600Y-6495862D02*
X16257028Y-6438719D01*
X16257028Y-6438719D02*
X16942742Y-5753005D01*
X16942742Y-5753005D02*
X16942742Y-6495862D01*
X16142742Y-7524434D02*
X16942742Y-7524434D01*
X15685600Y-7238719D02*
X16542742Y-6953005D01*
X16542742Y-6953005D02*
X16542742Y-7695862D01*
D11*
X12138346Y-2907971D02*
X12209774Y-2979400D01*
X12209774Y-2979400D02*
X12424060Y-3050828D01*
X12424060Y-3050828D02*
X12566917Y-3050828D01*
X12566917Y-3050828D02*
X12781203Y-2979400D01*
X12781203Y-2979400D02*
X12924060Y-2836542D01*
X12924060Y-2836542D02*
X12995489Y-2693685D01*
X12995489Y-2693685D02*
X13066917Y-2407971D01*
X13066917Y-2407971D02*
X13066917Y-2193685D01*
X13066917Y-2193685D02*
X12995489Y-1907971D01*
X12995489Y-1907971D02*
X12924060Y-1765114D01*
X12924060Y-1765114D02*
X12781203Y-1622257D01*
X12781203Y-1622257D02*
X12566917Y-1550828D01*
X12566917Y-1550828D02*
X12424060Y-1550828D01*
X12424060Y-1550828D02*
X12209774Y-1622257D01*
X12209774Y-1622257D02*
X12138346Y-1693685D01*
X10638346Y-2907971D02*
X10709774Y-2979400D01*
X10709774Y-2979400D02*
X10924060Y-3050828D01*
X10924060Y-3050828D02*
X11066917Y-3050828D01*
X11066917Y-3050828D02*
X11281203Y-2979400D01*
X11281203Y-2979400D02*
X11424060Y-2836542D01*
X11424060Y-2836542D02*
X11495489Y-2693685D01*
X11495489Y-2693685D02*
X11566917Y-2407971D01*
X11566917Y-2407971D02*
X11566917Y-2193685D01*
X11566917Y-2193685D02*
X11495489Y-1907971D01*
X11495489Y-1907971D02*
X11424060Y-1765114D01*
X11424060Y-1765114D02*
X11281203Y-1622257D01*
X11281203Y-1622257D02*
X11066917Y-1550828D01*
X11066917Y-1550828D02*
X10924060Y-1550828D01*
X10924060Y-1550828D02*
X10709774Y-1622257D01*
X10709774Y-1622257D02*
X10638346Y-1693685D01*
X10066917Y-1693685D02*
X9995489Y-1622257D01*
X9995489Y-1622257D02*
X9852632Y-1550828D01*
X9852632Y-1550828D02*
X9495489Y-1550828D01*
X9495489Y-1550828D02*
X9352632Y-1622257D01*
X9352632Y-1622257D02*
X9281203Y-1693685D01*
X9281203Y-1693685D02*
X9209774Y-1836542D01*
X9209774Y-1836542D02*
X9209774Y-1979400D01*
X9209774Y-1979400D02*
X9281203Y-2193685D01*
X9281203Y-2193685D02*
X10138346Y-3050828D01*
X10138346Y-3050828D02*
X9209774Y-3050828D01*
X14495489Y-12529400D02*
X13352632Y-12529400D01*
X13924060Y-13100828D02*
X13924060Y-11957971D01*
X11852631Y-13100828D02*
X12709774Y-13100828D01*
X12281203Y-13100828D02*
X12281203Y-11600828D01*
X12281203Y-11600828D02*
X12424060Y-11815114D01*
X12424060Y-11815114D02*
X12566917Y-11957971D01*
X12566917Y-11957971D02*
X12709774Y-12029400D01*
X11209775Y-12957971D02*
X11138346Y-13029400D01*
X11138346Y-13029400D02*
X11209775Y-13100828D01*
X11209775Y-13100828D02*
X11281203Y-13029400D01*
X11281203Y-13029400D02*
X11209775Y-12957971D01*
X11209775Y-12957971D02*
X11209775Y-13100828D01*
X10566917Y-11743685D02*
X10495489Y-11672257D01*
X10495489Y-11672257D02*
X10352632Y-11600828D01*
X10352632Y-11600828D02*
X9995489Y-11600828D01*
X9995489Y-11600828D02*
X9852632Y-11672257D01*
X9852632Y-11672257D02*
X9781203Y-11743685D01*
X9781203Y-11743685D02*
X9709774Y-11886542D01*
X9709774Y-11886542D02*
X9709774Y-12029400D01*
X9709774Y-12029400D02*
X9781203Y-12243685D01*
X9781203Y-12243685D02*
X10638346Y-13100828D01*
X10638346Y-13100828D02*
X9709774Y-13100828D01*
X9281203Y-11600828D02*
X8781203Y-13100828D01*
X8781203Y-13100828D02*
X8281203Y-11600828D01*
D10*
X24765601Y404657D02*
X24765601Y1604657D01*
X24765601Y1604657D02*
X24479887Y1604657D01*
X24479887Y1604657D02*
X24308458Y1547514D01*
X24308458Y1547514D02*
X24194173Y1433228D01*
X24194173Y1433228D02*
X24137030Y1318942D01*
X24137030Y1318942D02*
X24079887Y1090371D01*
X24079887Y1090371D02*
X24079887Y918942D01*
X24079887Y918942D02*
X24137030Y690371D01*
X24137030Y690371D02*
X24194173Y576085D01*
X24194173Y576085D02*
X24308458Y461800D01*
X24308458Y461800D02*
X24479887Y404657D01*
X24479887Y404657D02*
X24765601Y404657D01*
X23565601Y861800D02*
X22651316Y861800D01*
X23108458Y404657D02*
X23108458Y1318942D01*
X24765601Y-1595342D02*
X24765601Y-395342D01*
X24765601Y-395342D02*
X24479887Y-395342D01*
X24479887Y-395342D02*
X24308458Y-452485D01*
X24308458Y-452485D02*
X24194173Y-566771D01*
X24194173Y-566771D02*
X24137030Y-681057D01*
X24137030Y-681057D02*
X24079887Y-909628D01*
X24079887Y-909628D02*
X24079887Y-1081057D01*
X24079887Y-1081057D02*
X24137030Y-1309628D01*
X24137030Y-1309628D02*
X24194173Y-1423914D01*
X24194173Y-1423914D02*
X24308458Y-1538200D01*
X24308458Y-1538200D02*
X24479887Y-1595342D01*
X24479887Y-1595342D02*
X24765601Y-1595342D01*
X23565601Y-1138200D02*
X22651316Y-1138200D01*
X24137030Y-2452485D02*
X24251316Y-2395342D01*
X24251316Y-2395342D02*
X24422744Y-2395342D01*
X24422744Y-2395342D02*
X24594173Y-2452485D01*
X24594173Y-2452485D02*
X24708458Y-2566771D01*
X24708458Y-2566771D02*
X24765601Y-2681057D01*
X24765601Y-2681057D02*
X24822744Y-2909628D01*
X24822744Y-2909628D02*
X24822744Y-3081057D01*
X24822744Y-3081057D02*
X24765601Y-3309628D01*
X24765601Y-3309628D02*
X24708458Y-3423914D01*
X24708458Y-3423914D02*
X24594173Y-3538200D01*
X24594173Y-3538200D02*
X24422744Y-3595342D01*
X24422744Y-3595342D02*
X24308458Y-3595342D01*
X24308458Y-3595342D02*
X24137030Y-3538200D01*
X24137030Y-3538200D02*
X24079887Y-3481057D01*
X24079887Y-3481057D02*
X24079887Y-3081057D01*
X24079887Y-3081057D02*
X24308458Y-3081057D01*
X23565601Y-3595342D02*
X23565601Y-2395342D01*
X23565601Y-2395342D02*
X22879887Y-3595342D01*
X22879887Y-3595342D02*
X22879887Y-2395342D01*
X22308458Y-3595342D02*
X22308458Y-2395342D01*
X22308458Y-2395342D02*
X22022744Y-2395342D01*
X22022744Y-2395342D02*
X21851315Y-2452485D01*
X21851315Y-2452485D02*
X21737030Y-2566771D01*
X21737030Y-2566771D02*
X21679887Y-2681057D01*
X21679887Y-2681057D02*
X21622744Y-2909628D01*
X21622744Y-2909628D02*
X21622744Y-3081057D01*
X21622744Y-3081057D02*
X21679887Y-3309628D01*
X21679887Y-3309628D02*
X21737030Y-3423914D01*
X21737030Y-3423914D02*
X21851315Y-3538200D01*
X21851315Y-3538200D02*
X22022744Y-3595342D01*
X22022744Y-3595342D02*
X22308458Y-3595342D01*
X12761904Y-9504819D02*
X12190476Y-9504819D01*
X12476190Y-10504819D02*
X12476190Y-9504819D01*
X11857142Y-10504819D02*
X11857142Y-9504819D01*
X11857142Y-9504819D02*
X11476190Y-9504819D01*
X11476190Y-9504819D02*
X11380952Y-9552438D01*
X11380952Y-9552438D02*
X11333333Y-9600057D01*
X11333333Y-9600057D02*
X11285714Y-9695295D01*
X11285714Y-9695295D02*
X11285714Y-9838152D01*
X11285714Y-9838152D02*
X11333333Y-9933390D01*
X11333333Y-9933390D02*
X11380952Y-9981009D01*
X11380952Y-9981009D02*
X11476190Y-10028628D01*
X11476190Y-10028628D02*
X11857142Y-10028628D01*
X10428571Y-9838152D02*
X10428571Y-10504819D01*
X10666666Y-9457200D02*
X10904761Y-10171485D01*
X10904761Y-10171485D02*
X10285714Y-10171485D01*
X11911904Y-3854819D02*
X11340476Y-3854819D01*
X11626190Y-4854819D02*
X11626190Y-3854819D01*
X11007142Y-4854819D02*
X11007142Y-3854819D01*
X11007142Y-3854819D02*
X10626190Y-3854819D01*
X10626190Y-3854819D02*
X10530952Y-3902438D01*
X10530952Y-3902438D02*
X10483333Y-3950057D01*
X10483333Y-3950057D02*
X10435714Y-4045295D01*
X10435714Y-4045295D02*
X10435714Y-4188152D01*
X10435714Y-4188152D02*
X10483333Y-4283390D01*
X10483333Y-4283390D02*
X10530952Y-4331009D01*
X10530952Y-4331009D02*
X10626190Y-4378628D01*
X10626190Y-4378628D02*
X11007142Y-4378628D01*
X10054761Y-3950057D02*
X10007142Y-3902438D01*
X10007142Y-3902438D02*
X9911904Y-3854819D01*
X9911904Y-3854819D02*
X9673809Y-3854819D01*
X9673809Y-3854819D02*
X9578571Y-3902438D01*
X9578571Y-3902438D02*
X9530952Y-3950057D01*
X9530952Y-3950057D02*
X9483333Y-4045295D01*
X9483333Y-4045295D02*
X9483333Y-4140533D01*
X9483333Y-4140533D02*
X9530952Y-4283390D01*
X9530952Y-4283390D02*
X10102380Y-4854819D01*
X10102380Y-4854819D02*
X9483333Y-4854819D01*
X20961904Y3995180D02*
X20390476Y3995180D01*
X20676190Y2995180D02*
X20676190Y3995180D01*
X20057142Y2995180D02*
X20057142Y3995180D01*
X20057142Y3995180D02*
X19676190Y3995180D01*
X19676190Y3995180D02*
X19580952Y3947561D01*
X19580952Y3947561D02*
X19533333Y3899942D01*
X19533333Y3899942D02*
X19485714Y3804704D01*
X19485714Y3804704D02*
X19485714Y3661847D01*
X19485714Y3661847D02*
X19533333Y3566609D01*
X19533333Y3566609D02*
X19580952Y3518990D01*
X19580952Y3518990D02*
X19676190Y3471371D01*
X19676190Y3471371D02*
X20057142Y3471371D01*
X19152380Y3995180D02*
X18533333Y3995180D01*
X18533333Y3995180D02*
X18866666Y3614228D01*
X18866666Y3614228D02*
X18723809Y3614228D01*
X18723809Y3614228D02*
X18628571Y3566609D01*
X18628571Y3566609D02*
X18580952Y3518990D01*
X18580952Y3518990D02*
X18533333Y3423752D01*
X18533333Y3423752D02*
X18533333Y3185657D01*
X18533333Y3185657D02*
X18580952Y3090419D01*
X18580952Y3090419D02*
X18628571Y3042800D01*
X18628571Y3042800D02*
X18723809Y2995180D01*
X18723809Y2995180D02*
X19009523Y2995180D01*
X19009523Y2995180D02*
X19104761Y3042800D01*
X19104761Y3042800D02*
X19152380Y3090419D01*
X11461904Y2795180D02*
X10890476Y2795180D01*
X11176190Y1795180D02*
X11176190Y2795180D01*
X10557142Y1795180D02*
X10557142Y2795180D01*
X10557142Y2795180D02*
X10176190Y2795180D01*
X10176190Y2795180D02*
X10080952Y2747561D01*
X10080952Y2747561D02*
X10033333Y2699942D01*
X10033333Y2699942D02*
X9985714Y2604704D01*
X9985714Y2604704D02*
X9985714Y2461847D01*
X9985714Y2461847D02*
X10033333Y2366609D01*
X10033333Y2366609D02*
X10080952Y2318990D01*
X10080952Y2318990D02*
X10176190Y2271371D01*
X10176190Y2271371D02*
X10557142Y2271371D01*
X9033333Y1795180D02*
X9604761Y1795180D01*
X9319047Y1795180D02*
X9319047Y2795180D01*
X9319047Y2795180D02*
X9414285Y2652323D01*
X9414285Y2652323D02*
X9509523Y2557085D01*
X9509523Y2557085D02*
X9604761Y2509466D01*
D13*
%TO.C,TP4*%
X16000000Y-10050000D02*
G75*
G02*
X13100000Y-10050000I-1450000J0D01*
G01*
X13100000Y-10050000D02*
G75*
G02*
X16000000Y-10050000I1450000J0D01*
G01*
%TO.C,TP2*%
X8800000Y-3250000D02*
G75*
G02*
X5900000Y-3250000I-1450000J0D01*
G01*
X5900000Y-3250000D02*
G75*
G02*
X8800000Y-3250000I1450000J0D01*
G01*
%TO.C,TP3*%
X21700000Y1150000D02*
G75*
G02*
X18800000Y1150000I-1450000J0D01*
G01*
X18800000Y1150000D02*
G75*
G02*
X21700000Y1150000I1450000J0D01*
G01*
%TO.C,TP1*%
X8650000Y500000D02*
G75*
G02*
X5750000Y500000I-1450000J0D01*
G01*
X5750000Y500000D02*
G75*
G02*
X8650000Y500000I1450000J0D01*
G01*
%TD*%
M02*
