%TF.GenerationSoftware,KiCad,Pcbnew,7.0.10*%
%TF.CreationDate,2024-02-14T20:39:14-05:00*%
%TF.ProjectId,USB-C-3-way-splitter,5553422d-432d-4332-9d77-61792d73706c,rev?*%
%TF.SameCoordinates,Original*%
%TF.FileFunction,Legend,Bot*%
%TF.FilePolarity,Positive*%
%FSLAX46Y46*%
G04 Gerber Fmt 4.6, Leading zero omitted, Abs format (unit mm)*
G04 Created by KiCad (PCBNEW 7.0.10) date 2024-02-14 20:39:14*
%MOMM*%
%LPD*%
G01*
G04 APERTURE LIST*
%ADD10C,0.200000*%
%ADD11C,0.300000*%
G04 APERTURE END LIST*
D10*
X20367219Y5644612D02*
X21081504Y5644612D01*
X21081504Y5644612D02*
X21224361Y5692231D01*
X21224361Y5692231D02*
X21319600Y5787469D01*
X21319600Y5787469D02*
X21367219Y5930326D01*
X21367219Y5930326D02*
X21367219Y6025564D01*
X21367219Y4692231D02*
X21367219Y5168421D01*
X21367219Y5168421D02*
X20367219Y5168421D01*
X21271980Y3787469D02*
X21319600Y3835088D01*
X21319600Y3835088D02*
X21367219Y3977945D01*
X21367219Y3977945D02*
X21367219Y4073183D01*
X21367219Y4073183D02*
X21319600Y4216040D01*
X21319600Y4216040D02*
X21224361Y4311278D01*
X21224361Y4311278D02*
X21129123Y4358897D01*
X21129123Y4358897D02*
X20938647Y4406516D01*
X20938647Y4406516D02*
X20795790Y4406516D01*
X20795790Y4406516D02*
X20605314Y4358897D01*
X20605314Y4358897D02*
X20510076Y4311278D01*
X20510076Y4311278D02*
X20414838Y4216040D01*
X20414838Y4216040D02*
X20367219Y4073183D01*
X20367219Y4073183D02*
X20367219Y3977945D01*
X20367219Y3977945D02*
X20414838Y3835088D01*
X20414838Y3835088D02*
X20462457Y3787469D01*
X20367219Y3073183D02*
X21081504Y3073183D01*
X21081504Y3073183D02*
X21224361Y3120802D01*
X21224361Y3120802D02*
X21319600Y3216040D01*
X21319600Y3216040D02*
X21367219Y3358897D01*
X21367219Y3358897D02*
X21367219Y3454135D01*
X21367219Y2120802D02*
X21367219Y2596992D01*
X21367219Y2596992D02*
X20367219Y2596992D01*
X21271980Y1216040D02*
X21319600Y1263659D01*
X21319600Y1263659D02*
X21367219Y1406516D01*
X21367219Y1406516D02*
X21367219Y1501754D01*
X21367219Y1501754D02*
X21319600Y1644611D01*
X21319600Y1644611D02*
X21224361Y1739849D01*
X21224361Y1739849D02*
X21129123Y1787468D01*
X21129123Y1787468D02*
X20938647Y1835087D01*
X20938647Y1835087D02*
X20795790Y1835087D01*
X20795790Y1835087D02*
X20605314Y1787468D01*
X20605314Y1787468D02*
X20510076Y1739849D01*
X20510076Y1739849D02*
X20414838Y1644611D01*
X20414838Y1644611D02*
X20367219Y1501754D01*
X20367219Y1501754D02*
X20367219Y1406516D01*
X20367219Y1406516D02*
X20414838Y1263659D01*
X20414838Y1263659D02*
X20462457Y1216040D01*
X20367219Y501754D02*
X21081504Y501754D01*
X21081504Y501754D02*
X21224361Y549373D01*
X21224361Y549373D02*
X21319600Y644611D01*
X21319600Y644611D02*
X21367219Y787468D01*
X21367219Y787468D02*
X21367219Y882706D01*
X21367219Y-450626D02*
X21367219Y25563D01*
X21367219Y25563D02*
X20367219Y25563D01*
X21271980Y-1355388D02*
X21319600Y-1307769D01*
X21319600Y-1307769D02*
X21367219Y-1164912D01*
X21367219Y-1164912D02*
X21367219Y-1069674D01*
X21367219Y-1069674D02*
X21319600Y-926817D01*
X21319600Y-926817D02*
X21224361Y-831579D01*
X21224361Y-831579D02*
X21129123Y-783960D01*
X21129123Y-783960D02*
X20938647Y-736341D01*
X20938647Y-736341D02*
X20795790Y-736341D01*
X20795790Y-736341D02*
X20605314Y-783960D01*
X20605314Y-783960D02*
X20510076Y-831579D01*
X20510076Y-831579D02*
X20414838Y-926817D01*
X20414838Y-926817D02*
X20367219Y-1069674D01*
X20367219Y-1069674D02*
X20367219Y-1164912D01*
X20367219Y-1164912D02*
X20414838Y-1307769D01*
X20414838Y-1307769D02*
X20462457Y-1355388D01*
X20367219Y-2069674D02*
X21081504Y-2069674D01*
X21081504Y-2069674D02*
X21224361Y-2022055D01*
X21224361Y-2022055D02*
X21319600Y-1926817D01*
X21319600Y-1926817D02*
X21367219Y-1783960D01*
X21367219Y-1783960D02*
X21367219Y-1688722D01*
X21367219Y-3022055D02*
X21367219Y-2545865D01*
X21367219Y-2545865D02*
X20367219Y-2545865D01*
X21271980Y-3926817D02*
X21319600Y-3879198D01*
X21319600Y-3879198D02*
X21367219Y-3736341D01*
X21367219Y-3736341D02*
X21367219Y-3641103D01*
X21367219Y-3641103D02*
X21319600Y-3498246D01*
X21319600Y-3498246D02*
X21224361Y-3403008D01*
X21224361Y-3403008D02*
X21129123Y-3355389D01*
X21129123Y-3355389D02*
X20938647Y-3307770D01*
X20938647Y-3307770D02*
X20795790Y-3307770D01*
X20795790Y-3307770D02*
X20605314Y-3355389D01*
X20605314Y-3355389D02*
X20510076Y-3403008D01*
X20510076Y-3403008D02*
X20414838Y-3498246D01*
X20414838Y-3498246D02*
X20367219Y-3641103D01*
X20367219Y-3641103D02*
X20367219Y-3736341D01*
X20367219Y-3736341D02*
X20414838Y-3879198D01*
X20414838Y-3879198D02*
X20462457Y-3926817D01*
X27530326Y-3986266D02*
X26768422Y-3986266D01*
X27149374Y-4367219D02*
X27149374Y-3605314D01*
X25816041Y-3367219D02*
X26292231Y-3367219D01*
X26292231Y-3367219D02*
X26339850Y-3843409D01*
X26339850Y-3843409D02*
X26292231Y-3795790D01*
X26292231Y-3795790D02*
X26196993Y-3748171D01*
X26196993Y-3748171D02*
X25958898Y-3748171D01*
X25958898Y-3748171D02*
X25863660Y-3795790D01*
X25863660Y-3795790D02*
X25816041Y-3843409D01*
X25816041Y-3843409D02*
X25768422Y-3938647D01*
X25768422Y-3938647D02*
X25768422Y-4176742D01*
X25768422Y-4176742D02*
X25816041Y-4271980D01*
X25816041Y-4271980D02*
X25863660Y-4319600D01*
X25863660Y-4319600D02*
X25958898Y-4367219D01*
X25958898Y-4367219D02*
X26196993Y-4367219D01*
X26196993Y-4367219D02*
X26292231Y-4319600D01*
X26292231Y-4319600D02*
X26339850Y-4271980D01*
X25482707Y-3367219D02*
X25149374Y-4367219D01*
X25149374Y-4367219D02*
X24816041Y-3367219D01*
X27530326Y-467219D02*
X27530326Y532780D01*
X27530326Y532780D02*
X27292231Y532780D01*
X27292231Y532780D02*
X27149374Y485161D01*
X27149374Y485161D02*
X27054136Y389923D01*
X27054136Y389923D02*
X27006517Y294685D01*
X27006517Y294685D02*
X26958898Y104209D01*
X26958898Y104209D02*
X26958898Y-38647D01*
X26958898Y-38647D02*
X27006517Y-229123D01*
X27006517Y-229123D02*
X27054136Y-324361D01*
X27054136Y-324361D02*
X27149374Y-419600D01*
X27149374Y-419600D02*
X27292231Y-467219D01*
X27292231Y-467219D02*
X27530326Y-467219D01*
X26530326Y-86266D02*
X25768422Y-86266D01*
X26149374Y-467219D02*
X26149374Y294685D01*
X27530326Y-2467219D02*
X27530326Y-1467219D01*
X27530326Y-1467219D02*
X27292231Y-1467219D01*
X27292231Y-1467219D02*
X27149374Y-1514838D01*
X27149374Y-1514838D02*
X27054136Y-1610076D01*
X27054136Y-1610076D02*
X27006517Y-1705314D01*
X27006517Y-1705314D02*
X26958898Y-1895790D01*
X26958898Y-1895790D02*
X26958898Y-2038647D01*
X26958898Y-2038647D02*
X27006517Y-2229123D01*
X27006517Y-2229123D02*
X27054136Y-2324361D01*
X27054136Y-2324361D02*
X27149374Y-2419600D01*
X27149374Y-2419600D02*
X27292231Y-2467219D01*
X27292231Y-2467219D02*
X27530326Y-2467219D01*
X26530326Y-2086266D02*
X25768422Y-2086266D01*
X27106517Y2485161D02*
X27201755Y2532780D01*
X27201755Y2532780D02*
X27344612Y2532780D01*
X27344612Y2532780D02*
X27487469Y2485161D01*
X27487469Y2485161D02*
X27582707Y2389923D01*
X27582707Y2389923D02*
X27630326Y2294685D01*
X27630326Y2294685D02*
X27677945Y2104209D01*
X27677945Y2104209D02*
X27677945Y1961352D01*
X27677945Y1961352D02*
X27630326Y1770876D01*
X27630326Y1770876D02*
X27582707Y1675638D01*
X27582707Y1675638D02*
X27487469Y1580400D01*
X27487469Y1580400D02*
X27344612Y1532780D01*
X27344612Y1532780D02*
X27249374Y1532780D01*
X27249374Y1532780D02*
X27106517Y1580400D01*
X27106517Y1580400D02*
X27058898Y1628019D01*
X27058898Y1628019D02*
X27058898Y1961352D01*
X27058898Y1961352D02*
X27249374Y1961352D01*
X26630326Y1532780D02*
X26630326Y2532780D01*
X26630326Y2532780D02*
X26058898Y1532780D01*
X26058898Y1532780D02*
X26058898Y2532780D01*
X25582707Y1532780D02*
X25582707Y2532780D01*
X25582707Y2532780D02*
X25344612Y2532780D01*
X25344612Y2532780D02*
X25201755Y2485161D01*
X25201755Y2485161D02*
X25106517Y2389923D01*
X25106517Y2389923D02*
X25058898Y2294685D01*
X25058898Y2294685D02*
X25011279Y2104209D01*
X25011279Y2104209D02*
X25011279Y1961352D01*
X25011279Y1961352D02*
X25058898Y1770876D01*
X25058898Y1770876D02*
X25106517Y1675638D01*
X25106517Y1675638D02*
X25201755Y1580400D01*
X25201755Y1580400D02*
X25344612Y1532780D01*
X25344612Y1532780D02*
X25582707Y1532780D01*
D11*
X12485828Y9945489D02*
X13700114Y9945489D01*
X13700114Y9945489D02*
X13842971Y9874060D01*
X13842971Y9874060D02*
X13914400Y9802632D01*
X13914400Y9802632D02*
X13985828Y9659774D01*
X13985828Y9659774D02*
X13985828Y9374060D01*
X13985828Y9374060D02*
X13914400Y9231203D01*
X13914400Y9231203D02*
X13842971Y9159774D01*
X13842971Y9159774D02*
X13700114Y9088346D01*
X13700114Y9088346D02*
X12485828Y9088346D01*
X13914400Y8445488D02*
X13985828Y8231203D01*
X13985828Y8231203D02*
X13985828Y7874060D01*
X13985828Y7874060D02*
X13914400Y7731203D01*
X13914400Y7731203D02*
X13842971Y7659774D01*
X13842971Y7659774D02*
X13700114Y7588345D01*
X13700114Y7588345D02*
X13557257Y7588345D01*
X13557257Y7588345D02*
X13414400Y7659774D01*
X13414400Y7659774D02*
X13342971Y7731203D01*
X13342971Y7731203D02*
X13271542Y7874060D01*
X13271542Y7874060D02*
X13200114Y8159774D01*
X13200114Y8159774D02*
X13128685Y8302631D01*
X13128685Y8302631D02*
X13057257Y8374060D01*
X13057257Y8374060D02*
X12914400Y8445488D01*
X12914400Y8445488D02*
X12771542Y8445488D01*
X12771542Y8445488D02*
X12628685Y8374060D01*
X12628685Y8374060D02*
X12557257Y8302631D01*
X12557257Y8302631D02*
X12485828Y8159774D01*
X12485828Y8159774D02*
X12485828Y7802631D01*
X12485828Y7802631D02*
X12557257Y7588345D01*
X13200114Y6445489D02*
X13271542Y6231203D01*
X13271542Y6231203D02*
X13342971Y6159774D01*
X13342971Y6159774D02*
X13485828Y6088346D01*
X13485828Y6088346D02*
X13700114Y6088346D01*
X13700114Y6088346D02*
X13842971Y6159774D01*
X13842971Y6159774D02*
X13914400Y6231203D01*
X13914400Y6231203D02*
X13985828Y6374060D01*
X13985828Y6374060D02*
X13985828Y6945489D01*
X13985828Y6945489D02*
X12485828Y6945489D01*
X12485828Y6945489D02*
X12485828Y6445489D01*
X12485828Y6445489D02*
X12557257Y6302632D01*
X12557257Y6302632D02*
X12628685Y6231203D01*
X12628685Y6231203D02*
X12771542Y6159774D01*
X12771542Y6159774D02*
X12914400Y6159774D01*
X12914400Y6159774D02*
X13057257Y6231203D01*
X13057257Y6231203D02*
X13128685Y6302632D01*
X13128685Y6302632D02*
X13200114Y6445489D01*
X13200114Y6445489D02*
X13200114Y6945489D01*
X13414400Y5445489D02*
X13414400Y4302632D01*
X13842971Y2731203D02*
X13914400Y2802631D01*
X13914400Y2802631D02*
X13985828Y3016917D01*
X13985828Y3016917D02*
X13985828Y3159774D01*
X13985828Y3159774D02*
X13914400Y3374060D01*
X13914400Y3374060D02*
X13771542Y3516917D01*
X13771542Y3516917D02*
X13628685Y3588346D01*
X13628685Y3588346D02*
X13342971Y3659774D01*
X13342971Y3659774D02*
X13128685Y3659774D01*
X13128685Y3659774D02*
X12842971Y3588346D01*
X12842971Y3588346D02*
X12700114Y3516917D01*
X12700114Y3516917D02*
X12557257Y3374060D01*
X12557257Y3374060D02*
X12485828Y3159774D01*
X12485828Y3159774D02*
X12485828Y3016917D01*
X12485828Y3016917D02*
X12557257Y2802631D01*
X12557257Y2802631D02*
X12628685Y2731203D01*
X13914400Y1016917D02*
X13985828Y802632D01*
X13985828Y802632D02*
X13985828Y445489D01*
X13985828Y445489D02*
X13914400Y302632D01*
X13914400Y302632D02*
X13842971Y231203D01*
X13842971Y231203D02*
X13700114Y159774D01*
X13700114Y159774D02*
X13557257Y159774D01*
X13557257Y159774D02*
X13414400Y231203D01*
X13414400Y231203D02*
X13342971Y302632D01*
X13342971Y302632D02*
X13271542Y445489D01*
X13271542Y445489D02*
X13200114Y731203D01*
X13200114Y731203D02*
X13128685Y874060D01*
X13128685Y874060D02*
X13057257Y945489D01*
X13057257Y945489D02*
X12914400Y1016917D01*
X12914400Y1016917D02*
X12771542Y1016917D01*
X12771542Y1016917D02*
X12628685Y945489D01*
X12628685Y945489D02*
X12557257Y874060D01*
X12557257Y874060D02*
X12485828Y731203D01*
X12485828Y731203D02*
X12485828Y374060D01*
X12485828Y374060D02*
X12557257Y159774D01*
X12985828Y-483081D02*
X14485828Y-483081D01*
X13057257Y-483081D02*
X12985828Y-625939D01*
X12985828Y-625939D02*
X12985828Y-911653D01*
X12985828Y-911653D02*
X13057257Y-1054510D01*
X13057257Y-1054510D02*
X13128685Y-1125939D01*
X13128685Y-1125939D02*
X13271542Y-1197367D01*
X13271542Y-1197367D02*
X13700114Y-1197367D01*
X13700114Y-1197367D02*
X13842971Y-1125939D01*
X13842971Y-1125939D02*
X13914400Y-1054510D01*
X13914400Y-1054510D02*
X13985828Y-911653D01*
X13985828Y-911653D02*
X13985828Y-625939D01*
X13985828Y-625939D02*
X13914400Y-483081D01*
X13985828Y-2054510D02*
X13914400Y-1911653D01*
X13914400Y-1911653D02*
X13771542Y-1840224D01*
X13771542Y-1840224D02*
X12485828Y-1840224D01*
X13985828Y-2625938D02*
X12985828Y-2625938D01*
X12485828Y-2625938D02*
X12557257Y-2554510D01*
X12557257Y-2554510D02*
X12628685Y-2625938D01*
X12628685Y-2625938D02*
X12557257Y-2697367D01*
X12557257Y-2697367D02*
X12485828Y-2625938D01*
X12485828Y-2625938D02*
X12628685Y-2625938D01*
X12985828Y-3125939D02*
X12985828Y-3697367D01*
X12485828Y-3340224D02*
X13771542Y-3340224D01*
X13771542Y-3340224D02*
X13914400Y-3411653D01*
X13914400Y-3411653D02*
X13985828Y-3554510D01*
X13985828Y-3554510D02*
X13985828Y-3697367D01*
X12985828Y-3983082D02*
X12985828Y-4554510D01*
X12485828Y-4197367D02*
X13771542Y-4197367D01*
X13771542Y-4197367D02*
X13914400Y-4268796D01*
X13914400Y-4268796D02*
X13985828Y-4411653D01*
X13985828Y-4411653D02*
X13985828Y-4554510D01*
X13914400Y-5625939D02*
X13985828Y-5483082D01*
X13985828Y-5483082D02*
X13985828Y-5197368D01*
X13985828Y-5197368D02*
X13914400Y-5054510D01*
X13914400Y-5054510D02*
X13771542Y-4983082D01*
X13771542Y-4983082D02*
X13200114Y-4983082D01*
X13200114Y-4983082D02*
X13057257Y-5054510D01*
X13057257Y-5054510D02*
X12985828Y-5197368D01*
X12985828Y-5197368D02*
X12985828Y-5483082D01*
X12985828Y-5483082D02*
X13057257Y-5625939D01*
X13057257Y-5625939D02*
X13200114Y-5697368D01*
X13200114Y-5697368D02*
X13342971Y-5697368D01*
X13342971Y-5697368D02*
X13485828Y-4983082D01*
X13985828Y-6340224D02*
X12985828Y-6340224D01*
X13271542Y-6340224D02*
X13128685Y-6411653D01*
X13128685Y-6411653D02*
X13057257Y-6483082D01*
X13057257Y-6483082D02*
X12985828Y-6625939D01*
X12985828Y-6625939D02*
X12985828Y-6768796D01*
X12485828Y-8197367D02*
X13985828Y-8697367D01*
X13985828Y-8697367D02*
X12485828Y-9197367D01*
X13985828Y-10483081D02*
X13985828Y-9625938D01*
X13985828Y-10054509D02*
X12485828Y-10054509D01*
X12485828Y-10054509D02*
X12700114Y-9911652D01*
X12700114Y-9911652D02*
X12842971Y-9768795D01*
X12842971Y-9768795D02*
X12914400Y-9625938D01*
X16400828Y9945489D02*
X14900828Y9945489D01*
X14900828Y9945489D02*
X14900828Y9374060D01*
X14900828Y9374060D02*
X14972257Y9231203D01*
X14972257Y9231203D02*
X15043685Y9159774D01*
X15043685Y9159774D02*
X15186542Y9088346D01*
X15186542Y9088346D02*
X15400828Y9088346D01*
X15400828Y9088346D02*
X15543685Y9159774D01*
X15543685Y9159774D02*
X15615114Y9231203D01*
X15615114Y9231203D02*
X15686542Y9374060D01*
X15686542Y9374060D02*
X15686542Y9945489D01*
X15400828Y8588346D02*
X16400828Y8231203D01*
X15400828Y7874060D02*
X16400828Y8231203D01*
X16400828Y8231203D02*
X16757971Y8374060D01*
X16757971Y8374060D02*
X16829400Y8445489D01*
X16829400Y8445489D02*
X16900828Y8588346D01*
X16400828Y7088346D02*
X16329400Y7231203D01*
X16329400Y7231203D02*
X16186542Y7302632D01*
X16186542Y7302632D02*
X14900828Y7302632D01*
X16400828Y6302632D02*
X16329400Y6445489D01*
X16329400Y6445489D02*
X16257971Y6516918D01*
X16257971Y6516918D02*
X16115114Y6588346D01*
X16115114Y6588346D02*
X15686542Y6588346D01*
X15686542Y6588346D02*
X15543685Y6516918D01*
X15543685Y6516918D02*
X15472257Y6445489D01*
X15472257Y6445489D02*
X15400828Y6302632D01*
X15400828Y6302632D02*
X15400828Y6088346D01*
X15400828Y6088346D02*
X15472257Y5945489D01*
X15472257Y5945489D02*
X15543685Y5874061D01*
X15543685Y5874061D02*
X15686542Y5802632D01*
X15686542Y5802632D02*
X16115114Y5802632D01*
X16115114Y5802632D02*
X16257971Y5874061D01*
X16257971Y5874061D02*
X16329400Y5945489D01*
X16329400Y5945489D02*
X16400828Y6088346D01*
X16400828Y6088346D02*
X16400828Y6302632D01*
X15400828Y5159775D02*
X16400828Y5159775D01*
X15543685Y5159775D02*
X15472257Y5088346D01*
X15472257Y5088346D02*
X15400828Y4945489D01*
X15400828Y4945489D02*
X15400828Y4731203D01*
X15400828Y4731203D02*
X15472257Y4588346D01*
X15472257Y4588346D02*
X15615114Y4516918D01*
X15615114Y4516918D02*
X16400828Y4516918D01*
X15615114Y2159775D02*
X15615114Y2659775D01*
X16400828Y2659775D02*
X14900828Y2659775D01*
X14900828Y2659775D02*
X14900828Y1945489D01*
X16329400Y802632D02*
X16400828Y945489D01*
X16400828Y945489D02*
X16400828Y1231204D01*
X16400828Y1231204D02*
X16329400Y1374061D01*
X16329400Y1374061D02*
X16186542Y1445489D01*
X16186542Y1445489D02*
X15615114Y1445489D01*
X15615114Y1445489D02*
X15472257Y1374061D01*
X15472257Y1374061D02*
X15400828Y1231204D01*
X15400828Y1231204D02*
X15400828Y945489D01*
X15400828Y945489D02*
X15472257Y802632D01*
X15472257Y802632D02*
X15615114Y731204D01*
X15615114Y731204D02*
X15757971Y731204D01*
X15757971Y731204D02*
X15900828Y1445489D01*
X16400828Y88347D02*
X14900828Y88347D01*
X15472257Y88347D02*
X15400828Y-54510D01*
X15400828Y-54510D02*
X15400828Y-340224D01*
X15400828Y-340224D02*
X15472257Y-483081D01*
X15472257Y-483081D02*
X15543685Y-554510D01*
X15543685Y-554510D02*
X15686542Y-625938D01*
X15686542Y-625938D02*
X16115114Y-625938D01*
X16115114Y-625938D02*
X16257971Y-554510D01*
X16257971Y-554510D02*
X16329400Y-483081D01*
X16329400Y-483081D02*
X16400828Y-340224D01*
X16400828Y-340224D02*
X16400828Y-54510D01*
X16400828Y-54510D02*
X16329400Y88347D01*
X16400828Y-3197367D02*
X16400828Y-2340224D01*
X16400828Y-2768795D02*
X14900828Y-2768795D01*
X14900828Y-2768795D02*
X15115114Y-2625938D01*
X15115114Y-2625938D02*
X15257971Y-2483081D01*
X15257971Y-2483081D02*
X15329400Y-2340224D01*
X15400828Y-4483081D02*
X16400828Y-4483081D01*
X14829400Y-4125938D02*
X15900828Y-3768795D01*
X15900828Y-3768795D02*
X15900828Y-4697366D01*
X15043685Y-6340223D02*
X14972257Y-6411651D01*
X14972257Y-6411651D02*
X14900828Y-6554509D01*
X14900828Y-6554509D02*
X14900828Y-6911651D01*
X14900828Y-6911651D02*
X14972257Y-7054509D01*
X14972257Y-7054509D02*
X15043685Y-7125937D01*
X15043685Y-7125937D02*
X15186542Y-7197366D01*
X15186542Y-7197366D02*
X15329400Y-7197366D01*
X15329400Y-7197366D02*
X15543685Y-7125937D01*
X15543685Y-7125937D02*
X16400828Y-6268794D01*
X16400828Y-6268794D02*
X16400828Y-7197366D01*
X15400828Y-8483080D02*
X16400828Y-8483080D01*
X14829400Y-8125937D02*
X15900828Y-7768794D01*
X15900828Y-7768794D02*
X15900828Y-8697365D01*
D10*
X27677945Y3580400D02*
X27535088Y3532780D01*
X27535088Y3532780D02*
X27296993Y3532780D01*
X27296993Y3532780D02*
X27201755Y3580400D01*
X27201755Y3580400D02*
X27154136Y3628019D01*
X27154136Y3628019D02*
X27106517Y3723257D01*
X27106517Y3723257D02*
X27106517Y3818495D01*
X27106517Y3818495D02*
X27154136Y3913733D01*
X27154136Y3913733D02*
X27201755Y3961352D01*
X27201755Y3961352D02*
X27296993Y4008971D01*
X27296993Y4008971D02*
X27487469Y4056590D01*
X27487469Y4056590D02*
X27582707Y4104209D01*
X27582707Y4104209D02*
X27630326Y4151828D01*
X27630326Y4151828D02*
X27677945Y4247066D01*
X27677945Y4247066D02*
X27677945Y4342304D01*
X27677945Y4342304D02*
X27630326Y4437542D01*
X27630326Y4437542D02*
X27582707Y4485161D01*
X27582707Y4485161D02*
X27487469Y4532780D01*
X27487469Y4532780D02*
X27249374Y4532780D01*
X27249374Y4532780D02*
X27106517Y4485161D01*
X26677945Y3532780D02*
X26677945Y4532780D01*
X26677945Y4056590D02*
X26106517Y4056590D01*
X26106517Y3532780D02*
X26106517Y4532780D01*
X25630326Y3532780D02*
X25630326Y4532780D01*
X25154136Y4056590D02*
X24820803Y4056590D01*
X24677946Y3532780D02*
X25154136Y3532780D01*
X25154136Y3532780D02*
X25154136Y4532780D01*
X25154136Y4532780D02*
X24677946Y4532780D01*
X23773184Y3532780D02*
X24249374Y3532780D01*
X24249374Y3532780D02*
X24249374Y4532780D01*
X23439850Y3532780D02*
X23439850Y4532780D01*
X23439850Y4532780D02*
X23201755Y4532780D01*
X23201755Y4532780D02*
X23058898Y4485161D01*
X23058898Y4485161D02*
X22963660Y4389923D01*
X22963660Y4389923D02*
X22916041Y4294685D01*
X22916041Y4294685D02*
X22868422Y4104209D01*
X22868422Y4104209D02*
X22868422Y3961352D01*
X22868422Y3961352D02*
X22916041Y3770876D01*
X22916041Y3770876D02*
X22963660Y3675638D01*
X22963660Y3675638D02*
X23058898Y3580400D01*
X23058898Y3580400D02*
X23201755Y3532780D01*
X23201755Y3532780D02*
X23439850Y3532780D01*
M02*
