%TF.GenerationSoftware,KiCad,Pcbnew,7.0.10*%
%TF.CreationDate,2024-02-15T01:27:53-05:00*%
%TF.ProjectId,USB-C-3-way-splitter,5553422d-432d-4332-9d77-61792d73706c,rev?*%
%TF.SameCoordinates,Original*%
%TF.FileFunction,Legend,Top*%
%TF.FilePolarity,Positive*%
%FSLAX46Y46*%
G04 Gerber Fmt 4.6, Leading zero omitted, Abs format (unit mm)*
G04 Created by KiCad (PCBNEW 7.0.10) date 2024-02-15 01:27:53*
%MOMM*%
%LPD*%
G01*
G04 APERTURE LIST*
%ADD10C,0.150000*%
%ADD11C,0.120000*%
G04 APERTURE END LIST*
D10*
X12700000Y-4300000D02*
G75*
G03*
X12300000Y-4300000I-200000J0D01*
G01*
X12300000Y-4300000D02*
G75*
G03*
X12700000Y-4300000I200000J0D01*
G01*
X19204951Y4050000D02*
G75*
G03*
X18695049Y4050000I-254951J0D01*
G01*
X18695049Y4050000D02*
G75*
G03*
X19204951Y4050000I254951J0D01*
G01*
X16333333Y11995180D02*
X16000000Y12471371D01*
X15761905Y11995180D02*
X15761905Y12995180D01*
X15761905Y12995180D02*
X16142857Y12995180D01*
X16142857Y12995180D02*
X16238095Y12947561D01*
X16238095Y12947561D02*
X16285714Y12899942D01*
X16285714Y12899942D02*
X16333333Y12804704D01*
X16333333Y12804704D02*
X16333333Y12661847D01*
X16333333Y12661847D02*
X16285714Y12566609D01*
X16285714Y12566609D02*
X16238095Y12518990D01*
X16238095Y12518990D02*
X16142857Y12471371D01*
X16142857Y12471371D02*
X15761905Y12471371D01*
X16666667Y12995180D02*
X17333333Y12995180D01*
X17333333Y12995180D02*
X16904762Y11995180D01*
X20733333Y-1459580D02*
X20685714Y-1507200D01*
X20685714Y-1507200D02*
X20542857Y-1554819D01*
X20542857Y-1554819D02*
X20447619Y-1554819D01*
X20447619Y-1554819D02*
X20304762Y-1507200D01*
X20304762Y-1507200D02*
X20209524Y-1411961D01*
X20209524Y-1411961D02*
X20161905Y-1316723D01*
X20161905Y-1316723D02*
X20114286Y-1126247D01*
X20114286Y-1126247D02*
X20114286Y-983390D01*
X20114286Y-983390D02*
X20161905Y-792914D01*
X20161905Y-792914D02*
X20209524Y-697676D01*
X20209524Y-697676D02*
X20304762Y-602438D01*
X20304762Y-602438D02*
X20447619Y-554819D01*
X20447619Y-554819D02*
X20542857Y-554819D01*
X20542857Y-554819D02*
X20685714Y-602438D01*
X20685714Y-602438D02*
X20733333Y-650057D01*
X21638095Y-554819D02*
X21161905Y-554819D01*
X21161905Y-554819D02*
X21114286Y-1031009D01*
X21114286Y-1031009D02*
X21161905Y-983390D01*
X21161905Y-983390D02*
X21257143Y-935771D01*
X21257143Y-935771D02*
X21495238Y-935771D01*
X21495238Y-935771D02*
X21590476Y-983390D01*
X21590476Y-983390D02*
X21638095Y-1031009D01*
X21638095Y-1031009D02*
X21685714Y-1126247D01*
X21685714Y-1126247D02*
X21685714Y-1364342D01*
X21685714Y-1364342D02*
X21638095Y-1459580D01*
X21638095Y-1459580D02*
X21590476Y-1507200D01*
X21590476Y-1507200D02*
X21495238Y-1554819D01*
X21495238Y-1554819D02*
X21257143Y-1554819D01*
X21257143Y-1554819D02*
X21161905Y-1507200D01*
X21161905Y-1507200D02*
X21114286Y-1459580D01*
X24604819Y-13433333D02*
X25319104Y-13433333D01*
X25319104Y-13433333D02*
X25461961Y-13480952D01*
X25461961Y-13480952D02*
X25557200Y-13576190D01*
X25557200Y-13576190D02*
X25604819Y-13719047D01*
X25604819Y-13719047D02*
X25604819Y-13814285D01*
X24700057Y-13004761D02*
X24652438Y-12957142D01*
X24652438Y-12957142D02*
X24604819Y-12861904D01*
X24604819Y-12861904D02*
X24604819Y-12623809D01*
X24604819Y-12623809D02*
X24652438Y-12528571D01*
X24652438Y-12528571D02*
X24700057Y-12480952D01*
X24700057Y-12480952D02*
X24795295Y-12433333D01*
X24795295Y-12433333D02*
X24890533Y-12433333D01*
X24890533Y-12433333D02*
X25033390Y-12480952D01*
X25033390Y-12480952D02*
X25604819Y-13052380D01*
X25604819Y-13052380D02*
X25604819Y-12433333D01*
X24654819Y9766666D02*
X25369104Y9766666D01*
X25369104Y9766666D02*
X25511961Y9719047D01*
X25511961Y9719047D02*
X25607200Y9623809D01*
X25607200Y9623809D02*
X25654819Y9480952D01*
X25654819Y9480952D02*
X25654819Y9385714D01*
X24988152Y10671428D02*
X25654819Y10671428D01*
X24607200Y10433333D02*
X25321485Y10195238D01*
X25321485Y10195238D02*
X25321485Y10814285D01*
X22304819Y533333D02*
X21828628Y200000D01*
X22304819Y-38094D02*
X21304819Y-38094D01*
X21304819Y-38094D02*
X21304819Y342857D01*
X21304819Y342857D02*
X21352438Y438095D01*
X21352438Y438095D02*
X21400057Y485714D01*
X21400057Y485714D02*
X21495295Y533333D01*
X21495295Y533333D02*
X21638152Y533333D01*
X21638152Y533333D02*
X21733390Y485714D01*
X21733390Y485714D02*
X21781009Y438095D01*
X21781009Y438095D02*
X21828628Y342857D01*
X21828628Y342857D02*
X21828628Y-38094D01*
X21304819Y1438095D02*
X21304819Y961905D01*
X21304819Y961905D02*
X21781009Y914286D01*
X21781009Y914286D02*
X21733390Y961905D01*
X21733390Y961905D02*
X21685771Y1057143D01*
X21685771Y1057143D02*
X21685771Y1295238D01*
X21685771Y1295238D02*
X21733390Y1390476D01*
X21733390Y1390476D02*
X21781009Y1438095D01*
X21781009Y1438095D02*
X21876247Y1485714D01*
X21876247Y1485714D02*
X22114342Y1485714D01*
X22114342Y1485714D02*
X22209580Y1438095D01*
X22209580Y1438095D02*
X22257200Y1390476D01*
X22257200Y1390476D02*
X22304819Y1295238D01*
X22304819Y1295238D02*
X22304819Y1057143D01*
X22304819Y1057143D02*
X22257200Y961905D01*
X22257200Y961905D02*
X22209580Y914286D01*
X25159580Y3983333D02*
X25207200Y3935714D01*
X25207200Y3935714D02*
X25254819Y3792857D01*
X25254819Y3792857D02*
X25254819Y3697619D01*
X25254819Y3697619D02*
X25207200Y3554762D01*
X25207200Y3554762D02*
X25111961Y3459524D01*
X25111961Y3459524D02*
X25016723Y3411905D01*
X25016723Y3411905D02*
X24826247Y3364286D01*
X24826247Y3364286D02*
X24683390Y3364286D01*
X24683390Y3364286D02*
X24492914Y3411905D01*
X24492914Y3411905D02*
X24397676Y3459524D01*
X24397676Y3459524D02*
X24302438Y3554762D01*
X24302438Y3554762D02*
X24254819Y3697619D01*
X24254819Y3697619D02*
X24254819Y3792857D01*
X24254819Y3792857D02*
X24302438Y3935714D01*
X24302438Y3935714D02*
X24350057Y3983333D01*
X24350057Y4364286D02*
X24302438Y4411905D01*
X24302438Y4411905D02*
X24254819Y4507143D01*
X24254819Y4507143D02*
X24254819Y4745238D01*
X24254819Y4745238D02*
X24302438Y4840476D01*
X24302438Y4840476D02*
X24350057Y4888095D01*
X24350057Y4888095D02*
X24445295Y4935714D01*
X24445295Y4935714D02*
X24540533Y4935714D01*
X24540533Y4935714D02*
X24683390Y4888095D01*
X24683390Y4888095D02*
X25254819Y4316667D01*
X25254819Y4316667D02*
X25254819Y4935714D01*
X8254819Y-2638094D02*
X7254819Y-2638094D01*
X7254819Y-2638094D02*
X7254819Y-2399999D01*
X7254819Y-2399999D02*
X7302438Y-2257142D01*
X7302438Y-2257142D02*
X7397676Y-2161904D01*
X7397676Y-2161904D02*
X7492914Y-2114285D01*
X7492914Y-2114285D02*
X7683390Y-2066666D01*
X7683390Y-2066666D02*
X7826247Y-2066666D01*
X7826247Y-2066666D02*
X8016723Y-2114285D01*
X8016723Y-2114285D02*
X8111961Y-2161904D01*
X8111961Y-2161904D02*
X8207200Y-2257142D01*
X8207200Y-2257142D02*
X8254819Y-2399999D01*
X8254819Y-2399999D02*
X8254819Y-2638094D01*
X7350057Y-1685713D02*
X7302438Y-1638094D01*
X7302438Y-1638094D02*
X7254819Y-1542856D01*
X7254819Y-1542856D02*
X7254819Y-1304761D01*
X7254819Y-1304761D02*
X7302438Y-1209523D01*
X7302438Y-1209523D02*
X7350057Y-1161904D01*
X7350057Y-1161904D02*
X7445295Y-1114285D01*
X7445295Y-1114285D02*
X7540533Y-1114285D01*
X7540533Y-1114285D02*
X7683390Y-1161904D01*
X7683390Y-1161904D02*
X8254819Y-1733332D01*
X8254819Y-1733332D02*
X8254819Y-1114285D01*
X7454819Y33333D02*
X6978628Y-299999D01*
X7454819Y-538094D02*
X6454819Y-538094D01*
X6454819Y-538094D02*
X6454819Y-157142D01*
X6454819Y-157142D02*
X6502438Y-61904D01*
X6502438Y-61904D02*
X6550057Y-14285D01*
X6550057Y-14285D02*
X6645295Y33333D01*
X6645295Y33333D02*
X6788152Y33333D01*
X6788152Y33333D02*
X6883390Y-14285D01*
X6883390Y-14285D02*
X6931009Y-61904D01*
X6931009Y-61904D02*
X6978628Y-157142D01*
X6978628Y-157142D02*
X6978628Y-538094D01*
X6788152Y890476D02*
X7454819Y890476D01*
X6407200Y652381D02*
X7121485Y414286D01*
X7121485Y414286D02*
X7121485Y1033333D01*
X11988095Y-8604819D02*
X11988095Y-9414342D01*
X11988095Y-9414342D02*
X12035714Y-9509580D01*
X12035714Y-9509580D02*
X12083333Y-9557200D01*
X12083333Y-9557200D02*
X12178571Y-9604819D01*
X12178571Y-9604819D02*
X12369047Y-9604819D01*
X12369047Y-9604819D02*
X12464285Y-9557200D01*
X12464285Y-9557200D02*
X12511904Y-9509580D01*
X12511904Y-9509580D02*
X12559523Y-9414342D01*
X12559523Y-9414342D02*
X12559523Y-8604819D01*
X13559523Y-9604819D02*
X12988095Y-9604819D01*
X13273809Y-9604819D02*
X13273809Y-8604819D01*
X13273809Y-8604819D02*
X13178571Y-8747676D01*
X13178571Y-8747676D02*
X13083333Y-8842914D01*
X13083333Y-8842914D02*
X12988095Y-8890533D01*
X17261905Y1245180D02*
X17261905Y2245180D01*
X17261905Y2245180D02*
X17500000Y2245180D01*
X17500000Y2245180D02*
X17642857Y2197561D01*
X17642857Y2197561D02*
X17738095Y2102323D01*
X17738095Y2102323D02*
X17785714Y2007085D01*
X17785714Y2007085D02*
X17833333Y1816609D01*
X17833333Y1816609D02*
X17833333Y1673752D01*
X17833333Y1673752D02*
X17785714Y1483276D01*
X17785714Y1483276D02*
X17738095Y1388038D01*
X17738095Y1388038D02*
X17642857Y1292800D01*
X17642857Y1292800D02*
X17500000Y1245180D01*
X17500000Y1245180D02*
X17261905Y1245180D01*
X18166667Y2245180D02*
X18785714Y2245180D01*
X18785714Y2245180D02*
X18452381Y1864228D01*
X18452381Y1864228D02*
X18595238Y1864228D01*
X18595238Y1864228D02*
X18690476Y1816609D01*
X18690476Y1816609D02*
X18738095Y1768990D01*
X18738095Y1768990D02*
X18785714Y1673752D01*
X18785714Y1673752D02*
X18785714Y1435657D01*
X18785714Y1435657D02*
X18738095Y1340419D01*
X18738095Y1340419D02*
X18690476Y1292800D01*
X18690476Y1292800D02*
X18595238Y1245180D01*
X18595238Y1245180D02*
X18309524Y1245180D01*
X18309524Y1245180D02*
X18214286Y1292800D01*
X18214286Y1292800D02*
X18166667Y1340419D01*
X24009580Y-6266666D02*
X24057200Y-6314285D01*
X24057200Y-6314285D02*
X24104819Y-6457142D01*
X24104819Y-6457142D02*
X24104819Y-6552380D01*
X24104819Y-6552380D02*
X24057200Y-6695237D01*
X24057200Y-6695237D02*
X23961961Y-6790475D01*
X23961961Y-6790475D02*
X23866723Y-6838094D01*
X23866723Y-6838094D02*
X23676247Y-6885713D01*
X23676247Y-6885713D02*
X23533390Y-6885713D01*
X23533390Y-6885713D02*
X23342914Y-6838094D01*
X23342914Y-6838094D02*
X23247676Y-6790475D01*
X23247676Y-6790475D02*
X23152438Y-6695237D01*
X23152438Y-6695237D02*
X23104819Y-6552380D01*
X23104819Y-6552380D02*
X23104819Y-6457142D01*
X23104819Y-6457142D02*
X23152438Y-6314285D01*
X23152438Y-6314285D02*
X23200057Y-6266666D01*
X23438152Y-5409523D02*
X24104819Y-5409523D01*
X23057200Y-5647618D02*
X23771485Y-5885713D01*
X23771485Y-5885713D02*
X23771485Y-5266666D01*
X18438095Y7945180D02*
X18438095Y7135657D01*
X18438095Y7135657D02*
X18485714Y7040419D01*
X18485714Y7040419D02*
X18533333Y6992800D01*
X18533333Y6992800D02*
X18628571Y6945180D01*
X18628571Y6945180D02*
X18819047Y6945180D01*
X18819047Y6945180D02*
X18914285Y6992800D01*
X18914285Y6992800D02*
X18961904Y7040419D01*
X18961904Y7040419D02*
X19009523Y7135657D01*
X19009523Y7135657D02*
X19009523Y7945180D01*
X19438095Y7849942D02*
X19485714Y7897561D01*
X19485714Y7897561D02*
X19580952Y7945180D01*
X19580952Y7945180D02*
X19819047Y7945180D01*
X19819047Y7945180D02*
X19914285Y7897561D01*
X19914285Y7897561D02*
X19961904Y7849942D01*
X19961904Y7849942D02*
X20009523Y7754704D01*
X20009523Y7754704D02*
X20009523Y7659466D01*
X20009523Y7659466D02*
X19961904Y7516609D01*
X19961904Y7516609D02*
X19390476Y6945180D01*
X19390476Y6945180D02*
X20009523Y6945180D01*
X15383333Y-11604819D02*
X15050000Y-11128628D01*
X14811905Y-11604819D02*
X14811905Y-10604819D01*
X14811905Y-10604819D02*
X15192857Y-10604819D01*
X15192857Y-10604819D02*
X15288095Y-10652438D01*
X15288095Y-10652438D02*
X15335714Y-10700057D01*
X15335714Y-10700057D02*
X15383333Y-10795295D01*
X15383333Y-10795295D02*
X15383333Y-10938152D01*
X15383333Y-10938152D02*
X15335714Y-11033390D01*
X15335714Y-11033390D02*
X15288095Y-11081009D01*
X15288095Y-11081009D02*
X15192857Y-11128628D01*
X15192857Y-11128628D02*
X14811905Y-11128628D01*
X15764286Y-10700057D02*
X15811905Y-10652438D01*
X15811905Y-10652438D02*
X15907143Y-10604819D01*
X15907143Y-10604819D02*
X16145238Y-10604819D01*
X16145238Y-10604819D02*
X16240476Y-10652438D01*
X16240476Y-10652438D02*
X16288095Y-10700057D01*
X16288095Y-10700057D02*
X16335714Y-10795295D01*
X16335714Y-10795295D02*
X16335714Y-10890533D01*
X16335714Y-10890533D02*
X16288095Y-11033390D01*
X16288095Y-11033390D02*
X15716667Y-11604819D01*
X15716667Y-11604819D02*
X16335714Y-11604819D01*
X13033333Y10040419D02*
X12985714Y9992800D01*
X12985714Y9992800D02*
X12842857Y9945180D01*
X12842857Y9945180D02*
X12747619Y9945180D01*
X12747619Y9945180D02*
X12604762Y9992800D01*
X12604762Y9992800D02*
X12509524Y10088038D01*
X12509524Y10088038D02*
X12461905Y10183276D01*
X12461905Y10183276D02*
X12414286Y10373752D01*
X12414286Y10373752D02*
X12414286Y10516609D01*
X12414286Y10516609D02*
X12461905Y10707085D01*
X12461905Y10707085D02*
X12509524Y10802323D01*
X12509524Y10802323D02*
X12604762Y10897561D01*
X12604762Y10897561D02*
X12747619Y10945180D01*
X12747619Y10945180D02*
X12842857Y10945180D01*
X12842857Y10945180D02*
X12985714Y10897561D01*
X12985714Y10897561D02*
X13033333Y10849942D01*
X13366667Y10945180D02*
X13985714Y10945180D01*
X13985714Y10945180D02*
X13652381Y10564228D01*
X13652381Y10564228D02*
X13795238Y10564228D01*
X13795238Y10564228D02*
X13890476Y10516609D01*
X13890476Y10516609D02*
X13938095Y10468990D01*
X13938095Y10468990D02*
X13985714Y10373752D01*
X13985714Y10373752D02*
X13985714Y10135657D01*
X13985714Y10135657D02*
X13938095Y10040419D01*
X13938095Y10040419D02*
X13890476Y9992800D01*
X13890476Y9992800D02*
X13795238Y9945180D01*
X13795238Y9945180D02*
X13509524Y9945180D01*
X13509524Y9945180D02*
X13414286Y9992800D01*
X13414286Y9992800D02*
X13366667Y10040419D01*
X24654819Y-2533333D02*
X25369104Y-2533333D01*
X25369104Y-2533333D02*
X25511961Y-2580952D01*
X25511961Y-2580952D02*
X25607200Y-2676190D01*
X25607200Y-2676190D02*
X25654819Y-2819047D01*
X25654819Y-2819047D02*
X25654819Y-2914285D01*
X24654819Y-2152380D02*
X24654819Y-1533333D01*
X24654819Y-1533333D02*
X25035771Y-1866666D01*
X25035771Y-1866666D02*
X25035771Y-1723809D01*
X25035771Y-1723809D02*
X25083390Y-1628571D01*
X25083390Y-1628571D02*
X25131009Y-1580952D01*
X25131009Y-1580952D02*
X25226247Y-1533333D01*
X25226247Y-1533333D02*
X25464342Y-1533333D01*
X25464342Y-1533333D02*
X25559580Y-1580952D01*
X25559580Y-1580952D02*
X25607200Y-1628571D01*
X25607200Y-1628571D02*
X25654819Y-1723809D01*
X25654819Y-1723809D02*
X25654819Y-2009523D01*
X25654819Y-2009523D02*
X25607200Y-2104761D01*
X25607200Y-2104761D02*
X25559580Y-2152380D01*
X16533333Y-2354819D02*
X16200000Y-1878628D01*
X15961905Y-2354819D02*
X15961905Y-1354819D01*
X15961905Y-1354819D02*
X16342857Y-1354819D01*
X16342857Y-1354819D02*
X16438095Y-1402438D01*
X16438095Y-1402438D02*
X16485714Y-1450057D01*
X16485714Y-1450057D02*
X16533333Y-1545295D01*
X16533333Y-1545295D02*
X16533333Y-1688152D01*
X16533333Y-1688152D02*
X16485714Y-1783390D01*
X16485714Y-1783390D02*
X16438095Y-1831009D01*
X16438095Y-1831009D02*
X16342857Y-1878628D01*
X16342857Y-1878628D02*
X15961905Y-1878628D01*
X16866667Y-1354819D02*
X17485714Y-1354819D01*
X17485714Y-1354819D02*
X17152381Y-1735771D01*
X17152381Y-1735771D02*
X17295238Y-1735771D01*
X17295238Y-1735771D02*
X17390476Y-1783390D01*
X17390476Y-1783390D02*
X17438095Y-1831009D01*
X17438095Y-1831009D02*
X17485714Y-1926247D01*
X17485714Y-1926247D02*
X17485714Y-2164342D01*
X17485714Y-2164342D02*
X17438095Y-2259580D01*
X17438095Y-2259580D02*
X17390476Y-2307200D01*
X17390476Y-2307200D02*
X17295238Y-2354819D01*
X17295238Y-2354819D02*
X17009524Y-2354819D01*
X17009524Y-2354819D02*
X16914286Y-2307200D01*
X16914286Y-2307200D02*
X16866667Y-2259580D01*
X13379580Y5983333D02*
X13427200Y5935714D01*
X13427200Y5935714D02*
X13474819Y5792857D01*
X13474819Y5792857D02*
X13474819Y5697619D01*
X13474819Y5697619D02*
X13427200Y5554762D01*
X13427200Y5554762D02*
X13331961Y5459524D01*
X13331961Y5459524D02*
X13236723Y5411905D01*
X13236723Y5411905D02*
X13046247Y5364286D01*
X13046247Y5364286D02*
X12903390Y5364286D01*
X12903390Y5364286D02*
X12712914Y5411905D01*
X12712914Y5411905D02*
X12617676Y5459524D01*
X12617676Y5459524D02*
X12522438Y5554762D01*
X12522438Y5554762D02*
X12474819Y5697619D01*
X12474819Y5697619D02*
X12474819Y5792857D01*
X12474819Y5792857D02*
X12522438Y5935714D01*
X12522438Y5935714D02*
X12570057Y5983333D01*
X13474819Y6935714D02*
X13474819Y6364286D01*
X13474819Y6650000D02*
X12474819Y6650000D01*
X12474819Y6650000D02*
X12617676Y6554762D01*
X12617676Y6554762D02*
X12712914Y6459524D01*
X12712914Y6459524D02*
X12760533Y6364286D01*
X14333333Y1395180D02*
X14000000Y1871371D01*
X13761905Y1395180D02*
X13761905Y2395180D01*
X13761905Y2395180D02*
X14142857Y2395180D01*
X14142857Y2395180D02*
X14238095Y2347561D01*
X14238095Y2347561D02*
X14285714Y2299942D01*
X14285714Y2299942D02*
X14333333Y2204704D01*
X14333333Y2204704D02*
X14333333Y2061847D01*
X14333333Y2061847D02*
X14285714Y1966609D01*
X14285714Y1966609D02*
X14238095Y1918990D01*
X14238095Y1918990D02*
X14142857Y1871371D01*
X14142857Y1871371D02*
X13761905Y1871371D01*
X15190476Y2395180D02*
X15000000Y2395180D01*
X15000000Y2395180D02*
X14904762Y2347561D01*
X14904762Y2347561D02*
X14857143Y2299942D01*
X14857143Y2299942D02*
X14761905Y2157085D01*
X14761905Y2157085D02*
X14714286Y1966609D01*
X14714286Y1966609D02*
X14714286Y1585657D01*
X14714286Y1585657D02*
X14761905Y1490419D01*
X14761905Y1490419D02*
X14809524Y1442800D01*
X14809524Y1442800D02*
X14904762Y1395180D01*
X14904762Y1395180D02*
X15095238Y1395180D01*
X15095238Y1395180D02*
X15190476Y1442800D01*
X15190476Y1442800D02*
X15238095Y1490419D01*
X15238095Y1490419D02*
X15285714Y1585657D01*
X15285714Y1585657D02*
X15285714Y1823752D01*
X15285714Y1823752D02*
X15238095Y1918990D01*
X15238095Y1918990D02*
X15190476Y1966609D01*
X15190476Y1966609D02*
X15095238Y2014228D01*
X15095238Y2014228D02*
X14904762Y2014228D01*
X14904762Y2014228D02*
X14809524Y1966609D01*
X14809524Y1966609D02*
X14761905Y1918990D01*
X14761905Y1918990D02*
X14714286Y1823752D01*
X10066666Y6018990D02*
X9733333Y6018990D01*
X9733333Y5495180D02*
X9733333Y6495180D01*
X9733333Y6495180D02*
X10209523Y6495180D01*
X11114285Y5495180D02*
X10542857Y5495180D01*
X10828571Y5495180D02*
X10828571Y6495180D01*
X10828571Y6495180D02*
X10733333Y6352323D01*
X10733333Y6352323D02*
X10638095Y6257085D01*
X10638095Y6257085D02*
X10542857Y6209466D01*
X8833333Y-7954819D02*
X8500000Y-7478628D01*
X8261905Y-7954819D02*
X8261905Y-6954819D01*
X8261905Y-6954819D02*
X8642857Y-6954819D01*
X8642857Y-6954819D02*
X8738095Y-7002438D01*
X8738095Y-7002438D02*
X8785714Y-7050057D01*
X8785714Y-7050057D02*
X8833333Y-7145295D01*
X8833333Y-7145295D02*
X8833333Y-7288152D01*
X8833333Y-7288152D02*
X8785714Y-7383390D01*
X8785714Y-7383390D02*
X8738095Y-7431009D01*
X8738095Y-7431009D02*
X8642857Y-7478628D01*
X8642857Y-7478628D02*
X8261905Y-7478628D01*
X9785714Y-7954819D02*
X9214286Y-7954819D01*
X9500000Y-7954819D02*
X9500000Y-6954819D01*
X9500000Y-6954819D02*
X9404762Y-7097676D01*
X9404762Y-7097676D02*
X9309524Y-7192914D01*
X9309524Y-7192914D02*
X9214286Y-7240533D01*
X19861905Y-9404819D02*
X19861905Y-8404819D01*
X19861905Y-8404819D02*
X20100000Y-8404819D01*
X20100000Y-8404819D02*
X20242857Y-8452438D01*
X20242857Y-8452438D02*
X20338095Y-8547676D01*
X20338095Y-8547676D02*
X20385714Y-8642914D01*
X20385714Y-8642914D02*
X20433333Y-8833390D01*
X20433333Y-8833390D02*
X20433333Y-8976247D01*
X20433333Y-8976247D02*
X20385714Y-9166723D01*
X20385714Y-9166723D02*
X20338095Y-9261961D01*
X20338095Y-9261961D02*
X20242857Y-9357200D01*
X20242857Y-9357200D02*
X20100000Y-9404819D01*
X20100000Y-9404819D02*
X19861905Y-9404819D01*
X21385714Y-9404819D02*
X20814286Y-9404819D01*
X21100000Y-9404819D02*
X21100000Y-8404819D01*
X21100000Y-8404819D02*
X21004762Y-8547676D01*
X21004762Y-8547676D02*
X20909524Y-8642914D01*
X20909524Y-8642914D02*
X20814286Y-8690533D01*
D11*
%TO.C,R7*%
X16702064Y11560000D02*
X16247936Y11560000D01*
X16702064Y10090000D02*
X16247936Y10090000D01*
%TO.C,C5*%
X20165000Y-3861252D02*
X20165000Y-3338748D01*
X21635000Y-3861252D02*
X21635000Y-3338748D01*
%TO.C,J2*%
X25940000Y-14000000D02*
X25940000Y-5940000D01*
X28060000Y-5940000D02*
X25940000Y-5940000D01*
X28060000Y-14000000D02*
X25940000Y-14000000D01*
X28060000Y-14000000D02*
X28060000Y-5940000D01*
X28060000Y-15000000D02*
X28060000Y-16060000D01*
X28060000Y-16060000D02*
X27000000Y-16060000D01*
%TO.C,J4*%
X25940000Y8000000D02*
X25940000Y16060000D01*
X28060000Y16060000D02*
X25940000Y16060000D01*
X28060000Y8000000D02*
X25940000Y8000000D01*
X28060000Y8000000D02*
X28060000Y16060000D01*
X28060000Y7000000D02*
X28060000Y5940000D01*
X28060000Y5940000D02*
X27000000Y5940000D01*
%TO.C,R5*%
X20935000Y1527064D02*
X20935000Y1072936D01*
X19465000Y1527064D02*
X19465000Y1072936D01*
%TO.C,C2*%
X23735000Y3761252D02*
X23735000Y3238748D01*
X22265000Y3761252D02*
X22265000Y3238748D01*
%TO.C,D2*%
X8540000Y-940000D02*
X8540000Y-2860000D01*
X8540000Y-2860000D02*
X11400000Y-2860000D01*
X11400000Y-940000D02*
X8540000Y-940000D01*
%TO.C,R4*%
X9172936Y935000D02*
X9627064Y935000D01*
X9172936Y-535000D02*
X9627064Y-535000D01*
%TO.C,U1*%
X13800000Y-3145000D02*
X10350000Y-3145000D01*
X13800000Y-3145000D02*
X15750000Y-3145000D01*
X13800000Y-8265000D02*
X11850000Y-8265000D01*
X13800000Y-8265000D02*
X15750000Y-8265000D01*
%TO.C,D3*%
X15440000Y860000D02*
X15440000Y-1060000D01*
X15440000Y-1060000D02*
X18300000Y-1060000D01*
X18300000Y860000D02*
X15440000Y860000D01*
%TO.C,C4*%
X22290000Y-3311252D02*
X22290000Y-1888748D01*
X24110000Y-3311252D02*
X24110000Y-1888748D01*
%TO.C,U2*%
X19780000Y6560000D02*
X18020000Y6560000D01*
X18020000Y3490000D02*
X20450000Y3490000D01*
%TO.C,R2*%
X15772936Y-8765000D02*
X16227064Y-8765000D01*
X15772936Y-10235000D02*
X16227064Y-10235000D01*
%TO.C,C3*%
X13488748Y9410000D02*
X14911252Y9410000D01*
X13488748Y7590000D02*
X14911252Y7590000D01*
%TO.C,J3*%
X25940000Y-3000000D02*
X25940000Y5060000D01*
X28060000Y5060000D02*
X25940000Y5060000D01*
X28060000Y-3000000D02*
X25940000Y-3000000D01*
X28060000Y-3000000D02*
X28060000Y5060000D01*
X28060000Y-4000000D02*
X28060000Y-5060000D01*
X28060000Y-5060000D02*
X27000000Y-5060000D01*
%TO.C,R3*%
X19435000Y-3372936D02*
X19435000Y-3827064D01*
X17965000Y-3372936D02*
X17965000Y-3827064D01*
%TO.C,C1*%
X13965000Y4938748D02*
X13965000Y5461252D01*
X15435000Y4938748D02*
X15435000Y5461252D01*
%TO.C,J1*%
X-1100000Y-4700000D02*
X-3000000Y-4700000D01*
X2800000Y-4700000D02*
X800000Y-4700000D01*
X-3000000Y4700000D02*
X-3000000Y-4700000D01*
X-1100000Y4700000D02*
X-3000000Y4700000D01*
X2800000Y4700000D02*
X800000Y4700000D01*
%TO.C,R6*%
X12972936Y935000D02*
X13427064Y935000D01*
X12972936Y-535000D02*
X13427064Y-535000D01*
%TO.C,F1*%
X9013748Y5010000D02*
X11786252Y5010000D01*
X9013748Y1590000D02*
X11786252Y1590000D01*
%TO.C,R1*%
X8165000Y-5227064D02*
X8165000Y-4772936D01*
X9635000Y-5227064D02*
X9635000Y-4772936D01*
%TO.C,D1*%
X20865000Y-7450000D02*
X20865000Y-8110000D01*
X20865000Y-5790000D02*
X18130000Y-5790000D01*
X20865000Y-5780000D02*
X20865000Y-6450000D01*
X19455000Y-8110000D02*
X20865000Y-8110000D01*
%TD*%
M02*
