M48
; DRILL file {KiCad 8.0.1} date 2024-04-13T19:43:36-0400
; FORMAT={-:-/ absolute / metric / decimal}
; #@! TF.CreationDate,2024-04-13T19:43:36-04:00
; #@! TF.GenerationSoftware,Kicad,Pcbnew,8.0.1
; #@! TF.FileFunction,Plated,1,2,PTH
FMAT,2
METRIC
; #@! TA.AperFunction,Plated,PTH,ViaDrill
T1C0.400
; #@! TA.AperFunction,Plated,PTH,ComponentDrill
T2C0.600
; #@! TA.AperFunction,Plated,PTH,ComponentDrill
T3C0.800
; #@! TA.AperFunction,Plated,PTH,ComponentDrill
T4C1.000
; #@! TA.AperFunction,Plated,PTH,ComponentDrill
T5C3.200
%
G90
G05
T1
X6.55Y7.95
X6.75Y0.45
X6.9Y-2.8
X8.0Y-9.5
X10.1Y-3.85
X10.55Y-8.5
X12.6Y10.05
X12.775Y-9.025
X16.4Y9.95
X16.45Y10.9
X17.85Y2.8
X17.95Y-0.45
X19.0Y6.0
X19.5Y-6.3
X19.55Y1.1
X20.0Y6.0
X21.0Y6.0
X22.85Y-0.55
T3
X26.0Y10.0
X26.0Y8.0
X26.0Y1.0
X26.0Y-1.0
X26.0Y-8.0
X26.0Y-10.0
T4
X26.0Y12.0
X26.0Y6.0
X26.0Y3.0
X26.0Y-3.0
X26.0Y-6.0
X26.0Y-12.0
T5
X3.0Y10.0
X3.0Y-10.0
X20.1Y10.0
X20.1Y-10.0
T2
G00X0.15Y4.32
M15
G01X-0.45Y4.32
M16
G05
G00X0.15Y-4.32
M15
G01X-0.45Y-4.32
M16
G05
G00X4.58Y4.32
M15
G01X3.48Y4.32
M16
G05
G00X4.58Y-4.32
M15
G01X3.48Y-4.32
M16
G05
M30
