%TF.GenerationSoftware,KiCad,Pcbnew,8.0.1*%
%TF.CreationDate,2024-04-13T19:43:34-04:00*%
%TF.ProjectId,USB-C-3-way-splitter,5553422d-432d-4332-9d77-61792d73706c,rev?*%
%TF.SameCoordinates,Original*%
%TF.FileFunction,Copper,L2,Bot*%
%TF.FilePolarity,Positive*%
%FSLAX46Y46*%
G04 Gerber Fmt 4.6, Leading zero omitted, Abs format (unit mm)*
G04 Created by KiCad (PCBNEW 8.0.1) date 2024-04-13 19:43:34*
%MOMM*%
%LPD*%
G01*
G04 APERTURE LIST*
%TA.AperFunction,ComponentPad*%
%ADD10C,5.700000*%
%TD*%
%TA.AperFunction,ComponentPad*%
%ADD11R,1.350000X1.350000*%
%TD*%
%TA.AperFunction,ComponentPad*%
%ADD12O,1.350000X1.350000*%
%TD*%
%TA.AperFunction,ComponentPad*%
%ADD13C,1.500000*%
%TD*%
%TA.AperFunction,ComponentPad*%
%ADD14R,1.500000X1.500000*%
%TD*%
%TA.AperFunction,ComponentPad*%
%ADD15O,1.500000X1.500000*%
%TD*%
%TA.AperFunction,ComponentPad*%
%ADD16O,2.100000X1.000000*%
%TD*%
%TA.AperFunction,ComponentPad*%
%ADD17O,1.600000X1.000000*%
%TD*%
%TA.AperFunction,SMDPad,CuDef*%
%ADD18C,2.500000*%
%TD*%
%TA.AperFunction,ViaPad*%
%ADD19C,0.800000*%
%TD*%
%TA.AperFunction,Conductor*%
%ADD20C,0.500000*%
%TD*%
%TA.AperFunction,Conductor*%
%ADD21C,0.300000*%
%TD*%
%TA.AperFunction,Conductor*%
%ADD22C,0.600000*%
%TD*%
G04 APERTURE END LIST*
D10*
%TO.P,H4,1,1*%
%TO.N,GNDPWR*%
X20100000Y-10000000D03*
%TD*%
D11*
%TO.P,J3,1,Pin_1*%
%TO.N,+5V*%
X26000000Y3000000D03*
D12*
%TO.P,J3,2,Pin_2*%
%TO.N,Net-(J3-Pin_2)*%
X26000000Y1000000D03*
%TO.P,J3,3,Pin_3*%
X26000000Y-1000000D03*
D13*
%TO.P,J3,4,Pin_4*%
%TO.N,GND*%
X26000000Y-3000000D03*
%TD*%
D10*
%TO.P,H2,1,1*%
%TO.N,GNDPWR*%
X3000000Y-10000000D03*
%TD*%
D14*
%TO.P,J2,1,Pin_1*%
%TO.N,+5V*%
X26000000Y12000000D03*
D12*
%TO.P,J2,2,Pin_2*%
%TO.N,Net-(J2-Pin_2)*%
X26000000Y10000000D03*
%TO.P,J2,3,Pin_3*%
X26000000Y8000000D03*
D15*
%TO.P,J2,4,Pin_4*%
%TO.N,GND*%
X26000000Y6000000D03*
%TD*%
D10*
%TO.P,H1,1,1*%
%TO.N,GNDPWR*%
X3000000Y10000000D03*
%TD*%
D16*
%TO.P,J1,S1,SHIELD*%
%TO.N,GNDPWR*%
X4030000Y4320000D03*
D17*
X-150000Y4320000D03*
D16*
X4030000Y-4320000D03*
D17*
X-150000Y-4320000D03*
%TD*%
D10*
%TO.P,H3,1,1*%
%TO.N,GNDPWR*%
X20100000Y10000000D03*
%TD*%
D14*
%TO.P,J4,1,Pin_1*%
%TO.N,+5V*%
X26000000Y-6000000D03*
D12*
%TO.P,J4,2,Pin_2*%
%TO.N,Net-(J4-Pin_2)*%
X26000000Y-8000000D03*
%TO.P,J4,3,Pin_3*%
X26000000Y-10000000D03*
D13*
%TO.P,J4,4,Pin_4*%
%TO.N,GND*%
X26000000Y-12000000D03*
%TD*%
D18*
%TO.P,TP4,1,1*%
%TO.N,+1V2*%
X14550000Y-10050000D03*
%TD*%
%TO.P,TP2,1,1*%
%TO.N,CC2*%
X7350000Y-3250000D03*
%TD*%
%TO.P,TP3,1,1*%
%TO.N,EN*%
X20250000Y1150000D03*
%TD*%
%TO.P,TP1,1,1*%
%TO.N,CC1*%
X7200000Y500000D03*
%TD*%
D19*
%TO.N,GND*%
X20000000Y6000000D03*
X10100000Y-3850000D03*
X16400000Y9950000D03*
X22850000Y-550000D03*
X10550000Y-8500000D03*
X16450000Y10900000D03*
X12600000Y10050000D03*
X21000000Y6000000D03*
X19500000Y-6300000D03*
X19000000Y6000000D03*
X6550000Y7950000D03*
X8000000Y-9500000D03*
%TO.N,VBUS*%
X17850000Y2800000D03*
X17950000Y-450000D03*
%TO.N,CC1*%
X6750000Y450000D03*
%TO.N,CC2*%
X6900000Y-2800000D03*
%TO.N,+1V2*%
X12775000Y-9025000D03*
%TO.N,EN*%
X19550000Y1100000D03*
%TD*%
D20*
%TO.N,VBUS*%
X17950000Y2700000D02*
X17850000Y2800000D01*
X17950000Y-450000D02*
X17950000Y2700000D01*
D21*
%TO.N,+1V2*%
X13800000Y-10050000D02*
X12775000Y-9025000D01*
X14550000Y-10050000D02*
X13800000Y-10050000D01*
D22*
%TO.N,GNDPWR*%
X4620000Y4320000D02*
X4030000Y4320000D01*
D20*
X3000000Y-10000000D02*
X3302400Y-10302400D01*
X16350000Y12850000D02*
X19200000Y10000000D01*
X5850000Y12850000D02*
X16350000Y12850000D01*
X3000000Y-5350000D02*
X4030000Y-4320000D01*
X4030000Y4320000D02*
X4030000Y8970000D01*
X10400000Y-12100000D02*
X16050000Y-12100000D01*
X8602400Y-10302400D02*
X10400000Y-12100000D01*
X16100000Y-12150000D02*
X18250000Y-10000000D01*
X3000000Y-10000000D02*
X3000000Y-5350000D01*
X19200000Y10000000D02*
X20100000Y10000000D01*
X3000000Y10000000D02*
X5850000Y12850000D01*
D22*
X4030000Y-4320000D02*
X4620000Y-4320000D01*
D20*
X18250000Y-10000000D02*
X20100000Y-10000000D01*
X16050000Y-12100000D02*
X16100000Y-12150000D01*
X4030000Y8970000D02*
X3000000Y10000000D01*
X3302400Y-10302400D02*
X8602400Y-10302400D01*
%TD*%
%TA.AperFunction,Conductor*%
%TO.N,GNDPWR*%
G36*
X1441011Y13179815D02*
G01*
X1486766Y13127011D01*
X1496710Y13057853D01*
X1467685Y12994297D01*
X1430975Y12966679D01*
X1431501Y12965689D01*
X1428522Y12964109D01*
X1117282Y12776843D01*
X1117266Y12776832D01*
X828071Y12556993D01*
X828070Y12556992D01*
X811888Y12541664D01*
X811888Y12541662D01*
X2059300Y11294250D01*
X1957670Y11220412D01*
X1779588Y11042330D01*
X1705747Y10940697D01*
X460970Y12185475D01*
X460969Y12185475D01*
X329177Y12030319D01*
X329170Y12030309D01*
X125318Y11729651D01*
X125316Y11729647D01*
X-44838Y11408702D01*
X-44847Y11408684D01*
X-179302Y11071227D01*
X-179304Y11071220D01*
X-276480Y10721222D01*
X-276482Y10721214D01*
X-335253Y10362728D01*
X-354920Y10000002D01*
X-354920Y9999997D01*
X-335253Y9637271D01*
X-276482Y9278785D01*
X-276480Y9278777D01*
X-179304Y8928779D01*
X-179302Y8928772D01*
X-44847Y8591315D01*
X-44838Y8591297D01*
X125316Y8270352D01*
X125318Y8270348D01*
X307198Y8002096D01*
X328527Y7935562D01*
X310499Y7868058D01*
X258838Y7821017D01*
X189945Y7809374D01*
X180373Y7810892D01*
X81799Y7830500D01*
X81797Y7830500D01*
X-81797Y7830500D01*
X-81799Y7830500D01*
X-180372Y7810892D01*
X-242248Y7798584D01*
X-393389Y7735979D01*
X-529413Y7645091D01*
X-645091Y7529413D01*
X-735979Y7393389D01*
X-798584Y7242248D01*
X-798585Y7242242D01*
X-830500Y7081799D01*
X-830500Y6918200D01*
X-823569Y6883359D01*
X-798584Y6757752D01*
X-753951Y6650000D01*
X-735980Y6606613D01*
X-735975Y6606604D01*
X-645091Y6470587D01*
X-645088Y6470583D01*
X-529416Y6354911D01*
X-529412Y6354908D01*
X-393395Y6264024D01*
X-393386Y6264019D01*
X-242248Y6201416D01*
X-242242Y6201414D01*
X-81799Y6169500D01*
X-81797Y6169500D01*
X81799Y6169500D01*
X242242Y6201414D01*
X242248Y6201416D01*
X393386Y6264019D01*
X393395Y6264024D01*
X529412Y6354908D01*
X529416Y6354911D01*
X645088Y6470583D01*
X645091Y6470587D01*
X735975Y6606604D01*
X735980Y6606613D01*
X753951Y6650000D01*
X798584Y6757752D01*
X823569Y6883359D01*
X830500Y6918200D01*
X830500Y7081799D01*
X810121Y7184248D01*
X816348Y7253840D01*
X859211Y7309017D01*
X925100Y7332262D01*
X993097Y7316195D01*
X1006779Y7307156D01*
X1117266Y7223167D01*
X1117282Y7223156D01*
X1428522Y7035890D01*
X1428535Y7035883D01*
X1758205Y6883360D01*
X1758210Y6883359D01*
X2102461Y6767367D01*
X2457235Y6689275D01*
X2818366Y6650000D01*
X3181633Y6650000D01*
X3542764Y6689275D01*
X3897538Y6767367D01*
X4241789Y6883359D01*
X4241794Y6883360D01*
X4571464Y7035883D01*
X4571477Y7035890D01*
X4882717Y7223156D01*
X4882733Y7223167D01*
X5000959Y7313039D01*
X5066241Y7337938D01*
X5134622Y7323591D01*
X5184391Y7274552D01*
X5200000Y7214323D01*
X5200000Y5331159D01*
X5180315Y5264120D01*
X5127511Y5218365D01*
X5058353Y5208421D01*
X5028547Y5216598D01*
X4871689Y5281570D01*
X4871681Y5281572D01*
X4678495Y5319999D01*
X4678492Y5320000D01*
X4280000Y5320000D01*
X4280000Y4620000D01*
X3780000Y4620000D01*
X3780000Y5320000D01*
X3381508Y5320000D01*
X3381504Y5319999D01*
X3188318Y5281572D01*
X3188306Y5281569D01*
X3006328Y5206192D01*
X3006315Y5206185D01*
X2842537Y5096751D01*
X2842533Y5096748D01*
X2703251Y4957466D01*
X2703248Y4957462D01*
X2593814Y4793684D01*
X2593807Y4793671D01*
X2518430Y4611692D01*
X2518430Y4611690D01*
X2510138Y4570000D01*
X3313012Y4570000D01*
X3295795Y4560060D01*
X3239940Y4504205D01*
X3200444Y4435796D01*
X3180000Y4359496D01*
X3180000Y4280504D01*
X3200444Y4204204D01*
X3239940Y4135795D01*
X3295795Y4079940D01*
X3313012Y4070000D01*
X2510138Y4070000D01*
X2518430Y4028309D01*
X2518430Y4028307D01*
X2593807Y3846328D01*
X2593814Y3846315D01*
X2703248Y3682537D01*
X2703251Y3682533D01*
X2842536Y3543248D01*
X3011387Y3430427D01*
X3009889Y3428185D01*
X3051323Y3386789D01*
X3066206Y3318523D01*
X3041819Y3253047D01*
X3040892Y3251824D01*
X3036283Y3245818D01*
X2959993Y3113681D01*
X2959993Y3113680D01*
X2959992Y3113678D01*
X2920500Y2966293D01*
X2920500Y2813707D01*
X2955326Y2683733D01*
X2959993Y2666318D01*
X3036282Y2534182D01*
X3036287Y2534176D01*
X3144176Y2426287D01*
X3144182Y2426282D01*
X3276318Y2349993D01*
X3276317Y2349993D01*
X3320106Y2338259D01*
X3423707Y2310500D01*
X3423710Y2310500D01*
X3576290Y2310500D01*
X3576293Y2310500D01*
X3723678Y2349992D01*
X3723681Y2349993D01*
X3855817Y2426282D01*
X3855823Y2426287D01*
X3963712Y2534176D01*
X3963715Y2534179D01*
X4040008Y2666322D01*
X4079500Y2813707D01*
X4079500Y2966293D01*
X4040008Y3113678D01*
X4032747Y3126253D01*
X4028275Y3134001D01*
X4011803Y3201901D01*
X4034656Y3267928D01*
X4089578Y3311118D01*
X4135663Y3320000D01*
X4678495Y3320000D01*
X4871681Y3358427D01*
X4871693Y3358430D01*
X5028548Y3423401D01*
X5098017Y3430870D01*
X5160496Y3399595D01*
X5196148Y3339505D01*
X5200000Y3308840D01*
X5200000Y-3308840D01*
X5180315Y-3375879D01*
X5127511Y-3421634D01*
X5058353Y-3431578D01*
X5028548Y-3423401D01*
X4871693Y-3358430D01*
X4871681Y-3358427D01*
X4678495Y-3320000D01*
X4135663Y-3320000D01*
X4068624Y-3300315D01*
X4022869Y-3247511D01*
X4012925Y-3178353D01*
X4028275Y-3134001D01*
X4032747Y-3126253D01*
X4040008Y-3113678D01*
X4079500Y-2966293D01*
X4079500Y-2813707D01*
X4040008Y-2666322D01*
X3963715Y-2534179D01*
X3855821Y-2426285D01*
X3855819Y-2426284D01*
X3855817Y-2426282D01*
X3723681Y-2349993D01*
X3723682Y-2349993D01*
X3711595Y-2346754D01*
X3576293Y-2310500D01*
X3423707Y-2310500D01*
X3288404Y-2346754D01*
X3276318Y-2349993D01*
X3144182Y-2426282D01*
X3144176Y-2426287D01*
X3036287Y-2534176D01*
X3036282Y-2534182D01*
X2959993Y-2666318D01*
X2959992Y-2666322D01*
X2920500Y-2813707D01*
X2920500Y-2966293D01*
X2959992Y-3113678D01*
X2959993Y-3113681D01*
X3036283Y-3245818D01*
X3040892Y-3251824D01*
X3066088Y-3316993D01*
X3052051Y-3385438D01*
X3010060Y-3428441D01*
X3011387Y-3430427D01*
X2842536Y-3543248D01*
X2703251Y-3682533D01*
X2703248Y-3682537D01*
X2593814Y-3846315D01*
X2593807Y-3846328D01*
X2518430Y-4028307D01*
X2518430Y-4028309D01*
X2510138Y-4070000D01*
X3313012Y-4070000D01*
X3295795Y-4079940D01*
X3239940Y-4135795D01*
X3200444Y-4204204D01*
X3180000Y-4280504D01*
X3180000Y-4359496D01*
X3200444Y-4435796D01*
X3239940Y-4504205D01*
X3295795Y-4560060D01*
X3313012Y-4570000D01*
X2510138Y-4570000D01*
X2518430Y-4611690D01*
X2518430Y-4611692D01*
X2593807Y-4793671D01*
X2593814Y-4793684D01*
X2703248Y-4957462D01*
X2703251Y-4957466D01*
X2842533Y-5096748D01*
X2842537Y-5096751D01*
X3006315Y-5206185D01*
X3006328Y-5206192D01*
X3188306Y-5281569D01*
X3188318Y-5281572D01*
X3381504Y-5319999D01*
X3381508Y-5320000D01*
X3780000Y-5320000D01*
X3780000Y-4620000D01*
X4280000Y-4620000D01*
X4280000Y-5320000D01*
X4678492Y-5320000D01*
X4678495Y-5319999D01*
X4871681Y-5281572D01*
X4871689Y-5281570D01*
X5028547Y-5216598D01*
X5098017Y-5209129D01*
X5160496Y-5240404D01*
X5196148Y-5300493D01*
X5200000Y-5331159D01*
X5200000Y-7214323D01*
X5180315Y-7281362D01*
X5127511Y-7327117D01*
X5058353Y-7337061D01*
X5000959Y-7313039D01*
X4882733Y-7223167D01*
X4882717Y-7223156D01*
X4571477Y-7035890D01*
X4571464Y-7035883D01*
X4241794Y-6883360D01*
X4241789Y-6883359D01*
X3897538Y-6767367D01*
X3542764Y-6689275D01*
X3181633Y-6650000D01*
X2818366Y-6650000D01*
X2457235Y-6689275D01*
X2102461Y-6767367D01*
X1758210Y-6883359D01*
X1758205Y-6883360D01*
X1428535Y-7035883D01*
X1428522Y-7035890D01*
X1117282Y-7223156D01*
X1117266Y-7223167D01*
X828075Y-7443002D01*
X811888Y-7458335D01*
X811887Y-7458335D01*
X2059301Y-8705748D01*
X1957670Y-8779588D01*
X1779588Y-8957670D01*
X1705748Y-9059300D01*
X460970Y-7814522D01*
X460969Y-7814523D01*
X329177Y-7969680D01*
X329170Y-7969690D01*
X125318Y-8270348D01*
X125316Y-8270352D01*
X-44838Y-8591297D01*
X-44847Y-8591315D01*
X-179302Y-8928772D01*
X-179304Y-8928779D01*
X-276480Y-9278777D01*
X-276482Y-9278785D01*
X-335253Y-9637271D01*
X-354920Y-9999997D01*
X-354920Y-10000002D01*
X-335253Y-10362728D01*
X-276482Y-10721214D01*
X-276480Y-10721222D01*
X-179304Y-11071220D01*
X-179302Y-11071227D01*
X-44847Y-11408684D01*
X-44838Y-11408702D01*
X125316Y-11729647D01*
X125318Y-11729651D01*
X329170Y-12030309D01*
X329177Y-12030319D01*
X460969Y-12185475D01*
X460970Y-12185475D01*
X1705748Y-10940698D01*
X1779588Y-11042330D01*
X1957670Y-11220412D01*
X2059299Y-11294250D01*
X811888Y-12541662D01*
X811888Y-12541664D01*
X828070Y-12556992D01*
X828071Y-12556993D01*
X1117266Y-12776832D01*
X1117282Y-12776843D01*
X1428522Y-12964109D01*
X1431501Y-12965689D01*
X1430755Y-12967094D01*
X1478608Y-13008962D01*
X1497971Y-13076095D01*
X1477964Y-13143040D01*
X1424941Y-13188540D01*
X1373972Y-13199500D01*
X-990243Y-13199500D01*
X-1009638Y-13197973D01*
X-1025888Y-13195399D01*
X-1042250Y-13192808D01*
X-1079144Y-13180821D01*
X-1099762Y-13170316D01*
X-1131150Y-13147511D01*
X-1147511Y-13131150D01*
X-1170316Y-13099762D01*
X-1180821Y-13079144D01*
X-1192808Y-13042250D01*
X-1197973Y-13009642D01*
X-1199500Y-12990243D01*
X-1199500Y-5253878D01*
X-1179815Y-5186839D01*
X-1127011Y-5141084D01*
X-1057853Y-5131140D01*
X-1006609Y-5150776D01*
X-923683Y-5206185D01*
X-923671Y-5206192D01*
X-741693Y-5281569D01*
X-741681Y-5281572D01*
X-548495Y-5319999D01*
X-548492Y-5320000D01*
X-400000Y-5320000D01*
X-400000Y-4620000D01*
X100000Y-4620000D01*
X100000Y-5320000D01*
X248492Y-5320000D01*
X248495Y-5319999D01*
X441681Y-5281572D01*
X441693Y-5281569D01*
X623671Y-5206192D01*
X623684Y-5206185D01*
X787462Y-5096751D01*
X787466Y-5096748D01*
X926748Y-4957466D01*
X926751Y-4957462D01*
X1036185Y-4793684D01*
X1036192Y-4793671D01*
X1111569Y-4611692D01*
X1111569Y-4611690D01*
X1119862Y-4570000D01*
X316988Y-4570000D01*
X334205Y-4560060D01*
X390060Y-4504205D01*
X429556Y-4435796D01*
X450000Y-4359496D01*
X450000Y-4280504D01*
X429556Y-4204204D01*
X390060Y-4135795D01*
X334205Y-4079940D01*
X316988Y-4070000D01*
X1119862Y-4070000D01*
X1111569Y-4028309D01*
X1111569Y-4028307D01*
X1036192Y-3846328D01*
X1036185Y-3846315D01*
X926751Y-3682537D01*
X926748Y-3682533D01*
X787466Y-3543251D01*
X787462Y-3543248D01*
X623684Y-3433814D01*
X623671Y-3433807D01*
X441693Y-3358430D01*
X441681Y-3358427D01*
X248495Y-3320000D01*
X100000Y-3320000D01*
X100000Y-4020000D01*
X-400000Y-4020000D01*
X-400000Y-3320000D01*
X-548495Y-3320000D01*
X-741681Y-3358427D01*
X-741693Y-3358430D01*
X-923671Y-3433807D01*
X-923684Y-3433814D01*
X-1006609Y-3489223D01*
X-1073287Y-3510101D01*
X-1140667Y-3491616D01*
X-1187357Y-3439637D01*
X-1199500Y-3386121D01*
X-1199500Y3386121D01*
X-1179815Y3453160D01*
X-1127011Y3498915D01*
X-1057853Y3508859D01*
X-1006609Y3489223D01*
X-923684Y3433814D01*
X-923671Y3433807D01*
X-741693Y3358430D01*
X-741681Y3358427D01*
X-548495Y3320000D01*
X-400000Y3320000D01*
X-400000Y4020000D01*
X100000Y4020000D01*
X100000Y3320000D01*
X248495Y3320000D01*
X441681Y3358427D01*
X441693Y3358430D01*
X623671Y3433807D01*
X623684Y3433814D01*
X787462Y3543248D01*
X787466Y3543251D01*
X926748Y3682533D01*
X926751Y3682537D01*
X1036185Y3846315D01*
X1036192Y3846328D01*
X1111569Y4028307D01*
X1111569Y4028309D01*
X1119862Y4070000D01*
X316988Y4070000D01*
X334205Y4079940D01*
X390060Y4135795D01*
X429556Y4204204D01*
X450000Y4280504D01*
X450000Y4359496D01*
X429556Y4435796D01*
X390060Y4504205D01*
X334205Y4560060D01*
X316988Y4570000D01*
X1119862Y4570000D01*
X1111569Y4611690D01*
X1111569Y4611692D01*
X1036192Y4793671D01*
X1036185Y4793684D01*
X926751Y4957462D01*
X926748Y4957466D01*
X787466Y5096748D01*
X787462Y5096751D01*
X623684Y5206185D01*
X623671Y5206192D01*
X441693Y5281569D01*
X441681Y5281572D01*
X248495Y5319999D01*
X248492Y5320000D01*
X100000Y5320000D01*
X100000Y4620000D01*
X-400000Y4620000D01*
X-400000Y5320000D01*
X-548492Y5320000D01*
X-548495Y5319999D01*
X-741681Y5281572D01*
X-741693Y5281569D01*
X-923671Y5206192D01*
X-923683Y5206185D01*
X-1006609Y5150776D01*
X-1073286Y5129898D01*
X-1140666Y5148382D01*
X-1187357Y5200361D01*
X-1199500Y5253878D01*
X-1199500Y12990244D01*
X-1197973Y13009643D01*
X-1192808Y13042251D01*
X-1180820Y13079147D01*
X-1170315Y13099764D01*
X-1147511Y13131150D01*
X-1131150Y13147511D01*
X-1099762Y13170316D01*
X-1079144Y13180821D01*
X-1042250Y13192808D01*
X-1025888Y13195399D01*
X-1009638Y13197973D01*
X-990243Y13199500D01*
X1373972Y13199500D01*
X1441011Y13179815D01*
G37*
%TD.AperFunction*%
%TD*%
%TA.AperFunction,Conductor*%
%TO.N,GND*%
G36*
X25112944Y13180593D02*
G01*
X25148908Y13131093D01*
X25148908Y13069907D01*
X25112944Y13020407D01*
X25094745Y13009937D01*
X25077235Y13002206D01*
X24997794Y12922765D01*
X24962563Y12842973D01*
X24952414Y12819988D01*
X24949500Y12794869D01*
X24949500Y11205139D01*
X24949501Y11205136D01*
X24952414Y11180009D01*
X24997794Y11077235D01*
X25077235Y10997794D01*
X25180011Y10952414D01*
X25205130Y10949500D01*
X25205135Y10949500D01*
X25342594Y10949500D01*
X25400785Y10930593D01*
X25436749Y10881093D01*
X25436749Y10819907D01*
X25405398Y10773972D01*
X25306888Y10693128D01*
X25306875Y10693115D01*
X25235810Y10606521D01*
X25184977Y10544581D01*
X25184976Y10544579D01*
X25184969Y10544569D01*
X25094397Y10375119D01*
X25094395Y10375114D01*
X25038614Y10191231D01*
X25038613Y10191226D01*
X25019780Y10000003D01*
X25019780Y9999996D01*
X25038613Y9808773D01*
X25038614Y9808768D01*
X25094395Y9624885D01*
X25094397Y9624880D01*
X25184969Y9455430D01*
X25184976Y9455420D01*
X25306875Y9306884D01*
X25306884Y9306875D01*
X25455420Y9184976D01*
X25455430Y9184969D01*
X25624880Y9094397D01*
X25629375Y9092536D01*
X25628824Y9091207D01*
X25673957Y9059750D01*
X25694002Y9001941D01*
X25676239Y8943391D01*
X25629232Y8907808D01*
X25629375Y8907464D01*
X25628053Y8906916D01*
X25627454Y8906463D01*
X25625156Y8905716D01*
X25624890Y8905606D01*
X25624886Y8905605D01*
X25624881Y8905602D01*
X25624880Y8905602D01*
X25455430Y8815030D01*
X25455423Y8815025D01*
X25455419Y8815023D01*
X25376158Y8749975D01*
X25306884Y8693124D01*
X25306875Y8693115D01*
X25255813Y8630895D01*
X25184977Y8544581D01*
X25184976Y8544579D01*
X25184969Y8544569D01*
X25094397Y8375119D01*
X25094395Y8375114D01*
X25038614Y8191231D01*
X25038613Y8191226D01*
X25019780Y8000003D01*
X25019780Y7999996D01*
X25038613Y7808773D01*
X25038614Y7808768D01*
X25094395Y7624885D01*
X25094397Y7624880D01*
X25184969Y7455430D01*
X25184976Y7455420D01*
X25306875Y7306884D01*
X25306884Y7306875D01*
X25455420Y7184976D01*
X25455426Y7184972D01*
X25559119Y7129547D01*
X25601525Y7085441D01*
X25609908Y7024833D01*
X25581065Y6970872D01*
X25559118Y6954927D01*
X25413839Y6877275D01*
X25413829Y6877268D01*
X25253949Y6746059D01*
X25253940Y6746050D01*
X25122731Y6586170D01*
X25122724Y6586160D01*
X25025234Y6403767D01*
X25025233Y6403765D01*
X24993756Y6300000D01*
X25595856Y6300000D01*
X25534075Y6192993D01*
X25500000Y6065826D01*
X25500000Y5934174D01*
X25534075Y5807007D01*
X25595856Y5700000D01*
X24993756Y5700000D01*
X25025233Y5596234D01*
X25025234Y5596232D01*
X25122724Y5413839D01*
X25122731Y5413829D01*
X25253940Y5253949D01*
X25253949Y5253940D01*
X25413829Y5122731D01*
X25413839Y5122724D01*
X25596232Y5025234D01*
X25596234Y5025233D01*
X25700000Y4993755D01*
X25700000Y5595855D01*
X25807007Y5534075D01*
X25934174Y5500000D01*
X26065826Y5500000D01*
X26192993Y5534075D01*
X26300000Y5595855D01*
X26300000Y4993755D01*
X26403765Y5025233D01*
X26403767Y5025234D01*
X26586160Y5122724D01*
X26586170Y5122731D01*
X26746050Y5253940D01*
X26746059Y5253949D01*
X26877268Y5413829D01*
X26877275Y5413839D01*
X26974765Y5596232D01*
X26974767Y5596237D01*
X27005763Y5698415D01*
X27040748Y5748612D01*
X27098556Y5768658D01*
X27157107Y5750897D01*
X27194036Y5702112D01*
X27199500Y5669677D01*
X27199500Y-2669677D01*
X27180593Y-2727868D01*
X27131093Y-2763832D01*
X27069907Y-2763832D01*
X27020407Y-2727868D01*
X27005763Y-2698415D01*
X26974767Y-2596237D01*
X26923653Y-2500610D01*
X26497905Y-2926357D01*
X26465925Y-2807007D01*
X26400099Y-2692993D01*
X26307007Y-2599901D01*
X26192993Y-2534075D01*
X26073639Y-2502093D01*
X26499388Y-2076345D01*
X26440880Y-2045072D01*
X26398474Y-2000966D01*
X26390091Y-1940358D01*
X26418934Y-1886397D01*
X26440881Y-1870452D01*
X26544569Y-1815030D01*
X26544572Y-1815027D01*
X26544581Y-1815023D01*
X26693120Y-1693120D01*
X26815023Y-1544581D01*
X26815027Y-1544572D01*
X26815030Y-1544569D01*
X26905602Y-1375119D01*
X26905605Y-1375114D01*
X26961385Y-1191231D01*
X26961386Y-1191226D01*
X26980220Y-1000003D01*
X26980220Y-999996D01*
X26961386Y-808773D01*
X26961385Y-808768D01*
X26944464Y-752988D01*
X26905605Y-624886D01*
X26905602Y-624880D01*
X26815030Y-455430D01*
X26815025Y-455423D01*
X26815023Y-455419D01*
X26711413Y-329170D01*
X26693124Y-306884D01*
X26693115Y-306875D01*
X26606478Y-235775D01*
X26544581Y-184977D01*
X26544578Y-184975D01*
X26544569Y-184969D01*
X26375119Y-94397D01*
X26370625Y-92536D01*
X26371175Y-91206D01*
X26326046Y-59756D01*
X26305997Y-1949D01*
X26323755Y56603D01*
X26370766Y92193D01*
X26370625Y92536D01*
X26371938Y93079D01*
X26372538Y93534D01*
X26374847Y94284D01*
X26375119Y94397D01*
X26544569Y184969D01*
X26544579Y184976D01*
X26544581Y184977D01*
X26631973Y256698D01*
X26693115Y306875D01*
X26693124Y306884D01*
X26805575Y443907D01*
X26815023Y455419D01*
X26815025Y455423D01*
X26815030Y455430D01*
X26905602Y624880D01*
X26905604Y624885D01*
X26905605Y624886D01*
X26961385Y808769D01*
X26961386Y808773D01*
X26980220Y999996D01*
X26980220Y1000003D01*
X26961386Y1191226D01*
X26961385Y1191231D01*
X26960445Y1194331D01*
X26905605Y1375114D01*
X26873129Y1435870D01*
X26815030Y1544569D01*
X26815027Y1544572D01*
X26815023Y1544581D01*
X26693120Y1693120D01*
X26544581Y1815023D01*
X26544572Y1815027D01*
X26544569Y1815030D01*
X26501240Y1838189D01*
X26458832Y1882293D01*
X26450447Y1942902D01*
X26479289Y1996863D01*
X26534340Y2023566D01*
X26547905Y2024500D01*
X26719860Y2024500D01*
X26719862Y2024500D01*
X26719864Y2024501D01*
X26722777Y2024838D01*
X26744990Y2027414D01*
X26808131Y2055294D01*
X26847765Y2072794D01*
X26927206Y2152235D01*
X26972585Y2255009D01*
X26975500Y2280135D01*
X26975499Y3719864D01*
X26972585Y3744991D01*
X26927206Y3847765D01*
X26847765Y3927206D01*
X26744991Y3972585D01*
X26719865Y3975500D01*
X25280136Y3975499D01*
X25255009Y3972585D01*
X25152235Y3927206D01*
X25072794Y3847765D01*
X25055992Y3809711D01*
X25027414Y3744988D01*
X25024500Y3719869D01*
X25024500Y2280139D01*
X25024501Y2280136D01*
X25027414Y2255009D01*
X25072794Y2152235D01*
X25152235Y2072794D01*
X25255011Y2027414D01*
X25280130Y2024500D01*
X25452091Y2024500D01*
X25510282Y2005593D01*
X25546246Y1956093D01*
X25546246Y1894907D01*
X25510282Y1845407D01*
X25498760Y1838190D01*
X25455432Y1815030D01*
X25455419Y1815023D01*
X25386253Y1758260D01*
X25306884Y1693124D01*
X25306875Y1693115D01*
X25255584Y1630616D01*
X25184977Y1544581D01*
X25184976Y1544579D01*
X25184969Y1544569D01*
X25094397Y1375119D01*
X25094395Y1375114D01*
X25038614Y1191231D01*
X25038613Y1191226D01*
X25019780Y1000003D01*
X25019780Y999996D01*
X25038613Y808773D01*
X25038614Y808768D01*
X25094395Y624885D01*
X25094397Y624880D01*
X25184969Y455430D01*
X25184976Y455420D01*
X25306875Y306884D01*
X25306884Y306875D01*
X25455420Y184976D01*
X25455430Y184969D01*
X25624880Y94397D01*
X25629375Y92536D01*
X25628824Y91207D01*
X25673957Y59750D01*
X25694002Y1941D01*
X25676239Y-56609D01*
X25629232Y-92191D01*
X25629375Y-92536D01*
X25628053Y-93083D01*
X25627454Y-93537D01*
X25625156Y-94283D01*
X25624880Y-94397D01*
X25455430Y-184969D01*
X25455420Y-184976D01*
X25306884Y-306875D01*
X25306875Y-306884D01*
X25184976Y-455420D01*
X25184969Y-455430D01*
X25094397Y-624880D01*
X25094395Y-624885D01*
X25038614Y-808768D01*
X25038613Y-808773D01*
X25019780Y-999996D01*
X25019780Y-1000003D01*
X25038613Y-1191226D01*
X25038614Y-1191231D01*
X25094395Y-1375114D01*
X25094397Y-1375119D01*
X25184969Y-1544569D01*
X25184975Y-1544578D01*
X25184977Y-1544581D01*
X25235810Y-1606521D01*
X25306875Y-1693115D01*
X25306884Y-1693124D01*
X25332143Y-1713853D01*
X25455419Y-1815023D01*
X25455423Y-1815025D01*
X25455430Y-1815030D01*
X25559118Y-1870452D01*
X25601525Y-1914557D01*
X25609908Y-1975166D01*
X25581066Y-2029126D01*
X25559118Y-2045072D01*
X25500610Y-2076345D01*
X25926359Y-2502094D01*
X25807007Y-2534075D01*
X25692993Y-2599901D01*
X25599901Y-2692993D01*
X25534075Y-2807007D01*
X25502094Y-2926359D01*
X25076345Y-2500610D01*
X25025234Y-2596232D01*
X25025232Y-2596237D01*
X24965191Y-2794163D01*
X24965190Y-2794169D01*
X24944919Y-2999995D01*
X24944919Y-3000004D01*
X24965190Y-3205830D01*
X24965191Y-3205836D01*
X25025232Y-3403762D01*
X25076345Y-3499388D01*
X25502093Y-3073639D01*
X25534075Y-3192993D01*
X25599901Y-3307007D01*
X25692993Y-3400099D01*
X25807007Y-3465925D01*
X25926357Y-3497905D01*
X25500610Y-3923653D01*
X25596237Y-3974767D01*
X25794163Y-4034808D01*
X25794169Y-4034809D01*
X25999996Y-4055081D01*
X26000004Y-4055081D01*
X26205830Y-4034809D01*
X26205836Y-4034808D01*
X26403763Y-3974767D01*
X26499388Y-3923653D01*
X26073640Y-3497905D01*
X26192993Y-3465925D01*
X26307007Y-3400099D01*
X26400099Y-3307007D01*
X26465925Y-3192993D01*
X26497905Y-3073640D01*
X26923653Y-3499388D01*
X26974767Y-3403763D01*
X27005763Y-3301585D01*
X27040748Y-3251388D01*
X27098556Y-3231342D01*
X27157107Y-3249103D01*
X27194036Y-3297888D01*
X27199500Y-3330323D01*
X27199500Y-5054752D01*
X27180593Y-5112943D01*
X27131093Y-5148907D01*
X27069907Y-5148907D01*
X27020407Y-5112943D01*
X27009936Y-5094741D01*
X27002206Y-5077236D01*
X27002206Y-5077235D01*
X26922765Y-4997794D01*
X26819991Y-4952415D01*
X26819990Y-4952414D01*
X26819988Y-4952414D01*
X26794868Y-4949500D01*
X25205139Y-4949500D01*
X25205136Y-4949501D01*
X25180009Y-4952414D01*
X25077235Y-4997794D01*
X24997794Y-5077235D01*
X24952414Y-5180011D01*
X24949500Y-5205130D01*
X24949500Y-6794860D01*
X24949501Y-6794863D01*
X24952414Y-6819990D01*
X24969932Y-6859663D01*
X24997794Y-6922765D01*
X25077235Y-7002206D01*
X25180009Y-7047585D01*
X25205135Y-7050500D01*
X25342594Y-7050499D01*
X25400783Y-7069406D01*
X25436747Y-7118906D01*
X25436748Y-7180091D01*
X25405398Y-7226027D01*
X25306884Y-7306875D01*
X25306875Y-7306884D01*
X25184976Y-7455420D01*
X25184969Y-7455430D01*
X25094397Y-7624880D01*
X25094395Y-7624885D01*
X25038614Y-7808768D01*
X25038613Y-7808773D01*
X25019780Y-7999996D01*
X25019780Y-8000003D01*
X25038613Y-8191226D01*
X25038614Y-8191231D01*
X25094395Y-8375114D01*
X25094397Y-8375119D01*
X25184969Y-8544569D01*
X25184975Y-8544578D01*
X25184977Y-8544581D01*
X25235810Y-8606521D01*
X25306875Y-8693115D01*
X25306884Y-8693124D01*
X25376158Y-8749975D01*
X25455419Y-8815023D01*
X25455423Y-8815025D01*
X25455430Y-8815030D01*
X25624880Y-8905602D01*
X25624886Y-8905605D01*
X25624890Y-8905606D01*
X25629375Y-8907464D01*
X25628824Y-8908792D01*
X25673957Y-8940250D01*
X25694002Y-8998059D01*
X25676239Y-9056609D01*
X25629232Y-9092191D01*
X25629375Y-9092536D01*
X25628053Y-9093083D01*
X25627454Y-9093537D01*
X25625156Y-9094283D01*
X25624880Y-9094397D01*
X25455430Y-9184969D01*
X25455420Y-9184976D01*
X25306884Y-9306875D01*
X25306875Y-9306884D01*
X25184976Y-9455420D01*
X25184969Y-9455430D01*
X25094397Y-9624880D01*
X25094395Y-9624885D01*
X25038614Y-9808768D01*
X25038613Y-9808773D01*
X25019780Y-9999996D01*
X25019780Y-10000003D01*
X25038613Y-10191226D01*
X25038614Y-10191231D01*
X25094395Y-10375114D01*
X25094397Y-10375119D01*
X25184969Y-10544569D01*
X25184975Y-10544578D01*
X25184977Y-10544581D01*
X25235810Y-10606521D01*
X25306875Y-10693115D01*
X25306884Y-10693124D01*
X25376158Y-10749975D01*
X25455419Y-10815023D01*
X25455423Y-10815025D01*
X25455430Y-10815030D01*
X25559118Y-10870452D01*
X25601525Y-10914557D01*
X25609908Y-10975166D01*
X25581066Y-11029126D01*
X25559118Y-11045072D01*
X25500610Y-11076345D01*
X25926359Y-11502094D01*
X25807007Y-11534075D01*
X25692993Y-11599901D01*
X25599901Y-11692993D01*
X25534075Y-11807007D01*
X25502094Y-11926359D01*
X25076345Y-11500610D01*
X25025234Y-11596232D01*
X25025233Y-11596234D01*
X24981452Y-11740560D01*
X24946467Y-11790756D01*
X24888658Y-11810802D01*
X24830108Y-11793040D01*
X24795251Y-11749706D01*
X24786205Y-11727868D01*
X24735979Y-11606611D01*
X24645091Y-11470587D01*
X24529413Y-11354909D01*
X24459598Y-11308260D01*
X24393388Y-11264020D01*
X24242246Y-11201415D01*
X24081799Y-11169500D01*
X24081797Y-11169500D01*
X23918203Y-11169500D01*
X23918200Y-11169500D01*
X23757753Y-11201415D01*
X23606611Y-11264020D01*
X23470590Y-11354906D01*
X23354906Y-11470590D01*
X23264020Y-11606611D01*
X23201415Y-11757753D01*
X23169500Y-11918200D01*
X23169500Y-12081799D01*
X23201415Y-12242246D01*
X23264020Y-12393388D01*
X23340495Y-12507841D01*
X23354909Y-12529413D01*
X23470587Y-12645091D01*
X23606611Y-12735979D01*
X23757752Y-12798584D01*
X23918203Y-12830500D01*
X23918204Y-12830500D01*
X24081796Y-12830500D01*
X24081797Y-12830500D01*
X24242248Y-12798584D01*
X24393389Y-12735979D01*
X24529413Y-12645091D01*
X24645091Y-12529413D01*
X24735979Y-12393389D01*
X24795252Y-12250291D01*
X24834987Y-12203767D01*
X24894482Y-12189483D01*
X24951010Y-12212898D01*
X24981452Y-12259439D01*
X25025233Y-12403763D01*
X25076345Y-12499388D01*
X25502093Y-12073639D01*
X25534075Y-12192993D01*
X25599901Y-12307007D01*
X25692993Y-12400099D01*
X25807007Y-12465925D01*
X25926357Y-12497905D01*
X25500610Y-12923653D01*
X25596237Y-12974767D01*
X25698415Y-13005763D01*
X25748612Y-13040748D01*
X25768658Y-13098556D01*
X25750897Y-13157107D01*
X25702112Y-13194036D01*
X25669677Y-13199500D01*
X21075945Y-13199500D01*
X21017754Y-13180593D01*
X20981790Y-13131093D01*
X20981790Y-13069907D01*
X21017754Y-13020407D01*
X21048538Y-13005369D01*
X21067174Y-13000000D01*
X21142184Y-12978390D01*
X21469105Y-12842975D01*
X21778808Y-12671808D01*
X22067400Y-12467041D01*
X22331250Y-12231250D01*
X22567041Y-11967400D01*
X22771808Y-11678808D01*
X22918928Y-11412615D01*
X22942973Y-11369109D01*
X22948856Y-11354906D01*
X23078390Y-11042184D01*
X23176350Y-10702157D01*
X23235623Y-10353300D01*
X23238993Y-10293302D01*
X23255464Y-10000004D01*
X23255464Y-9999995D01*
X23235624Y-9646709D01*
X23235621Y-9646689D01*
X23231916Y-9624880D01*
X23176350Y-9297843D01*
X23078390Y-8957816D01*
X22942975Y-8630895D01*
X22942973Y-8630890D01*
X22771806Y-8321189D01*
X22567043Y-8032603D01*
X22567041Y-8032600D01*
X22331250Y-7768750D01*
X22067400Y-7532959D01*
X22038202Y-7512242D01*
X21778810Y-7328193D01*
X21469108Y-7157026D01*
X21469109Y-7157026D01*
X21142182Y-7021609D01*
X20802155Y-6923649D01*
X20453310Y-6864378D01*
X20453290Y-6864375D01*
X20100005Y-6844536D01*
X20099995Y-6844536D01*
X19746709Y-6864375D01*
X19746689Y-6864378D01*
X19397844Y-6923649D01*
X19057817Y-7021609D01*
X18730890Y-7157026D01*
X18421189Y-7328193D01*
X18132603Y-7532956D01*
X17868757Y-7768743D01*
X17868743Y-7768757D01*
X17632956Y-8032603D01*
X17428193Y-8321189D01*
X17257026Y-8630890D01*
X17121609Y-8957817D01*
X17023649Y-9297844D01*
X16964378Y-9646689D01*
X16964375Y-9646709D01*
X16944536Y-9999995D01*
X16944536Y-10000004D01*
X16964375Y-10353290D01*
X16964378Y-10353311D01*
X16978145Y-10434338D01*
X16969252Y-10494874D01*
X16950548Y-10520925D01*
X15950971Y-11520504D01*
X15896454Y-11548281D01*
X15880967Y-11549500D01*
X15421538Y-11549500D01*
X15363347Y-11530593D01*
X15327383Y-11481093D01*
X15327383Y-11419907D01*
X15363347Y-11370407D01*
X15369810Y-11366089D01*
X15403875Y-11345213D01*
X15464179Y-11308259D01*
X15649759Y-11149759D01*
X15808259Y-10964179D01*
X15935777Y-10756089D01*
X16029172Y-10530612D01*
X16086146Y-10293302D01*
X16105294Y-10050000D01*
X16086146Y-9806698D01*
X16029172Y-9569388D01*
X15935777Y-9343911D01*
X15913084Y-9306880D01*
X15808260Y-9135823D01*
X15808259Y-9135821D01*
X15772145Y-9093537D01*
X15649767Y-8950250D01*
X15649764Y-8950247D01*
X15649759Y-8950241D01*
X15649752Y-8950235D01*
X15649749Y-8950232D01*
X15464184Y-8791745D01*
X15464176Y-8791739D01*
X15256092Y-8664224D01*
X15256081Y-8664219D01*
X15030616Y-8570829D01*
X15030613Y-8570828D01*
X14793300Y-8513853D01*
X14550000Y-8494706D01*
X14306699Y-8513853D01*
X14069386Y-8570828D01*
X14069383Y-8570829D01*
X13843918Y-8664219D01*
X13843907Y-8664224D01*
X13635819Y-8791742D01*
X13591650Y-8829464D01*
X13535122Y-8852877D01*
X13475627Y-8838592D01*
X13435892Y-8792065D01*
X13434809Y-8789336D01*
X13399818Y-8697070D01*
X13303183Y-8557071D01*
X13289082Y-8544579D01*
X13175853Y-8444267D01*
X13175852Y-8444266D01*
X13025225Y-8365210D01*
X13025224Y-8365209D01*
X13025223Y-8365209D01*
X12860058Y-8324500D01*
X12860056Y-8324500D01*
X12689944Y-8324500D01*
X12689941Y-8324500D01*
X12524776Y-8365209D01*
X12374146Y-8444267D01*
X12246818Y-8557069D01*
X12246816Y-8557072D01*
X12152906Y-8693124D01*
X12150182Y-8697070D01*
X12096511Y-8838592D01*
X12089860Y-8856129D01*
X12077513Y-8957817D01*
X12069355Y-9025000D01*
X12089860Y-9193872D01*
X12150182Y-9352930D01*
X12246817Y-9492929D01*
X12374148Y-9605734D01*
X12524775Y-9684790D01*
X12689944Y-9725500D01*
X12797389Y-9725500D01*
X12855580Y-9744407D01*
X12867393Y-9754496D01*
X12974704Y-9861807D01*
X13002481Y-9916324D01*
X13003395Y-9939577D01*
X12994706Y-10049999D01*
X13013853Y-10293300D01*
X13070828Y-10530613D01*
X13070829Y-10530616D01*
X13164219Y-10756081D01*
X13164224Y-10756092D01*
X13291739Y-10964176D01*
X13291745Y-10964184D01*
X13387539Y-11076345D01*
X13450241Y-11149759D01*
X13450247Y-11149764D01*
X13450250Y-11149767D01*
X13584025Y-11264021D01*
X13635821Y-11308259D01*
X13635823Y-11308260D01*
X13730190Y-11366089D01*
X13769926Y-11412615D01*
X13774727Y-11473611D01*
X13742757Y-11525780D01*
X13686229Y-11549195D01*
X13678462Y-11549500D01*
X10669033Y-11549500D01*
X10610842Y-11530593D01*
X10599029Y-11520504D01*
X9771640Y-10693115D01*
X8940415Y-9861890D01*
X8814885Y-9789416D01*
X8814882Y-9789415D01*
X8811337Y-9788465D01*
X8807792Y-9787515D01*
X8807790Y-9787514D01*
X8807790Y-9787515D01*
X8674875Y-9751900D01*
X8674874Y-9751900D01*
X6235128Y-9751900D01*
X6176937Y-9732993D01*
X6140973Y-9683493D01*
X6136284Y-9658453D01*
X6135624Y-9646709D01*
X6135621Y-9646689D01*
X6131916Y-9624880D01*
X6076350Y-9297843D01*
X5978390Y-8957816D01*
X5842975Y-8630895D01*
X5842973Y-8630890D01*
X5671806Y-8321189D01*
X5467043Y-8032603D01*
X5467041Y-8032600D01*
X5267017Y-7808773D01*
X5231247Y-7768746D01*
X5228206Y-7766029D01*
X5197419Y-7713154D01*
X5203590Y-7652280D01*
X5244198Y-7606758D01*
X5327571Y-7557998D01*
X5380375Y-7512243D01*
X5422553Y-7467510D01*
X5473439Y-7367434D01*
X5493124Y-7300395D01*
X5505500Y-7214323D01*
X5505500Y-5331159D01*
X5503118Y-5293084D01*
X5499266Y-5262418D01*
X5497454Y-5250045D01*
X5481023Y-5205130D01*
X5458885Y-5144612D01*
X5458884Y-5144609D01*
X5423235Y-5084524D01*
X5401240Y-5054752D01*
X5386696Y-5035065D01*
X5386694Y-5035063D01*
X5297245Y-4967220D01*
X5297244Y-4967219D01*
X5283153Y-4960165D01*
X5257493Y-4947320D01*
X5213921Y-4904365D01*
X5203920Y-4844002D01*
X5219494Y-4803791D01*
X5289390Y-4699185D01*
X5289390Y-4699184D01*
X5289394Y-4699179D01*
X5349737Y-4553497D01*
X5380500Y-4398842D01*
X5380500Y-4241158D01*
X5349737Y-4086503D01*
X5303455Y-3974767D01*
X5289396Y-3940825D01*
X5289390Y-3940814D01*
X5220004Y-3836972D01*
X5203395Y-3778084D01*
X5224572Y-3720680D01*
X5252335Y-3696516D01*
X5327571Y-3652515D01*
X5380375Y-3606760D01*
X5422553Y-3562027D01*
X5473439Y-3461951D01*
X5493124Y-3394912D01*
X5505500Y-3308840D01*
X5505500Y-3250000D01*
X5794706Y-3250000D01*
X5813853Y-3493300D01*
X5870828Y-3730613D01*
X5870829Y-3730616D01*
X5964219Y-3956081D01*
X5964224Y-3956092D01*
X6091739Y-4164176D01*
X6091745Y-4164184D01*
X6157484Y-4241155D01*
X6250241Y-4349759D01*
X6250247Y-4349764D01*
X6250250Y-4349767D01*
X6307710Y-4398842D01*
X6435821Y-4508259D01*
X6435823Y-4508260D01*
X6643907Y-4635775D01*
X6643909Y-4635776D01*
X6643911Y-4635777D01*
X6869388Y-4729172D01*
X7106698Y-4786146D01*
X7350000Y-4805294D01*
X7593302Y-4786146D01*
X7830612Y-4729172D01*
X8056089Y-4635777D01*
X8264179Y-4508259D01*
X8449759Y-4349759D01*
X8608259Y-4164179D01*
X8735777Y-3956089D01*
X8829172Y-3730612D01*
X8886146Y-3493302D01*
X8905294Y-3250000D01*
X8886146Y-3006698D01*
X8829172Y-2769388D01*
X8757449Y-2596232D01*
X8735780Y-2543918D01*
X8735775Y-2543907D01*
X8608260Y-2335823D01*
X8608259Y-2335821D01*
X8449759Y-2150241D01*
X8449752Y-2150235D01*
X8449749Y-2150232D01*
X8264184Y-1991745D01*
X8264176Y-1991739D01*
X8056092Y-1864224D01*
X8056081Y-1864219D01*
X7830616Y-1770829D01*
X7830613Y-1770828D01*
X7593300Y-1713853D01*
X7350000Y-1694706D01*
X7106699Y-1713853D01*
X6869386Y-1770828D01*
X6869383Y-1770829D01*
X6643918Y-1864219D01*
X6643907Y-1864224D01*
X6435823Y-1991739D01*
X6435815Y-1991745D01*
X6250250Y-2150232D01*
X6250232Y-2150250D01*
X6091745Y-2335815D01*
X6091739Y-2335823D01*
X5964224Y-2543907D01*
X5964219Y-2543918D01*
X5870829Y-2769383D01*
X5870828Y-2769386D01*
X5813853Y-3006699D01*
X5794706Y-3250000D01*
X5505500Y-3250000D01*
X5505500Y79843D01*
X5524407Y138034D01*
X5573907Y173998D01*
X5635093Y173998D01*
X5684593Y138034D01*
X5700765Y102954D01*
X5720828Y19386D01*
X5720829Y19383D01*
X5814219Y-206081D01*
X5814224Y-206092D01*
X5941739Y-414176D01*
X5941745Y-414184D01*
X5976972Y-455430D01*
X6100241Y-599759D01*
X6100247Y-599764D01*
X6100250Y-599767D01*
X6129661Y-624886D01*
X6285821Y-758259D01*
X6317921Y-777930D01*
X6493907Y-885775D01*
X6493909Y-885776D01*
X6493911Y-885777D01*
X6719388Y-979172D01*
X6956698Y-1036146D01*
X7200000Y-1055294D01*
X7443302Y-1036146D01*
X7680612Y-979172D01*
X7906089Y-885777D01*
X8114179Y-758259D01*
X8299759Y-599759D01*
X8458259Y-414179D01*
X8585777Y-206089D01*
X8679172Y19388D01*
X8736146Y256698D01*
X8755294Y500000D01*
X8736146Y743302D01*
X8679172Y980612D01*
X8585777Y1206089D01*
X8458259Y1414179D01*
X8299759Y1599759D01*
X8114179Y1758259D01*
X7906089Y1885777D01*
X7680612Y1979172D01*
X7443302Y2036146D01*
X7200000Y2055294D01*
X6956698Y2036146D01*
X6719388Y1979172D01*
X6719386Y1979171D01*
X6719383Y1979170D01*
X6493918Y1885780D01*
X6493907Y1885775D01*
X6378463Y1815030D01*
X6285821Y1758259D01*
X6285816Y1758254D01*
X6285815Y1758254D01*
X6209558Y1693124D01*
X6100241Y1599759D01*
X6100235Y1599752D01*
X6100232Y1599749D01*
X5941745Y1414184D01*
X5941739Y1414176D01*
X5814224Y1206092D01*
X5814219Y1206081D01*
X5720829Y980616D01*
X5720828Y980613D01*
X5700765Y897045D01*
X5668795Y844876D01*
X5612267Y821461D01*
X5552773Y835745D01*
X5513036Y882270D01*
X5505500Y920156D01*
X5505500Y2799998D01*
X17144355Y2799998D01*
X17155855Y2705293D01*
X17164860Y2631128D01*
X17201022Y2535775D01*
X17225182Y2472070D01*
X17321816Y2332072D01*
X17321819Y2332068D01*
X17366150Y2292795D01*
X17397168Y2240055D01*
X17399500Y2218693D01*
X17399500Y16446D01*
X17381975Y-39789D01*
X17325182Y-122070D01*
X17264860Y-281129D01*
X17248705Y-414179D01*
X17244355Y-450000D01*
X17264860Y-618872D01*
X17325182Y-777930D01*
X17421817Y-917929D01*
X17549148Y-1030734D01*
X17699775Y-1109790D01*
X17864944Y-1150500D01*
X17864947Y-1150500D01*
X18035053Y-1150500D01*
X18035056Y-1150500D01*
X18200225Y-1109790D01*
X18350852Y-1030734D01*
X18478183Y-917929D01*
X18574818Y-777930D01*
X18635140Y-618872D01*
X18655645Y-450000D01*
X18635140Y-281128D01*
X18574818Y-122070D01*
X18518024Y-39789D01*
X18500500Y16446D01*
X18500500Y1097901D01*
X18517013Y1148726D01*
X18515089Y1150370D01*
X18514470Y1152564D01*
X18680894Y1152564D01*
X18698195Y1105668D01*
X18713853Y906699D01*
X18770828Y669386D01*
X18770829Y669383D01*
X18864219Y443918D01*
X18864224Y443907D01*
X18991739Y235823D01*
X18991745Y235815D01*
X19150232Y50250D01*
X19150250Y50232D01*
X19335815Y-108254D01*
X19335821Y-108259D01*
X19405184Y-150765D01*
X19543907Y-235775D01*
X19543918Y-235780D01*
X19769383Y-329170D01*
X19769388Y-329172D01*
X20006698Y-386146D01*
X20250000Y-405294D01*
X20493302Y-386146D01*
X20730612Y-329172D01*
X20956089Y-235777D01*
X21164179Y-108259D01*
X21313629Y19383D01*
X21349749Y50232D01*
X21349752Y50235D01*
X21349759Y50241D01*
X21357881Y59750D01*
X21508254Y235815D01*
X21508254Y235816D01*
X21508259Y235821D01*
X21635777Y443911D01*
X21729172Y669388D01*
X21786146Y906698D01*
X21805294Y1150000D01*
X21786146Y1393302D01*
X21729172Y1630612D01*
X21635777Y1856089D01*
X21508259Y2064179D01*
X21349759Y2249759D01*
X21164179Y2408259D01*
X20956089Y2535777D01*
X20730612Y2629172D01*
X20493302Y2686146D01*
X20250000Y2705294D01*
X20006698Y2686146D01*
X19769388Y2629172D01*
X19769386Y2629171D01*
X19769383Y2629170D01*
X19543918Y2535780D01*
X19543907Y2535775D01*
X19439951Y2472070D01*
X19335821Y2408259D01*
X19335816Y2408254D01*
X19335815Y2408254D01*
X19185807Y2280135D01*
X19150241Y2249759D01*
X19150235Y2249752D01*
X19150232Y2249749D01*
X18991745Y2064184D01*
X18991739Y2064176D01*
X18864224Y1856092D01*
X18864219Y1856081D01*
X18770829Y1630616D01*
X18770828Y1630613D01*
X18713853Y1393300D01*
X18700233Y1220238D01*
X18699121Y1206092D01*
X18698195Y1194331D01*
X18680894Y1152564D01*
X18514470Y1152564D01*
X18500500Y1202098D01*
X18500500Y2521645D01*
X18506933Y2556750D01*
X18513283Y2573495D01*
X18535140Y2631128D01*
X18555645Y2800000D01*
X18535140Y2968872D01*
X18474818Y3127930D01*
X18378183Y3267929D01*
X18250852Y3380734D01*
X18100225Y3459790D01*
X17935056Y3500500D01*
X17764944Y3500500D01*
X17599775Y3459790D01*
X17449148Y3380734D01*
X17321817Y3267929D01*
X17225182Y3127930D01*
X17164860Y2968872D01*
X17164860Y2968870D01*
X17144355Y2800001D01*
X17144355Y2799998D01*
X5505500Y2799998D01*
X5505500Y3308831D01*
X5505500Y3308840D01*
X5503118Y3346916D01*
X5499266Y3377581D01*
X5497454Y3389951D01*
X5458884Y3495389D01*
X5423232Y3555479D01*
X5386696Y3604934D01*
X5297244Y3672780D01*
X5257492Y3692678D01*
X5213922Y3735631D01*
X5203919Y3795993D01*
X5219493Y3836207D01*
X5289390Y3940813D01*
X5289396Y3940825D01*
X5349736Y4086501D01*
X5349737Y4086503D01*
X5380500Y4241158D01*
X5380500Y4398842D01*
X5349737Y4553497D01*
X5289394Y4699179D01*
X5220004Y4803027D01*
X5203396Y4861914D01*
X5224573Y4919318D01*
X5252338Y4943484D01*
X5327571Y4987484D01*
X5380375Y5033239D01*
X5422553Y5077972D01*
X5473439Y5178048D01*
X5493124Y5245087D01*
X5505500Y5331159D01*
X5505500Y7214323D01*
X5495730Y7290965D01*
X5480121Y7351194D01*
X5462941Y7400011D01*
X5398810Y7492163D01*
X5349041Y7541202D01*
X5301126Y7579729D01*
X5301127Y7579729D01*
X5301125Y7579730D01*
X5254472Y7598994D01*
X5207904Y7638678D01*
X5193555Y7698157D01*
X5216906Y7754711D01*
X5226286Y7764314D01*
X5231250Y7768750D01*
X5467041Y8032600D01*
X5671808Y8321192D01*
X5724758Y8416998D01*
X5842973Y8630890D01*
X5956762Y8905602D01*
X5978390Y8957816D01*
X6076350Y9297843D01*
X6135623Y9646700D01*
X6155464Y10000000D01*
X6135623Y10353300D01*
X6076350Y10702157D01*
X5978390Y11042184D01*
X5842975Y11369105D01*
X5671808Y11678808D01*
X5631166Y11736086D01*
X5612912Y11794483D01*
X5632470Y11852458D01*
X5641902Y11863378D01*
X6049028Y12270504D01*
X6103545Y12298281D01*
X6119032Y12299500D01*
X16080967Y12299500D01*
X16139158Y12280593D01*
X16150971Y12270504D01*
X17150308Y11271166D01*
X17178085Y11216649D01*
X17171768Y11163276D01*
X17121609Y11042182D01*
X17023649Y10702155D01*
X16964378Y10353310D01*
X16964375Y10353290D01*
X16944536Y10000004D01*
X16944536Y9999995D01*
X16964375Y9646709D01*
X16964378Y9646689D01*
X17023649Y9297844D01*
X17121609Y8957817D01*
X17257026Y8630890D01*
X17428193Y8321189D01*
X17632956Y8032603D01*
X17868743Y7768757D01*
X17868757Y7768743D01*
X18132603Y7532956D01*
X18421189Y7328193D01*
X18730891Y7157026D01*
X18730890Y7157026D01*
X19057817Y7021609D01*
X19397844Y6923649D01*
X19746689Y6864378D01*
X19746709Y6864375D01*
X20099995Y6844536D01*
X20100000Y6844536D01*
X20100005Y6844536D01*
X20453290Y6864375D01*
X20453310Y6864378D01*
X20802155Y6923649D01*
X21142182Y7021609D01*
X21469109Y7157026D01*
X21778810Y7328193D01*
X22067396Y7532956D01*
X22067400Y7532959D01*
X22331250Y7768750D01*
X22567041Y8032600D01*
X22771808Y8321192D01*
X22824758Y8416998D01*
X22942973Y8630890D01*
X23056762Y8905602D01*
X23078390Y8957816D01*
X23176350Y9297843D01*
X23235623Y9646700D01*
X23255464Y10000000D01*
X23235623Y10353300D01*
X23176350Y10702157D01*
X23078390Y11042184D01*
X22942975Y11369105D01*
X22771808Y11678808D01*
X22567041Y11967400D01*
X22331250Y12231250D01*
X22067400Y12467041D01*
X21778808Y12671808D01*
X21469105Y12842975D01*
X21142184Y12978390D01*
X21048538Y13005369D01*
X20997856Y13039647D01*
X20977001Y13097168D01*
X20993939Y13155962D01*
X21042201Y13193572D01*
X21075945Y13199500D01*
X25054753Y13199500D01*
X25112944Y13180593D01*
G37*
%TD.AperFunction*%
%TA.AperFunction,Conductor*%
G36*
X26923653Y-12499388D02*
G01*
X26974767Y-12403763D01*
X27005763Y-12301585D01*
X27040748Y-12251388D01*
X27098556Y-12231342D01*
X27157107Y-12249103D01*
X27194036Y-12297888D01*
X27199500Y-12330323D01*
X27199500Y-12992209D01*
X27198281Y-13007697D01*
X27192188Y-13046164D01*
X27182617Y-13075620D01*
X27182246Y-13076350D01*
X27168520Y-13103288D01*
X27150314Y-13128347D01*
X27128347Y-13150314D01*
X27103289Y-13168518D01*
X27079593Y-13180593D01*
X27075621Y-13182617D01*
X27046164Y-13192188D01*
X27018848Y-13196514D01*
X27007695Y-13198281D01*
X26992210Y-13199500D01*
X26330323Y-13199500D01*
X26272132Y-13180593D01*
X26236168Y-13131093D01*
X26236168Y-13069907D01*
X26272132Y-13020407D01*
X26301585Y-13005763D01*
X26403763Y-12974767D01*
X26499388Y-12923653D01*
X26073640Y-12497905D01*
X26192993Y-12465925D01*
X26307007Y-12400099D01*
X26400099Y-12307007D01*
X26465925Y-12192993D01*
X26497905Y-12073640D01*
X26923653Y-12499388D01*
G37*
%TD.AperFunction*%
%TA.AperFunction,Conductor*%
G36*
X27166517Y-6871472D02*
G01*
X27197273Y-6924365D01*
X27199500Y-6945247D01*
X27199500Y-11669677D01*
X27180593Y-11727868D01*
X27131093Y-11763832D01*
X27069907Y-11763832D01*
X27020407Y-11727868D01*
X27005763Y-11698415D01*
X26974767Y-11596237D01*
X26923653Y-11500610D01*
X26497905Y-11926357D01*
X26465925Y-11807007D01*
X26400099Y-11692993D01*
X26307007Y-11599901D01*
X26192993Y-11534075D01*
X26073639Y-11502093D01*
X26499388Y-11076345D01*
X26440880Y-11045072D01*
X26398474Y-11000966D01*
X26390091Y-10940358D01*
X26418934Y-10886397D01*
X26440881Y-10870452D01*
X26544569Y-10815030D01*
X26544572Y-10815027D01*
X26544581Y-10815023D01*
X26693120Y-10693120D01*
X26815023Y-10544581D01*
X26815027Y-10544572D01*
X26815030Y-10544569D01*
X26905602Y-10375119D01*
X26905605Y-10375114D01*
X26961385Y-10191231D01*
X26961386Y-10191226D01*
X26980220Y-10000003D01*
X26980220Y-9999996D01*
X26961386Y-9808773D01*
X26961385Y-9808768D01*
X26936125Y-9725499D01*
X26905605Y-9624886D01*
X26875940Y-9569386D01*
X26815030Y-9455430D01*
X26815025Y-9455423D01*
X26815023Y-9455419D01*
X26749975Y-9376158D01*
X26693124Y-9306884D01*
X26693115Y-9306875D01*
X26606521Y-9235810D01*
X26544581Y-9184977D01*
X26544578Y-9184975D01*
X26544569Y-9184969D01*
X26375119Y-9094397D01*
X26370625Y-9092536D01*
X26371175Y-9091206D01*
X26326046Y-9059756D01*
X26305997Y-9001949D01*
X26323755Y-8943397D01*
X26370766Y-8907806D01*
X26370625Y-8907464D01*
X26371938Y-8906920D01*
X26372538Y-8906466D01*
X26374847Y-8905715D01*
X26375105Y-8905607D01*
X26375114Y-8905605D01*
X26467679Y-8856128D01*
X26544569Y-8815030D01*
X26544572Y-8815027D01*
X26544581Y-8815023D01*
X26693120Y-8693120D01*
X26815023Y-8544581D01*
X26815027Y-8544572D01*
X26815030Y-8544569D01*
X26905602Y-8375119D01*
X26905605Y-8375114D01*
X26961385Y-8191231D01*
X26961386Y-8191226D01*
X26980220Y-8000003D01*
X26980220Y-7999996D01*
X26961386Y-7808773D01*
X26961385Y-7808768D01*
X26944464Y-7752988D01*
X26905605Y-7624886D01*
X26900148Y-7614677D01*
X26815030Y-7455430D01*
X26815025Y-7455423D01*
X26815023Y-7455419D01*
X26742818Y-7367437D01*
X26693124Y-7306884D01*
X26693111Y-7306871D01*
X26594601Y-7226027D01*
X26561613Y-7174496D01*
X26565215Y-7113417D01*
X26604030Y-7066120D01*
X26657405Y-7050499D01*
X26794861Y-7050499D01*
X26794864Y-7050499D01*
X26819991Y-7047585D01*
X26922765Y-7002206D01*
X27002206Y-6922765D01*
X27009936Y-6905257D01*
X27050736Y-6859663D01*
X27110545Y-6846758D01*
X27166517Y-6871472D01*
G37*
%TD.AperFunction*%
%TD*%
M02*
