%TF.GenerationSoftware,KiCad,Pcbnew,7.0.10*%
%TF.CreationDate,2024-02-15T00:45:20-05:00*%
%TF.ProjectId,USB-C-3-way-splitter,5553422d-432d-4332-9d77-61792d73706c,rev?*%
%TF.SameCoordinates,Original*%
%TF.FileFunction,Legend,Bot*%
%TF.FilePolarity,Positive*%
%FSLAX46Y46*%
G04 Gerber Fmt 4.6, Leading zero omitted, Abs format (unit mm)*
G04 Created by KiCad (PCBNEW 7.0.10) date 2024-02-15 00:45:20*
%MOMM*%
%LPD*%
G01*
G04 APERTURE LIST*
%ADD10C,0.150000*%
%ADD11C,0.200000*%
%ADD12C,0.300000*%
%ADD13C,0.120000*%
G04 APERTURE END LIST*
D10*
X23239411Y-3169819D02*
X23810839Y-3169819D01*
X23525125Y-3169819D02*
X23525125Y-2169819D01*
X23525125Y-2169819D02*
X23620363Y-2312676D01*
X23620363Y-2312676D02*
X23715601Y-2407914D01*
X23715601Y-2407914D02*
X23810839Y-2455533D01*
X22810839Y-3074580D02*
X22763220Y-3122200D01*
X22763220Y-3122200D02*
X22810839Y-3169819D01*
X22810839Y-3169819D02*
X22858458Y-3122200D01*
X22858458Y-3122200D02*
X22810839Y-3074580D01*
X22810839Y-3074580D02*
X22810839Y-3169819D01*
X22382268Y-2265057D02*
X22334649Y-2217438D01*
X22334649Y-2217438D02*
X22239411Y-2169819D01*
X22239411Y-2169819D02*
X22001316Y-2169819D01*
X22001316Y-2169819D02*
X21906078Y-2217438D01*
X21906078Y-2217438D02*
X21858459Y-2265057D01*
X21858459Y-2265057D02*
X21810840Y-2360295D01*
X21810840Y-2360295D02*
X21810840Y-2455533D01*
X21810840Y-2455533D02*
X21858459Y-2598390D01*
X21858459Y-2598390D02*
X22429887Y-3169819D01*
X22429887Y-3169819D02*
X21810840Y-3169819D01*
X20906078Y-2169819D02*
X21382268Y-2169819D01*
X21382268Y-2169819D02*
X21429887Y-2646009D01*
X21429887Y-2646009D02*
X21382268Y-2598390D01*
X21382268Y-2598390D02*
X21287030Y-2550771D01*
X21287030Y-2550771D02*
X21048935Y-2550771D01*
X21048935Y-2550771D02*
X20953697Y-2598390D01*
X20953697Y-2598390D02*
X20906078Y-2646009D01*
X20906078Y-2646009D02*
X20858459Y-2741247D01*
X20858459Y-2741247D02*
X20858459Y-2979342D01*
X20858459Y-2979342D02*
X20906078Y-3074580D01*
X20906078Y-3074580D02*
X20953697Y-3122200D01*
X20953697Y-3122200D02*
X21048935Y-3169819D01*
X21048935Y-3169819D02*
X21287030Y-3169819D01*
X21287030Y-3169819D02*
X21382268Y-3122200D01*
X21382268Y-3122200D02*
X21429887Y-3074580D01*
X20572744Y-2169819D02*
X20239411Y-3169819D01*
X20239411Y-3169819D02*
X19906078Y-2169819D01*
X20863220Y9753990D02*
X20529887Y9753990D01*
X20387030Y9230180D02*
X20863220Y9230180D01*
X20863220Y9230180D02*
X20863220Y10230180D01*
X20863220Y10230180D02*
X20387030Y10230180D01*
X19958458Y9230180D02*
X19958458Y10230180D01*
X19958458Y10230180D02*
X19387030Y9230180D01*
X19387030Y9230180D02*
X19387030Y10230180D01*
X5891792Y-1174580D02*
X5939411Y-1222200D01*
X5939411Y-1222200D02*
X6082268Y-1269819D01*
X6082268Y-1269819D02*
X6177506Y-1269819D01*
X6177506Y-1269819D02*
X6320363Y-1222200D01*
X6320363Y-1222200D02*
X6415601Y-1126961D01*
X6415601Y-1126961D02*
X6463220Y-1031723D01*
X6463220Y-1031723D02*
X6510839Y-841247D01*
X6510839Y-841247D02*
X6510839Y-698390D01*
X6510839Y-698390D02*
X6463220Y-507914D01*
X6463220Y-507914D02*
X6415601Y-412676D01*
X6415601Y-412676D02*
X6320363Y-317438D01*
X6320363Y-317438D02*
X6177506Y-269819D01*
X6177506Y-269819D02*
X6082268Y-269819D01*
X6082268Y-269819D02*
X5939411Y-317438D01*
X5939411Y-317438D02*
X5891792Y-365057D01*
X4891792Y-1174580D02*
X4939411Y-1222200D01*
X4939411Y-1222200D02*
X5082268Y-1269819D01*
X5082268Y-1269819D02*
X5177506Y-1269819D01*
X5177506Y-1269819D02*
X5320363Y-1222200D01*
X5320363Y-1222200D02*
X5415601Y-1126961D01*
X5415601Y-1126961D02*
X5463220Y-1031723D01*
X5463220Y-1031723D02*
X5510839Y-841247D01*
X5510839Y-841247D02*
X5510839Y-698390D01*
X5510839Y-698390D02*
X5463220Y-507914D01*
X5463220Y-507914D02*
X5415601Y-412676D01*
X5415601Y-412676D02*
X5320363Y-317438D01*
X5320363Y-317438D02*
X5177506Y-269819D01*
X5177506Y-269819D02*
X5082268Y-269819D01*
X5082268Y-269819D02*
X4939411Y-317438D01*
X4939411Y-317438D02*
X4891792Y-365057D01*
X4510839Y-365057D02*
X4463220Y-317438D01*
X4463220Y-317438D02*
X4367982Y-269819D01*
X4367982Y-269819D02*
X4129887Y-269819D01*
X4129887Y-269819D02*
X4034649Y-317438D01*
X4034649Y-317438D02*
X3987030Y-365057D01*
X3987030Y-365057D02*
X3939411Y-460295D01*
X3939411Y-460295D02*
X3939411Y-555533D01*
X3939411Y-555533D02*
X3987030Y-698390D01*
X3987030Y-698390D02*
X4558458Y-1269819D01*
X4558458Y-1269819D02*
X3939411Y-1269819D01*
X6291792Y1425419D02*
X6339411Y1377800D01*
X6339411Y1377800D02*
X6482268Y1330180D01*
X6482268Y1330180D02*
X6577506Y1330180D01*
X6577506Y1330180D02*
X6720363Y1377800D01*
X6720363Y1377800D02*
X6815601Y1473038D01*
X6815601Y1473038D02*
X6863220Y1568276D01*
X6863220Y1568276D02*
X6910839Y1758752D01*
X6910839Y1758752D02*
X6910839Y1901609D01*
X6910839Y1901609D02*
X6863220Y2092085D01*
X6863220Y2092085D02*
X6815601Y2187323D01*
X6815601Y2187323D02*
X6720363Y2282561D01*
X6720363Y2282561D02*
X6577506Y2330180D01*
X6577506Y2330180D02*
X6482268Y2330180D01*
X6482268Y2330180D02*
X6339411Y2282561D01*
X6339411Y2282561D02*
X6291792Y2234942D01*
X5291792Y1425419D02*
X5339411Y1377800D01*
X5339411Y1377800D02*
X5482268Y1330180D01*
X5482268Y1330180D02*
X5577506Y1330180D01*
X5577506Y1330180D02*
X5720363Y1377800D01*
X5720363Y1377800D02*
X5815601Y1473038D01*
X5815601Y1473038D02*
X5863220Y1568276D01*
X5863220Y1568276D02*
X5910839Y1758752D01*
X5910839Y1758752D02*
X5910839Y1901609D01*
X5910839Y1901609D02*
X5863220Y2092085D01*
X5863220Y2092085D02*
X5815601Y2187323D01*
X5815601Y2187323D02*
X5720363Y2282561D01*
X5720363Y2282561D02*
X5577506Y2330180D01*
X5577506Y2330180D02*
X5482268Y2330180D01*
X5482268Y2330180D02*
X5339411Y2282561D01*
X5339411Y2282561D02*
X5291792Y2234942D01*
X4339411Y1330180D02*
X4910839Y1330180D01*
X4625125Y1330180D02*
X4625125Y2330180D01*
X4625125Y2330180D02*
X4720363Y2187323D01*
X4720363Y2187323D02*
X4815601Y2092085D01*
X4815601Y2092085D02*
X4910839Y2044466D01*
D11*
X18067219Y3944612D02*
X18781504Y3944612D01*
X18781504Y3944612D02*
X18924361Y3992231D01*
X18924361Y3992231D02*
X19019600Y4087469D01*
X19019600Y4087469D02*
X19067219Y4230326D01*
X19067219Y4230326D02*
X19067219Y4325564D01*
X19067219Y2992231D02*
X19067219Y3468421D01*
X19067219Y3468421D02*
X18067219Y3468421D01*
X18971980Y2087469D02*
X19019600Y2135088D01*
X19019600Y2135088D02*
X19067219Y2277945D01*
X19067219Y2277945D02*
X19067219Y2373183D01*
X19067219Y2373183D02*
X19019600Y2516040D01*
X19019600Y2516040D02*
X18924361Y2611278D01*
X18924361Y2611278D02*
X18829123Y2658897D01*
X18829123Y2658897D02*
X18638647Y2706516D01*
X18638647Y2706516D02*
X18495790Y2706516D01*
X18495790Y2706516D02*
X18305314Y2658897D01*
X18305314Y2658897D02*
X18210076Y2611278D01*
X18210076Y2611278D02*
X18114838Y2516040D01*
X18114838Y2516040D02*
X18067219Y2373183D01*
X18067219Y2373183D02*
X18067219Y2277945D01*
X18067219Y2277945D02*
X18114838Y2135088D01*
X18114838Y2135088D02*
X18162457Y2087469D01*
X18067219Y1373183D02*
X18781504Y1373183D01*
X18781504Y1373183D02*
X18924361Y1420802D01*
X18924361Y1420802D02*
X19019600Y1516040D01*
X19019600Y1516040D02*
X19067219Y1658897D01*
X19067219Y1658897D02*
X19067219Y1754135D01*
X19067219Y420802D02*
X19067219Y896992D01*
X19067219Y896992D02*
X18067219Y896992D01*
X18971980Y-483959D02*
X19019600Y-436340D01*
X19019600Y-436340D02*
X19067219Y-293483D01*
X19067219Y-293483D02*
X19067219Y-198245D01*
X19067219Y-198245D02*
X19019600Y-55388D01*
X19019600Y-55388D02*
X18924361Y39849D01*
X18924361Y39849D02*
X18829123Y87468D01*
X18829123Y87468D02*
X18638647Y135087D01*
X18638647Y135087D02*
X18495790Y135087D01*
X18495790Y135087D02*
X18305314Y87468D01*
X18305314Y87468D02*
X18210076Y39849D01*
X18210076Y39849D02*
X18114838Y-55388D01*
X18114838Y-55388D02*
X18067219Y-198245D01*
X18067219Y-198245D02*
X18067219Y-293483D01*
X18067219Y-293483D02*
X18114838Y-436340D01*
X18114838Y-436340D02*
X18162457Y-483959D01*
X18067219Y-1198245D02*
X18781504Y-1198245D01*
X18781504Y-1198245D02*
X18924361Y-1150626D01*
X18924361Y-1150626D02*
X19019600Y-1055388D01*
X19019600Y-1055388D02*
X19067219Y-912531D01*
X19067219Y-912531D02*
X19067219Y-817293D01*
X19067219Y-2150626D02*
X19067219Y-1674436D01*
X19067219Y-1674436D02*
X18067219Y-1674436D01*
X18971980Y-3055388D02*
X19019600Y-3007769D01*
X19019600Y-3007769D02*
X19067219Y-2864912D01*
X19067219Y-2864912D02*
X19067219Y-2769674D01*
X19067219Y-2769674D02*
X19019600Y-2626817D01*
X19019600Y-2626817D02*
X18924361Y-2531579D01*
X18924361Y-2531579D02*
X18829123Y-2483960D01*
X18829123Y-2483960D02*
X18638647Y-2436341D01*
X18638647Y-2436341D02*
X18495790Y-2436341D01*
X18495790Y-2436341D02*
X18305314Y-2483960D01*
X18305314Y-2483960D02*
X18210076Y-2531579D01*
X18210076Y-2531579D02*
X18114838Y-2626817D01*
X18114838Y-2626817D02*
X18067219Y-2769674D01*
X18067219Y-2769674D02*
X18067219Y-2864912D01*
X18067219Y-2864912D02*
X18114838Y-3007769D01*
X18114838Y-3007769D02*
X18162457Y-3055388D01*
X18067219Y-3769674D02*
X18781504Y-3769674D01*
X18781504Y-3769674D02*
X18924361Y-3722055D01*
X18924361Y-3722055D02*
X19019600Y-3626817D01*
X19019600Y-3626817D02*
X19067219Y-3483960D01*
X19067219Y-3483960D02*
X19067219Y-3388722D01*
X19067219Y-4722055D02*
X19067219Y-4245865D01*
X19067219Y-4245865D02*
X18067219Y-4245865D01*
X18971980Y-5626817D02*
X19019600Y-5579198D01*
X19019600Y-5579198D02*
X19067219Y-5436341D01*
X19067219Y-5436341D02*
X19067219Y-5341103D01*
X19067219Y-5341103D02*
X19019600Y-5198246D01*
X19019600Y-5198246D02*
X18924361Y-5103008D01*
X18924361Y-5103008D02*
X18829123Y-5055389D01*
X18829123Y-5055389D02*
X18638647Y-5007770D01*
X18638647Y-5007770D02*
X18495790Y-5007770D01*
X18495790Y-5007770D02*
X18305314Y-5055389D01*
X18305314Y-5055389D02*
X18210076Y-5103008D01*
X18210076Y-5103008D02*
X18114838Y-5198246D01*
X18114838Y-5198246D02*
X18067219Y-5341103D01*
X18067219Y-5341103D02*
X18067219Y-5436341D01*
X18067219Y-5436341D02*
X18114838Y-5579198D01*
X18114838Y-5579198D02*
X18162457Y-5626817D01*
X27530326Y-3986266D02*
X26768422Y-3986266D01*
X27149374Y-4367219D02*
X27149374Y-3605314D01*
X25816041Y-3367219D02*
X26292231Y-3367219D01*
X26292231Y-3367219D02*
X26339850Y-3843409D01*
X26339850Y-3843409D02*
X26292231Y-3795790D01*
X26292231Y-3795790D02*
X26196993Y-3748171D01*
X26196993Y-3748171D02*
X25958898Y-3748171D01*
X25958898Y-3748171D02*
X25863660Y-3795790D01*
X25863660Y-3795790D02*
X25816041Y-3843409D01*
X25816041Y-3843409D02*
X25768422Y-3938647D01*
X25768422Y-3938647D02*
X25768422Y-4176742D01*
X25768422Y-4176742D02*
X25816041Y-4271980D01*
X25816041Y-4271980D02*
X25863660Y-4319600D01*
X25863660Y-4319600D02*
X25958898Y-4367219D01*
X25958898Y-4367219D02*
X26196993Y-4367219D01*
X26196993Y-4367219D02*
X26292231Y-4319600D01*
X26292231Y-4319600D02*
X26339850Y-4271980D01*
X25482707Y-3367219D02*
X25149374Y-4367219D01*
X25149374Y-4367219D02*
X24816041Y-3367219D01*
X27530326Y-467219D02*
X27530326Y532780D01*
X27530326Y532780D02*
X27292231Y532780D01*
X27292231Y532780D02*
X27149374Y485161D01*
X27149374Y485161D02*
X27054136Y389923D01*
X27054136Y389923D02*
X27006517Y294685D01*
X27006517Y294685D02*
X26958898Y104209D01*
X26958898Y104209D02*
X26958898Y-38647D01*
X26958898Y-38647D02*
X27006517Y-229123D01*
X27006517Y-229123D02*
X27054136Y-324361D01*
X27054136Y-324361D02*
X27149374Y-419600D01*
X27149374Y-419600D02*
X27292231Y-467219D01*
X27292231Y-467219D02*
X27530326Y-467219D01*
X26530326Y-86266D02*
X25768422Y-86266D01*
X26149374Y-467219D02*
X26149374Y294685D01*
X27530326Y-2467219D02*
X27530326Y-1467219D01*
X27530326Y-1467219D02*
X27292231Y-1467219D01*
X27292231Y-1467219D02*
X27149374Y-1514838D01*
X27149374Y-1514838D02*
X27054136Y-1610076D01*
X27054136Y-1610076D02*
X27006517Y-1705314D01*
X27006517Y-1705314D02*
X26958898Y-1895790D01*
X26958898Y-1895790D02*
X26958898Y-2038647D01*
X26958898Y-2038647D02*
X27006517Y-2229123D01*
X27006517Y-2229123D02*
X27054136Y-2324361D01*
X27054136Y-2324361D02*
X27149374Y-2419600D01*
X27149374Y-2419600D02*
X27292231Y-2467219D01*
X27292231Y-2467219D02*
X27530326Y-2467219D01*
X26530326Y-2086266D02*
X25768422Y-2086266D01*
X27106517Y2485161D02*
X27201755Y2532780D01*
X27201755Y2532780D02*
X27344612Y2532780D01*
X27344612Y2532780D02*
X27487469Y2485161D01*
X27487469Y2485161D02*
X27582707Y2389923D01*
X27582707Y2389923D02*
X27630326Y2294685D01*
X27630326Y2294685D02*
X27677945Y2104209D01*
X27677945Y2104209D02*
X27677945Y1961352D01*
X27677945Y1961352D02*
X27630326Y1770876D01*
X27630326Y1770876D02*
X27582707Y1675638D01*
X27582707Y1675638D02*
X27487469Y1580400D01*
X27487469Y1580400D02*
X27344612Y1532780D01*
X27344612Y1532780D02*
X27249374Y1532780D01*
X27249374Y1532780D02*
X27106517Y1580400D01*
X27106517Y1580400D02*
X27058898Y1628019D01*
X27058898Y1628019D02*
X27058898Y1961352D01*
X27058898Y1961352D02*
X27249374Y1961352D01*
X26630326Y1532780D02*
X26630326Y2532780D01*
X26630326Y2532780D02*
X26058898Y1532780D01*
X26058898Y1532780D02*
X26058898Y2532780D01*
X25582707Y1532780D02*
X25582707Y2532780D01*
X25582707Y2532780D02*
X25344612Y2532780D01*
X25344612Y2532780D02*
X25201755Y2485161D01*
X25201755Y2485161D02*
X25106517Y2389923D01*
X25106517Y2389923D02*
X25058898Y2294685D01*
X25058898Y2294685D02*
X25011279Y2104209D01*
X25011279Y2104209D02*
X25011279Y1961352D01*
X25011279Y1961352D02*
X25058898Y1770876D01*
X25058898Y1770876D02*
X25106517Y1675638D01*
X25106517Y1675638D02*
X25201755Y1580400D01*
X25201755Y1580400D02*
X25344612Y1532780D01*
X25344612Y1532780D02*
X25582707Y1532780D01*
D12*
X12485828Y9945489D02*
X13700114Y9945489D01*
X13700114Y9945489D02*
X13842971Y9874060D01*
X13842971Y9874060D02*
X13914400Y9802632D01*
X13914400Y9802632D02*
X13985828Y9659774D01*
X13985828Y9659774D02*
X13985828Y9374060D01*
X13985828Y9374060D02*
X13914400Y9231203D01*
X13914400Y9231203D02*
X13842971Y9159774D01*
X13842971Y9159774D02*
X13700114Y9088346D01*
X13700114Y9088346D02*
X12485828Y9088346D01*
X13914400Y8445488D02*
X13985828Y8231203D01*
X13985828Y8231203D02*
X13985828Y7874060D01*
X13985828Y7874060D02*
X13914400Y7731203D01*
X13914400Y7731203D02*
X13842971Y7659774D01*
X13842971Y7659774D02*
X13700114Y7588345D01*
X13700114Y7588345D02*
X13557257Y7588345D01*
X13557257Y7588345D02*
X13414400Y7659774D01*
X13414400Y7659774D02*
X13342971Y7731203D01*
X13342971Y7731203D02*
X13271542Y7874060D01*
X13271542Y7874060D02*
X13200114Y8159774D01*
X13200114Y8159774D02*
X13128685Y8302631D01*
X13128685Y8302631D02*
X13057257Y8374060D01*
X13057257Y8374060D02*
X12914400Y8445488D01*
X12914400Y8445488D02*
X12771542Y8445488D01*
X12771542Y8445488D02*
X12628685Y8374060D01*
X12628685Y8374060D02*
X12557257Y8302631D01*
X12557257Y8302631D02*
X12485828Y8159774D01*
X12485828Y8159774D02*
X12485828Y7802631D01*
X12485828Y7802631D02*
X12557257Y7588345D01*
X13200114Y6445489D02*
X13271542Y6231203D01*
X13271542Y6231203D02*
X13342971Y6159774D01*
X13342971Y6159774D02*
X13485828Y6088346D01*
X13485828Y6088346D02*
X13700114Y6088346D01*
X13700114Y6088346D02*
X13842971Y6159774D01*
X13842971Y6159774D02*
X13914400Y6231203D01*
X13914400Y6231203D02*
X13985828Y6374060D01*
X13985828Y6374060D02*
X13985828Y6945489D01*
X13985828Y6945489D02*
X12485828Y6945489D01*
X12485828Y6945489D02*
X12485828Y6445489D01*
X12485828Y6445489D02*
X12557257Y6302632D01*
X12557257Y6302632D02*
X12628685Y6231203D01*
X12628685Y6231203D02*
X12771542Y6159774D01*
X12771542Y6159774D02*
X12914400Y6159774D01*
X12914400Y6159774D02*
X13057257Y6231203D01*
X13057257Y6231203D02*
X13128685Y6302632D01*
X13128685Y6302632D02*
X13200114Y6445489D01*
X13200114Y6445489D02*
X13200114Y6945489D01*
X13414400Y5445489D02*
X13414400Y4302632D01*
X13842971Y2731203D02*
X13914400Y2802631D01*
X13914400Y2802631D02*
X13985828Y3016917D01*
X13985828Y3016917D02*
X13985828Y3159774D01*
X13985828Y3159774D02*
X13914400Y3374060D01*
X13914400Y3374060D02*
X13771542Y3516917D01*
X13771542Y3516917D02*
X13628685Y3588346D01*
X13628685Y3588346D02*
X13342971Y3659774D01*
X13342971Y3659774D02*
X13128685Y3659774D01*
X13128685Y3659774D02*
X12842971Y3588346D01*
X12842971Y3588346D02*
X12700114Y3516917D01*
X12700114Y3516917D02*
X12557257Y3374060D01*
X12557257Y3374060D02*
X12485828Y3159774D01*
X12485828Y3159774D02*
X12485828Y3016917D01*
X12485828Y3016917D02*
X12557257Y2802631D01*
X12557257Y2802631D02*
X12628685Y2731203D01*
X13914400Y1016917D02*
X13985828Y802632D01*
X13985828Y802632D02*
X13985828Y445489D01*
X13985828Y445489D02*
X13914400Y302632D01*
X13914400Y302632D02*
X13842971Y231203D01*
X13842971Y231203D02*
X13700114Y159774D01*
X13700114Y159774D02*
X13557257Y159774D01*
X13557257Y159774D02*
X13414400Y231203D01*
X13414400Y231203D02*
X13342971Y302632D01*
X13342971Y302632D02*
X13271542Y445489D01*
X13271542Y445489D02*
X13200114Y731203D01*
X13200114Y731203D02*
X13128685Y874060D01*
X13128685Y874060D02*
X13057257Y945489D01*
X13057257Y945489D02*
X12914400Y1016917D01*
X12914400Y1016917D02*
X12771542Y1016917D01*
X12771542Y1016917D02*
X12628685Y945489D01*
X12628685Y945489D02*
X12557257Y874060D01*
X12557257Y874060D02*
X12485828Y731203D01*
X12485828Y731203D02*
X12485828Y374060D01*
X12485828Y374060D02*
X12557257Y159774D01*
X12985828Y-483081D02*
X14485828Y-483081D01*
X13057257Y-483081D02*
X12985828Y-625939D01*
X12985828Y-625939D02*
X12985828Y-911653D01*
X12985828Y-911653D02*
X13057257Y-1054510D01*
X13057257Y-1054510D02*
X13128685Y-1125939D01*
X13128685Y-1125939D02*
X13271542Y-1197367D01*
X13271542Y-1197367D02*
X13700114Y-1197367D01*
X13700114Y-1197367D02*
X13842971Y-1125939D01*
X13842971Y-1125939D02*
X13914400Y-1054510D01*
X13914400Y-1054510D02*
X13985828Y-911653D01*
X13985828Y-911653D02*
X13985828Y-625939D01*
X13985828Y-625939D02*
X13914400Y-483081D01*
X13985828Y-2054510D02*
X13914400Y-1911653D01*
X13914400Y-1911653D02*
X13771542Y-1840224D01*
X13771542Y-1840224D02*
X12485828Y-1840224D01*
X13985828Y-2625938D02*
X12985828Y-2625938D01*
X12485828Y-2625938D02*
X12557257Y-2554510D01*
X12557257Y-2554510D02*
X12628685Y-2625938D01*
X12628685Y-2625938D02*
X12557257Y-2697367D01*
X12557257Y-2697367D02*
X12485828Y-2625938D01*
X12485828Y-2625938D02*
X12628685Y-2625938D01*
X12985828Y-3125939D02*
X12985828Y-3697367D01*
X12485828Y-3340224D02*
X13771542Y-3340224D01*
X13771542Y-3340224D02*
X13914400Y-3411653D01*
X13914400Y-3411653D02*
X13985828Y-3554510D01*
X13985828Y-3554510D02*
X13985828Y-3697367D01*
X12985828Y-3983082D02*
X12985828Y-4554510D01*
X12485828Y-4197367D02*
X13771542Y-4197367D01*
X13771542Y-4197367D02*
X13914400Y-4268796D01*
X13914400Y-4268796D02*
X13985828Y-4411653D01*
X13985828Y-4411653D02*
X13985828Y-4554510D01*
X13914400Y-5625939D02*
X13985828Y-5483082D01*
X13985828Y-5483082D02*
X13985828Y-5197368D01*
X13985828Y-5197368D02*
X13914400Y-5054510D01*
X13914400Y-5054510D02*
X13771542Y-4983082D01*
X13771542Y-4983082D02*
X13200114Y-4983082D01*
X13200114Y-4983082D02*
X13057257Y-5054510D01*
X13057257Y-5054510D02*
X12985828Y-5197368D01*
X12985828Y-5197368D02*
X12985828Y-5483082D01*
X12985828Y-5483082D02*
X13057257Y-5625939D01*
X13057257Y-5625939D02*
X13200114Y-5697368D01*
X13200114Y-5697368D02*
X13342971Y-5697368D01*
X13342971Y-5697368D02*
X13485828Y-4983082D01*
X13985828Y-6340224D02*
X12985828Y-6340224D01*
X13271542Y-6340224D02*
X13128685Y-6411653D01*
X13128685Y-6411653D02*
X13057257Y-6483082D01*
X13057257Y-6483082D02*
X12985828Y-6625939D01*
X12985828Y-6625939D02*
X12985828Y-6768796D01*
X12485828Y-8197367D02*
X13985828Y-8697367D01*
X13985828Y-8697367D02*
X12485828Y-9197367D01*
X13985828Y-10483081D02*
X13985828Y-9625938D01*
X13985828Y-10054509D02*
X12485828Y-10054509D01*
X12485828Y-10054509D02*
X12700114Y-9911652D01*
X12700114Y-9911652D02*
X12842971Y-9768795D01*
X12842971Y-9768795D02*
X12914400Y-9625938D01*
X16400828Y9945489D02*
X14900828Y9945489D01*
X14900828Y9945489D02*
X14900828Y9374060D01*
X14900828Y9374060D02*
X14972257Y9231203D01*
X14972257Y9231203D02*
X15043685Y9159774D01*
X15043685Y9159774D02*
X15186542Y9088346D01*
X15186542Y9088346D02*
X15400828Y9088346D01*
X15400828Y9088346D02*
X15543685Y9159774D01*
X15543685Y9159774D02*
X15615114Y9231203D01*
X15615114Y9231203D02*
X15686542Y9374060D01*
X15686542Y9374060D02*
X15686542Y9945489D01*
X15400828Y8588346D02*
X16400828Y8231203D01*
X15400828Y7874060D02*
X16400828Y8231203D01*
X16400828Y8231203D02*
X16757971Y8374060D01*
X16757971Y8374060D02*
X16829400Y8445489D01*
X16829400Y8445489D02*
X16900828Y8588346D01*
X16400828Y7088346D02*
X16329400Y7231203D01*
X16329400Y7231203D02*
X16186542Y7302632D01*
X16186542Y7302632D02*
X14900828Y7302632D01*
X16400828Y6302632D02*
X16329400Y6445489D01*
X16329400Y6445489D02*
X16257971Y6516918D01*
X16257971Y6516918D02*
X16115114Y6588346D01*
X16115114Y6588346D02*
X15686542Y6588346D01*
X15686542Y6588346D02*
X15543685Y6516918D01*
X15543685Y6516918D02*
X15472257Y6445489D01*
X15472257Y6445489D02*
X15400828Y6302632D01*
X15400828Y6302632D02*
X15400828Y6088346D01*
X15400828Y6088346D02*
X15472257Y5945489D01*
X15472257Y5945489D02*
X15543685Y5874061D01*
X15543685Y5874061D02*
X15686542Y5802632D01*
X15686542Y5802632D02*
X16115114Y5802632D01*
X16115114Y5802632D02*
X16257971Y5874061D01*
X16257971Y5874061D02*
X16329400Y5945489D01*
X16329400Y5945489D02*
X16400828Y6088346D01*
X16400828Y6088346D02*
X16400828Y6302632D01*
X15400828Y5159775D02*
X16400828Y5159775D01*
X15543685Y5159775D02*
X15472257Y5088346D01*
X15472257Y5088346D02*
X15400828Y4945489D01*
X15400828Y4945489D02*
X15400828Y4731203D01*
X15400828Y4731203D02*
X15472257Y4588346D01*
X15472257Y4588346D02*
X15615114Y4516918D01*
X15615114Y4516918D02*
X16400828Y4516918D01*
X15615114Y2159775D02*
X15615114Y2659775D01*
X16400828Y2659775D02*
X14900828Y2659775D01*
X14900828Y2659775D02*
X14900828Y1945489D01*
X16329400Y802632D02*
X16400828Y945489D01*
X16400828Y945489D02*
X16400828Y1231204D01*
X16400828Y1231204D02*
X16329400Y1374061D01*
X16329400Y1374061D02*
X16186542Y1445489D01*
X16186542Y1445489D02*
X15615114Y1445489D01*
X15615114Y1445489D02*
X15472257Y1374061D01*
X15472257Y1374061D02*
X15400828Y1231204D01*
X15400828Y1231204D02*
X15400828Y945489D01*
X15400828Y945489D02*
X15472257Y802632D01*
X15472257Y802632D02*
X15615114Y731204D01*
X15615114Y731204D02*
X15757971Y731204D01*
X15757971Y731204D02*
X15900828Y1445489D01*
X16400828Y88347D02*
X14900828Y88347D01*
X15472257Y88347D02*
X15400828Y-54510D01*
X15400828Y-54510D02*
X15400828Y-340224D01*
X15400828Y-340224D02*
X15472257Y-483081D01*
X15472257Y-483081D02*
X15543685Y-554510D01*
X15543685Y-554510D02*
X15686542Y-625938D01*
X15686542Y-625938D02*
X16115114Y-625938D01*
X16115114Y-625938D02*
X16257971Y-554510D01*
X16257971Y-554510D02*
X16329400Y-483081D01*
X16329400Y-483081D02*
X16400828Y-340224D01*
X16400828Y-340224D02*
X16400828Y-54510D01*
X16400828Y-54510D02*
X16329400Y88347D01*
X16400828Y-3197367D02*
X16400828Y-2340224D01*
X16400828Y-2768795D02*
X14900828Y-2768795D01*
X14900828Y-2768795D02*
X15115114Y-2625938D01*
X15115114Y-2625938D02*
X15257971Y-2483081D01*
X15257971Y-2483081D02*
X15329400Y-2340224D01*
X15400828Y-4483081D02*
X16400828Y-4483081D01*
X14829400Y-4125938D02*
X15900828Y-3768795D01*
X15900828Y-3768795D02*
X15900828Y-4697366D01*
X15043685Y-6340223D02*
X14972257Y-6411651D01*
X14972257Y-6411651D02*
X14900828Y-6554509D01*
X14900828Y-6554509D02*
X14900828Y-6911651D01*
X14900828Y-6911651D02*
X14972257Y-7054509D01*
X14972257Y-7054509D02*
X15043685Y-7125937D01*
X15043685Y-7125937D02*
X15186542Y-7197366D01*
X15186542Y-7197366D02*
X15329400Y-7197366D01*
X15329400Y-7197366D02*
X15543685Y-7125937D01*
X15543685Y-7125937D02*
X16400828Y-6268794D01*
X16400828Y-6268794D02*
X16400828Y-7197366D01*
X15400828Y-8483080D02*
X16400828Y-8483080D01*
X14829400Y-8125937D02*
X15900828Y-7768794D01*
X15900828Y-7768794D02*
X15900828Y-8697365D01*
D11*
X27677945Y3580400D02*
X27535088Y3532780D01*
X27535088Y3532780D02*
X27296993Y3532780D01*
X27296993Y3532780D02*
X27201755Y3580400D01*
X27201755Y3580400D02*
X27154136Y3628019D01*
X27154136Y3628019D02*
X27106517Y3723257D01*
X27106517Y3723257D02*
X27106517Y3818495D01*
X27106517Y3818495D02*
X27154136Y3913733D01*
X27154136Y3913733D02*
X27201755Y3961352D01*
X27201755Y3961352D02*
X27296993Y4008971D01*
X27296993Y4008971D02*
X27487469Y4056590D01*
X27487469Y4056590D02*
X27582707Y4104209D01*
X27582707Y4104209D02*
X27630326Y4151828D01*
X27630326Y4151828D02*
X27677945Y4247066D01*
X27677945Y4247066D02*
X27677945Y4342304D01*
X27677945Y4342304D02*
X27630326Y4437542D01*
X27630326Y4437542D02*
X27582707Y4485161D01*
X27582707Y4485161D02*
X27487469Y4532780D01*
X27487469Y4532780D02*
X27249374Y4532780D01*
X27249374Y4532780D02*
X27106517Y4485161D01*
X26677945Y3532780D02*
X26677945Y4532780D01*
X26677945Y4056590D02*
X26106517Y4056590D01*
X26106517Y3532780D02*
X26106517Y4532780D01*
X25630326Y3532780D02*
X25630326Y4532780D01*
X25154136Y4056590D02*
X24820803Y4056590D01*
X24677946Y3532780D02*
X25154136Y3532780D01*
X25154136Y3532780D02*
X25154136Y4532780D01*
X25154136Y4532780D02*
X24677946Y4532780D01*
X23773184Y3532780D02*
X24249374Y3532780D01*
X24249374Y3532780D02*
X24249374Y4532780D01*
X23439850Y3532780D02*
X23439850Y4532780D01*
X23439850Y4532780D02*
X23201755Y4532780D01*
X23201755Y4532780D02*
X23058898Y4485161D01*
X23058898Y4485161D02*
X22963660Y4389923D01*
X22963660Y4389923D02*
X22916041Y4294685D01*
X22916041Y4294685D02*
X22868422Y4104209D01*
X22868422Y4104209D02*
X22868422Y3961352D01*
X22868422Y3961352D02*
X22916041Y3770876D01*
X22916041Y3770876D02*
X22963660Y3675638D01*
X22963660Y3675638D02*
X23058898Y3580400D01*
X23058898Y3580400D02*
X23201755Y3532780D01*
X23201755Y3532780D02*
X23439850Y3532780D01*
D13*
%TO.C,TP4*%
X24050000Y-5200000D02*
G75*
G03*
X21150000Y-5200000I-1450000J0D01*
G01*
X21150000Y-5200000D02*
G75*
G03*
X24050000Y-5200000I1450000J0D01*
G01*
%TO.C,TP3*%
X24050000Y8000000D02*
G75*
G03*
X21150000Y8000000I-1450000J0D01*
G01*
X21150000Y8000000D02*
G75*
G03*
X24050000Y8000000I1450000J0D01*
G01*
%TO.C,TP2*%
X9550000Y-1900000D02*
G75*
G03*
X6650000Y-1900000I-1450000J0D01*
G01*
X6650000Y-1900000D02*
G75*
G03*
X9550000Y-1900000I1450000J0D01*
G01*
%TO.C,TP1*%
X10450000Y1700000D02*
G75*
G03*
X7550000Y1700000I-1450000J0D01*
G01*
X7550000Y1700000D02*
G75*
G03*
X10450000Y1700000I1450000J0D01*
G01*
%TD*%
M02*
