%TF.GenerationSoftware,KiCad,Pcbnew,7.0.10*%
%TF.CreationDate,2024-02-13T22:16:17-05:00*%
%TF.ProjectId,USB-C-3-way-splitter,5553422d-432d-4332-9d77-61792d73706c,rev?*%
%TF.SameCoordinates,Original*%
%TF.FileFunction,Copper,L1,Top*%
%TF.FilePolarity,Positive*%
%FSLAX46Y46*%
G04 Gerber Fmt 4.6, Leading zero omitted, Abs format (unit mm)*
G04 Created by KiCad (PCBNEW 7.0.10) date 2024-02-13 22:16:17*
%MOMM*%
%LPD*%
G01*
G04 APERTURE LIST*
G04 Aperture macros list*
%AMRoundRect*
0 Rectangle with rounded corners*
0 $1 Rounding radius*
0 $2 $3 $4 $5 $6 $7 $8 $9 X,Y pos of 4 corners*
0 Add a 4 corners polygon primitive as box body*
4,1,4,$2,$3,$4,$5,$6,$7,$8,$9,$2,$3,0*
0 Add four circle primitives for the rounded corners*
1,1,$1+$1,$2,$3*
1,1,$1+$1,$4,$5*
1,1,$1+$1,$6,$7*
1,1,$1+$1,$8,$9*
0 Add four rect primitives between the rounded corners*
20,1,$1+$1,$2,$3,$4,$5,0*
20,1,$1+$1,$4,$5,$6,$7,0*
20,1,$1+$1,$6,$7,$8,$9,0*
20,1,$1+$1,$8,$9,$2,$3,0*%
G04 Aperture macros list end*
%TA.AperFunction,SMDPad,CuDef*%
%ADD10RoundRect,0.250000X0.650000X-0.412500X0.650000X0.412500X-0.650000X0.412500X-0.650000X-0.412500X0*%
%TD*%
%TA.AperFunction,SMDPad,CuDef*%
%ADD11RoundRect,0.250000X-0.412500X-0.650000X0.412500X-0.650000X0.412500X0.650000X-0.412500X0.650000X0*%
%TD*%
%TA.AperFunction,ComponentPad*%
%ADD12C,5.700000*%
%TD*%
%TA.AperFunction,SMDPad,CuDef*%
%ADD13R,2.000000X0.650000*%
%TD*%
%TA.AperFunction,SMDPad,CuDef*%
%ADD14RoundRect,0.250000X-0.350000X-0.450000X0.350000X-0.450000X0.350000X0.450000X-0.350000X0.450000X0*%
%TD*%
%TA.AperFunction,SMDPad,CuDef*%
%ADD15RoundRect,0.250000X0.450000X-0.350000X0.450000X0.350000X-0.450000X0.350000X-0.450000X-0.350000X0*%
%TD*%
%TA.AperFunction,SMDPad,CuDef*%
%ADD16RoundRect,0.150000X-0.825000X-0.150000X0.825000X-0.150000X0.825000X0.150000X-0.825000X0.150000X0*%
%TD*%
%TA.AperFunction,SMDPad,CuDef*%
%ADD17RoundRect,0.250000X0.350000X0.450000X-0.350000X0.450000X-0.350000X-0.450000X0.350000X-0.450000X0*%
%TD*%
%TA.AperFunction,ComponentPad*%
%ADD18R,1.350000X1.350000*%
%TD*%
%TA.AperFunction,ComponentPad*%
%ADD19O,1.350000X1.350000*%
%TD*%
%TA.AperFunction,SMDPad,CuDef*%
%ADD20RoundRect,0.225000X0.225000X0.375000X-0.225000X0.375000X-0.225000X-0.375000X0.225000X-0.375000X0*%
%TD*%
%TA.AperFunction,SMDPad,CuDef*%
%ADD21RoundRect,0.250000X-0.475000X0.337500X-0.475000X-0.337500X0.475000X-0.337500X0.475000X0.337500X0*%
%TD*%
%TA.AperFunction,SMDPad,CuDef*%
%ADD22RoundRect,0.250000X0.475000X-0.337500X0.475000X0.337500X-0.475000X0.337500X-0.475000X-0.337500X0*%
%TD*%
%TA.AperFunction,SMDPad,CuDef*%
%ADD23RoundRect,0.250000X-0.450000X0.350000X-0.450000X-0.350000X0.450000X-0.350000X0.450000X0.350000X0*%
%TD*%
%TA.AperFunction,SMDPad,CuDef*%
%ADD24RoundRect,0.250000X-0.325000X-0.450000X0.325000X-0.450000X0.325000X0.450000X-0.325000X0.450000X0*%
%TD*%
%TA.AperFunction,SMDPad,CuDef*%
%ADD25R,1.500000X0.450000*%
%TD*%
%TA.AperFunction,SMDPad,CuDef*%
%ADD26R,1.450000X0.600000*%
%TD*%
%TA.AperFunction,SMDPad,CuDef*%
%ADD27R,1.450000X0.300000*%
%TD*%
%TA.AperFunction,ComponentPad*%
%ADD28O,2.100000X1.000000*%
%TD*%
%TA.AperFunction,ComponentPad*%
%ADD29O,1.600000X1.000000*%
%TD*%
%TA.AperFunction,SMDPad,CuDef*%
%ADD30RoundRect,0.250000X-0.400000X-1.450000X0.400000X-1.450000X0.400000X1.450000X-0.400000X1.450000X0*%
%TD*%
%TA.AperFunction,ViaPad*%
%ADD31C,0.800000*%
%TD*%
%TA.AperFunction,Conductor*%
%ADD32C,1.000000*%
%TD*%
%TA.AperFunction,Conductor*%
%ADD33C,1.500000*%
%TD*%
%TA.AperFunction,Conductor*%
%ADD34C,0.300000*%
%TD*%
%TA.AperFunction,Conductor*%
%ADD35C,0.600000*%
%TD*%
%TA.AperFunction,Conductor*%
%ADD36C,0.500000*%
%TD*%
%TA.AperFunction,Conductor*%
%ADD37C,0.450000*%
%TD*%
G04 APERTURE END LIST*
D10*
%TO.P,C4,1*%
%TO.N,+5V*%
X24800000Y-5162500D03*
%TO.P,C4,2*%
%TO.N,GND*%
X24800000Y-2037500D03*
%TD*%
D11*
%TO.P,C3,2*%
%TO.N,GND*%
X15762500Y8500000D03*
%TO.P,C3,1*%
%TO.N,VBUS*%
X12637500Y8500000D03*
%TD*%
D12*
%TO.P,H4,1,1*%
%TO.N,GNDPWR*%
X23000000Y-13000000D03*
%TD*%
%TO.P,H3,1,1*%
%TO.N,GNDPWR*%
X10000000Y-13000000D03*
%TD*%
%TO.P,H2,1,1*%
%TO.N,GNDPWR*%
X24000000Y13000000D03*
%TD*%
%TO.P,H1,1,1*%
%TO.N,GNDPWR*%
X10000000Y13000000D03*
%TD*%
D13*
%TO.P,U2,1,OUT*%
%TO.N,+5V*%
X20610000Y4050000D03*
%TO.P,U2,2,OUT*%
X20610000Y5000000D03*
%TO.P,U2,3,EN*%
%TO.N,EN*%
X20610000Y5950000D03*
%TO.P,U2,4,GND*%
%TO.N,GND*%
X17190000Y5950000D03*
%TO.P,U2,5,IN*%
%TO.N,VBUS*%
X17190000Y5000000D03*
%TO.P,U2,6,IN*%
X17190000Y4050000D03*
%TD*%
D14*
%TO.P,R2,1*%
%TO.N,CC2*%
X15000000Y-9500000D03*
%TO.P,R2,2*%
%TO.N,GND*%
X17000000Y-9500000D03*
%TD*%
D15*
%TO.P,R1,1*%
%TO.N,CC1*%
X8900000Y-6000000D03*
%TO.P,R1,2*%
%TO.N,GND*%
X8900000Y-4000000D03*
%TD*%
D16*
%TO.P,U1,8,V+*%
%TO.N,VBUS*%
X16275000Y-3800000D03*
%TO.P,U1,7*%
%TO.N,Net-(D5-A)*%
X16275000Y-5070000D03*
%TO.P,U1,6,-*%
%TO.N,+1V2*%
X16275000Y-6340000D03*
%TO.P,U1,5,+*%
%TO.N,CC2*%
X16275000Y-7610000D03*
%TO.P,U1,4,V-*%
%TO.N,GND*%
X11325000Y-7610000D03*
%TO.P,U1,3,+*%
%TO.N,CC1*%
X11325000Y-6340000D03*
%TO.P,U1,2,-*%
%TO.N,+1V2*%
X11325000Y-5070000D03*
%TO.P,U1,1*%
%TO.N,Net-(D4-A)*%
X11325000Y-3800000D03*
%TD*%
D14*
%TO.P,R7,1*%
%TO.N,VBUS*%
X13500000Y-1900000D03*
%TO.P,R7,2*%
%TO.N,Net-(D5-A)*%
X15500000Y-1900000D03*
%TD*%
%TO.P,R6,1*%
%TO.N,VBUS*%
X12200000Y200000D03*
%TO.P,R6,2*%
%TO.N,Net-(D4-A)*%
X14200000Y200000D03*
%TD*%
D17*
%TO.P,R3,1*%
%TO.N,VBUS*%
X20600000Y-4500000D03*
%TO.P,R3,2*%
%TO.N,+1V2*%
X18600000Y-4500000D03*
%TD*%
D18*
%TO.P,J4,1,Pin_1*%
%TO.N,+5V*%
X29000000Y7000000D03*
D19*
%TO.P,J4,2,Pin_2*%
%TO.N,Net-(J4-Pin_2)*%
X29000000Y9000000D03*
%TO.P,J4,3,Pin_3*%
X29000000Y11000000D03*
%TO.P,J4,4,Pin_4*%
%TO.N,GND*%
X29000000Y13000000D03*
%TO.P,J4,5,Pin_5*%
%TO.N,GNDPWR*%
X29000000Y15000000D03*
%TD*%
D18*
%TO.P,J3,1,Pin_1*%
%TO.N,+5V*%
X29000000Y-4000000D03*
D19*
%TO.P,J3,2,Pin_2*%
%TO.N,Net-(J3-Pin_2)*%
X29000000Y-2000000D03*
%TO.P,J3,3,Pin_3*%
X29000000Y0D03*
%TO.P,J3,4,Pin_4*%
%TO.N,GND*%
X29000000Y2000000D03*
%TO.P,J3,5,Pin_5*%
%TO.N,GNDPWR*%
X29000000Y4000000D03*
%TD*%
D18*
%TO.P,J2,1,Pin_1*%
%TO.N,+5V*%
X29000000Y-15000000D03*
D19*
%TO.P,J2,2,Pin_2*%
%TO.N,Net-(J2-Pin_2)*%
X29000000Y-13000000D03*
%TO.P,J2,3,Pin_3*%
X29000000Y-11000000D03*
%TO.P,J2,4,Pin_4*%
%TO.N,GND*%
X29000000Y-9000000D03*
%TO.P,J2,5,Pin_5*%
%TO.N,GNDPWR*%
X29000000Y-7000000D03*
%TD*%
D20*
%TO.P,D5,1,K*%
%TO.N,EN*%
X21000000Y-1700000D03*
%TO.P,D5,2,A*%
%TO.N,Net-(D5-A)*%
X17700000Y-1700000D03*
%TD*%
%TO.P,D4,1,K*%
%TO.N,EN*%
X21000000Y700000D03*
%TO.P,D4,2,A*%
%TO.N,Net-(D4-A)*%
X17700000Y700000D03*
%TD*%
D21*
%TO.P,C2,1*%
%TO.N,+5V*%
X23000000Y4537500D03*
%TO.P,C2,2*%
%TO.N,GND*%
X23000000Y2462500D03*
%TD*%
D22*
%TO.P,C1,1*%
%TO.N,VBUS*%
X14700000Y4162500D03*
%TO.P,C1,2*%
%TO.N,GND*%
X14700000Y6237500D03*
%TD*%
D23*
%TO.P,R5,1*%
%TO.N,+5V*%
X25100000Y4500000D03*
%TO.P,R5,2*%
%TO.N,Net-(D3-A)*%
X25100000Y2500000D03*
%TD*%
D14*
%TO.P,R4,1*%
%TO.N,VBUS*%
X8400000Y200000D03*
%TO.P,R4,2*%
%TO.N,Net-(D2-A)*%
X10400000Y200000D03*
%TD*%
D24*
%TO.P,D3,1,K*%
%TO.N,GND*%
X23175000Y500000D03*
%TO.P,D3,2,A*%
%TO.N,Net-(D3-A)*%
X25225000Y500000D03*
%TD*%
%TO.P,D2,1,K*%
%TO.N,GND*%
X9375000Y-1900000D03*
%TO.P,D2,2,A*%
%TO.N,Net-(D2-A)*%
X11425000Y-1900000D03*
%TD*%
D25*
%TO.P,D1,1,K*%
%TO.N,+1V2*%
X18800000Y-6300000D03*
%TO.P,D1,2,A*%
%TO.N,GND*%
X18800000Y-7600000D03*
%TO.P,D1,3*%
%TO.N,N/C*%
X21460000Y-6950000D03*
%TD*%
D26*
%TO.P,J1,A1,GND*%
%TO.N,GND*%
X4945000Y3250000D03*
%TO.P,J1,A4,VBUS*%
%TO.N,Net-(F1-Pad1)*%
X4945000Y2450000D03*
D27*
%TO.P,J1,A5,CC1*%
%TO.N,CC1*%
X4945000Y1250000D03*
%TO.P,J1,A6,D+*%
%TO.N,unconnected-(J1-D+-PadA6)*%
X4945000Y250000D03*
%TO.P,J1,A7,D-*%
%TO.N,unconnected-(J1-D--PadA7)*%
X4945000Y-250000D03*
%TO.P,J1,A8,SBU1*%
%TO.N,unconnected-(J1-SBU1-PadA8)*%
X4945000Y-1250000D03*
D26*
%TO.P,J1,A9,VBUS*%
%TO.N,Net-(F1-Pad1)*%
X4945000Y-2450000D03*
%TO.P,J1,A12,GND*%
%TO.N,GND*%
X4945000Y-3250000D03*
%TO.P,J1,B1,GND*%
X4945000Y-3250000D03*
%TO.P,J1,B4,VBUS*%
%TO.N,Net-(F1-Pad1)*%
X4945000Y-2450000D03*
D27*
%TO.P,J1,B5,CC2*%
%TO.N,CC2*%
X4945000Y-1750000D03*
%TO.P,J1,B6,D+*%
%TO.N,unconnected-(J1-D+-PadB6)*%
X4945000Y-750000D03*
%TO.P,J1,B7,D-*%
%TO.N,unconnected-(J1-D--PadB7)*%
X4945000Y750000D03*
%TO.P,J1,B8,SBU2*%
%TO.N,unconnected-(J1-SBU2-PadB8)*%
X4945000Y1750000D03*
D26*
%TO.P,J1,B9,VBUS*%
%TO.N,Net-(F1-Pad1)*%
X4945000Y2450000D03*
%TO.P,J1,B12,GND*%
%TO.N,GND*%
X4945000Y3250000D03*
D28*
%TO.P,J1,S1,SHIELD*%
%TO.N,GNDPWR*%
X4030000Y4320000D03*
D29*
X-150000Y4320000D03*
D28*
X4030000Y-4320000D03*
D29*
X-150000Y-4320000D03*
%TD*%
D30*
%TO.P,F1,1*%
%TO.N,Net-(F1-Pad1)*%
X8175000Y3300000D03*
%TO.P,F1,2*%
%TO.N,VBUS*%
X12625000Y3300000D03*
%TD*%
D31*
%TO.N,VBUS*%
X15200000Y2000000D03*
%TO.N,GND*%
X23000000Y-1000000D03*
X19000000Y-8500000D03*
X17000000Y-11000000D03*
X10000000Y-3000000D03*
X9500000Y4500000D03*
X14500000Y7500000D03*
X17000000Y7000000D03*
X18000000Y7000000D03*
X13500000Y-7000000D03*
%TO.N,VBUS*%
X13100000Y-3800000D03*
X16700000Y-2900000D03*
%TO.N,GND*%
X6500000Y3500000D03*
X6500000Y4500000D03*
X6500000Y-4500000D03*
X6500000Y-3500000D03*
%TD*%
D32*
%TO.N,+5V*%
X27162500Y-5162500D02*
X27200000Y-5200000D01*
X24800000Y-5162500D02*
X27162500Y-5162500D01*
D33*
X27200000Y-5200000D02*
X27200000Y-14500000D01*
X27200000Y-3900000D02*
X27200000Y-5200000D01*
D34*
%TO.N,CC2*%
X9100000Y-8600000D02*
X13700000Y-8600000D01*
X7347600Y-2200000D02*
X7347600Y-6247600D01*
X6897600Y-1750000D02*
X7347600Y-2200000D01*
X7347600Y-6247600D02*
X7800000Y-6700000D01*
X7800000Y-6700000D02*
X7800000Y-7300000D01*
X7800000Y-7300000D02*
X9100000Y-8600000D01*
X4945000Y-1750000D02*
X6897600Y-1750000D01*
D32*
%TO.N,VBUS*%
X12625000Y3300000D02*
X12625000Y8487500D01*
X12625000Y8487500D02*
X12637500Y8500000D01*
%TO.N,GNDPWR*%
X10000000Y-13000000D02*
X23000000Y-13000000D01*
D34*
%TO.N,VBUS*%
X8400000Y200000D02*
X9800000Y1600000D01*
X12425000Y1600000D02*
X12625000Y1400000D01*
D35*
X12625000Y1400000D02*
X12625000Y625000D01*
X12625000Y3300000D02*
X12625000Y1400000D01*
D34*
X9800000Y1600000D02*
X12425000Y1600000D01*
D35*
X12625000Y625000D02*
X12200000Y200000D01*
%TO.N,Net-(F1-Pad1)*%
X8200000Y3275000D02*
X8200000Y2450000D01*
X8175000Y3300000D02*
X8200000Y3275000D01*
X4945000Y2450000D02*
X8200000Y2450000D01*
D34*
%TO.N,CC2*%
X14600000Y-9500000D02*
X15000000Y-9500000D01*
X13700000Y-8600000D02*
X14600000Y-9500000D01*
D32*
%TO.N,GNDPWR*%
X26000000Y15000000D02*
X24000000Y13000000D01*
X29000000Y15000000D02*
X26000000Y15000000D01*
X30600000Y4000000D02*
X30700000Y4100000D01*
X29000000Y4000000D02*
X30600000Y4000000D01*
X30700000Y4100000D02*
X30700000Y-5300000D01*
X30700000Y14300000D02*
X30700000Y4100000D01*
X30000000Y15000000D02*
X30700000Y14300000D01*
X29000000Y15000000D02*
X30000000Y15000000D01*
X30700000Y-5300000D02*
X29000000Y-7000000D01*
D33*
%TO.N,+5V*%
X26900000Y4500000D02*
X27200000Y4200000D01*
X25100000Y4500000D02*
X26900000Y4500000D01*
X27200000Y4200000D02*
X27200000Y-3900000D01*
X27200000Y5200000D02*
X27200000Y4200000D01*
X27300000Y-4000000D02*
X27200000Y-3900000D01*
X29000000Y-4000000D02*
X27300000Y-4000000D01*
X27200000Y-14500000D02*
X27700000Y-15000000D01*
X27700000Y-15000000D02*
X29000000Y-15000000D01*
X29000000Y7000000D02*
X27200000Y5200000D01*
D32*
%TO.N,Net-(J4-Pin_2)*%
X29000000Y11000000D02*
X29000000Y9000000D01*
%TO.N,Net-(J3-Pin_2)*%
X29000000Y0D02*
X29000000Y-2000000D01*
%TO.N,Net-(J2-Pin_2)*%
X29000000Y-11000000D02*
X29000000Y-13000000D01*
D36*
%TO.N,GND*%
X12890000Y-7610000D02*
X13500000Y-7000000D01*
X11325000Y-7610000D02*
X12890000Y-7610000D01*
D34*
%TO.N,CC2*%
X14690000Y-7610000D02*
X13700000Y-8600000D01*
X16275000Y-7610000D02*
X14690000Y-7610000D01*
%TO.N,CC1*%
X7800000Y-4900000D02*
X8900000Y-6000000D01*
X6550000Y1250000D02*
X7100000Y700000D01*
X7100000Y700000D02*
X7100000Y-1000000D01*
X4945000Y1250000D02*
X6550000Y1250000D01*
X7100000Y-1000000D02*
X7800000Y-1700000D01*
X7800000Y-1700000D02*
X7800000Y-4900000D01*
X9240000Y-6340000D02*
X8900000Y-6000000D01*
X11325000Y-6340000D02*
X9240000Y-6340000D01*
D36*
%TO.N,VBUS*%
X13100000Y-3100000D02*
X13100000Y-3800000D01*
X13500000Y-2700000D02*
X13100000Y-3100000D01*
X13500000Y-1900000D02*
X13500000Y-2700000D01*
X16275000Y-3325000D02*
X16700000Y-2900000D01*
X16275000Y-3800000D02*
X16275000Y-3325000D01*
X19200000Y-3100000D02*
X20600000Y-4500000D01*
X18100000Y-3100000D02*
X19200000Y-3100000D01*
X17400000Y-3800000D02*
X18100000Y-3100000D01*
X16275000Y-3800000D02*
X17400000Y-3800000D01*
D34*
%TO.N,Net-(D5-A)*%
X15406656Y-1900000D02*
X15500000Y-1900000D01*
X14000000Y-4100000D02*
X14000000Y-3306656D01*
X14970000Y-5070000D02*
X14000000Y-4100000D01*
X16275000Y-5070000D02*
X14970000Y-5070000D01*
X14000000Y-3306656D02*
X15406656Y-1900000D01*
%TO.N,Net-(D4-A)*%
X12400000Y-1200000D02*
X12397600Y-1202400D01*
X12397600Y-2727400D02*
X11325000Y-3800000D01*
X12700000Y-800000D02*
X12400000Y-1100000D01*
X12397600Y-1202400D02*
X12397600Y-2727400D01*
X13200000Y-800000D02*
X12700000Y-800000D01*
X12400000Y-1100000D02*
X12400000Y-1200000D01*
X14200000Y200000D02*
X13200000Y-800000D01*
D36*
%TO.N,Net-(D5-A)*%
X16000000Y-1700000D02*
X15900000Y-1800000D01*
X17700000Y-1700000D02*
X16000000Y-1700000D01*
%TO.N,Net-(D4-A)*%
X15900000Y700000D02*
X17700000Y700000D01*
X15400000Y200000D02*
X15900000Y700000D01*
X14200000Y200000D02*
X15400000Y200000D01*
D34*
%TO.N,EN*%
X18900000Y2800000D02*
X21000000Y700000D01*
X18900000Y5600000D02*
X18900000Y2800000D01*
D36*
%TO.N,Net-(D3-A)*%
X25225000Y2375000D02*
X25100000Y2500000D01*
X25225000Y500000D02*
X25225000Y2375000D01*
%TO.N,+1V2*%
X18600000Y-6100000D02*
X18800000Y-6300000D01*
X18600000Y-4500000D02*
X18600000Y-6100000D01*
X18760000Y-6340000D02*
X18800000Y-6300000D01*
X16275000Y-6340000D02*
X18760000Y-6340000D01*
X13170000Y-5070000D02*
X14440000Y-6340000D01*
X11325000Y-5070000D02*
X13170000Y-5070000D01*
X14440000Y-6340000D02*
X16275000Y-6340000D01*
%TO.N,EN*%
X21000000Y-1700000D02*
X21000000Y700000D01*
%TO.N,Net-(D2-A)*%
X11425000Y-1125000D02*
X11425000Y-1900000D01*
X10100000Y200000D02*
X11425000Y-1125000D01*
%TO.N,Net-(F1-Pad1)*%
X8100000Y3225000D02*
X8175000Y3300000D01*
D34*
%TO.N,EN*%
X20610000Y5950000D02*
X19250000Y5950000D01*
X19250000Y5950000D02*
X18900000Y5600000D01*
D37*
%TO.N,Net-(F1-Pad1)*%
X3750000Y2002972D02*
X4197028Y2450000D01*
X3750000Y-2002972D02*
X3750000Y2002972D01*
X4197028Y-2450000D02*
X3750000Y-2002972D01*
X4197028Y2450000D02*
X4945000Y2450000D01*
X4945000Y-2450000D02*
X4197028Y-2450000D01*
%TD*%
%TA.AperFunction,Conductor*%
%TO.N,GND*%
G36*
X6000000Y-5000000D02*
G01*
X5188947Y-5000000D01*
X5121908Y-4980315D01*
X5076153Y-4927511D01*
X5066209Y-4858353D01*
X5095234Y-4794797D01*
X5096132Y-4793773D01*
X5114466Y-4773078D01*
X5160734Y-4720852D01*
X5239790Y-4570225D01*
X5280500Y-4405056D01*
X5280500Y-4234944D01*
X5239790Y-4069775D01*
X5213666Y-4020000D01*
X5160736Y-3919150D01*
X5112320Y-3864500D01*
X5047929Y-3791817D01*
X4998177Y-3757475D01*
X4907931Y-3695182D01*
X4748874Y-3634860D01*
X4748868Y-3634859D01*
X4622374Y-3619500D01*
X4622372Y-3619500D01*
X3866521Y-3619500D01*
X3799482Y-3599815D01*
X3753727Y-3547011D01*
X3743783Y-3477853D01*
X3772808Y-3414297D01*
X3791035Y-3397124D01*
X3792250Y-3396192D01*
X3913304Y-3303304D01*
X4006192Y-3182250D01*
X4064584Y-3041280D01*
X4064584Y-3041278D01*
X4067694Y-3033771D01*
X4068909Y-3034274D01*
X4100899Y-2981782D01*
X4163744Y-2951248D01*
X4196476Y-2950128D01*
X4200251Y-2950500D01*
X4200252Y-2950500D01*
X5689750Y-2950500D01*
X5689751Y-2950499D01*
X5704568Y-2947552D01*
X5748229Y-2938868D01*
X5748229Y-2938867D01*
X5748231Y-2938867D01*
X5814552Y-2894552D01*
X5858867Y-2828231D01*
X5858867Y-2828229D01*
X5858868Y-2828229D01*
X5870499Y-2769752D01*
X5870500Y-2769750D01*
X5870500Y-2224500D01*
X5890185Y-2157461D01*
X5942989Y-2111706D01*
X5994500Y-2100500D01*
X6000000Y-2100500D01*
X6000000Y-5000000D01*
G37*
%TD.AperFunction*%
%TA.AperFunction,Conductor*%
G36*
X6000000Y1600500D02*
G01*
X5994500Y1600500D01*
X5927461Y1620185D01*
X5881706Y1672989D01*
X5870500Y1724500D01*
X5870500Y1825500D01*
X5890185Y1892539D01*
X5942989Y1938294D01*
X5994500Y1949500D01*
X6000000Y1949500D01*
X6000000Y1600500D01*
G37*
%TD.AperFunction*%
%TA.AperFunction,Conductor*%
G36*
X6000000Y2950500D02*
G01*
X4200251Y2950500D01*
X4196476Y2950128D01*
X4194514Y2950500D01*
X4194160Y2950500D01*
X4194160Y2950567D01*
X4127829Y2963143D01*
X4077117Y3011206D01*
X4067725Y3033784D01*
X4067694Y3033771D01*
X4006193Y3182247D01*
X4006192Y3182250D01*
X3913304Y3303304D01*
X3792250Y3396192D01*
X3792249Y3396192D01*
X3791035Y3397124D01*
X3749832Y3453552D01*
X3745677Y3523298D01*
X3779889Y3584218D01*
X3841607Y3616971D01*
X3866521Y3619500D01*
X4622374Y3619500D01*
X4748868Y3634859D01*
X4748874Y3634860D01*
X4907931Y3695182D01*
X5016016Y3769789D01*
X5047929Y3791817D01*
X5160734Y3919148D01*
X5160736Y3919150D01*
X5239789Y4069773D01*
X5239790Y4069775D01*
X5280500Y4234944D01*
X5280500Y4405056D01*
X5239790Y4570225D01*
X5160734Y4720852D01*
X5096132Y4793773D01*
X5066410Y4857006D01*
X5075594Y4926269D01*
X5120766Y4979573D01*
X5187585Y4999993D01*
X5188947Y5000000D01*
X6000000Y5000000D01*
X6000000Y2950500D01*
G37*
%TD.AperFunction*%
%TD*%
%TA.AperFunction,Conductor*%
%TO.N,VBUS*%
G36*
X13949932Y5480315D02*
G01*
X13957204Y5475267D01*
X13982668Y5456204D01*
X13982671Y5456202D01*
X14117517Y5405908D01*
X14117516Y5405908D01*
X14177116Y5399501D01*
X14177119Y5399500D01*
X14177127Y5399500D01*
X14177134Y5399500D01*
X14177135Y5399500D01*
X15222870Y5399500D01*
X15222876Y5399501D01*
X15282483Y5405908D01*
X15417328Y5456202D01*
X15417331Y5456204D01*
X15442796Y5475267D01*
X15508261Y5499684D01*
X15517107Y5500000D01*
X15905969Y5500000D01*
X15973008Y5480315D01*
X16009070Y5444890D01*
X16009399Y5444399D01*
X16092260Y5389033D01*
X16092264Y5389032D01*
X16165321Y5374500D01*
X18176000Y5374500D01*
X18243039Y5354815D01*
X18288794Y5302011D01*
X18300000Y5250500D01*
X18300000Y1621223D01*
X18280315Y1554184D01*
X18227511Y1508429D01*
X18158353Y1498485D01*
X18132672Y1505039D01*
X18027114Y1544412D01*
X17970485Y1550500D01*
X17429516Y1550499D01*
X17390025Y1546254D01*
X17372885Y1544412D01*
X17334779Y1530198D01*
X17244774Y1496628D01*
X17244771Y1496626D01*
X17148732Y1424733D01*
X17083268Y1400316D01*
X17074422Y1400000D01*
X12024000Y1400000D01*
X11956961Y1419685D01*
X11911206Y1472489D01*
X11900000Y1524000D01*
X11900000Y5376000D01*
X11919685Y5443039D01*
X11972489Y5488794D01*
X12024000Y5500000D01*
X13882893Y5500000D01*
X13949932Y5480315D01*
G37*
%TD.AperFunction*%
%TD*%
%TA.AperFunction,Conductor*%
%TO.N,+5V*%
G36*
X26943039Y5280315D02*
G01*
X26988794Y5227511D01*
X27000000Y5176000D01*
X27000000Y3624000D01*
X26980315Y3556961D01*
X26927511Y3511206D01*
X26876000Y3500000D01*
X19724000Y3500000D01*
X19656961Y3519685D01*
X19611206Y3572489D01*
X19600000Y3624000D01*
X19600000Y5176000D01*
X19619685Y5243039D01*
X19672489Y5288794D01*
X19724000Y5300000D01*
X26876000Y5300000D01*
X26943039Y5280315D01*
G37*
%TD.AperFunction*%
%TD*%
%TA.AperFunction,Conductor*%
%TO.N,GNDPWR*%
G36*
X5143039Y6179815D02*
G01*
X5188794Y6127011D01*
X5200000Y6075500D01*
X5200000Y5330274D01*
X5180315Y5263235D01*
X5127511Y5217480D01*
X5058353Y5207536D01*
X5027099Y5216323D01*
X4880905Y5279060D01*
X4681690Y5320000D01*
X4280000Y5320000D01*
X4280000Y4620000D01*
X3780000Y4620000D01*
X3780000Y5320000D01*
X3429287Y5320000D01*
X3277661Y5304581D01*
X3083618Y5243700D01*
X3083608Y5243695D01*
X2905784Y5144994D01*
X2905783Y5144994D01*
X2751469Y5012521D01*
X2751468Y5012520D01*
X2626981Y4851695D01*
X2537411Y4669093D01*
X2511754Y4570000D01*
X3313889Y4570000D01*
X3274390Y4545543D01*
X3206799Y4456038D01*
X3176105Y4348160D01*
X3186454Y4236479D01*
X3236448Y4136078D01*
X3308931Y4070000D01*
X2506634Y4070000D01*
X2506931Y4068053D01*
X2506933Y4068047D01*
X2577562Y3877342D01*
X2577565Y3877335D01*
X2685149Y3704732D01*
X2825264Y3557331D01*
X2825266Y3557330D01*
X2992197Y3441142D01*
X2992201Y3441140D01*
X2996293Y3439384D01*
X3050133Y3394852D01*
X3071349Y3328281D01*
X3053207Y3260808D01*
X3045768Y3249965D01*
X2993808Y3182250D01*
X2993806Y3182246D01*
X2935416Y3041280D01*
X2935415Y3041278D01*
X2915500Y2890001D01*
X2915500Y2889998D01*
X2935415Y2738721D01*
X2935416Y2738719D01*
X2993806Y2597752D01*
X3086696Y2476696D01*
X3207753Y2383806D01*
X3294515Y2347868D01*
X3348918Y2304027D01*
X3370983Y2237732D01*
X3364992Y2194986D01*
X3358688Y2175586D01*
X3351243Y2157613D01*
X3340281Y2136099D01*
X3340281Y2136098D01*
X3336503Y2112245D01*
X3331962Y2093330D01*
X3324500Y2070366D01*
X3324500Y-2070366D01*
X3331962Y-2093330D01*
X3336503Y-2112245D01*
X3339355Y-2130252D01*
X3340281Y-2136099D01*
X3351243Y-2157613D01*
X3358688Y-2175586D01*
X3364992Y-2194986D01*
X3366989Y-2264827D01*
X3330910Y-2324661D01*
X3294515Y-2347868D01*
X3207753Y-2383806D01*
X3086696Y-2476696D01*
X2993806Y-2597752D01*
X2935416Y-2738719D01*
X2935415Y-2738721D01*
X2915500Y-2889998D01*
X2915500Y-2890001D01*
X2935415Y-3041278D01*
X2935416Y-3041280D01*
X2980499Y-3150121D01*
X2993808Y-3182250D01*
X3048265Y-3253219D01*
X3073458Y-3318386D01*
X3059420Y-3386831D01*
X3010606Y-3436821D01*
X3010066Y-3437122D01*
X2905792Y-3494999D01*
X2905783Y-3495005D01*
X2751469Y-3627478D01*
X2751468Y-3627479D01*
X2626981Y-3788304D01*
X2537411Y-3970906D01*
X2511754Y-4070000D01*
X3313889Y-4070000D01*
X3274390Y-4094457D01*
X3206799Y-4183962D01*
X3176105Y-4291840D01*
X3186454Y-4403521D01*
X3236448Y-4503922D01*
X3308931Y-4570000D01*
X2506634Y-4570000D01*
X2506931Y-4571946D01*
X2506933Y-4571952D01*
X2577562Y-4762657D01*
X2577565Y-4762664D01*
X2685149Y-4935267D01*
X2825264Y-5082668D01*
X2825266Y-5082669D01*
X2992195Y-5198856D01*
X3179092Y-5279059D01*
X3378310Y-5320000D01*
X3780000Y-5320000D01*
X3780000Y-4620000D01*
X4280000Y-4620000D01*
X4280000Y-5320000D01*
X4630713Y-5320000D01*
X4782338Y-5304581D01*
X4976381Y-5243700D01*
X4976391Y-5243695D01*
X5015822Y-5221810D01*
X5083991Y-5206487D01*
X5149622Y-5230450D01*
X5191879Y-5286093D01*
X5200000Y-5330229D01*
X5200000Y-6075500D01*
X5180315Y-6142539D01*
X5127511Y-6188294D01*
X5076000Y-6199500D01*
X-990243Y-6199500D01*
X-1009638Y-6197973D01*
X-1025888Y-6195399D01*
X-1042250Y-6192808D01*
X-1079144Y-6180821D01*
X-1099762Y-6170316D01*
X-1131150Y-6147511D01*
X-1147511Y-6131150D01*
X-1170316Y-6099762D01*
X-1180821Y-6079144D01*
X-1192808Y-6042250D01*
X-1197973Y-6009642D01*
X-1199500Y-5990243D01*
X-1199500Y-5254096D01*
X-1179815Y-5187057D01*
X-1127011Y-5141302D01*
X-1057853Y-5131358D01*
X-1004662Y-5152322D01*
X-937805Y-5198855D01*
X-750907Y-5279059D01*
X-551690Y-5320000D01*
X-400000Y-5320000D01*
X-400000Y-4620000D01*
X100000Y-4620000D01*
X100000Y-5320000D01*
X200713Y-5320000D01*
X352338Y-5304581D01*
X546381Y-5243700D01*
X546391Y-5243695D01*
X724215Y-5144994D01*
X724216Y-5144994D01*
X878530Y-5012521D01*
X878531Y-5012520D01*
X1003018Y-4851695D01*
X1092588Y-4669093D01*
X1118246Y-4570000D01*
X316111Y-4570000D01*
X355610Y-4545543D01*
X423201Y-4456038D01*
X453895Y-4348160D01*
X443546Y-4236479D01*
X393552Y-4136078D01*
X321069Y-4070000D01*
X1123366Y-4070000D01*
X1123068Y-4068053D01*
X1123066Y-4068047D01*
X1052437Y-3877342D01*
X1052434Y-3877335D01*
X944850Y-3704732D01*
X804735Y-3557331D01*
X804733Y-3557330D01*
X637804Y-3441143D01*
X450907Y-3360940D01*
X251690Y-3320000D01*
X100000Y-3320000D01*
X100000Y-4020000D01*
X-400000Y-4020000D01*
X-400000Y-3320000D01*
X-500713Y-3320000D01*
X-652338Y-3335418D01*
X-846381Y-3396299D01*
X-846396Y-3396306D01*
X-1015323Y-3490068D01*
X-1083491Y-3505391D01*
X-1149123Y-3481427D01*
X-1191380Y-3425784D01*
X-1199500Y-3381649D01*
X-1199500Y3385903D01*
X-1179815Y3452942D01*
X-1127011Y3498697D01*
X-1057853Y3508641D01*
X-1004663Y3487678D01*
X-937804Y3441143D01*
X-750907Y3360940D01*
X-551690Y3320000D01*
X-400000Y3320000D01*
X-400000Y4020000D01*
X100000Y4020000D01*
X100000Y3320000D01*
X200713Y3320000D01*
X352338Y3335418D01*
X546381Y3396299D01*
X546391Y3396304D01*
X724215Y3495005D01*
X724216Y3495005D01*
X878530Y3627478D01*
X878531Y3627479D01*
X1003018Y3788304D01*
X1092588Y3970906D01*
X1118246Y4070000D01*
X316111Y4070000D01*
X355610Y4094457D01*
X423201Y4183962D01*
X453895Y4291840D01*
X443546Y4403521D01*
X393552Y4503922D01*
X321069Y4570000D01*
X1123366Y4570000D01*
X1123068Y4571946D01*
X1123066Y4571952D01*
X1052437Y4762657D01*
X1052434Y4762664D01*
X944850Y4935267D01*
X804735Y5082668D01*
X804733Y5082669D01*
X637804Y5198856D01*
X450907Y5279059D01*
X251690Y5320000D01*
X100000Y5320000D01*
X100000Y4620000D01*
X-400000Y4620000D01*
X-400000Y5320000D01*
X-500713Y5320000D01*
X-652338Y5304581D01*
X-846381Y5243700D01*
X-846391Y5243695D01*
X-1015322Y5149931D01*
X-1083491Y5134608D01*
X-1149122Y5158572D01*
X-1191379Y5214214D01*
X-1199500Y5258350D01*
X-1199500Y5990244D01*
X-1197973Y6009643D01*
X-1192808Y6042251D01*
X-1180820Y6079147D01*
X-1170315Y6099764D01*
X-1147511Y6131150D01*
X-1131150Y6147511D01*
X-1099762Y6170316D01*
X-1079144Y6180821D01*
X-1042250Y6192808D01*
X-1025888Y6195399D01*
X-1009638Y6197973D01*
X-990243Y6199500D01*
X5076000Y6199500D01*
X5143039Y6179815D01*
G37*
%TD.AperFunction*%
%TD*%
%TA.AperFunction,Conductor*%
%TO.N,GND*%
G36*
X31118834Y-5974336D02*
G01*
X31174767Y-6016208D01*
X31199184Y-6081672D01*
X31199500Y-6090518D01*
X31199500Y-15990244D01*
X31197973Y-16009644D01*
X31192808Y-16042251D01*
X31180820Y-16079146D01*
X31170314Y-16099765D01*
X31147510Y-16131151D01*
X31131151Y-16147510D01*
X31099765Y-16170314D01*
X31079146Y-16180820D01*
X31042251Y-16192808D01*
X31029663Y-16194801D01*
X31009638Y-16197973D01*
X30990244Y-16199500D01*
X27760293Y-16199500D01*
X27716734Y-16186709D01*
X27698076Y-16196787D01*
X27672277Y-16199500D01*
X23791804Y-16199500D01*
X23724765Y-16179815D01*
X23679010Y-16127011D01*
X23669066Y-16057853D01*
X23698091Y-15994297D01*
X23756869Y-15956523D01*
X23757476Y-15956346D01*
X23761818Y-15955095D01*
X24009104Y-15883853D01*
X24325648Y-15752736D01*
X24625521Y-15587002D01*
X24904953Y-15388735D01*
X25160428Y-15160428D01*
X25388735Y-14904953D01*
X25587002Y-14625521D01*
X25752736Y-14325648D01*
X25883853Y-14009104D01*
X25978704Y-13679870D01*
X26003252Y-13535390D01*
X26033888Y-13472596D01*
X26093610Y-13436333D01*
X26163457Y-13438114D01*
X26221253Y-13477375D01*
X26248648Y-13541650D01*
X26249500Y-13556162D01*
X26249500Y-14486374D01*
X26249460Y-14489516D01*
X26247355Y-14572545D01*
X26247355Y-14572546D01*
X26257199Y-14627468D01*
X26258507Y-14636796D01*
X26264154Y-14692318D01*
X26264156Y-14692326D01*
X26272689Y-14719522D01*
X26276430Y-14734764D01*
X26281460Y-14762828D01*
X26281461Y-14762830D01*
X26302158Y-14814645D01*
X26305318Y-14823519D01*
X26322025Y-14876768D01*
X26335859Y-14901691D01*
X26342592Y-14915868D01*
X26353168Y-14942343D01*
X26353170Y-14942348D01*
X26353172Y-14942351D01*
X26353173Y-14942353D01*
X26383877Y-14988940D01*
X26388760Y-14997000D01*
X26415840Y-15045790D01*
X26434413Y-15067425D01*
X26443864Y-15079960D01*
X26459546Y-15103756D01*
X26499001Y-15143211D01*
X26505405Y-15150120D01*
X26541760Y-15192468D01*
X26541764Y-15192471D01*
X26541765Y-15192472D01*
X26564300Y-15209915D01*
X26576081Y-15220291D01*
X27018255Y-15662465D01*
X27020449Y-15664715D01*
X27077674Y-15724917D01*
X27077677Y-15724919D01*
X27123486Y-15756803D01*
X27131003Y-15762472D01*
X27174244Y-15797730D01*
X27174247Y-15797733D01*
X27199513Y-15810930D01*
X27212942Y-15819065D01*
X27236342Y-15835353D01*
X27236343Y-15835353D01*
X27236344Y-15835354D01*
X27287623Y-15857359D01*
X27296126Y-15861396D01*
X27345594Y-15887237D01*
X27372998Y-15895078D01*
X27387780Y-15900340D01*
X27413988Y-15911587D01*
X27468648Y-15922819D01*
X27477796Y-15925064D01*
X27512152Y-15934895D01*
X27531445Y-15940416D01*
X27531449Y-15940417D01*
X27559892Y-15942582D01*
X27575405Y-15944758D01*
X27603344Y-15950500D01*
X27659147Y-15950500D01*
X27668560Y-15950857D01*
X27679243Y-15951671D01*
X27681694Y-15951858D01*
X27713749Y-15963983D01*
X27725358Y-15956523D01*
X27744624Y-15952494D01*
X27752478Y-15951493D01*
X27768144Y-15950500D01*
X29048207Y-15950500D01*
X29126100Y-15942579D01*
X29192321Y-15935845D01*
X29366528Y-15881186D01*
X29403648Y-15875500D01*
X29694750Y-15875500D01*
X29694751Y-15875499D01*
X29709568Y-15872552D01*
X29753229Y-15863868D01*
X29753229Y-15863867D01*
X29753231Y-15863867D01*
X29819552Y-15819552D01*
X29863867Y-15753231D01*
X29863867Y-15753229D01*
X29863868Y-15753229D01*
X29875499Y-15694752D01*
X29875500Y-15694750D01*
X29875500Y-15402240D01*
X29888172Y-15347632D01*
X29889413Y-15345100D01*
X29895930Y-15331816D01*
X29940307Y-15160426D01*
X29944383Y-15144682D01*
X29944384Y-15144676D01*
X29944385Y-15144674D01*
X29954176Y-14951610D01*
X29924903Y-14760526D01*
X29899644Y-14692326D01*
X29883219Y-14647976D01*
X29875500Y-14604910D01*
X29875500Y-14305249D01*
X29875499Y-14305247D01*
X29863868Y-14246770D01*
X29863867Y-14246769D01*
X29819552Y-14180447D01*
X29753230Y-14136132D01*
X29753229Y-14136131D01*
X29694752Y-14124500D01*
X29694748Y-14124500D01*
X29395588Y-14124500D01*
X29346688Y-14114451D01*
X29286010Y-14088412D01*
X29259166Y-14082895D01*
X29197462Y-14050117D01*
X29163275Y-13989183D01*
X29167458Y-13919439D01*
X29208683Y-13863028D01*
X29258348Y-13840144D01*
X29272034Y-13837236D01*
X29440161Y-13762381D01*
X29589050Y-13654207D01*
X29712195Y-13517440D01*
X29804214Y-13358059D01*
X29861085Y-13183029D01*
X29880322Y-13000000D01*
X29861085Y-12816971D01*
X29804214Y-12641941D01*
X29743944Y-12537550D01*
X29717113Y-12491077D01*
X29700500Y-12429077D01*
X29700500Y-11570921D01*
X29717113Y-11508921D01*
X29804214Y-11358059D01*
X29861085Y-11183029D01*
X29880322Y-11000000D01*
X29861085Y-10816971D01*
X29804214Y-10641941D01*
X29712195Y-10482560D01*
X29589050Y-10345793D01*
X29491342Y-10274804D01*
X29448678Y-10219475D01*
X29442699Y-10149862D01*
X29475305Y-10088067D01*
X29519443Y-10058857D01*
X29525987Y-10056322D01*
X29711130Y-9941685D01*
X29711131Y-9941685D01*
X29872054Y-9794985D01*
X30003284Y-9621208D01*
X30100348Y-9426280D01*
X30150505Y-9250000D01*
X29315686Y-9250000D01*
X29327641Y-9238045D01*
X29385165Y-9125148D01*
X29404986Y-9000000D01*
X29385165Y-8874852D01*
X29327641Y-8761955D01*
X29315686Y-8750000D01*
X30150505Y-8750000D01*
X30150505Y-8749999D01*
X30100348Y-8573719D01*
X30003284Y-8378791D01*
X29872054Y-8205014D01*
X29711131Y-8058314D01*
X29525987Y-7943677D01*
X29525979Y-7943673D01*
X29519434Y-7941138D01*
X29464033Y-7898565D01*
X29440443Y-7832798D01*
X29456155Y-7764718D01*
X29491342Y-7725195D01*
X29589050Y-7654207D01*
X29712195Y-7517440D01*
X29804214Y-7358059D01*
X29861085Y-7183029D01*
X29862773Y-7166966D01*
X29889354Y-7102351D01*
X29898404Y-7092251D01*
X30987819Y-6002837D01*
X31049142Y-5969352D01*
X31118834Y-5974336D01*
G37*
%TD.AperFunction*%
%TA.AperFunction,Conductor*%
G36*
X19455703Y3436215D02*
G01*
X19468212Y3423705D01*
X19501648Y3385117D01*
X19501655Y3385110D01*
X19519242Y3367160D01*
X19519249Y3367154D01*
X19599059Y3322511D01*
X19599064Y3322509D01*
X19666096Y3302826D01*
X19666101Y3302825D01*
X19666102Y3302825D01*
X19724000Y3294500D01*
X24172519Y3294500D01*
X24239558Y3274815D01*
X24285313Y3222011D01*
X24295257Y3152853D01*
X24272290Y3096868D01*
X24247207Y3062882D01*
X24247206Y3062880D01*
X24202353Y2934701D01*
X24202353Y2934699D01*
X24199500Y2904269D01*
X24199500Y2095730D01*
X24202353Y2065300D01*
X24202353Y2065298D01*
X24247206Y1937119D01*
X24247207Y1937117D01*
X24327850Y1827850D01*
X24437117Y1747207D01*
X24437119Y1747206D01*
X24565299Y1702353D01*
X24595730Y1699500D01*
X24595734Y1699500D01*
X24650500Y1699500D01*
X24717539Y1679815D01*
X24763294Y1627011D01*
X24774500Y1575500D01*
X24774500Y1471352D01*
X24754815Y1404313D01*
X24702011Y1358558D01*
X24691452Y1354310D01*
X24687526Y1352935D01*
X24687118Y1352793D01*
X24577850Y1272150D01*
X24507635Y1177011D01*
X24497207Y1162882D01*
X24497206Y1162880D01*
X24452353Y1034701D01*
X24452353Y1034699D01*
X24449500Y1004269D01*
X24449500Y-4269D01*
X24452353Y-34699D01*
X24452353Y-34701D01*
X24489598Y-141137D01*
X24497207Y-162882D01*
X24577850Y-272150D01*
X24687118Y-352793D01*
X24729845Y-367744D01*
X24815299Y-397646D01*
X24845730Y-400500D01*
X24845734Y-400500D01*
X25604270Y-400500D01*
X25634699Y-397646D01*
X25634701Y-397646D01*
X25706931Y-372371D01*
X25762882Y-352793D01*
X25872150Y-272150D01*
X25952793Y-162882D01*
X25983106Y-76253D01*
X25997646Y-34701D01*
X25997646Y-34699D01*
X26000500Y-4269D01*
X26000500Y1004269D01*
X25997646Y1034699D01*
X25997646Y1034701D01*
X25963731Y1131622D01*
X25952793Y1162882D01*
X25872150Y1272150D01*
X25762882Y1352793D01*
X25760915Y1353481D01*
X25758548Y1354310D01*
X25701771Y1395030D01*
X25676022Y1459982D01*
X25675500Y1471352D01*
X25675500Y1628648D01*
X25695185Y1695687D01*
X25747989Y1741442D01*
X25758536Y1745686D01*
X25762882Y1747207D01*
X25872150Y1827850D01*
X25952793Y1937118D01*
X25964006Y1969163D01*
X25997646Y2065298D01*
X25997646Y2065300D01*
X26000500Y2095730D01*
X26000500Y2904269D01*
X25997646Y2934699D01*
X25997646Y2934701D01*
X25975219Y2998790D01*
X25952793Y3062882D01*
X25927710Y3096868D01*
X25903740Y3162494D01*
X25919055Y3230665D01*
X25968795Y3279733D01*
X26027481Y3294500D01*
X26125500Y3294500D01*
X26192539Y3274815D01*
X26238294Y3222011D01*
X26249500Y3170500D01*
X26249500Y-3886374D01*
X26249460Y-3889516D01*
X26247355Y-3972540D01*
X26247555Y-3973654D01*
X26249500Y-3995530D01*
X26249500Y-4338000D01*
X26229815Y-4405039D01*
X26177011Y-4450794D01*
X26125500Y-4462000D01*
X25857662Y-4462000D01*
X25790623Y-4442315D01*
X25778368Y-4432439D01*
X25662882Y-4347207D01*
X25662880Y-4347206D01*
X25534700Y-4302353D01*
X25504270Y-4299500D01*
X25504266Y-4299500D01*
X24095734Y-4299500D01*
X24095730Y-4299500D01*
X24065300Y-4302353D01*
X24065298Y-4302353D01*
X23937119Y-4347206D01*
X23937117Y-4347207D01*
X23827850Y-4427850D01*
X23747207Y-4537117D01*
X23747206Y-4537119D01*
X23702353Y-4665298D01*
X23702353Y-4665300D01*
X23699500Y-4695730D01*
X23699500Y-5629269D01*
X23702353Y-5659699D01*
X23702353Y-5659701D01*
X23747206Y-5787880D01*
X23747207Y-5787882D01*
X23827850Y-5897150D01*
X23937118Y-5977793D01*
X23970575Y-5989500D01*
X24065299Y-6022646D01*
X24095730Y-6025500D01*
X24095734Y-6025500D01*
X25504270Y-6025500D01*
X25534699Y-6022646D01*
X25534701Y-6022646D01*
X25598790Y-6000219D01*
X25662882Y-5977793D01*
X25772150Y-5897150D01*
X25772150Y-5897148D01*
X25779626Y-5891632D01*
X25780899Y-5893357D01*
X25831304Y-5865834D01*
X25857662Y-5863000D01*
X26125500Y-5863000D01*
X26192539Y-5882685D01*
X26238294Y-5935489D01*
X26249500Y-5987000D01*
X26249500Y-12443837D01*
X26229815Y-12510876D01*
X26177011Y-12556631D01*
X26107853Y-12566575D01*
X26044297Y-12537550D01*
X26006523Y-12478772D01*
X26003252Y-12464608D01*
X25980524Y-12330842D01*
X25978704Y-12320130D01*
X25883853Y-11990896D01*
X25752736Y-11674352D01*
X25587002Y-11374479D01*
X25388735Y-11095047D01*
X25388734Y-11095046D01*
X25388730Y-11095040D01*
X25160429Y-10839573D01*
X25160426Y-10839570D01*
X24904959Y-10611269D01*
X24625521Y-10412998D01*
X24516586Y-10352792D01*
X24325648Y-10247264D01*
X24296706Y-10235276D01*
X24258560Y-10219475D01*
X24009104Y-10116147D01*
X23924479Y-10091766D01*
X23679875Y-10021297D01*
X23679866Y-10021295D01*
X23342093Y-9963905D01*
X23342081Y-9963903D01*
X23000000Y-9944693D01*
X22657918Y-9963903D01*
X22657906Y-9963905D01*
X22320133Y-10021295D01*
X22320124Y-10021297D01*
X21990899Y-10116146D01*
X21990896Y-10116147D01*
X21909501Y-10149862D01*
X21674353Y-10247263D01*
X21374478Y-10412998D01*
X21095040Y-10611269D01*
X20839573Y-10839570D01*
X20839570Y-10839573D01*
X20611269Y-11095040D01*
X20412998Y-11374478D01*
X20247263Y-11674353D01*
X20116145Y-11990899D01*
X20053073Y-12209828D01*
X20015598Y-12268798D01*
X19952191Y-12298146D01*
X19933919Y-12299500D01*
X13066081Y-12299500D01*
X12999042Y-12279815D01*
X12953287Y-12227011D01*
X12946927Y-12209828D01*
X12883854Y-11990899D01*
X12752736Y-11674353D01*
X12752736Y-11674352D01*
X12587002Y-11374479D01*
X12388735Y-11095047D01*
X12388734Y-11095046D01*
X12388730Y-11095040D01*
X12160429Y-10839573D01*
X12160426Y-10839570D01*
X11904959Y-10611269D01*
X11625521Y-10412998D01*
X11516586Y-10352792D01*
X11325648Y-10247264D01*
X11296706Y-10235276D01*
X11258560Y-10219475D01*
X11009104Y-10116147D01*
X10924479Y-10091766D01*
X10679875Y-10021297D01*
X10679866Y-10021295D01*
X10342093Y-9963905D01*
X10342081Y-9963903D01*
X10000000Y-9944693D01*
X9657918Y-9963903D01*
X9657906Y-9963905D01*
X9320133Y-10021295D01*
X9320124Y-10021297D01*
X8990899Y-10116146D01*
X8990896Y-10116147D01*
X8909501Y-10149862D01*
X8674353Y-10247263D01*
X8374478Y-10412998D01*
X8095040Y-10611269D01*
X7839573Y-10839570D01*
X7839570Y-10839573D01*
X7611269Y-11095040D01*
X7412998Y-11374478D01*
X7247263Y-11674353D01*
X7116146Y-11990899D01*
X7043654Y-12242524D01*
X7006180Y-12301494D01*
X6942773Y-12330842D01*
X6873564Y-12321252D01*
X6820528Y-12275767D01*
X6800502Y-12208828D01*
X6800500Y-12208196D01*
X6800500Y-6921155D01*
X6800499Y-6921153D01*
X6795604Y-6896544D01*
X6769737Y-6766503D01*
X6757246Y-6736346D01*
X6709397Y-6620827D01*
X6709390Y-6620814D01*
X6621789Y-6489711D01*
X6621786Y-6489707D01*
X6510292Y-6378213D01*
X6510288Y-6378210D01*
X6379185Y-6290609D01*
X6379172Y-6290602D01*
X6233501Y-6230264D01*
X6233491Y-6230261D01*
X6099808Y-6203669D01*
X6037897Y-6171284D01*
X6003323Y-6110568D01*
X6000000Y-6082052D01*
X6000000Y-5000000D01*
X6000000Y-2100500D01*
X6701056Y-2100500D01*
X6768095Y-2120185D01*
X6788737Y-2136819D01*
X6960781Y-2308863D01*
X6994266Y-2370186D01*
X6997100Y-2396544D01*
X6997100Y-6198388D01*
X6994461Y-6223832D01*
X6992557Y-6232911D01*
X6992557Y-6232916D01*
X6996148Y-6261721D01*
X6996996Y-6275395D01*
X6997099Y-6276632D01*
X6997100Y-6276637D01*
X6997100Y-6276640D01*
X6999430Y-6290606D01*
X7000266Y-6295615D01*
X7001003Y-6300677D01*
X7007026Y-6348990D01*
X7009124Y-6356035D01*
X7011507Y-6362979D01*
X7011508Y-6362981D01*
X7011917Y-6363736D01*
X7034682Y-6405803D01*
X7037021Y-6410347D01*
X7058402Y-6454084D01*
X7058404Y-6454086D01*
X7058405Y-6454088D01*
X7062662Y-6460051D01*
X7067183Y-6465859D01*
X7102998Y-6498830D01*
X7106696Y-6502378D01*
X7413181Y-6808863D01*
X7446666Y-6870186D01*
X7449500Y-6896544D01*
X7449500Y-7250788D01*
X7446861Y-7276232D01*
X7444957Y-7285311D01*
X7444957Y-7285316D01*
X7448548Y-7314121D01*
X7449396Y-7327795D01*
X7449499Y-7329032D01*
X7449500Y-7329037D01*
X7449500Y-7329040D01*
X7449591Y-7329584D01*
X7452666Y-7348015D01*
X7453403Y-7353077D01*
X7459426Y-7401390D01*
X7461524Y-7408435D01*
X7463907Y-7415379D01*
X7463908Y-7415381D01*
X7480270Y-7445616D01*
X7487082Y-7458203D01*
X7489421Y-7462747D01*
X7510802Y-7506484D01*
X7510804Y-7506486D01*
X7510805Y-7506488D01*
X7515062Y-7512451D01*
X7519583Y-7518259D01*
X7555398Y-7551230D01*
X7559096Y-7554778D01*
X8817362Y-8813044D01*
X8833486Y-8832899D01*
X8836243Y-8837118D01*
X8838563Y-8840669D01*
X8838565Y-8840671D01*
X8861466Y-8858495D01*
X8871726Y-8867557D01*
X8872686Y-8868370D01*
X8872692Y-8868374D01*
X8872694Y-8868376D01*
X8881764Y-8874852D01*
X8888356Y-8879558D01*
X8892447Y-8882608D01*
X8930874Y-8912517D01*
X8930877Y-8912518D01*
X8937330Y-8916011D01*
X8943933Y-8919240D01*
X8974478Y-8928333D01*
X8990584Y-8933128D01*
X8995441Y-8934683D01*
X9041512Y-8950500D01*
X9041516Y-8950500D01*
X9048732Y-8951705D01*
X9056045Y-8952616D01*
X9056047Y-8952617D01*
X9056048Y-8952616D01*
X9056049Y-8952617D01*
X9093133Y-8951083D01*
X9104679Y-8950605D01*
X9109802Y-8950500D01*
X13503456Y-8950500D01*
X13570495Y-8970185D01*
X13591137Y-8986819D01*
X14163181Y-9558863D01*
X14196666Y-9620186D01*
X14199500Y-9646544D01*
X14199500Y-10004269D01*
X14202353Y-10034699D01*
X14202353Y-10034701D01*
X14247206Y-10162880D01*
X14247207Y-10162882D01*
X14327850Y-10272150D01*
X14437118Y-10352793D01*
X14479845Y-10367744D01*
X14565299Y-10397646D01*
X14595730Y-10400500D01*
X14595734Y-10400500D01*
X15404270Y-10400500D01*
X15434699Y-10397646D01*
X15434701Y-10397646D01*
X15498790Y-10375219D01*
X15562882Y-10352793D01*
X15672150Y-10272150D01*
X15752793Y-10162882D01*
X15782273Y-10078634D01*
X15797646Y-10034701D01*
X15797646Y-10034699D01*
X15800500Y-10004269D01*
X15800500Y-8995730D01*
X15797646Y-8965300D01*
X15797646Y-8965298D01*
X15763731Y-8868376D01*
X15752793Y-8837118D01*
X15672150Y-8727850D01*
X15562882Y-8647207D01*
X15562880Y-8647206D01*
X15434700Y-8602353D01*
X15404270Y-8599500D01*
X15404266Y-8599500D01*
X14595734Y-8599500D01*
X14595730Y-8599500D01*
X14565303Y-8602353D01*
X14505901Y-8623139D01*
X14436122Y-8626700D01*
X14375494Y-8591971D01*
X14343267Y-8529978D01*
X14349672Y-8460402D01*
X14377263Y-8418418D01*
X14798863Y-7996819D01*
X14860186Y-7963334D01*
X14886544Y-7960500D01*
X15103457Y-7960500D01*
X15170496Y-7980185D01*
X15191133Y-7996814D01*
X15243517Y-8049198D01*
X15348607Y-8100573D01*
X15382673Y-8105536D01*
X15416739Y-8110500D01*
X15416740Y-8110500D01*
X17133261Y-8110500D01*
X17155971Y-8107191D01*
X17201393Y-8100573D01*
X17306483Y-8049198D01*
X17389198Y-7966483D01*
X17440573Y-7861393D01*
X17450500Y-7793260D01*
X17450500Y-7426740D01*
X17446806Y-7401390D01*
X17441561Y-7365386D01*
X17440573Y-7358607D01*
X17389198Y-7253517D01*
X17389196Y-7253515D01*
X17389196Y-7253514D01*
X17330434Y-7194752D01*
X20509500Y-7194752D01*
X20521131Y-7253229D01*
X20521132Y-7253230D01*
X20565447Y-7319552D01*
X20631769Y-7363867D01*
X20631770Y-7363868D01*
X20690247Y-7375499D01*
X20690250Y-7375500D01*
X20690252Y-7375500D01*
X22229750Y-7375500D01*
X22229751Y-7375499D01*
X22244568Y-7372552D01*
X22288229Y-7363868D01*
X22288229Y-7363867D01*
X22288231Y-7363867D01*
X22354552Y-7319552D01*
X22398867Y-7253231D01*
X22398867Y-7253229D01*
X22398868Y-7253229D01*
X22410499Y-7194752D01*
X22410500Y-7194750D01*
X22410500Y-6705249D01*
X22410499Y-6705247D01*
X22398868Y-6646770D01*
X22398867Y-6646769D01*
X22354552Y-6580447D01*
X22288230Y-6536132D01*
X22288229Y-6536131D01*
X22229752Y-6524500D01*
X22229748Y-6524500D01*
X20690252Y-6524500D01*
X20690247Y-6524500D01*
X20631770Y-6536131D01*
X20631769Y-6536132D01*
X20565447Y-6580447D01*
X20521132Y-6646769D01*
X20521131Y-6646770D01*
X20509500Y-6705247D01*
X20509500Y-7194752D01*
X17330434Y-7194752D01*
X17306485Y-7170803D01*
X17201391Y-7119426D01*
X17133261Y-7109500D01*
X17133260Y-7109500D01*
X15416740Y-7109500D01*
X15416739Y-7109500D01*
X15348608Y-7119426D01*
X15243516Y-7170802D01*
X15223182Y-7191137D01*
X15191136Y-7223182D01*
X15129816Y-7256666D01*
X15103457Y-7259500D01*
X14739206Y-7259500D01*
X14713761Y-7256861D01*
X14712831Y-7256666D01*
X14704685Y-7254958D01*
X14704684Y-7254958D01*
X14675884Y-7258548D01*
X14662181Y-7259398D01*
X14660962Y-7259499D01*
X14641990Y-7262665D01*
X14636923Y-7263403D01*
X14588605Y-7269426D01*
X14581584Y-7271516D01*
X14574617Y-7273908D01*
X14531812Y-7297072D01*
X14527261Y-7299415D01*
X14483513Y-7320803D01*
X14477566Y-7325047D01*
X14471738Y-7329584D01*
X14438780Y-7365386D01*
X14435233Y-7369083D01*
X13591137Y-8213181D01*
X13529814Y-8246666D01*
X13503456Y-8249500D01*
X9296543Y-8249500D01*
X9229504Y-8229815D01*
X9208862Y-8213181D01*
X8186819Y-7191137D01*
X8153334Y-7129814D01*
X8150500Y-7103456D01*
X8150500Y-6897246D01*
X8170185Y-6830207D01*
X8222989Y-6784452D01*
X8292147Y-6774508D01*
X8315453Y-6780203D01*
X8365301Y-6797646D01*
X8375445Y-6798597D01*
X8395730Y-6800500D01*
X8395734Y-6800500D01*
X9404270Y-6800500D01*
X9434699Y-6797646D01*
X9434701Y-6797646D01*
X9517236Y-6768765D01*
X9562882Y-6752793D01*
X9614456Y-6714729D01*
X9680084Y-6690759D01*
X9688089Y-6690500D01*
X10153457Y-6690500D01*
X10220496Y-6710185D01*
X10241133Y-6726814D01*
X10293517Y-6779198D01*
X10398607Y-6830573D01*
X10432673Y-6835536D01*
X10466739Y-6840500D01*
X10466740Y-6840500D01*
X12183261Y-6840500D01*
X12205971Y-6837191D01*
X12251393Y-6830573D01*
X12356483Y-6779198D01*
X12439198Y-6696483D01*
X12490573Y-6591393D01*
X12500500Y-6523260D01*
X12500500Y-6156740D01*
X12490573Y-6088607D01*
X12439198Y-5983517D01*
X12439196Y-5983515D01*
X12439196Y-5983514D01*
X12356485Y-5900803D01*
X12251391Y-5849426D01*
X12183261Y-5839500D01*
X12183260Y-5839500D01*
X10466740Y-5839500D01*
X10466739Y-5839500D01*
X10398608Y-5849426D01*
X10293516Y-5900802D01*
X10277308Y-5917011D01*
X10241136Y-5953182D01*
X10179816Y-5986666D01*
X10153457Y-5989500D01*
X9924500Y-5989500D01*
X9857461Y-5969815D01*
X9811706Y-5917011D01*
X9800500Y-5865500D01*
X9800500Y-5595730D01*
X9797646Y-5565300D01*
X9797646Y-5565298D01*
X9752793Y-5437119D01*
X9752792Y-5437117D01*
X9672150Y-5327850D01*
X9562882Y-5247207D01*
X9562880Y-5247206D01*
X9434700Y-5202353D01*
X9404270Y-5199500D01*
X9404266Y-5199500D01*
X8646544Y-5199500D01*
X8579505Y-5179815D01*
X8558863Y-5163181D01*
X8186819Y-4791137D01*
X8153334Y-4729814D01*
X8150500Y-4703456D01*
X8150500Y-1749206D01*
X8153139Y-1723760D01*
X8155042Y-1714685D01*
X8151451Y-1685883D01*
X8150603Y-1672208D01*
X8150500Y-1670970D01*
X8150500Y-1670960D01*
X8147328Y-1651959D01*
X8146594Y-1646915D01*
X8145751Y-1640150D01*
X8140573Y-1598607D01*
X8140572Y-1598604D01*
X8138477Y-1591566D01*
X8136092Y-1584618D01*
X8112928Y-1541817D01*
X8110579Y-1537254D01*
X8089199Y-1493518D01*
X8084926Y-1487534D01*
X8080420Y-1481745D01*
X8080419Y-1481744D01*
X8080418Y-1481742D01*
X8044587Y-1448757D01*
X8040914Y-1445232D01*
X7486819Y-891137D01*
X7453334Y-829814D01*
X7450500Y-803456D01*
X7450500Y-573184D01*
X7470185Y-506145D01*
X7522989Y-460390D01*
X7592147Y-450446D01*
X7655703Y-479471D01*
X7674265Y-499544D01*
X7727850Y-572150D01*
X7837118Y-652793D01*
X7879845Y-667744D01*
X7965299Y-697646D01*
X7995730Y-700500D01*
X7995734Y-700500D01*
X8804270Y-700500D01*
X8834699Y-697646D01*
X8834701Y-697646D01*
X8898790Y-675219D01*
X8962882Y-652793D01*
X9072150Y-572150D01*
X9152793Y-462882D01*
X9191315Y-352793D01*
X9197646Y-334701D01*
X9197646Y-334699D01*
X9200500Y-304269D01*
X9200500Y453456D01*
X9220185Y520495D01*
X9236819Y541137D01*
X9387819Y692137D01*
X9449142Y725622D01*
X9518834Y720638D01*
X9574767Y678766D01*
X9599184Y613302D01*
X9599500Y604456D01*
X9599500Y-304269D01*
X9602353Y-334699D01*
X9602353Y-334701D01*
X9642524Y-449500D01*
X9647207Y-462882D01*
X9727850Y-572150D01*
X9837118Y-652793D01*
X9879845Y-667744D01*
X9965299Y-697646D01*
X9995730Y-700500D01*
X9995734Y-700500D01*
X10312034Y-700500D01*
X10379073Y-720185D01*
X10399715Y-736819D01*
X10707870Y-1044974D01*
X10741355Y-1106297D01*
X10736371Y-1175989D01*
X10719961Y-1206287D01*
X10697206Y-1237118D01*
X10697206Y-1237119D01*
X10652353Y-1365298D01*
X10652353Y-1365300D01*
X10649500Y-1395730D01*
X10649500Y-2404269D01*
X10652353Y-2434699D01*
X10652353Y-2434701D01*
X10694676Y-2555650D01*
X10697207Y-2562882D01*
X10777850Y-2672150D01*
X10887118Y-2752793D01*
X10914519Y-2762381D01*
X11015299Y-2797646D01*
X11045730Y-2800500D01*
X11529455Y-2800500D01*
X11596494Y-2820185D01*
X11642249Y-2872989D01*
X11652193Y-2942147D01*
X11623168Y-3005703D01*
X11617136Y-3012181D01*
X11366137Y-3263181D01*
X11304814Y-3296666D01*
X11278456Y-3299500D01*
X10466739Y-3299500D01*
X10398608Y-3309426D01*
X10293514Y-3360803D01*
X10210803Y-3443514D01*
X10159426Y-3548608D01*
X10149500Y-3616739D01*
X10149500Y-3983260D01*
X10159426Y-4051391D01*
X10210803Y-4156485D01*
X10293514Y-4239196D01*
X10293515Y-4239196D01*
X10293517Y-4239198D01*
X10398607Y-4290573D01*
X10432673Y-4295536D01*
X10466739Y-4300500D01*
X10466740Y-4300500D01*
X12183261Y-4300500D01*
X12205971Y-4297191D01*
X12251393Y-4290573D01*
X12356483Y-4239198D01*
X12439198Y-4156483D01*
X12439198Y-4156481D01*
X12439609Y-4156071D01*
X12500932Y-4122586D01*
X12570624Y-4127570D01*
X12625665Y-4168264D01*
X12671718Y-4228282D01*
X12797159Y-4324536D01*
X12915284Y-4373465D01*
X12933328Y-4380939D01*
X12987731Y-4424780D01*
X13009796Y-4491074D01*
X12992517Y-4558774D01*
X12941380Y-4606384D01*
X12885875Y-4619500D01*
X12362052Y-4619500D01*
X12307592Y-4606901D01*
X12306534Y-4606384D01*
X12251393Y-4579427D01*
X12251391Y-4579426D01*
X12183261Y-4569500D01*
X12183260Y-4569500D01*
X10466740Y-4569500D01*
X10466739Y-4569500D01*
X10398608Y-4579426D01*
X10293514Y-4630803D01*
X10210803Y-4713514D01*
X10159426Y-4818608D01*
X10149500Y-4886739D01*
X10149500Y-5253260D01*
X10159426Y-5321391D01*
X10210803Y-5426485D01*
X10293514Y-5509196D01*
X10293515Y-5509196D01*
X10293517Y-5509198D01*
X10398607Y-5560573D01*
X10431037Y-5565298D01*
X10466739Y-5570500D01*
X10466740Y-5570500D01*
X12183261Y-5570500D01*
X12205971Y-5567191D01*
X12251393Y-5560573D01*
X12307592Y-5533098D01*
X12362052Y-5520500D01*
X12932034Y-5520500D01*
X12999073Y-5540185D01*
X13019715Y-5556819D01*
X14098630Y-6635733D01*
X14107895Y-6646100D01*
X14130121Y-6673970D01*
X14130123Y-6673972D01*
X14177363Y-6706180D01*
X14181145Y-6708863D01*
X14227118Y-6742793D01*
X14234665Y-6746781D01*
X14242322Y-6750468D01*
X14242327Y-6750472D01*
X14296983Y-6767330D01*
X14301342Y-6768765D01*
X14355300Y-6787646D01*
X14355305Y-6787646D01*
X14363698Y-6789234D01*
X14372095Y-6790500D01*
X14372098Y-6790500D01*
X14429261Y-6790500D01*
X14433898Y-6790587D01*
X14491009Y-6792724D01*
X14491009Y-6792723D01*
X14491010Y-6792724D01*
X14491010Y-6792723D01*
X14500243Y-6791684D01*
X14500336Y-6792513D01*
X14515636Y-6790500D01*
X15237948Y-6790500D01*
X15292407Y-6803098D01*
X15348607Y-6830573D01*
X15382673Y-6835536D01*
X15416739Y-6840500D01*
X15416740Y-6840500D01*
X17133261Y-6840500D01*
X17155971Y-6837191D01*
X17201393Y-6830573D01*
X17257592Y-6803098D01*
X17312052Y-6790500D01*
X18727738Y-6790500D01*
X18741620Y-6791279D01*
X18745208Y-6791684D01*
X18777033Y-6795270D01*
X18777033Y-6795269D01*
X18777035Y-6795270D01*
X18833236Y-6784635D01*
X18837726Y-6783872D01*
X18894287Y-6775348D01*
X18894291Y-6775345D01*
X18902447Y-6772830D01*
X18910473Y-6770023D01*
X18960996Y-6743319D01*
X18965147Y-6741223D01*
X18972306Y-6737776D01*
X19026100Y-6725500D01*
X19569750Y-6725500D01*
X19569751Y-6725499D01*
X19584568Y-6722552D01*
X19628229Y-6713868D01*
X19628229Y-6713867D01*
X19628231Y-6713867D01*
X19694552Y-6669552D01*
X19738867Y-6603231D01*
X19738867Y-6603229D01*
X19738868Y-6603229D01*
X19750499Y-6544752D01*
X19750500Y-6544750D01*
X19750500Y-6055249D01*
X19750499Y-6055247D01*
X19738868Y-5996770D01*
X19738867Y-5996769D01*
X19694552Y-5930447D01*
X19628230Y-5886132D01*
X19628229Y-5886131D01*
X19569752Y-5874500D01*
X19569748Y-5874500D01*
X19174500Y-5874500D01*
X19107461Y-5854815D01*
X19061706Y-5802011D01*
X19050500Y-5750500D01*
X19050500Y-5480099D01*
X19070185Y-5413060D01*
X19122989Y-5367305D01*
X19133525Y-5363065D01*
X19162882Y-5352793D01*
X19272150Y-5272150D01*
X19352793Y-5162882D01*
X19383719Y-5074500D01*
X19397646Y-5034701D01*
X19397646Y-5034699D01*
X19400500Y-5004269D01*
X19400500Y-4236965D01*
X19420185Y-4169926D01*
X19472989Y-4124171D01*
X19542147Y-4114227D01*
X19605703Y-4143252D01*
X19612181Y-4149284D01*
X19763181Y-4300284D01*
X19796666Y-4361607D01*
X19799500Y-4387965D01*
X19799500Y-5004269D01*
X19802353Y-5034699D01*
X19802353Y-5034701D01*
X19843327Y-5151794D01*
X19847207Y-5162882D01*
X19927850Y-5272150D01*
X20037118Y-5352793D01*
X20066451Y-5363057D01*
X20165299Y-5397646D01*
X20195730Y-5400500D01*
X20195734Y-5400500D01*
X21004270Y-5400500D01*
X21034699Y-5397646D01*
X21034701Y-5397646D01*
X21098790Y-5375219D01*
X21162882Y-5352793D01*
X21272150Y-5272150D01*
X21352793Y-5162882D01*
X21383719Y-5074500D01*
X21397646Y-5034701D01*
X21397646Y-5034699D01*
X21400500Y-5004269D01*
X21400500Y-3995730D01*
X21397646Y-3965300D01*
X21397646Y-3965298D01*
X21352793Y-3837119D01*
X21352792Y-3837117D01*
X21272150Y-3727850D01*
X21162882Y-3647207D01*
X21162880Y-3647206D01*
X21034700Y-3602353D01*
X21004270Y-3599500D01*
X21004266Y-3599500D01*
X20387966Y-3599500D01*
X20320927Y-3579815D01*
X20300285Y-3563181D01*
X19541368Y-2804265D01*
X19532102Y-2793897D01*
X19522563Y-2781935D01*
X19509879Y-2766030D01*
X19509878Y-2766029D01*
X19509877Y-2766028D01*
X19476451Y-2743239D01*
X19462633Y-2733818D01*
X19458869Y-2731147D01*
X19412886Y-2697209D01*
X19405297Y-2693198D01*
X19397675Y-2689528D01*
X19343049Y-2672679D01*
X19338644Y-2671230D01*
X19284695Y-2652352D01*
X19276326Y-2650768D01*
X19267904Y-2649500D01*
X19267902Y-2649500D01*
X19210738Y-2649500D01*
X19206101Y-2649413D01*
X19204085Y-2649337D01*
X19148989Y-2647275D01*
X19139756Y-2648316D01*
X19139662Y-2647486D01*
X19124364Y-2649500D01*
X18248829Y-2649500D01*
X18181790Y-2629815D01*
X18136035Y-2577011D01*
X18126091Y-2507853D01*
X18155116Y-2444297D01*
X18175946Y-2425180D01*
X18178216Y-2423529D01*
X18178220Y-2423528D01*
X18273528Y-2328220D01*
X18334719Y-2208126D01*
X18338694Y-2183029D01*
X18350500Y-2108493D01*
X18350500Y-1291506D01*
X18334720Y-1191878D01*
X18334719Y-1191876D01*
X18334719Y-1191874D01*
X18273528Y-1071780D01*
X18273526Y-1071778D01*
X18273523Y-1071774D01*
X18178225Y-976476D01*
X18178221Y-976473D01*
X18178220Y-976472D01*
X18058126Y-915281D01*
X18058124Y-915280D01*
X18058121Y-915279D01*
X17958493Y-899500D01*
X17958488Y-899500D01*
X17441512Y-899500D01*
X17441507Y-899500D01*
X17341878Y-915279D01*
X17221778Y-976473D01*
X17221774Y-976476D01*
X17126476Y-1071774D01*
X17126474Y-1071778D01*
X17126472Y-1071780D01*
X17080116Y-1162759D01*
X17070417Y-1181795D01*
X17022442Y-1232591D01*
X16959932Y-1249500D01*
X16324529Y-1249500D01*
X16257490Y-1229815D01*
X16224759Y-1199133D01*
X16172151Y-1127851D01*
X16155253Y-1115380D01*
X16062882Y-1047207D01*
X16062880Y-1047206D01*
X15934700Y-1002353D01*
X15904270Y-999500D01*
X15904266Y-999500D01*
X15095734Y-999500D01*
X15095730Y-999500D01*
X15065300Y-1002353D01*
X15065298Y-1002353D01*
X14937119Y-1047206D01*
X14937117Y-1047207D01*
X14827850Y-1127850D01*
X14747207Y-1237117D01*
X14747206Y-1237119D01*
X14702353Y-1365298D01*
X14702353Y-1365300D01*
X14699500Y-1395730D01*
X14699500Y-2060111D01*
X14679815Y-2127150D01*
X14663181Y-2147792D01*
X14512181Y-2298792D01*
X14450858Y-2332277D01*
X14381166Y-2327293D01*
X14325233Y-2285421D01*
X14300816Y-2219957D01*
X14300500Y-2211111D01*
X14300500Y-1395730D01*
X14297646Y-1365300D01*
X14297646Y-1365298D01*
X14258335Y-1252957D01*
X14252793Y-1237118D01*
X14172150Y-1127850D01*
X14062882Y-1047207D01*
X14062880Y-1047206D01*
X13934700Y-1002353D01*
X13904270Y-999500D01*
X13904266Y-999500D01*
X13795543Y-999500D01*
X13728504Y-979815D01*
X13682749Y-927011D01*
X13672805Y-857853D01*
X13701830Y-794297D01*
X13707862Y-787819D01*
X13758862Y-736819D01*
X13820185Y-703334D01*
X13846543Y-700500D01*
X14604270Y-700500D01*
X14634699Y-697646D01*
X14634701Y-697646D01*
X14698790Y-675219D01*
X14762882Y-652793D01*
X14872150Y-572150D01*
X14952793Y-462882D01*
X14989091Y-359149D01*
X14998051Y-333544D01*
X15038773Y-276769D01*
X15103726Y-251022D01*
X15115092Y-250500D01*
X15367738Y-250500D01*
X15381620Y-251279D01*
X15394421Y-252722D01*
X15417033Y-255270D01*
X15417033Y-255269D01*
X15417035Y-255270D01*
X15473236Y-244635D01*
X15477726Y-243872D01*
X15534287Y-235348D01*
X15534291Y-235345D01*
X15542447Y-232830D01*
X15550469Y-230024D01*
X15550470Y-230023D01*
X15550472Y-230023D01*
X15601088Y-203270D01*
X15605093Y-201248D01*
X15656642Y-176425D01*
X15656643Y-176423D01*
X15656645Y-176423D01*
X15663695Y-171616D01*
X15670534Y-166567D01*
X15670538Y-166566D01*
X15710974Y-126128D01*
X15714260Y-122962D01*
X15756194Y-84055D01*
X15756196Y-84050D01*
X15761987Y-76790D01*
X15762643Y-77313D01*
X15772032Y-65070D01*
X16050284Y213181D01*
X16111607Y246666D01*
X16137965Y249500D01*
X16959932Y249500D01*
X17026971Y229815D01*
X17070417Y181795D01*
X17126473Y71779D01*
X17126476Y71774D01*
X17221774Y-23523D01*
X17221778Y-23526D01*
X17221780Y-23528D01*
X17341874Y-84719D01*
X17341876Y-84719D01*
X17341878Y-84720D01*
X17441507Y-100500D01*
X17441512Y-100500D01*
X17958493Y-100500D01*
X18058121Y-84720D01*
X18058121Y-84719D01*
X18058126Y-84719D01*
X18178220Y-23528D01*
X18201748Y0D01*
X18273523Y71774D01*
X18273526Y71778D01*
X18273527Y71779D01*
X18273528Y71780D01*
X18334719Y191874D01*
X18338094Y213181D01*
X18350500Y291506D01*
X18350500Y1108493D01*
X18337534Y1190357D01*
X18346489Y1259650D01*
X18390101Y1311458D01*
X18389851Y1311813D01*
X18391208Y1312773D01*
X18391485Y1313102D01*
X18392922Y1313986D01*
X18394826Y1315334D01*
X18394828Y1315335D01*
X18438058Y1352794D01*
X18447628Y1361086D01*
X18479256Y1393863D01*
X18479257Y1393864D01*
X18525465Y1482199D01*
X18525465Y1482200D01*
X18525466Y1482200D01*
X18545148Y1549232D01*
X18545151Y1549244D01*
X18550449Y1586092D01*
X18555500Y1621223D01*
X18555500Y2349455D01*
X18575185Y2416494D01*
X18627989Y2462249D01*
X18697147Y2472193D01*
X18760703Y2443168D01*
X18767181Y2437136D01*
X20313181Y891136D01*
X20346666Y829813D01*
X20349500Y803455D01*
X20349500Y291506D01*
X20365279Y191878D01*
X20426473Y71778D01*
X20426476Y71774D01*
X20513181Y-14930D01*
X20546666Y-76253D01*
X20549500Y-102611D01*
X20549500Y-897389D01*
X20529815Y-964428D01*
X20513181Y-985070D01*
X20426476Y-1071774D01*
X20426473Y-1071778D01*
X20365279Y-1191878D01*
X20349500Y-1291506D01*
X20349500Y-2108493D01*
X20365279Y-2208121D01*
X20365280Y-2208124D01*
X20365281Y-2208126D01*
X20419714Y-2314956D01*
X20426473Y-2328221D01*
X20426476Y-2328225D01*
X20521774Y-2423523D01*
X20521777Y-2423525D01*
X20521780Y-2423528D01*
X20641874Y-2484719D01*
X20641876Y-2484719D01*
X20641878Y-2484720D01*
X20741507Y-2500500D01*
X20741512Y-2500500D01*
X21258493Y-2500500D01*
X21358121Y-2484720D01*
X21358121Y-2484719D01*
X21358126Y-2484719D01*
X21478220Y-2423528D01*
X21573528Y-2328220D01*
X21634719Y-2208126D01*
X21638694Y-2183029D01*
X21650500Y-2108493D01*
X21650500Y-1291506D01*
X21634720Y-1191878D01*
X21634719Y-1191876D01*
X21634719Y-1191874D01*
X21573528Y-1071780D01*
X21573526Y-1071778D01*
X21573523Y-1071774D01*
X21486819Y-985070D01*
X21453334Y-923747D01*
X21450500Y-897389D01*
X21450500Y-102611D01*
X21470185Y-35572D01*
X21486819Y-14930D01*
X21573523Y71774D01*
X21573526Y71778D01*
X21573527Y71779D01*
X21573528Y71780D01*
X21634719Y191874D01*
X21638094Y213181D01*
X21650500Y291506D01*
X21650500Y1108493D01*
X21634720Y1208121D01*
X21634719Y1208121D01*
X21634719Y1208126D01*
X21573528Y1328220D01*
X21478220Y1423528D01*
X21358126Y1484719D01*
X21358121Y1484719D01*
X21358121Y1484720D01*
X21258493Y1500500D01*
X21258488Y1500500D01*
X20746543Y1500500D01*
X20679504Y1520185D01*
X20658862Y1536819D01*
X20070533Y2125148D01*
X19286817Y2908864D01*
X19253334Y2970185D01*
X19250500Y2996543D01*
X19250500Y3342502D01*
X19270185Y3409541D01*
X19322989Y3455296D01*
X19392147Y3465240D01*
X19455703Y3436215D01*
G37*
%TD.AperFunction*%
%TA.AperFunction,Conductor*%
G36*
X23275235Y16179815D02*
G01*
X23320990Y16127011D01*
X23330934Y16057853D01*
X23301909Y15994297D01*
X23243131Y15956523D01*
X23242530Y15956347D01*
X22990896Y15883853D01*
X22674352Y15752736D01*
X22374479Y15587002D01*
X22228141Y15483170D01*
X22095040Y15388730D01*
X21839573Y15160429D01*
X21839570Y15160426D01*
X21611269Y14904959D01*
X21412998Y14625521D01*
X21247263Y14325646D01*
X21228279Y14279815D01*
X21116147Y14009104D01*
X21096724Y13941685D01*
X21021297Y13679875D01*
X21021295Y13679866D01*
X20963905Y13342093D01*
X20963903Y13342081D01*
X20944693Y13000000D01*
X20963903Y12657918D01*
X20963905Y12657906D01*
X21021295Y12320133D01*
X21021297Y12320124D01*
X21075495Y12132001D01*
X21116147Y11990896D01*
X21136758Y11941137D01*
X21247263Y11674353D01*
X21412998Y11374478D01*
X21611269Y11095040D01*
X21839570Y10839573D01*
X21839573Y10839570D01*
X22095040Y10611269D01*
X22374478Y10412998D01*
X22674353Y10247263D01*
X22898184Y10154549D01*
X22990896Y10116147D01*
X22990897Y10116146D01*
X22990899Y10116146D01*
X23320124Y10021297D01*
X23320133Y10021295D01*
X23657906Y9963905D01*
X23657918Y9963903D01*
X24000000Y9944693D01*
X24342081Y9963903D01*
X24342093Y9963905D01*
X24679866Y10021295D01*
X24679875Y10021297D01*
X24924479Y10091766D01*
X25009104Y10116147D01*
X25325648Y10247264D01*
X25625521Y10412998D01*
X25648182Y10429077D01*
X25904959Y10611269D01*
X26160426Y10839570D01*
X26160429Y10839573D01*
X26388730Y11095040D01*
X26451161Y11183029D01*
X26587002Y11374479D01*
X26752736Y11674352D01*
X26883853Y11990896D01*
X26978704Y12320130D01*
X27036096Y12657914D01*
X27055307Y13000000D01*
X27036096Y13342086D01*
X26978704Y13679870D01*
X26883853Y14009104D01*
X26834584Y14128047D01*
X26827116Y14197517D01*
X26858391Y14259996D01*
X26918480Y14295648D01*
X26949146Y14299500D01*
X28434377Y14299500D01*
X28501416Y14279815D01*
X28507306Y14275786D01*
X28508699Y14274773D01*
X28551341Y14219425D01*
X28557290Y14149809D01*
X28524657Y14088028D01*
X28480559Y14058859D01*
X28474020Y14056326D01*
X28474012Y14056322D01*
X28288869Y13941685D01*
X28288868Y13941685D01*
X28127945Y13794985D01*
X27996715Y13621208D01*
X27899651Y13426280D01*
X27849494Y13250000D01*
X28684314Y13250000D01*
X28672359Y13238045D01*
X28614835Y13125148D01*
X28595014Y13000000D01*
X28614835Y12874852D01*
X28672359Y12761955D01*
X28684314Y12750000D01*
X27849495Y12750000D01*
X27899651Y12573719D01*
X27996715Y12378791D01*
X28127945Y12205014D01*
X28288868Y12058314D01*
X28474012Y11943677D01*
X28474020Y11943673D01*
X28480568Y11941137D01*
X28535968Y11898562D01*
X28559556Y11832795D01*
X28543843Y11764715D01*
X28508655Y11725194D01*
X28438677Y11674352D01*
X28410950Y11654207D01*
X28287805Y11517440D01*
X28287804Y11517438D01*
X28195786Y11358059D01*
X28195783Y11358053D01*
X28140250Y11187137D01*
X28138915Y11183029D01*
X28119678Y11000000D01*
X28138915Y10816971D01*
X28138915Y10816968D01*
X28138916Y10816967D01*
X28195783Y10641946D01*
X28195786Y10641940D01*
X28282887Y10491077D01*
X28299500Y10429077D01*
X28299500Y9570921D01*
X28282887Y9508922D01*
X28213577Y9388874D01*
X28195786Y9358059D01*
X28195783Y9358053D01*
X28145816Y9204269D01*
X28138915Y9183029D01*
X28119678Y9000000D01*
X28138915Y8816971D01*
X28138915Y8816968D01*
X28138916Y8816967D01*
X28195783Y8641946D01*
X28195786Y8641940D01*
X28287804Y8482561D01*
X28410949Y8345793D01*
X28410951Y8345791D01*
X28559834Y8237621D01*
X28559839Y8237619D01*
X28727961Y8162765D01*
X28727965Y8162763D01*
X28736215Y8161010D01*
X28797695Y8127814D01*
X28831468Y8066649D01*
X28826811Y7996934D01*
X28785203Y7940804D01*
X28742662Y7922211D01*
X28743218Y7920269D01*
X28737175Y7918539D01*
X28737172Y7918539D01*
X28651572Y7884346D01*
X28605576Y7875500D01*
X28305249Y7875500D01*
X28305247Y7875499D01*
X28246770Y7863868D01*
X28246769Y7863867D01*
X28180447Y7819552D01*
X28136132Y7753230D01*
X28136131Y7753229D01*
X28124500Y7694752D01*
X28124500Y7520072D01*
X28104815Y7453033D01*
X28088181Y7432391D01*
X26537533Y5881743D01*
X26535284Y5879550D01*
X26475081Y5822323D01*
X26443189Y5776503D01*
X26437545Y5769018D01*
X26402266Y5725751D01*
X26402264Y5725747D01*
X26402263Y5725746D01*
X26402262Y5725744D01*
X26389065Y5700480D01*
X26380930Y5687053D01*
X26364647Y5663659D01*
X26342639Y5612374D01*
X26338597Y5603863D01*
X26322000Y5572089D01*
X26273514Y5521782D01*
X26212091Y5505500D01*
X21934500Y5505500D01*
X21867461Y5525185D01*
X21821706Y5577989D01*
X21810500Y5629500D01*
X21810500Y6294750D01*
X21810499Y6294752D01*
X21810132Y6296595D01*
X21806318Y6315772D01*
X21798868Y6353229D01*
X21798867Y6353230D01*
X21798867Y6353231D01*
X21754552Y6419552D01*
X21688231Y6463867D01*
X21688229Y6463867D01*
X21688229Y6463868D01*
X21644568Y6472552D01*
X21629751Y6475499D01*
X21629751Y6475500D01*
X21629748Y6475500D01*
X19590252Y6475500D01*
X19590249Y6475500D01*
X19590247Y6475499D01*
X19531770Y6463868D01*
X19531769Y6463867D01*
X19465447Y6419552D01*
X19422722Y6355609D01*
X19369110Y6310804D01*
X19319620Y6300500D01*
X19299211Y6300500D01*
X19273765Y6303139D01*
X19264685Y6305043D01*
X19239821Y6301943D01*
X19235877Y6301452D01*
X19222192Y6300602D01*
X19220970Y6300501D01*
X19220964Y6300500D01*
X19220960Y6300500D01*
X19201966Y6297330D01*
X19196929Y6296596D01*
X19148896Y6290609D01*
X19148607Y6290573D01*
X19141561Y6288475D01*
X19134619Y6286092D01*
X19091810Y6262925D01*
X19087253Y6260580D01*
X19045329Y6240084D01*
X19043517Y6239198D01*
X19043514Y6239195D01*
X19037538Y6234929D01*
X19031746Y6230420D01*
X19031742Y6230418D01*
X19007118Y6203669D01*
X18998758Y6194588D01*
X18995210Y6190891D01*
X18686955Y5882637D01*
X18667098Y5866511D01*
X18659331Y5861437D01*
X18641497Y5838524D01*
X18632422Y5828248D01*
X18631627Y5827309D01*
X18631625Y5827307D01*
X18623169Y5815463D01*
X18620447Y5811651D01*
X18617385Y5807544D01*
X18587483Y5769126D01*
X18587482Y5769124D01*
X18583973Y5762640D01*
X18580759Y5756067D01*
X18566868Y5709409D01*
X18565306Y5704532D01*
X18546164Y5648771D01*
X18544405Y5649374D01*
X18519409Y5597750D01*
X18459794Y5561309D01*
X18389943Y5562883D01*
X18370075Y5571167D01*
X18315024Y5599965D01*
X18315022Y5599966D01*
X18285731Y5608566D01*
X18247985Y5619650D01*
X18176000Y5630000D01*
X18175998Y5630000D01*
X16235845Y5630000D01*
X16168806Y5649685D01*
X16153333Y5661726D01*
X16153194Y5661570D01*
X16152065Y5662574D01*
X16152057Y5662583D01*
X16133328Y5679257D01*
X16044993Y5725465D01*
X16044991Y5725465D01*
X16044991Y5725466D01*
X16000754Y5738455D01*
X15977954Y5745150D01*
X15905969Y5755500D01*
X15517107Y5755500D01*
X15517103Y5755500D01*
X15516533Y5755489D01*
X15507986Y5755337D01*
X15499140Y5755021D01*
X15418973Y5739075D01*
X15353508Y5714658D01*
X15306012Y5688723D01*
X15289921Y5681375D01*
X15240166Y5662818D01*
X15196834Y5655000D01*
X14203162Y5655000D01*
X14159830Y5662818D01*
X14157578Y5663658D01*
X14120921Y5677329D01*
X14100197Y5688169D01*
X14099927Y5687703D01*
X14095639Y5690194D01*
X14095629Y5690202D01*
X14021917Y5725465D01*
X13954878Y5745150D01*
X13882893Y5755500D01*
X13882891Y5755500D01*
X13449500Y5755500D01*
X13382461Y5775185D01*
X13336706Y5827989D01*
X13325500Y5879500D01*
X13325500Y7430823D01*
X13345185Y7497862D01*
X13366382Y7520477D01*
X13365580Y7521280D01*
X13372148Y7527848D01*
X13372148Y7527849D01*
X13372150Y7527850D01*
X13452793Y7637118D01*
X13472960Y7694752D01*
X13497646Y7765298D01*
X13497646Y7765300D01*
X13500500Y7795730D01*
X13500500Y9204269D01*
X13497646Y9234699D01*
X13497646Y9234701D01*
X13475219Y9298790D01*
X13452793Y9362882D01*
X13372150Y9472150D01*
X13262882Y9552793D01*
X13177426Y9582695D01*
X13134700Y9597646D01*
X13104270Y9600500D01*
X13104266Y9600500D01*
X12170734Y9600500D01*
X12170730Y9600500D01*
X12140300Y9597646D01*
X12140298Y9597646D01*
X12044163Y9564006D01*
X12012118Y9552793D01*
X11902850Y9472150D01*
X11864795Y9420587D01*
X11822207Y9362882D01*
X11822206Y9362880D01*
X11777353Y9234701D01*
X11777353Y9234699D01*
X11774500Y9204269D01*
X11774500Y7795730D01*
X11777353Y7765300D01*
X11777353Y7765298D01*
X11822206Y7637119D01*
X11822207Y7637118D01*
X11900271Y7531344D01*
X11924241Y7465715D01*
X11924500Y7457711D01*
X11924500Y5821922D01*
X11904815Y5754883D01*
X11861859Y5714168D01*
X11844937Y5704532D01*
X11805178Y5681892D01*
X11805175Y5681889D01*
X11805172Y5681888D01*
X11752368Y5636133D01*
X11720743Y5603359D01*
X11674535Y5515024D01*
X11674534Y5515022D01*
X11674533Y5515022D01*
X11654851Y5447990D01*
X11654848Y5447978D01*
X11644500Y5376001D01*
X11644500Y2074500D01*
X11624815Y2007461D01*
X11572011Y1961706D01*
X11520500Y1950500D01*
X9849211Y1950500D01*
X9823765Y1953139D01*
X9814685Y1955043D01*
X9789821Y1951943D01*
X9785877Y1951452D01*
X9772192Y1950602D01*
X9770970Y1950501D01*
X9770964Y1950500D01*
X9770960Y1950500D01*
X9751966Y1947330D01*
X9746929Y1946596D01*
X9698607Y1940573D01*
X9691567Y1938476D01*
X9684622Y1936092D01*
X9684619Y1936092D01*
X9684615Y1936090D01*
X9641817Y1912928D01*
X9637260Y1910582D01*
X9593516Y1889198D01*
X9593514Y1889196D01*
X9587534Y1884926D01*
X9581745Y1880420D01*
X9581744Y1880419D01*
X9581742Y1880418D01*
X9548757Y1844587D01*
X9545232Y1840914D01*
X9123330Y1419012D01*
X9062007Y1385527D01*
X9040367Y1387074D01*
X9041927Y1379663D01*
X9017065Y1314366D01*
X9005987Y1301669D01*
X8841137Y1136819D01*
X8779814Y1103334D01*
X8753456Y1100500D01*
X7995730Y1100500D01*
X7965300Y1097646D01*
X7965298Y1097646D01*
X7887953Y1070581D01*
X7837118Y1052793D01*
X7727850Y972150D01*
X7647428Y863181D01*
X7647207Y862882D01*
X7646832Y861809D01*
X7646104Y860794D01*
X7642867Y854669D01*
X7642028Y855112D01*
X7606107Y805035D01*
X7541153Y779291D01*
X7472592Y792750D01*
X7422192Y841140D01*
X7420756Y843716D01*
X7412916Y858205D01*
X7410586Y862729D01*
X7389198Y906484D01*
X7389195Y906486D01*
X7384929Y912461D01*
X7380419Y918256D01*
X7380418Y918258D01*
X7344572Y951254D01*
X7340924Y954756D01*
X6832634Y1463046D01*
X6816511Y1482902D01*
X6811437Y1490669D01*
X6788531Y1508496D01*
X6778291Y1517540D01*
X6777321Y1518360D01*
X6777307Y1518375D01*
X6761605Y1529584D01*
X6757556Y1532604D01*
X6719126Y1562517D01*
X6719120Y1562518D01*
X6712663Y1566013D01*
X6706070Y1569236D01*
X6706066Y1569240D01*
X6659382Y1583138D01*
X6654583Y1584674D01*
X6608488Y1600500D01*
X6608481Y1600500D01*
X6601248Y1601707D01*
X6593956Y1602616D01*
X6593954Y1602617D01*
X6593951Y1602616D01*
X6593951Y1602617D01*
X6545332Y1600606D01*
X6540207Y1600500D01*
X6000000Y1600500D01*
X6000000Y1949500D01*
X7200500Y1949500D01*
X7267539Y1929815D01*
X7313294Y1877011D01*
X7324500Y1825500D01*
X7324500Y1795730D01*
X7327353Y1765300D01*
X7327353Y1765298D01*
X7372206Y1637119D01*
X7372207Y1637117D01*
X7452850Y1527850D01*
X7562117Y1447207D01*
X7562119Y1447206D01*
X7690299Y1402353D01*
X7720730Y1399500D01*
X7720734Y1399500D01*
X8629270Y1399500D01*
X8659699Y1402353D01*
X8659701Y1402353D01*
X8787880Y1447206D01*
X8787886Y1447209D01*
X8844673Y1489120D01*
X8910301Y1513091D01*
X8915049Y1512024D01*
X8926817Y1566120D01*
X8935875Y1580321D01*
X8977793Y1637118D01*
X8998287Y1695687D01*
X9022646Y1765298D01*
X9022646Y1765300D01*
X9025500Y1795730D01*
X9025500Y4804269D01*
X9022646Y4834699D01*
X9022646Y4834701D01*
X9000219Y4898790D01*
X8977793Y4962882D01*
X8897150Y5072150D01*
X8787882Y5152793D01*
X8702426Y5182695D01*
X8659700Y5197646D01*
X8629270Y5200500D01*
X8629266Y5200500D01*
X7720734Y5200500D01*
X7720730Y5200500D01*
X7690300Y5197646D01*
X7690298Y5197646D01*
X7594163Y5164006D01*
X7562118Y5152793D01*
X7452850Y5072150D01*
X7372207Y4962882D01*
X7372206Y4962880D01*
X7327353Y4834701D01*
X7327353Y4834699D01*
X7324500Y4804269D01*
X7324500Y3074500D01*
X7304815Y3007461D01*
X7252011Y2961706D01*
X7200500Y2950500D01*
X6000000Y2950500D01*
X6000000Y6082052D01*
X6019685Y6149091D01*
X6072489Y6194846D01*
X6099808Y6203669D01*
X6233491Y6230261D01*
X6233501Y6230264D01*
X6379172Y6290602D01*
X6379185Y6290609D01*
X6510288Y6378210D01*
X6510292Y6378213D01*
X6621786Y6489707D01*
X6621789Y6489711D01*
X6709390Y6620814D01*
X6709397Y6620827D01*
X6769735Y6766498D01*
X6769737Y6766503D01*
X6800499Y6921153D01*
X6800500Y6921155D01*
X6800500Y12208196D01*
X6820185Y12275235D01*
X6872989Y12320990D01*
X6942147Y12330934D01*
X7005703Y12301909D01*
X7043477Y12243131D01*
X7043652Y12242530D01*
X7116147Y11990896D01*
X7136758Y11941137D01*
X7247263Y11674353D01*
X7412998Y11374478D01*
X7611269Y11095040D01*
X7839570Y10839573D01*
X7839573Y10839570D01*
X8095040Y10611269D01*
X8374478Y10412998D01*
X8674353Y10247263D01*
X8898184Y10154549D01*
X8990896Y10116147D01*
X8990897Y10116146D01*
X8990899Y10116146D01*
X9320124Y10021297D01*
X9320133Y10021295D01*
X9657906Y9963905D01*
X9657918Y9963903D01*
X10000000Y9944693D01*
X10342081Y9963903D01*
X10342093Y9963905D01*
X10679866Y10021295D01*
X10679875Y10021297D01*
X10924479Y10091766D01*
X11009104Y10116147D01*
X11325648Y10247264D01*
X11625521Y10412998D01*
X11648182Y10429077D01*
X11904959Y10611269D01*
X12160426Y10839570D01*
X12160429Y10839573D01*
X12388730Y11095040D01*
X12451161Y11183029D01*
X12587002Y11374479D01*
X12752736Y11674352D01*
X12883853Y11990896D01*
X12978704Y12320130D01*
X13036096Y12657914D01*
X13055307Y13000000D01*
X13036096Y13342086D01*
X12978704Y13679870D01*
X12883853Y14009104D01*
X12752736Y14325648D01*
X12587002Y14625521D01*
X12388735Y14904953D01*
X12160428Y15160428D01*
X11904953Y15388735D01*
X11625521Y15587002D01*
X11325648Y15752736D01*
X11009104Y15883853D01*
X10757475Y15956346D01*
X10698506Y15993820D01*
X10669158Y16057227D01*
X10678748Y16126436D01*
X10724233Y16179472D01*
X10791172Y16199498D01*
X10791804Y16199500D01*
X23208196Y16199500D01*
X23275235Y16179815D01*
G37*
%TD.AperFunction*%
%TD*%
M02*
