%TF.GenerationSoftware,KiCad,Pcbnew,7.0.10*%
%TF.CreationDate,2024-02-15T01:27:53-05:00*%
%TF.ProjectId,USB-C-3-way-splitter,5553422d-432d-4332-9d77-61792d73706c,rev?*%
%TF.SameCoordinates,Original*%
%TF.FileFunction,Copper,L1,Top*%
%TF.FilePolarity,Positive*%
%FSLAX46Y46*%
G04 Gerber Fmt 4.6, Leading zero omitted, Abs format (unit mm)*
G04 Created by KiCad (PCBNEW 7.0.10) date 2024-02-15 01:27:53*
%MOMM*%
%LPD*%
G01*
G04 APERTURE LIST*
G04 Aperture macros list*
%AMRoundRect*
0 Rectangle with rounded corners*
0 $1 Rounding radius*
0 $2 $3 $4 $5 $6 $7 $8 $9 X,Y pos of 4 corners*
0 Add a 4 corners polygon primitive as box body*
4,1,4,$2,$3,$4,$5,$6,$7,$8,$9,$2,$3,0*
0 Add four circle primitives for the rounded corners*
1,1,$1+$1,$2,$3*
1,1,$1+$1,$4,$5*
1,1,$1+$1,$6,$7*
1,1,$1+$1,$8,$9*
0 Add four rect primitives between the rounded corners*
20,1,$1+$1,$2,$3,$4,$5,0*
20,1,$1+$1,$4,$5,$6,$7,0*
20,1,$1+$1,$6,$7,$8,$9,0*
20,1,$1+$1,$8,$9,$2,$3,0*%
G04 Aperture macros list end*
%TA.AperFunction,SMDPad,CuDef*%
%ADD10RoundRect,0.250000X0.350000X0.450000X-0.350000X0.450000X-0.350000X-0.450000X0.350000X-0.450000X0*%
%TD*%
%TA.AperFunction,WasherPad*%
%ADD11C,2.286000*%
%TD*%
%TA.AperFunction,SMDPad,CuDef*%
%ADD12RoundRect,0.250000X0.475000X-0.337500X0.475000X0.337500X-0.475000X0.337500X-0.475000X-0.337500X0*%
%TD*%
%TA.AperFunction,ComponentPad*%
%ADD13O,1.350000X1.350000*%
%TD*%
%TA.AperFunction,ComponentPad*%
%ADD14R,1.350000X1.350000*%
%TD*%
%TA.AperFunction,SMDPad,CuDef*%
%ADD15RoundRect,0.250000X-0.450000X0.350000X-0.450000X-0.350000X0.450000X-0.350000X0.450000X0.350000X0*%
%TD*%
%TA.AperFunction,ComponentPad*%
%ADD16C,5.700000*%
%TD*%
%TA.AperFunction,SMDPad,CuDef*%
%ADD17RoundRect,0.250000X-0.475000X0.337500X-0.475000X-0.337500X0.475000X-0.337500X0.475000X0.337500X0*%
%TD*%
%TA.AperFunction,SMDPad,CuDef*%
%ADD18RoundRect,0.250000X-0.325000X-0.450000X0.325000X-0.450000X0.325000X0.450000X-0.325000X0.450000X0*%
%TD*%
%TA.AperFunction,SMDPad,CuDef*%
%ADD19RoundRect,0.250000X-0.350000X-0.450000X0.350000X-0.450000X0.350000X0.450000X-0.350000X0.450000X0*%
%TD*%
%TA.AperFunction,SMDPad,CuDef*%
%ADD20RoundRect,0.150000X-0.825000X-0.150000X0.825000X-0.150000X0.825000X0.150000X-0.825000X0.150000X0*%
%TD*%
%TA.AperFunction,SMDPad,CuDef*%
%ADD21RoundRect,0.250000X0.650000X-0.412500X0.650000X0.412500X-0.650000X0.412500X-0.650000X-0.412500X0*%
%TD*%
%TA.AperFunction,SMDPad,CuDef*%
%ADD22R,2.000000X0.650000*%
%TD*%
%TA.AperFunction,SMDPad,CuDef*%
%ADD23RoundRect,0.250000X-0.412500X-0.650000X0.412500X-0.650000X0.412500X0.650000X-0.412500X0.650000X0*%
%TD*%
%TA.AperFunction,ComponentPad*%
%ADD24O,1.600000X1.000000*%
%TD*%
%TA.AperFunction,ComponentPad*%
%ADD25O,2.100000X1.000000*%
%TD*%
%TA.AperFunction,SMDPad,CuDef*%
%ADD26R,1.450000X0.600000*%
%TD*%
%TA.AperFunction,SMDPad,CuDef*%
%ADD27R,1.450000X0.300000*%
%TD*%
%TA.AperFunction,SMDPad,CuDef*%
%ADD28RoundRect,0.250000X-0.400000X-1.450000X0.400000X-1.450000X0.400000X1.450000X-0.400000X1.450000X0*%
%TD*%
%TA.AperFunction,SMDPad,CuDef*%
%ADD29RoundRect,0.250000X0.450000X-0.350000X0.450000X0.350000X-0.450000X0.350000X-0.450000X-0.350000X0*%
%TD*%
%TA.AperFunction,SMDPad,CuDef*%
%ADD30R,1.500000X0.450000*%
%TD*%
%TA.AperFunction,ViaPad*%
%ADD31C,0.600000*%
%TD*%
%TA.AperFunction,ViaPad*%
%ADD32C,0.800000*%
%TD*%
%TA.AperFunction,Conductor*%
%ADD33C,0.300000*%
%TD*%
%TA.AperFunction,Conductor*%
%ADD34C,0.600000*%
%TD*%
%TA.AperFunction,Conductor*%
%ADD35C,1.000000*%
%TD*%
%TA.AperFunction,Conductor*%
%ADD36C,0.500000*%
%TD*%
%TA.AperFunction,Conductor*%
%ADD37C,1.500000*%
%TD*%
%TA.AperFunction,Conductor*%
%ADD38C,0.250000*%
%TD*%
%TA.AperFunction,Conductor*%
%ADD39C,0.450000*%
%TD*%
G04 APERTURE END LIST*
D10*
%TO.P,R7,2*%
%TO.N,GND*%
X15475000Y10825000D03*
%TO.P,R7,1*%
%TO.N,EN*%
X17475000Y10825000D03*
%TD*%
D11*
%TO.P,H7,*%
%TO.N,*%
X24000000Y8000000D03*
%TD*%
%TO.P,H6,*%
%TO.N,*%
X14000000Y-15000000D03*
%TD*%
%TO.P,H5,*%
%TO.N,*%
X14500000Y15000000D03*
%TD*%
D12*
%TO.P,C5,1*%
%TO.N,+1V2*%
X20900000Y-4637500D03*
%TO.P,C5,2*%
%TO.N,GND*%
X20900000Y-2562500D03*
%TD*%
D13*
%TO.P,J2,5,Pin_5*%
%TO.N,GNDPWR*%
X27000000Y-7000000D03*
%TO.P,J2,4,Pin_4*%
%TO.N,GND*%
X27000000Y-9000000D03*
%TO.P,J2,3,Pin_3*%
%TO.N,Net-(J2-Pin_2)*%
X27000000Y-11000000D03*
%TO.P,J2,2,Pin_2*%
X27000000Y-13000000D03*
D14*
%TO.P,J2,1,Pin_1*%
%TO.N,+5V*%
X27000000Y-15000000D03*
%TD*%
D13*
%TO.P,J4,5,Pin_5*%
%TO.N,GNDPWR*%
X27000000Y15000000D03*
%TO.P,J4,4,Pin_4*%
%TO.N,GND*%
X27000000Y13000000D03*
%TO.P,J4,3,Pin_3*%
%TO.N,Net-(J4-Pin_2)*%
X27000000Y11000000D03*
%TO.P,J4,2,Pin_2*%
X27000000Y9000000D03*
D14*
%TO.P,J4,1,Pin_1*%
%TO.N,+5V*%
X27000000Y7000000D03*
%TD*%
D15*
%TO.P,R5,1*%
%TO.N,+5V*%
X20200000Y2300000D03*
%TO.P,R5,2*%
%TO.N,Net-(D3-A)*%
X20200000Y300000D03*
%TD*%
D16*
%TO.P,H3,1,1*%
%TO.N,GNDPWR*%
X10000000Y-13000000D03*
%TD*%
D17*
%TO.P,C2,1*%
%TO.N,+5V*%
X23000000Y4537500D03*
%TO.P,C2,2*%
%TO.N,GND*%
X23000000Y2462500D03*
%TD*%
D18*
%TO.P,D2,1,K*%
%TO.N,GND*%
X9375000Y-1900000D03*
%TO.P,D2,2,A*%
%TO.N,Net-(D2-A)*%
X11425000Y-1900000D03*
%TD*%
D19*
%TO.P,R4,1*%
%TO.N,VBUS*%
X8400000Y200000D03*
%TO.P,R4,2*%
%TO.N,Net-(D2-A)*%
X10400000Y200000D03*
%TD*%
D16*
%TO.P,H2,1,1*%
%TO.N,GNDPWR*%
X22000000Y13000000D03*
%TD*%
D20*
%TO.P,U1,1*%
%TO.N,EN*%
X11325000Y-3800000D03*
%TO.P,U1,2,-*%
%TO.N,+1V2*%
X11325000Y-5070000D03*
%TO.P,U1,3,+*%
%TO.N,CC1*%
X11325000Y-6340000D03*
%TO.P,U1,4,V-*%
%TO.N,GND*%
X11325000Y-7610000D03*
%TO.P,U1,5,+*%
%TO.N,CC2*%
X16275000Y-7610000D03*
%TO.P,U1,6,-*%
%TO.N,+1V2*%
X16275000Y-6340000D03*
%TO.P,U1,7*%
%TO.N,EN*%
X16275000Y-5070000D03*
%TO.P,U1,8,V+*%
%TO.N,VBUS*%
X16275000Y-3800000D03*
%TD*%
D18*
%TO.P,D3,1,K*%
%TO.N,GND*%
X16275000Y-100000D03*
%TO.P,D3,2,A*%
%TO.N,Net-(D3-A)*%
X18325000Y-100000D03*
%TD*%
D21*
%TO.P,C4,1*%
%TO.N,+5V*%
X23200000Y-4162500D03*
%TO.P,C4,2*%
%TO.N,GND*%
X23200000Y-1037500D03*
%TD*%
D22*
%TO.P,U2,1,OUT*%
%TO.N,+5V*%
X20610000Y4050000D03*
%TO.P,U2,2,OUT*%
X20610000Y5000000D03*
%TO.P,U2,3,EN*%
%TO.N,EN*%
X20610000Y5950000D03*
%TO.P,U2,4,GND*%
%TO.N,GND*%
X17190000Y5950000D03*
%TO.P,U2,5,IN*%
%TO.N,VBUS*%
X17190000Y5000000D03*
%TO.P,U2,6,IN*%
X17190000Y4050000D03*
%TD*%
D19*
%TO.P,R2,1*%
%TO.N,CC2*%
X15000000Y-9500000D03*
%TO.P,R2,2*%
%TO.N,GND*%
X17000000Y-9500000D03*
%TD*%
D23*
%TO.P,C3,1*%
%TO.N,VBUS*%
X12637500Y8500000D03*
%TO.P,C3,2*%
%TO.N,GND*%
X15762500Y8500000D03*
%TD*%
D13*
%TO.P,J3,5,Pin_5*%
%TO.N,GNDPWR*%
X27000000Y4000000D03*
%TO.P,J3,4,Pin_4*%
%TO.N,GND*%
X27000000Y2000000D03*
%TO.P,J3,3,Pin_3*%
%TO.N,Net-(J3-Pin_2)*%
X27000000Y0D03*
%TO.P,J3,2,Pin_2*%
X27000000Y-2000000D03*
D14*
%TO.P,J3,1,Pin_1*%
%TO.N,+5V*%
X27000000Y-4000000D03*
%TD*%
D15*
%TO.P,R3,1*%
%TO.N,VBUS*%
X18700000Y-2600000D03*
%TO.P,R3,2*%
%TO.N,+1V2*%
X18700000Y-4600000D03*
%TD*%
D16*
%TO.P,H1,1,1*%
%TO.N,GNDPWR*%
X10000000Y13000000D03*
%TD*%
D12*
%TO.P,C1,1*%
%TO.N,VBUS*%
X14700000Y4162500D03*
%TO.P,C1,2*%
%TO.N,GND*%
X14700000Y6237500D03*
%TD*%
D24*
%TO.P,J1,S1,SHIELD*%
%TO.N,GNDPWR*%
X-150000Y-4320000D03*
D25*
X4030000Y-4320000D03*
D24*
X-150000Y4320000D03*
D25*
X4030000Y4320000D03*
D26*
%TO.P,J1,B12,GND*%
%TO.N,GND*%
X4945000Y3250000D03*
%TO.P,J1,B9,VBUS*%
%TO.N,Net-(F1-Pad1)*%
X4945000Y2450000D03*
D27*
%TO.P,J1,B8,SBU2*%
%TO.N,unconnected-(J1-SBU2-PadB8)*%
X4945000Y1750000D03*
%TO.P,J1,B7,D-*%
%TO.N,unconnected-(J1-D--PadB7)*%
X4945000Y750000D03*
%TO.P,J1,B6,D+*%
%TO.N,unconnected-(J1-D+-PadB6)*%
X4945000Y-750000D03*
%TO.P,J1,B5,CC2*%
%TO.N,CC2*%
X4945000Y-1750000D03*
D26*
%TO.P,J1,B4,VBUS*%
%TO.N,Net-(F1-Pad1)*%
X4945000Y-2450000D03*
%TO.P,J1,B1,GND*%
%TO.N,GND*%
X4945000Y-3250000D03*
%TO.P,J1,A12,GND*%
X4945000Y-3250000D03*
%TO.P,J1,A9,VBUS*%
%TO.N,Net-(F1-Pad1)*%
X4945000Y-2450000D03*
D27*
%TO.P,J1,A8,SBU1*%
%TO.N,unconnected-(J1-SBU1-PadA8)*%
X4945000Y-1250000D03*
%TO.P,J1,A7,D-*%
%TO.N,unconnected-(J1-D--PadA7)*%
X4945000Y-250000D03*
%TO.P,J1,A6,D+*%
%TO.N,unconnected-(J1-D+-PadA6)*%
X4945000Y250000D03*
%TO.P,J1,A5,CC1*%
%TO.N,CC1*%
X4945000Y1250000D03*
D26*
%TO.P,J1,A4,VBUS*%
%TO.N,Net-(F1-Pad1)*%
X4945000Y2450000D03*
%TO.P,J1,A1,GND*%
%TO.N,GND*%
X4945000Y3250000D03*
%TD*%
D19*
%TO.P,R6,1*%
%TO.N,VBUS*%
X12200000Y200000D03*
%TO.P,R6,2*%
%TO.N,EN*%
X14200000Y200000D03*
%TD*%
D28*
%TO.P,F1,1*%
%TO.N,Net-(F1-Pad1)*%
X8175000Y3300000D03*
%TO.P,F1,2*%
%TO.N,VBUS*%
X12625000Y3300000D03*
%TD*%
D29*
%TO.P,R1,1*%
%TO.N,CC1*%
X8900000Y-6000000D03*
%TO.P,R1,2*%
%TO.N,GND*%
X8900000Y-4000000D03*
%TD*%
D16*
%TO.P,H4,1,1*%
%TO.N,GNDPWR*%
X21000000Y-13000000D03*
%TD*%
D30*
%TO.P,D1,3*%
%TO.N,N/C*%
X21460000Y-6950000D03*
%TO.P,D1,2,A*%
%TO.N,GND*%
X18800000Y-7600000D03*
%TO.P,D1,1,K*%
%TO.N,+1V2*%
X18800000Y-6300000D03*
%TD*%
D31*
%TO.N,VBUS*%
X15000000Y2500000D03*
%TO.N,+1V2*%
X22200000Y-6000000D03*
%TO.N,EN*%
X20600000Y7400000D03*
%TO.N,CC2*%
X6400000Y-1800000D03*
%TO.N,CC1*%
X7100000Y700000D03*
D32*
%TO.N,GND*%
X13500000Y-7000000D03*
X14500000Y7500000D03*
X6500000Y-4500000D03*
X6500000Y3500000D03*
X17000000Y7000000D03*
X18000000Y7000000D03*
X6500000Y4500000D03*
X17000000Y-11000000D03*
X23000000Y-1000000D03*
X6500000Y-3500000D03*
X19000000Y-8500000D03*
X9500000Y4500000D03*
X10000000Y-3000000D03*
%TO.N,VBUS*%
X16700000Y-2900000D03*
%TD*%
D33*
%TO.N,EN*%
X19250000Y5950000D02*
X20610000Y5950000D01*
X18500000Y1700000D02*
X18900000Y2100000D01*
X16305930Y1194070D02*
X16811860Y1700000D01*
X15194070Y1194070D02*
X16305930Y1194070D01*
X18900000Y5600000D02*
X19250000Y5950000D01*
X14200000Y200000D02*
X15194070Y1194070D01*
X16811860Y1700000D02*
X18500000Y1700000D01*
X18900000Y2100000D02*
X18900000Y5600000D01*
D34*
%TO.N,GNDPWR*%
X10000000Y-13000000D02*
X21000000Y-13000000D01*
X10000000Y13000000D02*
X22000000Y13000000D01*
D35*
X24000000Y15000000D02*
X22000000Y13000000D01*
X27000000Y15000000D02*
X24000000Y15000000D01*
%TO.N,+5V*%
X24937500Y-4162500D02*
X25200000Y-3900000D01*
X23200000Y-4162500D02*
X24937500Y-4162500D01*
D36*
X20200000Y3640000D02*
X20610000Y4050000D01*
X20200000Y2300000D02*
X20200000Y3640000D01*
%TO.N,Net-(D3-A)*%
X19400000Y-500000D02*
X20200000Y300000D01*
X18225000Y-500000D02*
X19400000Y-500000D01*
D33*
%TO.N,EN*%
X14753328Y-1953328D02*
X14753328Y-2553328D01*
X14200000Y200000D02*
X14200000Y-1400000D01*
X14000000Y-3306656D02*
X14753328Y-2553328D01*
X14200000Y-1400000D02*
X14753328Y-1953328D01*
D37*
%TO.N,+5V*%
X25300000Y-4000000D02*
X25200000Y-3900000D01*
X25200000Y5200000D02*
X25200000Y4200000D01*
X27000000Y-4000000D02*
X25300000Y-4000000D01*
X25200000Y-14500000D02*
X25700000Y-15000000D01*
X27000000Y7000000D02*
X25200000Y5200000D01*
X25200000Y4200000D02*
X25200000Y-3900000D01*
D35*
X25162500Y-5162500D02*
X25200000Y-5200000D01*
D37*
X25200000Y-5200000D02*
X25200000Y-14500000D01*
X25700000Y-15000000D02*
X27000000Y-15000000D01*
X25200000Y-3900000D02*
X25200000Y-5200000D01*
D38*
%TO.N,EN*%
X18000000Y8300000D02*
X17300000Y9000000D01*
X19700000Y8300000D02*
X18000000Y8300000D01*
X17300000Y9000000D02*
X17300000Y10800000D01*
X20600000Y7400000D02*
X19700000Y8300000D01*
D36*
%TO.N,+1V2*%
X20900000Y-4637500D02*
X20900000Y-6000000D01*
X20900000Y-6000000D02*
X22200000Y-6000000D01*
X20300000Y-6000000D02*
X20900000Y-6000000D01*
X18700000Y-6200000D02*
X18800000Y-6300000D01*
X18700000Y-4600000D02*
X18700000Y-6200000D01*
%TO.N,VBUS*%
X18400000Y-2900000D02*
X18700000Y-2600000D01*
X16700000Y-2900000D02*
X18400000Y-2900000D01*
D38*
%TO.N,EN*%
X20600000Y7400000D02*
X20610000Y7390000D01*
D33*
%TO.N,CC2*%
X6450000Y-1750000D02*
X6897600Y-1750000D01*
X6400000Y-1800000D02*
X6450000Y-1750000D01*
X6350000Y-1750000D02*
X6400000Y-1800000D01*
D38*
%TO.N,EN*%
X20610000Y7390000D02*
X20610000Y5950000D01*
D36*
%TO.N,+1V2*%
X20000000Y-6300000D02*
X20300000Y-6000000D01*
X18800000Y-6300000D02*
X20000000Y-6300000D01*
%TO.N,GND*%
X11325000Y-7610000D02*
X12890000Y-7610000D01*
X12890000Y-7610000D02*
X13500000Y-7000000D01*
D34*
%TO.N,VBUS*%
X12625000Y625000D02*
X12200000Y200000D01*
X12625000Y1400000D02*
X12625000Y625000D01*
D35*
X12625000Y8487500D02*
X12637500Y8500000D01*
D36*
X16275000Y-3800000D02*
X16275000Y-3325000D01*
D35*
X12625000Y3300000D02*
X12625000Y8487500D01*
D36*
X16275000Y-3325000D02*
X16700000Y-2900000D01*
D33*
X12425000Y1600000D02*
X12625000Y1400000D01*
X8400000Y200000D02*
X9800000Y1600000D01*
X9800000Y1600000D02*
X12425000Y1600000D01*
D34*
X12625000Y3300000D02*
X12625000Y1400000D01*
D33*
%TO.N,CC1*%
X7800000Y-4900000D02*
X8900000Y-6000000D01*
X7800000Y-1700000D02*
X7800000Y-4900000D01*
X7100000Y-1000000D02*
X7800000Y-1700000D01*
X7100000Y700000D02*
X7100000Y-1000000D01*
X11325000Y-6340000D02*
X9240000Y-6340000D01*
X9240000Y-6340000D02*
X8900000Y-6000000D01*
X6550000Y1250000D02*
X7100000Y700000D01*
X4945000Y1250000D02*
X6550000Y1250000D01*
%TO.N,CC2*%
X7347600Y-6247600D02*
X7800000Y-6700000D01*
X9100000Y-8600000D02*
X13700000Y-8600000D01*
X13700000Y-8600000D02*
X14600000Y-9500000D01*
X7347600Y-2200000D02*
X7347600Y-6247600D01*
X7800000Y-6700000D02*
X7800000Y-7300000D01*
X6897600Y-1750000D02*
X7347600Y-2200000D01*
X14600000Y-9500000D02*
X15000000Y-9500000D01*
X7800000Y-7300000D02*
X9100000Y-8600000D01*
X4945000Y-1750000D02*
X6350000Y-1750000D01*
X14690000Y-7610000D02*
X13700000Y-8600000D01*
X16275000Y-7610000D02*
X14690000Y-7610000D01*
D36*
%TO.N,+1V2*%
X18760000Y-6340000D02*
X18800000Y-6300000D01*
X16275000Y-6340000D02*
X18760000Y-6340000D01*
X11325000Y-5070000D02*
X13170000Y-5070000D01*
X14440000Y-6340000D02*
X16275000Y-6340000D01*
X13170000Y-5070000D02*
X14440000Y-6340000D01*
%TO.N,Net-(D2-A)*%
X11425000Y-1125000D02*
X11425000Y-1900000D01*
X10100000Y200000D02*
X11425000Y-1125000D01*
D35*
%TO.N,Net-(J3-Pin_2)*%
X27000000Y0D02*
X27000000Y-2000000D01*
%TO.N,Net-(J4-Pin_2)*%
X27000000Y11000000D02*
X27000000Y9000000D01*
D33*
%TO.N,EN*%
X13200000Y-800000D02*
X12700000Y-800000D01*
X12400000Y-1100000D02*
X12400000Y-1200000D01*
X12700000Y-800000D02*
X12400000Y-1100000D01*
X14200000Y200000D02*
X13200000Y-800000D01*
X12397600Y-1202400D02*
X12397600Y-2727400D01*
X12397600Y-2727400D02*
X11325000Y-3800000D01*
X12400000Y-1200000D02*
X12397600Y-1202400D01*
X14970000Y-5070000D02*
X14000000Y-4100000D01*
X14000000Y-4100000D02*
X14000000Y-3306656D01*
X16275000Y-5070000D02*
X14970000Y-5070000D01*
D35*
%TO.N,GNDPWR*%
X27000000Y15000000D02*
X28000000Y15000000D01*
X28700000Y14300000D02*
X28700000Y4100000D01*
X28700000Y4100000D02*
X28700000Y-5300000D01*
X27000000Y4000000D02*
X28600000Y4000000D01*
X28700000Y-5300000D02*
X27000000Y-7000000D01*
X28600000Y4000000D02*
X28700000Y4100000D01*
X28000000Y15000000D02*
X28700000Y14300000D01*
%TO.N,Net-(J2-Pin_2)*%
X27000000Y-11000000D02*
X27000000Y-13000000D01*
D39*
%TO.N,Net-(F1-Pad1)*%
X3750000Y2002972D02*
X4197028Y2450000D01*
D34*
X8175000Y3300000D02*
X8200000Y3275000D01*
D39*
X4197028Y2450000D02*
X4945000Y2450000D01*
X4197028Y-2450000D02*
X3750000Y-2002972D01*
D36*
X8100000Y3225000D02*
X8175000Y3300000D01*
D39*
X3750000Y-2002972D02*
X3750000Y2002972D01*
D34*
X4945000Y2450000D02*
X8200000Y2450000D01*
D39*
X4945000Y-2450000D02*
X4197028Y-2450000D01*
D34*
X8200000Y3275000D02*
X8200000Y2450000D01*
%TD*%
%TA.AperFunction,Conductor*%
%TO.N,+5V*%
G36*
X25943039Y5280315D02*
G01*
X25988794Y5227511D01*
X26000000Y5176000D01*
X26000000Y3624000D01*
X25980315Y3556961D01*
X25927511Y3511206D01*
X25876000Y3500000D01*
X19724000Y3500000D01*
X19656961Y3519685D01*
X19611206Y3572489D01*
X19600000Y3624000D01*
X19600000Y5176000D01*
X19619685Y5243039D01*
X19672489Y5288794D01*
X19724000Y5300000D01*
X25876000Y5300000D01*
X25943039Y5280315D01*
G37*
%TD.AperFunction*%
%TD*%
%TA.AperFunction,Conductor*%
%TO.N,VBUS*%
G36*
X13949932Y5480315D02*
G01*
X13957204Y5475267D01*
X13982668Y5456204D01*
X13982671Y5456202D01*
X14117517Y5405908D01*
X14117516Y5405908D01*
X14177116Y5399501D01*
X14177119Y5399500D01*
X14177127Y5399500D01*
X14177134Y5399500D01*
X14177135Y5399500D01*
X15222870Y5399500D01*
X15222876Y5399501D01*
X15282483Y5405908D01*
X15417328Y5456202D01*
X15417331Y5456204D01*
X15442796Y5475267D01*
X15508261Y5499684D01*
X15517107Y5500000D01*
X15905969Y5500000D01*
X15973008Y5480315D01*
X16009070Y5444890D01*
X16009399Y5444399D01*
X16092260Y5389033D01*
X16092264Y5389032D01*
X16165321Y5374500D01*
X18176000Y5374500D01*
X18243039Y5354815D01*
X18288794Y5302011D01*
X18300000Y5250500D01*
X18300000Y2224500D01*
X18280315Y2157461D01*
X18227511Y2111706D01*
X18176000Y2100500D01*
X16875293Y2100500D01*
X16748427Y2100500D01*
X16727351Y2093652D01*
X16708438Y2089111D01*
X16686556Y2085646D01*
X16686554Y2085645D01*
X16666819Y2075589D01*
X16648839Y2068141D01*
X16627770Y2061296D01*
X16613154Y2050677D01*
X16609842Y2048271D01*
X16593255Y2038106D01*
X16576344Y2029490D01*
X16573516Y2028049D01*
X16555293Y2009825D01*
X16555273Y2009807D01*
X16176356Y1630889D01*
X16115033Y1597404D01*
X16088675Y1594570D01*
X15157440Y1594570D01*
X15157416Y1594569D01*
X15130637Y1594569D01*
X15109571Y1587723D01*
X15090655Y1583182D01*
X15068766Y1579716D01*
X15068764Y1579715D01*
X15049022Y1569656D01*
X15031044Y1562210D01*
X15009980Y1555366D01*
X14992051Y1542339D01*
X14975465Y1532176D01*
X14959418Y1524000D01*
X14955728Y1522120D01*
X14869927Y1436319D01*
X14808604Y1402834D01*
X14782246Y1400000D01*
X12024000Y1400000D01*
X11956961Y1419685D01*
X11911206Y1472489D01*
X11900000Y1524000D01*
X11900000Y5376000D01*
X11919685Y5443039D01*
X11972489Y5488794D01*
X12024000Y5500000D01*
X13882893Y5500000D01*
X13949932Y5480315D01*
G37*
%TD.AperFunction*%
%TD*%
%TA.AperFunction,Conductor*%
%TO.N,GND*%
G36*
X6000000Y-5000000D02*
G01*
X5188947Y-5000000D01*
X5121908Y-4980315D01*
X5076153Y-4927511D01*
X5066209Y-4858353D01*
X5095234Y-4794797D01*
X5096132Y-4793773D01*
X5114466Y-4773078D01*
X5160734Y-4720852D01*
X5239790Y-4570225D01*
X5280500Y-4405056D01*
X5280500Y-4234944D01*
X5239790Y-4069775D01*
X5213666Y-4020000D01*
X5160736Y-3919150D01*
X5112320Y-3864500D01*
X5047929Y-3791817D01*
X4998177Y-3757475D01*
X4907931Y-3695182D01*
X4748874Y-3634860D01*
X4748868Y-3634859D01*
X4622374Y-3619500D01*
X4622372Y-3619500D01*
X3866521Y-3619500D01*
X3799482Y-3599815D01*
X3753727Y-3547011D01*
X3743783Y-3477853D01*
X3772808Y-3414297D01*
X3791035Y-3397124D01*
X3792250Y-3396192D01*
X3913304Y-3303304D01*
X4006192Y-3182250D01*
X4064584Y-3041280D01*
X4064584Y-3041278D01*
X4067694Y-3033771D01*
X4068909Y-3034274D01*
X4100899Y-2981782D01*
X4163744Y-2951248D01*
X4196476Y-2950128D01*
X4200251Y-2950500D01*
X4200252Y-2950500D01*
X5689750Y-2950500D01*
X5689751Y-2950499D01*
X5704568Y-2947552D01*
X5748229Y-2938868D01*
X5748229Y-2938867D01*
X5748231Y-2938867D01*
X5814552Y-2894552D01*
X5858867Y-2828231D01*
X5858867Y-2828229D01*
X5858868Y-2828229D01*
X5870499Y-2769752D01*
X5870500Y-2769750D01*
X5870500Y-2281746D01*
X5890185Y-2214707D01*
X5942989Y-2168952D01*
X6000000Y-2160754D01*
X6000000Y-5000000D01*
G37*
%TD.AperFunction*%
%TA.AperFunction,Conductor*%
G36*
X6000000Y1600500D02*
G01*
X5994500Y1600500D01*
X5927461Y1620185D01*
X5881706Y1672989D01*
X5870500Y1724500D01*
X5870500Y1825500D01*
X5890185Y1892539D01*
X5942989Y1938294D01*
X5994500Y1949500D01*
X6000000Y1949500D01*
X6000000Y1600500D01*
G37*
%TD.AperFunction*%
%TA.AperFunction,Conductor*%
G36*
X6000000Y2950500D02*
G01*
X4200251Y2950500D01*
X4196476Y2950128D01*
X4194514Y2950500D01*
X4194160Y2950500D01*
X4194160Y2950567D01*
X4127829Y2963143D01*
X4077117Y3011206D01*
X4067725Y3033784D01*
X4067694Y3033771D01*
X4006193Y3182247D01*
X4006192Y3182250D01*
X3913304Y3303304D01*
X3792250Y3396192D01*
X3792249Y3396192D01*
X3791035Y3397124D01*
X3749832Y3453552D01*
X3745677Y3523298D01*
X3779889Y3584218D01*
X3841607Y3616971D01*
X3866521Y3619500D01*
X4622374Y3619500D01*
X4748868Y3634859D01*
X4748874Y3634860D01*
X4907931Y3695182D01*
X5016016Y3769789D01*
X5047929Y3791817D01*
X5160734Y3919148D01*
X5160736Y3919150D01*
X5239789Y4069773D01*
X5239790Y4069775D01*
X5280500Y4234944D01*
X5280500Y4405056D01*
X5239790Y4570225D01*
X5160734Y4720852D01*
X5096132Y4793773D01*
X5066410Y4857006D01*
X5075594Y4926269D01*
X5120766Y4979573D01*
X5187585Y4999993D01*
X5188947Y5000000D01*
X6000000Y5000000D01*
X6000000Y2950500D01*
G37*
%TD.AperFunction*%
%TD*%
%TA.AperFunction,Conductor*%
%TO.N,GNDPWR*%
G36*
X5143039Y6179815D02*
G01*
X5188794Y6127011D01*
X5200000Y6075500D01*
X5200000Y5330274D01*
X5180315Y5263235D01*
X5127511Y5217480D01*
X5058353Y5207536D01*
X5027099Y5216323D01*
X4880905Y5279060D01*
X4681690Y5320000D01*
X4280000Y5320000D01*
X4280000Y4620000D01*
X3780000Y4620000D01*
X3780000Y5320000D01*
X3429287Y5320000D01*
X3277661Y5304581D01*
X3083618Y5243700D01*
X3083608Y5243695D01*
X2905784Y5144994D01*
X2905783Y5144994D01*
X2751469Y5012521D01*
X2751468Y5012520D01*
X2626981Y4851695D01*
X2537411Y4669093D01*
X2511754Y4570000D01*
X3313889Y4570000D01*
X3274390Y4545543D01*
X3206799Y4456038D01*
X3176105Y4348160D01*
X3186454Y4236479D01*
X3236448Y4136078D01*
X3308931Y4070000D01*
X2506634Y4070000D01*
X2506931Y4068053D01*
X2506933Y4068047D01*
X2577562Y3877342D01*
X2577565Y3877335D01*
X2685149Y3704732D01*
X2825264Y3557331D01*
X2825266Y3557330D01*
X2992197Y3441142D01*
X2992201Y3441140D01*
X2996293Y3439384D01*
X3050133Y3394852D01*
X3071349Y3328281D01*
X3053207Y3260808D01*
X3045768Y3249965D01*
X2993808Y3182250D01*
X2993806Y3182246D01*
X2935416Y3041280D01*
X2935415Y3041278D01*
X2915500Y2890001D01*
X2915500Y2889998D01*
X2935415Y2738721D01*
X2935416Y2738719D01*
X2993806Y2597752D01*
X3086696Y2476696D01*
X3207753Y2383806D01*
X3294515Y2347868D01*
X3348918Y2304027D01*
X3370983Y2237732D01*
X3364992Y2194986D01*
X3358688Y2175586D01*
X3351243Y2157613D01*
X3340281Y2136099D01*
X3340281Y2136098D01*
X3336503Y2112245D01*
X3331962Y2093330D01*
X3324500Y2070366D01*
X3324500Y-2070366D01*
X3331962Y-2093330D01*
X3336503Y-2112245D01*
X3339355Y-2130252D01*
X3340281Y-2136099D01*
X3351243Y-2157613D01*
X3358688Y-2175586D01*
X3364992Y-2194986D01*
X3366989Y-2264827D01*
X3330910Y-2324661D01*
X3294515Y-2347868D01*
X3207753Y-2383806D01*
X3086696Y-2476696D01*
X2993806Y-2597752D01*
X2935416Y-2738719D01*
X2935415Y-2738721D01*
X2915500Y-2889998D01*
X2915500Y-2890001D01*
X2935415Y-3041278D01*
X2935416Y-3041280D01*
X2980499Y-3150121D01*
X2993808Y-3182250D01*
X3048265Y-3253219D01*
X3073458Y-3318386D01*
X3059420Y-3386831D01*
X3010606Y-3436821D01*
X3010066Y-3437122D01*
X2905792Y-3494999D01*
X2905783Y-3495005D01*
X2751469Y-3627478D01*
X2751468Y-3627479D01*
X2626981Y-3788304D01*
X2537411Y-3970906D01*
X2511754Y-4070000D01*
X3313889Y-4070000D01*
X3274390Y-4094457D01*
X3206799Y-4183962D01*
X3176105Y-4291840D01*
X3186454Y-4403521D01*
X3236448Y-4503922D01*
X3308931Y-4570000D01*
X2506634Y-4570000D01*
X2506931Y-4571946D01*
X2506933Y-4571952D01*
X2577562Y-4762657D01*
X2577565Y-4762664D01*
X2685149Y-4935267D01*
X2825264Y-5082668D01*
X2825266Y-5082669D01*
X2992195Y-5198856D01*
X3179092Y-5279059D01*
X3378310Y-5320000D01*
X3780000Y-5320000D01*
X3780000Y-4620000D01*
X4280000Y-4620000D01*
X4280000Y-5320000D01*
X4630713Y-5320000D01*
X4782338Y-5304581D01*
X4976381Y-5243700D01*
X4976391Y-5243695D01*
X5015822Y-5221810D01*
X5083991Y-5206487D01*
X5149622Y-5230450D01*
X5191879Y-5286093D01*
X5200000Y-5330229D01*
X5200000Y-6075500D01*
X5180315Y-6142539D01*
X5127511Y-6188294D01*
X5076000Y-6199500D01*
X-990243Y-6199500D01*
X-1009638Y-6197973D01*
X-1025888Y-6195399D01*
X-1042250Y-6192808D01*
X-1079144Y-6180821D01*
X-1099762Y-6170316D01*
X-1131150Y-6147511D01*
X-1147511Y-6131150D01*
X-1170316Y-6099762D01*
X-1180821Y-6079144D01*
X-1192808Y-6042250D01*
X-1197973Y-6009642D01*
X-1199500Y-5990243D01*
X-1199500Y-5254096D01*
X-1179815Y-5187057D01*
X-1127011Y-5141302D01*
X-1057853Y-5131358D01*
X-1004662Y-5152322D01*
X-937805Y-5198855D01*
X-750907Y-5279059D01*
X-551690Y-5320000D01*
X-400000Y-5320000D01*
X-400000Y-4620000D01*
X100000Y-4620000D01*
X100000Y-5320000D01*
X200713Y-5320000D01*
X352338Y-5304581D01*
X546381Y-5243700D01*
X546391Y-5243695D01*
X724215Y-5144994D01*
X724216Y-5144994D01*
X878530Y-5012521D01*
X878531Y-5012520D01*
X1003018Y-4851695D01*
X1092588Y-4669093D01*
X1118246Y-4570000D01*
X316111Y-4570000D01*
X355610Y-4545543D01*
X423201Y-4456038D01*
X453895Y-4348160D01*
X443546Y-4236479D01*
X393552Y-4136078D01*
X321069Y-4070000D01*
X1123366Y-4070000D01*
X1123068Y-4068053D01*
X1123066Y-4068047D01*
X1052437Y-3877342D01*
X1052434Y-3877335D01*
X944850Y-3704732D01*
X804735Y-3557331D01*
X804733Y-3557330D01*
X637804Y-3441143D01*
X450907Y-3360940D01*
X251690Y-3320000D01*
X100000Y-3320000D01*
X100000Y-4020000D01*
X-400000Y-4020000D01*
X-400000Y-3320000D01*
X-500713Y-3320000D01*
X-652338Y-3335418D01*
X-846381Y-3396299D01*
X-846396Y-3396306D01*
X-1015323Y-3490068D01*
X-1083491Y-3505391D01*
X-1149123Y-3481427D01*
X-1191380Y-3425784D01*
X-1199500Y-3381649D01*
X-1199500Y3385903D01*
X-1179815Y3452942D01*
X-1127011Y3498697D01*
X-1057853Y3508641D01*
X-1004663Y3487678D01*
X-937804Y3441143D01*
X-750907Y3360940D01*
X-551690Y3320000D01*
X-400000Y3320000D01*
X-400000Y4020000D01*
X100000Y4020000D01*
X100000Y3320000D01*
X200713Y3320000D01*
X352338Y3335418D01*
X546381Y3396299D01*
X546391Y3396304D01*
X724215Y3495005D01*
X724216Y3495005D01*
X878530Y3627478D01*
X878531Y3627479D01*
X1003018Y3788304D01*
X1092588Y3970906D01*
X1118246Y4070000D01*
X316111Y4070000D01*
X355610Y4094457D01*
X423201Y4183962D01*
X453895Y4291840D01*
X443546Y4403521D01*
X393552Y4503922D01*
X321069Y4570000D01*
X1123366Y4570000D01*
X1123068Y4571946D01*
X1123066Y4571952D01*
X1052437Y4762657D01*
X1052434Y4762664D01*
X944850Y4935267D01*
X804735Y5082668D01*
X804733Y5082669D01*
X637804Y5198856D01*
X450907Y5279059D01*
X251690Y5320000D01*
X100000Y5320000D01*
X100000Y4620000D01*
X-400000Y4620000D01*
X-400000Y5320000D01*
X-500713Y5320000D01*
X-652338Y5304581D01*
X-846381Y5243700D01*
X-846391Y5243695D01*
X-1015322Y5149931D01*
X-1083491Y5134608D01*
X-1149122Y5158572D01*
X-1191379Y5214214D01*
X-1199500Y5258350D01*
X-1199500Y5990244D01*
X-1197973Y6009643D01*
X-1192808Y6042251D01*
X-1180820Y6079147D01*
X-1170315Y6099764D01*
X-1147511Y6131150D01*
X-1131150Y6147511D01*
X-1099762Y6170316D01*
X-1079144Y6180821D01*
X-1042250Y6192808D01*
X-1025888Y6195399D01*
X-1009638Y6197973D01*
X-990243Y6199500D01*
X5076000Y6199500D01*
X5143039Y6179815D01*
G37*
%TD.AperFunction*%
%TD*%
%TA.AperFunction,Conductor*%
%TO.N,GND*%
G36*
X29118834Y-5974336D02*
G01*
X29174767Y-6016208D01*
X29199184Y-6081672D01*
X29199500Y-6090518D01*
X29199500Y-15990244D01*
X29197973Y-16009644D01*
X29192808Y-16042251D01*
X29180820Y-16079146D01*
X29170314Y-16099765D01*
X29147510Y-16131151D01*
X29131151Y-16147510D01*
X29099765Y-16170314D01*
X29079146Y-16180820D01*
X29042251Y-16192808D01*
X29029663Y-16194801D01*
X29009638Y-16197973D01*
X28990244Y-16199500D01*
X25760293Y-16199500D01*
X25716734Y-16186709D01*
X25698076Y-16196787D01*
X25672277Y-16199500D01*
X21791804Y-16199500D01*
X21724765Y-16179815D01*
X21679010Y-16127011D01*
X21669066Y-16057853D01*
X21698091Y-15994297D01*
X21756869Y-15956523D01*
X21757476Y-15956346D01*
X21761818Y-15955095D01*
X22009104Y-15883853D01*
X22325648Y-15752736D01*
X22625521Y-15587002D01*
X22904953Y-15388735D01*
X23160428Y-15160428D01*
X23388735Y-14904953D01*
X23587002Y-14625521D01*
X23752736Y-14325648D01*
X23883853Y-14009104D01*
X23978704Y-13679870D01*
X24003252Y-13535390D01*
X24033888Y-13472596D01*
X24093610Y-13436333D01*
X24163457Y-13438114D01*
X24221253Y-13477375D01*
X24248648Y-13541650D01*
X24249500Y-13556162D01*
X24249500Y-14486374D01*
X24249460Y-14489516D01*
X24247355Y-14572545D01*
X24247355Y-14572546D01*
X24257199Y-14627468D01*
X24258507Y-14636796D01*
X24264154Y-14692318D01*
X24264156Y-14692326D01*
X24272689Y-14719522D01*
X24276430Y-14734764D01*
X24281460Y-14762828D01*
X24281461Y-14762830D01*
X24302158Y-14814645D01*
X24305318Y-14823519D01*
X24322025Y-14876768D01*
X24335859Y-14901691D01*
X24342592Y-14915868D01*
X24353168Y-14942343D01*
X24353170Y-14942348D01*
X24353172Y-14942351D01*
X24353173Y-14942353D01*
X24383877Y-14988940D01*
X24388760Y-14997000D01*
X24415840Y-15045790D01*
X24434413Y-15067425D01*
X24443864Y-15079960D01*
X24459546Y-15103756D01*
X24499001Y-15143211D01*
X24505405Y-15150120D01*
X24541760Y-15192468D01*
X24541764Y-15192471D01*
X24541765Y-15192472D01*
X24564300Y-15209915D01*
X24576081Y-15220291D01*
X25018255Y-15662465D01*
X25020449Y-15664715D01*
X25077674Y-15724917D01*
X25077677Y-15724919D01*
X25123486Y-15756803D01*
X25131003Y-15762472D01*
X25174244Y-15797730D01*
X25174247Y-15797733D01*
X25199513Y-15810930D01*
X25212942Y-15819065D01*
X25236342Y-15835353D01*
X25236343Y-15835353D01*
X25236344Y-15835354D01*
X25287623Y-15857359D01*
X25296126Y-15861396D01*
X25345594Y-15887237D01*
X25372998Y-15895078D01*
X25387780Y-15900340D01*
X25413988Y-15911587D01*
X25468648Y-15922819D01*
X25477796Y-15925064D01*
X25512152Y-15934895D01*
X25531445Y-15940416D01*
X25531449Y-15940417D01*
X25559892Y-15942582D01*
X25575405Y-15944758D01*
X25603344Y-15950500D01*
X25659147Y-15950500D01*
X25668560Y-15950857D01*
X25679243Y-15951671D01*
X25681694Y-15951858D01*
X25713749Y-15963983D01*
X25725358Y-15956523D01*
X25744624Y-15952494D01*
X25752478Y-15951493D01*
X25768144Y-15950500D01*
X27048207Y-15950500D01*
X27126100Y-15942579D01*
X27192321Y-15935845D01*
X27366528Y-15881186D01*
X27403648Y-15875500D01*
X27694750Y-15875500D01*
X27694751Y-15875499D01*
X27709568Y-15872552D01*
X27753229Y-15863868D01*
X27753229Y-15863867D01*
X27753231Y-15863867D01*
X27819552Y-15819552D01*
X27863867Y-15753231D01*
X27863867Y-15753229D01*
X27863868Y-15753229D01*
X27875499Y-15694752D01*
X27875500Y-15694750D01*
X27875500Y-15402240D01*
X27888172Y-15347632D01*
X27889413Y-15345100D01*
X27895930Y-15331816D01*
X27923357Y-15225890D01*
X27944383Y-15144682D01*
X27944384Y-15144676D01*
X27944385Y-15144674D01*
X27954176Y-14951610D01*
X27924903Y-14760526D01*
X27899644Y-14692326D01*
X27883219Y-14647976D01*
X27875500Y-14604910D01*
X27875500Y-14305249D01*
X27875499Y-14305247D01*
X27863868Y-14246770D01*
X27863867Y-14246769D01*
X27819552Y-14180447D01*
X27753230Y-14136132D01*
X27753229Y-14136131D01*
X27694752Y-14124500D01*
X27694748Y-14124500D01*
X27395588Y-14124500D01*
X27346688Y-14114451D01*
X27286010Y-14088412D01*
X27259166Y-14082895D01*
X27197462Y-14050117D01*
X27163275Y-13989183D01*
X27167458Y-13919439D01*
X27208683Y-13863028D01*
X27258348Y-13840144D01*
X27272034Y-13837236D01*
X27440161Y-13762381D01*
X27589050Y-13654207D01*
X27712195Y-13517440D01*
X27804214Y-13358059D01*
X27861085Y-13183029D01*
X27880322Y-13000000D01*
X27861085Y-12816971D01*
X27804214Y-12641941D01*
X27743944Y-12537550D01*
X27717113Y-12491077D01*
X27700500Y-12429077D01*
X27700500Y-11570921D01*
X27717113Y-11508921D01*
X27804214Y-11358059D01*
X27861085Y-11183029D01*
X27880322Y-11000000D01*
X27861085Y-10816971D01*
X27804214Y-10641941D01*
X27712195Y-10482560D01*
X27589050Y-10345793D01*
X27491342Y-10274804D01*
X27448678Y-10219475D01*
X27442699Y-10149862D01*
X27475305Y-10088067D01*
X27519443Y-10058857D01*
X27525987Y-10056322D01*
X27711130Y-9941685D01*
X27711131Y-9941685D01*
X27872054Y-9794985D01*
X28003284Y-9621208D01*
X28100348Y-9426280D01*
X28150505Y-9250000D01*
X27315686Y-9250000D01*
X27327641Y-9238045D01*
X27385165Y-9125148D01*
X27404986Y-9000000D01*
X27385165Y-8874852D01*
X27327641Y-8761955D01*
X27315686Y-8750000D01*
X28150505Y-8750000D01*
X28150505Y-8749999D01*
X28100348Y-8573719D01*
X28003284Y-8378791D01*
X27872054Y-8205014D01*
X27711131Y-8058314D01*
X27525987Y-7943677D01*
X27525979Y-7943673D01*
X27519434Y-7941138D01*
X27464033Y-7898565D01*
X27440443Y-7832798D01*
X27456155Y-7764718D01*
X27491342Y-7725195D01*
X27589050Y-7654207D01*
X27712195Y-7517440D01*
X27804214Y-7358059D01*
X27861085Y-7183029D01*
X27862773Y-7166966D01*
X27889354Y-7102351D01*
X27898404Y-7092251D01*
X28987819Y-6002837D01*
X29049142Y-5969352D01*
X29118834Y-5974336D01*
G37*
%TD.AperFunction*%
%TA.AperFunction,Conductor*%
G36*
X24192539Y3274815D02*
G01*
X24238294Y3222011D01*
X24249500Y3170500D01*
X24249500Y-3240048D01*
X24229815Y-3307087D01*
X24177011Y-3352842D01*
X24107853Y-3362786D01*
X24067566Y-3349682D01*
X24062883Y-3347207D01*
X23934700Y-3302353D01*
X23904270Y-3299500D01*
X23904266Y-3299500D01*
X22495734Y-3299500D01*
X22495730Y-3299500D01*
X22465300Y-3302353D01*
X22465298Y-3302353D01*
X22337119Y-3347206D01*
X22337117Y-3347207D01*
X22227850Y-3427850D01*
X22147207Y-3537117D01*
X22147206Y-3537119D01*
X22102353Y-3665298D01*
X22102353Y-3665300D01*
X22099500Y-3695730D01*
X22099500Y-4629269D01*
X22102353Y-4659699D01*
X22102353Y-4659701D01*
X22142442Y-4774265D01*
X22147207Y-4787882D01*
X22227850Y-4897150D01*
X22337118Y-4977793D01*
X22379845Y-4992744D01*
X22465299Y-5022646D01*
X22495730Y-5025500D01*
X22495734Y-5025500D01*
X23904270Y-5025500D01*
X23934699Y-5022646D01*
X23934701Y-5022646D01*
X23987226Y-5004266D01*
X24062882Y-4977793D01*
X24062889Y-4977787D01*
X24067560Y-4975320D01*
X24136028Y-4961399D01*
X24201154Y-4986704D01*
X24242261Y-5043203D01*
X24249500Y-5084951D01*
X24249500Y-12443837D01*
X24229815Y-12510876D01*
X24177011Y-12556631D01*
X24107853Y-12566575D01*
X24044297Y-12537550D01*
X24006523Y-12478772D01*
X24003252Y-12464608D01*
X23980524Y-12330842D01*
X23978704Y-12320130D01*
X23883853Y-11990896D01*
X23752736Y-11674352D01*
X23587002Y-11374479D01*
X23388735Y-11095047D01*
X23388734Y-11095046D01*
X23388730Y-11095040D01*
X23160429Y-10839573D01*
X23160426Y-10839570D01*
X22904959Y-10611269D01*
X22625521Y-10412998D01*
X22516586Y-10352792D01*
X22325648Y-10247264D01*
X22296706Y-10235276D01*
X22258560Y-10219475D01*
X22009104Y-10116147D01*
X21924479Y-10091766D01*
X21679875Y-10021297D01*
X21679866Y-10021295D01*
X21342093Y-9963905D01*
X21342081Y-9963903D01*
X21000000Y-9944693D01*
X20657918Y-9963903D01*
X20657906Y-9963905D01*
X20320133Y-10021295D01*
X20320124Y-10021297D01*
X19990899Y-10116146D01*
X19990896Y-10116147D01*
X19909501Y-10149862D01*
X19674353Y-10247263D01*
X19374478Y-10412998D01*
X19095040Y-10611269D01*
X18839573Y-10839570D01*
X18839570Y-10839573D01*
X18611269Y-11095040D01*
X18412998Y-11374478D01*
X18247263Y-11674353D01*
X18116146Y-11990899D01*
X18021297Y-12320124D01*
X18021295Y-12320133D01*
X18008359Y-12396271D01*
X17977723Y-12459066D01*
X17918000Y-12495329D01*
X17886111Y-12499500D01*
X13113889Y-12499500D01*
X13046850Y-12479815D01*
X13001095Y-12427011D01*
X12991641Y-12396271D01*
X12980524Y-12330842D01*
X12978704Y-12320130D01*
X12883853Y-11990896D01*
X12752736Y-11674352D01*
X12587002Y-11374479D01*
X12388735Y-11095047D01*
X12388734Y-11095046D01*
X12388730Y-11095040D01*
X12160429Y-10839573D01*
X12160426Y-10839570D01*
X11904959Y-10611269D01*
X11625521Y-10412998D01*
X11516586Y-10352792D01*
X11325648Y-10247264D01*
X11296706Y-10235276D01*
X11258560Y-10219475D01*
X11009104Y-10116147D01*
X10924479Y-10091766D01*
X10679875Y-10021297D01*
X10679866Y-10021295D01*
X10342093Y-9963905D01*
X10342081Y-9963903D01*
X10000000Y-9944693D01*
X9657918Y-9963903D01*
X9657906Y-9963905D01*
X9320133Y-10021295D01*
X9320124Y-10021297D01*
X8990899Y-10116146D01*
X8990896Y-10116147D01*
X8909501Y-10149862D01*
X8674353Y-10247263D01*
X8374478Y-10412998D01*
X8095040Y-10611269D01*
X7839573Y-10839570D01*
X7839570Y-10839573D01*
X7611269Y-11095040D01*
X7412998Y-11374478D01*
X7247263Y-11674353D01*
X7116146Y-11990899D01*
X7043654Y-12242524D01*
X7006180Y-12301494D01*
X6942773Y-12330842D01*
X6873564Y-12321252D01*
X6820528Y-12275767D01*
X6800502Y-12208828D01*
X6800500Y-12208196D01*
X6800500Y-6921155D01*
X6800499Y-6921153D01*
X6795604Y-6896544D01*
X6769737Y-6766503D01*
X6764058Y-6752793D01*
X6709397Y-6620827D01*
X6709390Y-6620814D01*
X6621789Y-6489711D01*
X6621786Y-6489707D01*
X6510292Y-6378213D01*
X6510288Y-6378210D01*
X6379185Y-6290609D01*
X6379172Y-6290602D01*
X6233501Y-6230264D01*
X6233491Y-6230261D01*
X6099808Y-6203669D01*
X6037897Y-6171284D01*
X6003323Y-6110568D01*
X6000000Y-6082052D01*
X6000000Y-5000000D01*
X6000000Y-2117677D01*
X6008538Y-2120185D01*
X6035211Y-2143296D01*
X6068872Y-2182143D01*
X6189947Y-2259953D01*
X6189950Y-2259954D01*
X6189949Y-2259954D01*
X6328036Y-2300499D01*
X6328038Y-2300500D01*
X6328039Y-2300500D01*
X6471962Y-2300500D01*
X6471962Y-2300499D01*
X6610050Y-2259954D01*
X6610051Y-2259954D01*
X6610053Y-2259953D01*
X6709728Y-2195895D01*
X6776767Y-2176211D01*
X6843806Y-2195895D01*
X6864448Y-2212530D01*
X6960781Y-2308863D01*
X6994266Y-2370186D01*
X6997100Y-2396544D01*
X6997100Y-6198388D01*
X6994461Y-6223832D01*
X6992557Y-6232911D01*
X6992557Y-6232916D01*
X6996148Y-6261721D01*
X6996996Y-6275395D01*
X6997099Y-6276632D01*
X6997100Y-6276637D01*
X6997100Y-6276640D01*
X6999430Y-6290606D01*
X7000266Y-6295615D01*
X7001003Y-6300677D01*
X7007026Y-6348990D01*
X7009124Y-6356035D01*
X7011507Y-6362979D01*
X7011508Y-6362981D01*
X7011917Y-6363736D01*
X7034682Y-6405803D01*
X7037021Y-6410347D01*
X7058402Y-6454084D01*
X7058404Y-6454086D01*
X7058405Y-6454088D01*
X7062662Y-6460051D01*
X7067183Y-6465859D01*
X7102998Y-6498830D01*
X7106696Y-6502378D01*
X7413181Y-6808863D01*
X7446666Y-6870186D01*
X7449500Y-6896544D01*
X7449500Y-7250788D01*
X7446861Y-7276232D01*
X7444957Y-7285311D01*
X7444957Y-7285316D01*
X7448548Y-7314121D01*
X7449396Y-7327795D01*
X7449499Y-7329032D01*
X7449500Y-7329037D01*
X7449500Y-7329040D01*
X7449591Y-7329584D01*
X7452666Y-7348015D01*
X7453403Y-7353077D01*
X7459426Y-7401390D01*
X7461524Y-7408435D01*
X7463907Y-7415379D01*
X7463908Y-7415381D01*
X7480270Y-7445616D01*
X7487082Y-7458203D01*
X7489421Y-7462747D01*
X7510802Y-7506484D01*
X7510804Y-7506486D01*
X7510805Y-7506488D01*
X7515062Y-7512451D01*
X7519583Y-7518259D01*
X7555398Y-7551230D01*
X7559096Y-7554778D01*
X8817362Y-8813044D01*
X8833486Y-8832899D01*
X8836243Y-8837118D01*
X8838563Y-8840669D01*
X8838565Y-8840671D01*
X8861466Y-8858495D01*
X8871726Y-8867557D01*
X8872686Y-8868370D01*
X8872692Y-8868374D01*
X8872694Y-8868376D01*
X8881764Y-8874852D01*
X8888356Y-8879558D01*
X8892447Y-8882608D01*
X8930874Y-8912517D01*
X8930877Y-8912518D01*
X8937330Y-8916011D01*
X8943933Y-8919240D01*
X8974478Y-8928333D01*
X8990584Y-8933128D01*
X8995441Y-8934683D01*
X9041512Y-8950500D01*
X9041516Y-8950500D01*
X9048732Y-8951705D01*
X9056045Y-8952616D01*
X9056047Y-8952617D01*
X9056048Y-8952616D01*
X9056049Y-8952617D01*
X9093133Y-8951083D01*
X9104679Y-8950605D01*
X9109802Y-8950500D01*
X13503456Y-8950500D01*
X13570495Y-8970185D01*
X13591137Y-8986819D01*
X14163181Y-9558863D01*
X14196666Y-9620186D01*
X14199500Y-9646544D01*
X14199500Y-10004269D01*
X14202353Y-10034699D01*
X14202353Y-10034701D01*
X14247206Y-10162880D01*
X14247207Y-10162882D01*
X14327850Y-10272150D01*
X14437118Y-10352793D01*
X14479845Y-10367744D01*
X14565299Y-10397646D01*
X14595730Y-10400500D01*
X14595734Y-10400500D01*
X15404270Y-10400500D01*
X15434699Y-10397646D01*
X15434701Y-10397646D01*
X15498790Y-10375219D01*
X15562882Y-10352793D01*
X15672150Y-10272150D01*
X15752793Y-10162882D01*
X15782273Y-10078634D01*
X15797646Y-10034701D01*
X15797646Y-10034699D01*
X15800500Y-10004269D01*
X15800500Y-8995730D01*
X15797646Y-8965300D01*
X15797646Y-8965298D01*
X15763731Y-8868376D01*
X15752793Y-8837118D01*
X15672150Y-8727850D01*
X15562882Y-8647207D01*
X15562880Y-8647206D01*
X15434700Y-8602353D01*
X15404270Y-8599500D01*
X15404266Y-8599500D01*
X14595734Y-8599500D01*
X14595730Y-8599500D01*
X14565303Y-8602353D01*
X14505901Y-8623139D01*
X14436122Y-8626700D01*
X14375494Y-8591971D01*
X14343267Y-8529978D01*
X14349672Y-8460402D01*
X14377263Y-8418418D01*
X14798863Y-7996819D01*
X14860186Y-7963334D01*
X14886544Y-7960500D01*
X15103457Y-7960500D01*
X15170496Y-7980185D01*
X15191133Y-7996814D01*
X15243517Y-8049198D01*
X15348607Y-8100573D01*
X15382673Y-8105536D01*
X15416739Y-8110500D01*
X15416740Y-8110500D01*
X17133261Y-8110500D01*
X17155971Y-8107191D01*
X17201393Y-8100573D01*
X17306483Y-8049198D01*
X17389198Y-7966483D01*
X17440573Y-7861393D01*
X17450500Y-7793260D01*
X17450500Y-7426740D01*
X17446806Y-7401390D01*
X17441561Y-7365386D01*
X17440573Y-7358607D01*
X17389198Y-7253517D01*
X17389196Y-7253515D01*
X17389196Y-7253514D01*
X17306485Y-7170803D01*
X17201391Y-7119426D01*
X17133261Y-7109500D01*
X17133260Y-7109500D01*
X15416740Y-7109500D01*
X15416739Y-7109500D01*
X15348608Y-7119426D01*
X15243516Y-7170802D01*
X15223182Y-7191137D01*
X15191136Y-7223182D01*
X15129816Y-7256666D01*
X15103457Y-7259500D01*
X14739206Y-7259500D01*
X14713761Y-7256861D01*
X14712831Y-7256666D01*
X14704685Y-7254958D01*
X14704684Y-7254958D01*
X14675884Y-7258548D01*
X14662181Y-7259398D01*
X14660962Y-7259499D01*
X14641990Y-7262665D01*
X14636923Y-7263403D01*
X14588605Y-7269426D01*
X14581584Y-7271516D01*
X14574617Y-7273908D01*
X14531812Y-7297072D01*
X14527261Y-7299415D01*
X14483513Y-7320803D01*
X14477566Y-7325047D01*
X14471738Y-7329584D01*
X14438780Y-7365386D01*
X14435233Y-7369083D01*
X13591137Y-8213181D01*
X13529814Y-8246666D01*
X13503456Y-8249500D01*
X9296543Y-8249500D01*
X9229504Y-8229815D01*
X9208862Y-8213181D01*
X8186819Y-7191137D01*
X8153334Y-7129814D01*
X8150500Y-7103456D01*
X8150500Y-6897246D01*
X8170185Y-6830207D01*
X8222989Y-6784452D01*
X8292147Y-6774508D01*
X8315453Y-6780203D01*
X8365301Y-6797646D01*
X8375445Y-6798597D01*
X8395730Y-6800500D01*
X8395734Y-6800500D01*
X9404270Y-6800500D01*
X9434699Y-6797646D01*
X9434701Y-6797646D01*
X9517236Y-6768765D01*
X9562882Y-6752793D01*
X9614456Y-6714729D01*
X9680084Y-6690759D01*
X9688089Y-6690500D01*
X10153457Y-6690500D01*
X10220496Y-6710185D01*
X10241133Y-6726814D01*
X10293517Y-6779198D01*
X10398607Y-6830573D01*
X10432673Y-6835536D01*
X10466739Y-6840500D01*
X10466740Y-6840500D01*
X12183261Y-6840500D01*
X12205971Y-6837191D01*
X12251393Y-6830573D01*
X12356483Y-6779198D01*
X12439198Y-6696483D01*
X12490573Y-6591393D01*
X12500500Y-6523260D01*
X12500500Y-6156740D01*
X12490573Y-6088607D01*
X12439198Y-5983517D01*
X12439196Y-5983515D01*
X12439196Y-5983514D01*
X12356485Y-5900803D01*
X12251391Y-5849426D01*
X12183261Y-5839500D01*
X12183260Y-5839500D01*
X10466740Y-5839500D01*
X10466739Y-5839500D01*
X10398608Y-5849426D01*
X10293516Y-5900802D01*
X10277308Y-5917011D01*
X10241136Y-5953182D01*
X10179816Y-5986666D01*
X10153457Y-5989500D01*
X9924500Y-5989500D01*
X9857461Y-5969815D01*
X9811706Y-5917011D01*
X9800500Y-5865500D01*
X9800500Y-5595730D01*
X9797646Y-5565300D01*
X9797646Y-5565298D01*
X9752793Y-5437119D01*
X9752792Y-5437117D01*
X9672150Y-5327850D01*
X9571084Y-5253260D01*
X10149500Y-5253260D01*
X10159426Y-5321391D01*
X10210803Y-5426485D01*
X10293514Y-5509196D01*
X10293515Y-5509196D01*
X10293517Y-5509198D01*
X10398607Y-5560573D01*
X10425539Y-5564497D01*
X10466739Y-5570500D01*
X10466740Y-5570500D01*
X12183261Y-5570500D01*
X12205971Y-5567191D01*
X12251393Y-5560573D01*
X12307592Y-5533098D01*
X12362052Y-5520500D01*
X12932034Y-5520500D01*
X12999073Y-5540185D01*
X13019715Y-5556819D01*
X14098630Y-6635733D01*
X14107895Y-6646100D01*
X14130121Y-6673970D01*
X14130123Y-6673972D01*
X14177363Y-6706180D01*
X14181145Y-6708863D01*
X14227118Y-6742793D01*
X14234665Y-6746781D01*
X14242322Y-6750468D01*
X14242327Y-6750472D01*
X14296983Y-6767330D01*
X14301342Y-6768765D01*
X14355300Y-6787646D01*
X14355305Y-6787646D01*
X14363698Y-6789234D01*
X14372095Y-6790500D01*
X14372098Y-6790500D01*
X14429261Y-6790500D01*
X14433898Y-6790587D01*
X14491009Y-6792724D01*
X14491009Y-6792723D01*
X14491010Y-6792724D01*
X14491010Y-6792723D01*
X14500243Y-6791684D01*
X14500336Y-6792513D01*
X14515636Y-6790500D01*
X15237948Y-6790500D01*
X15292407Y-6803098D01*
X15348607Y-6830573D01*
X15382673Y-6835536D01*
X15416739Y-6840500D01*
X15416740Y-6840500D01*
X17133261Y-6840500D01*
X17155971Y-6837191D01*
X17201393Y-6830573D01*
X17257592Y-6803098D01*
X17312052Y-6790500D01*
X18727738Y-6790500D01*
X18741620Y-6791279D01*
X18745208Y-6791684D01*
X18777033Y-6795270D01*
X18777033Y-6795269D01*
X18777035Y-6795270D01*
X18833236Y-6784635D01*
X18837726Y-6783872D01*
X18894287Y-6775348D01*
X18894291Y-6775345D01*
X18902429Y-6772836D01*
X18910463Y-6770024D01*
X18910472Y-6770023D01*
X18920222Y-6764870D01*
X18978164Y-6750500D01*
X19967738Y-6750500D01*
X19981620Y-6751279D01*
X19994421Y-6752722D01*
X20017033Y-6755270D01*
X20017033Y-6755269D01*
X20017035Y-6755270D01*
X20073236Y-6744635D01*
X20077726Y-6743872D01*
X20134287Y-6735348D01*
X20134291Y-6735345D01*
X20142447Y-6732830D01*
X20150469Y-6730024D01*
X20150470Y-6730023D01*
X20150472Y-6730023D01*
X20201088Y-6703270D01*
X20205093Y-6701248D01*
X20256642Y-6676425D01*
X20256643Y-6676423D01*
X20256645Y-6676423D01*
X20263695Y-6671616D01*
X20270534Y-6666569D01*
X20270535Y-6666567D01*
X20270538Y-6666566D01*
X20297818Y-6639284D01*
X20359138Y-6605800D01*
X20428830Y-6610782D01*
X20484765Y-6652652D01*
X20509184Y-6718115D01*
X20509500Y-6726965D01*
X20509500Y-7194752D01*
X20521131Y-7253229D01*
X20521132Y-7253230D01*
X20565447Y-7319552D01*
X20631769Y-7363867D01*
X20631770Y-7363868D01*
X20690247Y-7375499D01*
X20690250Y-7375500D01*
X20690252Y-7375500D01*
X22229750Y-7375500D01*
X22229751Y-7375499D01*
X22244568Y-7372552D01*
X22288229Y-7363868D01*
X22288229Y-7363867D01*
X22288231Y-7363867D01*
X22354552Y-7319552D01*
X22398867Y-7253231D01*
X22398867Y-7253229D01*
X22398868Y-7253229D01*
X22410499Y-7194752D01*
X22410500Y-7194750D01*
X22410500Y-6705249D01*
X22410499Y-6705247D01*
X22398868Y-6646770D01*
X22398867Y-6646769D01*
X22385032Y-6626063D01*
X22364154Y-6559385D01*
X22382639Y-6492005D01*
X22421092Y-6452858D01*
X22531128Y-6382143D01*
X22625377Y-6273373D01*
X22685165Y-6142457D01*
X22705647Y-6000000D01*
X22685165Y-5857543D01*
X22625377Y-5726627D01*
X22531128Y-5617857D01*
X22410053Y-5540047D01*
X22410051Y-5540046D01*
X22410049Y-5540045D01*
X22410050Y-5540045D01*
X22271963Y-5499500D01*
X22271961Y-5499500D01*
X22128039Y-5499500D01*
X22128036Y-5499500D01*
X21981437Y-5542545D01*
X21981004Y-5541073D01*
X21942273Y-5549500D01*
X21732059Y-5549500D01*
X21665020Y-5529815D01*
X21619265Y-5477011D01*
X21609321Y-5407853D01*
X21638346Y-5344297D01*
X21658425Y-5325730D01*
X21697150Y-5297150D01*
X21777793Y-5187882D01*
X21817467Y-5074500D01*
X21822646Y-5059701D01*
X21822646Y-5059699D01*
X21825500Y-5029269D01*
X21825500Y-4245730D01*
X21822646Y-4215300D01*
X21822646Y-4215298D01*
X21777793Y-4087119D01*
X21777792Y-4087117D01*
X21776459Y-4085311D01*
X21697150Y-3977850D01*
X21587882Y-3897207D01*
X21587880Y-3897206D01*
X21459700Y-3852353D01*
X21429270Y-3849500D01*
X21429266Y-3849500D01*
X20370734Y-3849500D01*
X20370730Y-3849500D01*
X20340300Y-3852353D01*
X20340298Y-3852353D01*
X20212119Y-3897206D01*
X20212117Y-3897207D01*
X20102850Y-3977850D01*
X20022207Y-4087117D01*
X20022206Y-4087119D01*
X19977353Y-4215298D01*
X19977353Y-4215300D01*
X19974500Y-4245730D01*
X19974500Y-5029269D01*
X19977353Y-5059699D01*
X19977353Y-5059701D01*
X20019384Y-5179815D01*
X20022207Y-5187882D01*
X20102850Y-5297150D01*
X20179861Y-5353986D01*
X20222111Y-5409633D01*
X20227570Y-5479289D01*
X20194503Y-5540839D01*
X20157138Y-5564497D01*
X20157741Y-5565637D01*
X20149529Y-5569976D01*
X20149528Y-5569977D01*
X20139804Y-5575115D01*
X20098964Y-5596699D01*
X20094830Y-5598786D01*
X20043359Y-5623574D01*
X20036310Y-5628379D01*
X20029458Y-5633436D01*
X19989047Y-5673847D01*
X19985710Y-5677062D01*
X19943808Y-5715942D01*
X19938015Y-5723207D01*
X19937364Y-5722688D01*
X19927971Y-5734922D01*
X19849715Y-5813180D01*
X19788393Y-5846666D01*
X19762033Y-5849500D01*
X19274500Y-5849500D01*
X19207461Y-5829815D01*
X19161706Y-5777011D01*
X19150500Y-5725500D01*
X19150500Y-5515091D01*
X19170185Y-5448052D01*
X19222989Y-5402297D01*
X19233545Y-5398050D01*
X19271051Y-5384926D01*
X19362882Y-5352793D01*
X19472150Y-5272150D01*
X19552793Y-5162882D01*
X19583719Y-5074500D01*
X19597646Y-5034701D01*
X19597646Y-5034699D01*
X19600500Y-5004269D01*
X19600500Y-4195730D01*
X19597646Y-4165300D01*
X19597646Y-4165298D01*
X19552793Y-4037119D01*
X19552792Y-4037117D01*
X19472150Y-3927850D01*
X19362882Y-3847207D01*
X19362880Y-3847206D01*
X19234700Y-3802353D01*
X19204270Y-3799500D01*
X19204266Y-3799500D01*
X18195734Y-3799500D01*
X18195730Y-3799500D01*
X18165300Y-3802353D01*
X18165298Y-3802353D01*
X18037119Y-3847206D01*
X18037117Y-3847207D01*
X17927850Y-3927850D01*
X17847207Y-4037117D01*
X17847206Y-4037119D01*
X17802353Y-4165298D01*
X17802353Y-4165300D01*
X17799500Y-4195730D01*
X17799500Y-5004269D01*
X17802353Y-5034699D01*
X17802353Y-5034701D01*
X17843327Y-5151794D01*
X17847207Y-5162882D01*
X17927850Y-5272150D01*
X18037118Y-5352793D01*
X18108564Y-5377793D01*
X18166455Y-5398050D01*
X18223231Y-5438771D01*
X18248978Y-5503724D01*
X18249500Y-5515091D01*
X18249500Y-5750500D01*
X18229815Y-5817539D01*
X18177011Y-5863294D01*
X18125500Y-5874500D01*
X18030247Y-5874500D01*
X17966818Y-5887117D01*
X17942627Y-5889500D01*
X17312052Y-5889500D01*
X17257592Y-5876901D01*
X17243097Y-5869815D01*
X17201393Y-5849427D01*
X17201391Y-5849426D01*
X17133261Y-5839500D01*
X17133260Y-5839500D01*
X15416740Y-5839500D01*
X15416739Y-5839500D01*
X15348608Y-5849426D01*
X15292408Y-5876901D01*
X15237948Y-5889500D01*
X14677965Y-5889500D01*
X14610926Y-5869815D01*
X14590284Y-5853181D01*
X13511368Y-4774265D01*
X13502102Y-4763897D01*
X13479877Y-4736028D01*
X13446859Y-4713517D01*
X13432633Y-4703818D01*
X13428869Y-4701147D01*
X13382886Y-4667209D01*
X13375297Y-4663198D01*
X13367675Y-4659528D01*
X13313049Y-4642679D01*
X13308644Y-4641230D01*
X13254695Y-4622352D01*
X13246326Y-4620768D01*
X13237904Y-4619500D01*
X13237902Y-4619500D01*
X13180738Y-4619500D01*
X13176101Y-4619413D01*
X13174085Y-4619337D01*
X13118989Y-4617275D01*
X13109756Y-4618316D01*
X13109662Y-4617486D01*
X13094364Y-4619500D01*
X12362052Y-4619500D01*
X12307592Y-4606901D01*
X12251391Y-4579426D01*
X12183261Y-4569500D01*
X12183260Y-4569500D01*
X10466740Y-4569500D01*
X10466739Y-4569500D01*
X10398608Y-4579426D01*
X10293514Y-4630803D01*
X10210803Y-4713514D01*
X10159426Y-4818608D01*
X10149500Y-4886739D01*
X10149500Y-5253260D01*
X9571084Y-5253260D01*
X9562882Y-5247207D01*
X9562880Y-5247206D01*
X9434700Y-5202353D01*
X9404270Y-5199500D01*
X9404266Y-5199500D01*
X8646544Y-5199500D01*
X8579505Y-5179815D01*
X8558863Y-5163181D01*
X8186819Y-4791137D01*
X8153334Y-4729814D01*
X8150500Y-4703456D01*
X8150500Y-1749206D01*
X8153139Y-1723760D01*
X8155042Y-1714685D01*
X8151451Y-1685883D01*
X8150603Y-1672208D01*
X8150500Y-1670970D01*
X8150500Y-1670960D01*
X8147328Y-1651959D01*
X8146594Y-1646915D01*
X8145751Y-1640150D01*
X8140573Y-1598607D01*
X8140572Y-1598604D01*
X8138477Y-1591566D01*
X8136092Y-1584618D01*
X8112928Y-1541817D01*
X8110579Y-1537254D01*
X8089199Y-1493518D01*
X8084926Y-1487534D01*
X8080420Y-1481745D01*
X8080419Y-1481744D01*
X8080418Y-1481742D01*
X8044587Y-1448757D01*
X8040914Y-1445232D01*
X7486819Y-891137D01*
X7453334Y-829814D01*
X7450500Y-803456D01*
X7450500Y-573184D01*
X7470185Y-506145D01*
X7522989Y-460390D01*
X7592147Y-450446D01*
X7655703Y-479471D01*
X7674265Y-499544D01*
X7727850Y-572150D01*
X7837118Y-652793D01*
X7879845Y-667744D01*
X7965299Y-697646D01*
X7995730Y-700500D01*
X7995734Y-700500D01*
X8804270Y-700500D01*
X8834699Y-697646D01*
X8834701Y-697646D01*
X8898790Y-675219D01*
X8962882Y-652793D01*
X9072150Y-572150D01*
X9152793Y-462882D01*
X9184464Y-372371D01*
X9197646Y-334701D01*
X9197646Y-334699D01*
X9200500Y-304269D01*
X9200500Y453456D01*
X9220185Y520495D01*
X9236819Y541137D01*
X9387819Y692137D01*
X9449142Y725622D01*
X9518834Y720638D01*
X9574767Y678766D01*
X9599184Y613302D01*
X9599500Y604456D01*
X9599500Y-304269D01*
X9602353Y-334699D01*
X9602353Y-334701D01*
X9646335Y-460390D01*
X9647207Y-462882D01*
X9727850Y-572150D01*
X9837118Y-652793D01*
X9879845Y-667744D01*
X9965299Y-697646D01*
X9995730Y-700500D01*
X9995734Y-700500D01*
X10312034Y-700500D01*
X10379073Y-720185D01*
X10399715Y-736819D01*
X10707870Y-1044974D01*
X10741355Y-1106297D01*
X10736371Y-1175989D01*
X10719961Y-1206287D01*
X10697206Y-1237118D01*
X10697206Y-1237119D01*
X10652353Y-1365298D01*
X10652353Y-1365300D01*
X10649500Y-1395730D01*
X10649500Y-2404269D01*
X10652353Y-2434699D01*
X10652353Y-2434701D01*
X10697206Y-2562880D01*
X10697207Y-2562882D01*
X10777850Y-2672150D01*
X10887118Y-2752793D01*
X10921978Y-2764991D01*
X11015299Y-2797646D01*
X11045730Y-2800500D01*
X11529455Y-2800500D01*
X11596494Y-2820185D01*
X11642249Y-2872989D01*
X11652193Y-2942147D01*
X11623168Y-3005703D01*
X11617136Y-3012181D01*
X11366137Y-3263181D01*
X11304814Y-3296666D01*
X11278456Y-3299500D01*
X10466739Y-3299500D01*
X10398608Y-3309426D01*
X10293514Y-3360803D01*
X10210803Y-3443514D01*
X10159426Y-3548608D01*
X10149500Y-3616739D01*
X10149500Y-3983260D01*
X10159426Y-4051391D01*
X10210803Y-4156485D01*
X10293514Y-4239196D01*
X10293515Y-4239196D01*
X10293517Y-4239198D01*
X10398607Y-4290573D01*
X10432673Y-4295536D01*
X10466739Y-4300500D01*
X10466740Y-4300500D01*
X12183261Y-4300500D01*
X12205971Y-4297191D01*
X12251393Y-4290573D01*
X12356483Y-4239198D01*
X12439198Y-4156483D01*
X12490573Y-4051393D01*
X12500500Y-3983260D01*
X12500500Y-3616740D01*
X12490573Y-3548607D01*
X12439198Y-3443517D01*
X12439196Y-3443515D01*
X12439196Y-3443514D01*
X12395862Y-3400180D01*
X12362377Y-3338857D01*
X12367361Y-3269165D01*
X12395860Y-3224820D01*
X12610646Y-3010034D01*
X12630502Y-2993911D01*
X12638269Y-2988837D01*
X12656096Y-2965931D01*
X12665142Y-2955689D01*
X12665962Y-2954719D01*
X12665975Y-2954707D01*
X12677188Y-2939001D01*
X12680192Y-2934972D01*
X12710117Y-2896526D01*
X12710120Y-2896515D01*
X12713621Y-2890048D01*
X12716835Y-2883471D01*
X12716839Y-2883467D01*
X12730727Y-2836817D01*
X12732286Y-2831950D01*
X12738186Y-2814764D01*
X12748100Y-2785888D01*
X12748100Y-2785883D01*
X12749306Y-2778652D01*
X12750217Y-2771352D01*
X12748206Y-2722732D01*
X12748100Y-2717607D01*
X12748100Y-1298944D01*
X12767785Y-1231905D01*
X12784421Y-1211261D01*
X12808866Y-1186817D01*
X12870189Y-1153333D01*
X12896545Y-1150500D01*
X13150789Y-1150500D01*
X13176234Y-1153138D01*
X13185315Y-1155043D01*
X13210673Y-1151881D01*
X13214123Y-1151452D01*
X13227764Y-1150605D01*
X13229026Y-1150500D01*
X13229040Y-1150500D01*
X13237071Y-1149159D01*
X13248014Y-1147334D01*
X13253063Y-1146597D01*
X13301393Y-1140573D01*
X13301399Y-1140569D01*
X13308456Y-1138468D01*
X13315377Y-1136092D01*
X13315381Y-1136092D01*
X13358216Y-1112909D01*
X13362729Y-1110586D01*
X13406484Y-1089198D01*
X13406486Y-1089195D01*
X13412461Y-1084929D01*
X13418256Y-1080419D01*
X13418255Y-1080419D01*
X13418258Y-1080418D01*
X13451254Y-1044572D01*
X13454756Y-1040924D01*
X13637819Y-857862D01*
X13699142Y-824377D01*
X13768834Y-829361D01*
X13824767Y-871233D01*
X13849184Y-936697D01*
X13849500Y-945543D01*
X13849500Y-1350788D01*
X13846861Y-1376232D01*
X13844957Y-1385311D01*
X13844957Y-1385316D01*
X13848548Y-1414121D01*
X13849396Y-1427795D01*
X13849499Y-1429032D01*
X13849500Y-1429037D01*
X13849500Y-1429040D01*
X13852666Y-1448015D01*
X13853403Y-1453077D01*
X13859426Y-1501390D01*
X13861524Y-1508435D01*
X13863907Y-1515379D01*
X13863908Y-1515381D01*
X13875745Y-1537254D01*
X13887082Y-1558203D01*
X13889421Y-1562747D01*
X13910802Y-1606484D01*
X13910804Y-1606486D01*
X13910805Y-1606488D01*
X13915062Y-1612451D01*
X13919583Y-1618259D01*
X13955398Y-1651230D01*
X13959096Y-1654778D01*
X14366509Y-2062191D01*
X14399994Y-2123514D01*
X14402828Y-2149872D01*
X14402828Y-2356783D01*
X14383143Y-2423822D01*
X14366509Y-2444464D01*
X13786955Y-3024017D01*
X13767106Y-3040138D01*
X13759331Y-3045218D01*
X13741499Y-3068128D01*
X13732394Y-3078440D01*
X13731624Y-3079350D01*
X13720439Y-3095015D01*
X13717378Y-3099119D01*
X13687482Y-3137529D01*
X13683980Y-3144000D01*
X13680760Y-3150588D01*
X13666871Y-3197238D01*
X13665309Y-3202113D01*
X13649499Y-3248169D01*
X13648296Y-3255373D01*
X13647382Y-3262704D01*
X13649394Y-3311323D01*
X13649500Y-3316448D01*
X13649500Y-4050788D01*
X13646861Y-4076232D01*
X13644957Y-4085311D01*
X13644957Y-4085316D01*
X13648548Y-4114121D01*
X13649396Y-4127795D01*
X13649499Y-4129032D01*
X13649500Y-4129037D01*
X13649500Y-4129040D01*
X13652666Y-4148015D01*
X13653403Y-4153077D01*
X13659426Y-4201390D01*
X13661524Y-4208435D01*
X13663907Y-4215379D01*
X13663908Y-4215381D01*
X13676796Y-4239196D01*
X13687082Y-4258203D01*
X13689421Y-4262747D01*
X13710802Y-4306484D01*
X13710804Y-4306486D01*
X13710805Y-4306488D01*
X13715062Y-4312451D01*
X13719583Y-4318259D01*
X13755398Y-4351230D01*
X13759096Y-4354778D01*
X14687362Y-5283044D01*
X14703486Y-5302899D01*
X14708563Y-5310669D01*
X14730637Y-5327850D01*
X14731469Y-5328497D01*
X14741757Y-5337583D01*
X14742689Y-5338373D01*
X14750988Y-5344297D01*
X14758367Y-5349565D01*
X14762450Y-5352610D01*
X14764218Y-5353986D01*
X14800875Y-5382518D01*
X14807333Y-5386012D01*
X14813934Y-5389240D01*
X14860593Y-5403131D01*
X14865437Y-5404682D01*
X14911512Y-5420500D01*
X14911515Y-5420501D01*
X14918730Y-5421704D01*
X14926044Y-5422616D01*
X14926046Y-5422617D01*
X14926047Y-5422616D01*
X14926048Y-5422617D01*
X14974668Y-5420606D01*
X14979793Y-5420500D01*
X15103457Y-5420500D01*
X15170496Y-5440185D01*
X15191133Y-5456814D01*
X15243517Y-5509198D01*
X15348607Y-5560573D01*
X15375539Y-5564497D01*
X15416739Y-5570500D01*
X15416740Y-5570500D01*
X17133261Y-5570500D01*
X17155971Y-5567191D01*
X17201393Y-5560573D01*
X17306483Y-5509198D01*
X17389198Y-5426483D01*
X17440573Y-5321393D01*
X17450500Y-5253260D01*
X17450500Y-4886740D01*
X17440573Y-4818607D01*
X17389198Y-4713517D01*
X17389196Y-4713515D01*
X17389196Y-4713514D01*
X17306485Y-4630803D01*
X17201391Y-4579426D01*
X17133261Y-4569500D01*
X17133260Y-4569500D01*
X15416740Y-4569500D01*
X15416739Y-4569500D01*
X15348608Y-4579426D01*
X15243514Y-4630803D01*
X15222681Y-4651637D01*
X15161358Y-4685122D01*
X15091666Y-4680138D01*
X15047319Y-4651637D01*
X14386819Y-3991137D01*
X14382518Y-3983260D01*
X15099500Y-3983260D01*
X15109426Y-4051391D01*
X15160803Y-4156485D01*
X15243514Y-4239196D01*
X15243515Y-4239196D01*
X15243517Y-4239198D01*
X15348607Y-4290573D01*
X15382673Y-4295536D01*
X15416739Y-4300500D01*
X15416740Y-4300500D01*
X17133261Y-4300500D01*
X17155971Y-4297191D01*
X17201393Y-4290573D01*
X17306483Y-4239198D01*
X17389198Y-4156483D01*
X17440573Y-4051393D01*
X17450500Y-3983260D01*
X17450500Y-3616740D01*
X17440573Y-3548607D01*
X17430967Y-3528959D01*
X17419209Y-3460087D01*
X17446553Y-3395790D01*
X17504317Y-3356483D01*
X17542369Y-3350500D01*
X18009496Y-3350500D01*
X18050451Y-3357459D01*
X18165298Y-3397645D01*
X18165300Y-3397646D01*
X18195730Y-3400500D01*
X18195734Y-3400500D01*
X19204270Y-3400500D01*
X19234699Y-3397646D01*
X19234701Y-3397646D01*
X19298790Y-3375219D01*
X19362882Y-3352793D01*
X19472150Y-3272150D01*
X19552793Y-3162882D01*
X19582022Y-3079350D01*
X19597646Y-3034701D01*
X19597646Y-3034699D01*
X19600500Y-3004269D01*
X19600500Y-2195730D01*
X19597646Y-2165300D01*
X19597646Y-2165298D01*
X19552793Y-2037119D01*
X19552792Y-2037117D01*
X19472150Y-1927850D01*
X19362882Y-1847207D01*
X19362880Y-1847206D01*
X19234700Y-1802353D01*
X19204270Y-1799500D01*
X19204266Y-1799500D01*
X18195734Y-1799500D01*
X18195730Y-1799500D01*
X18165300Y-1802353D01*
X18165298Y-1802353D01*
X18037119Y-1847206D01*
X18037117Y-1847207D01*
X17927850Y-1927850D01*
X17847207Y-2037117D01*
X17847206Y-2037119D01*
X17802353Y-2165298D01*
X17802353Y-2165300D01*
X17799500Y-2195730D01*
X17799500Y-2325500D01*
X17779815Y-2392539D01*
X17727011Y-2438294D01*
X17675500Y-2449500D01*
X17141419Y-2449500D01*
X17074380Y-2429815D01*
X17065933Y-2423876D01*
X17002842Y-2375464D01*
X16856762Y-2314956D01*
X16856760Y-2314955D01*
X16700001Y-2294318D01*
X16699999Y-2294318D01*
X16543239Y-2314955D01*
X16543237Y-2314956D01*
X16397160Y-2375463D01*
X16271718Y-2471718D01*
X16175463Y-2597160D01*
X16114956Y-2743238D01*
X16104575Y-2822084D01*
X16076308Y-2885980D01*
X16069317Y-2893578D01*
X15979263Y-2983632D01*
X15968898Y-2992895D01*
X15941033Y-3015117D01*
X15941030Y-3015121D01*
X15908823Y-3062357D01*
X15906144Y-3066132D01*
X15872206Y-3112118D01*
X15868216Y-3119667D01*
X15864528Y-3127325D01*
X15847673Y-3181967D01*
X15846225Y-3186368D01*
X15835699Y-3216452D01*
X15794978Y-3273229D01*
X15730026Y-3298978D01*
X15718656Y-3299500D01*
X15416739Y-3299500D01*
X15348608Y-3309426D01*
X15243514Y-3360803D01*
X15160803Y-3443514D01*
X15109426Y-3548608D01*
X15099500Y-3616739D01*
X15099500Y-3983260D01*
X14382518Y-3983260D01*
X14353334Y-3929814D01*
X14350500Y-3903456D01*
X14350500Y-3503199D01*
X14370185Y-3436160D01*
X14386815Y-3415522D01*
X14966374Y-2835962D01*
X14986230Y-2819839D01*
X14993997Y-2814765D01*
X15011824Y-2791859D01*
X15020873Y-2781613D01*
X15021690Y-2780647D01*
X15021704Y-2780634D01*
X15032898Y-2764954D01*
X15035943Y-2760871D01*
X15042232Y-2752792D01*
X15065845Y-2722454D01*
X15065846Y-2722449D01*
X15069345Y-2715983D01*
X15072564Y-2709398D01*
X15072568Y-2709394D01*
X15086466Y-2662710D01*
X15088002Y-2657911D01*
X15103828Y-2611816D01*
X15103828Y-2611809D01*
X15105034Y-2604582D01*
X15105945Y-2597279D01*
X15103934Y-2548649D01*
X15103828Y-2543525D01*
X15103828Y-2002539D01*
X15106467Y-1977092D01*
X15108371Y-1968013D01*
X15104780Y-1939205D01*
X15103930Y-1925520D01*
X15103829Y-1924298D01*
X15103828Y-1924292D01*
X15103828Y-1924288D01*
X15100658Y-1905294D01*
X15099923Y-1900246D01*
X15098987Y-1892741D01*
X15093901Y-1851935D01*
X15091804Y-1844895D01*
X15089420Y-1837950D01*
X15089420Y-1837947D01*
X15066252Y-1795138D01*
X15063907Y-1790582D01*
X15059377Y-1781316D01*
X15042526Y-1746844D01*
X15042524Y-1746842D01*
X15038254Y-1740862D01*
X15033748Y-1735073D01*
X15033747Y-1735072D01*
X15033746Y-1735070D01*
X14997915Y-1702085D01*
X14994242Y-1698560D01*
X14586819Y-1291137D01*
X14553334Y-1229814D01*
X14550500Y-1203456D01*
X14550500Y-815091D01*
X14570185Y-748052D01*
X14622989Y-702297D01*
X14633545Y-698050D01*
X14662233Y-688011D01*
X14762882Y-652793D01*
X14828630Y-604269D01*
X17549500Y-604269D01*
X17552353Y-634699D01*
X17552353Y-634701D01*
X17597206Y-762880D01*
X17597207Y-762882D01*
X17677850Y-872150D01*
X17787118Y-952793D01*
X17800453Y-957459D01*
X17915299Y-997646D01*
X17945730Y-1000500D01*
X17945734Y-1000500D01*
X18704270Y-1000500D01*
X18734699Y-997646D01*
X18800767Y-974528D01*
X18849549Y-957459D01*
X18890504Y-950500D01*
X19367738Y-950500D01*
X19381620Y-951279D01*
X19394421Y-952722D01*
X19417033Y-955270D01*
X19417033Y-955269D01*
X19417035Y-955270D01*
X19473236Y-944635D01*
X19477726Y-943872D01*
X19534287Y-935348D01*
X19534291Y-935345D01*
X19542447Y-932830D01*
X19550469Y-930024D01*
X19550470Y-930023D01*
X19550472Y-930023D01*
X19601088Y-903270D01*
X19605093Y-901248D01*
X19656642Y-876425D01*
X19656643Y-876423D01*
X19656645Y-876423D01*
X19663695Y-871616D01*
X19670534Y-866567D01*
X19670538Y-866566D01*
X19710974Y-826128D01*
X19714260Y-822962D01*
X19756194Y-784055D01*
X19756196Y-784050D01*
X19761987Y-776790D01*
X19762643Y-777313D01*
X19772029Y-765073D01*
X20000286Y-536816D01*
X20061608Y-503334D01*
X20087966Y-500500D01*
X20704270Y-500500D01*
X20734699Y-497646D01*
X20734701Y-497646D01*
X20798790Y-475219D01*
X20862882Y-452793D01*
X20972150Y-372150D01*
X21052793Y-262882D01*
X21080735Y-183029D01*
X21097646Y-134701D01*
X21097646Y-134699D01*
X21100500Y-104269D01*
X21100500Y704269D01*
X21097646Y734699D01*
X21097646Y734701D01*
X21072259Y807251D01*
X21052793Y862882D01*
X20972150Y972150D01*
X20862882Y1052793D01*
X20777426Y1082695D01*
X20734700Y1097646D01*
X20704270Y1100500D01*
X20704266Y1100500D01*
X19695734Y1100500D01*
X19695730Y1100500D01*
X19665300Y1097646D01*
X19665298Y1097646D01*
X19569163Y1064006D01*
X19537118Y1052793D01*
X19427850Y972150D01*
X19347428Y863181D01*
X19347207Y862882D01*
X19347206Y862880D01*
X19302353Y734701D01*
X19302353Y734699D01*
X19299500Y704269D01*
X19299500Y587644D01*
X19279815Y520605D01*
X19227011Y474850D01*
X19157853Y464906D01*
X19094297Y493931D01*
X19058459Y546689D01*
X19054661Y557543D01*
X19052793Y562882D01*
X18972150Y672150D01*
X18862882Y752793D01*
X18777426Y782695D01*
X18734700Y797646D01*
X18704270Y800500D01*
X18704266Y800500D01*
X17945734Y800500D01*
X17945730Y800500D01*
X17915300Y797646D01*
X17915298Y797646D01*
X17821189Y764715D01*
X17787118Y752793D01*
X17677850Y672150D01*
X17615482Y587644D01*
X17597207Y562882D01*
X17597206Y562880D01*
X17552353Y434701D01*
X17552353Y434699D01*
X17549500Y404269D01*
X17549500Y-604269D01*
X14828630Y-604269D01*
X14872150Y-572150D01*
X14952793Y-462882D01*
X14984464Y-372371D01*
X14997646Y-334701D01*
X14997646Y-334699D01*
X15000500Y-304269D01*
X15000500Y453456D01*
X15020185Y520495D01*
X15036819Y541137D01*
X15302933Y807251D01*
X15364256Y840736D01*
X15390614Y843570D01*
X16256719Y843570D01*
X16282164Y840931D01*
X16291245Y839027D01*
X16291246Y839027D01*
X16320053Y842618D01*
X16333722Y843466D01*
X16334962Y843569D01*
X16334968Y843570D01*
X16334970Y843570D01*
X16353957Y846737D01*
X16359007Y847473D01*
X16407320Y853496D01*
X16414365Y855594D01*
X16421309Y857977D01*
X16421311Y857978D01*
X16464133Y881152D01*
X16468677Y883491D01*
X16512414Y904872D01*
X16512416Y904874D01*
X16512418Y904875D01*
X16518381Y909132D01*
X16524189Y913653D01*
X16557160Y949468D01*
X16560708Y953166D01*
X16920723Y1313181D01*
X16982046Y1346666D01*
X17008404Y1349500D01*
X18450789Y1349500D01*
X18476234Y1346861D01*
X18485315Y1344957D01*
X18485316Y1344957D01*
X18514123Y1348548D01*
X18527792Y1349396D01*
X18529032Y1349499D01*
X18529038Y1349500D01*
X18529040Y1349500D01*
X18548027Y1352667D01*
X18553077Y1353403D01*
X18601390Y1359426D01*
X18608435Y1361524D01*
X18615379Y1363907D01*
X18615381Y1363908D01*
X18645616Y1380270D01*
X18658203Y1387082D01*
X18662747Y1389421D01*
X18706484Y1410802D01*
X18706486Y1410804D01*
X18706488Y1410805D01*
X18712451Y1415062D01*
X18718259Y1419583D01*
X18751230Y1455398D01*
X18754778Y1459096D01*
X19113044Y1817362D01*
X19132901Y1833488D01*
X19140669Y1838563D01*
X19147317Y1842907D01*
X19214206Y1863096D01*
X19281392Y1843918D01*
X19327544Y1791461D01*
X19332182Y1780056D01*
X19347207Y1737117D01*
X19427850Y1627850D01*
X19537117Y1547207D01*
X19537119Y1547206D01*
X19665299Y1502353D01*
X19695730Y1499500D01*
X19695734Y1499500D01*
X20704270Y1499500D01*
X20734699Y1502353D01*
X20734701Y1502353D01*
X20862880Y1547206D01*
X20862882Y1547207D01*
X20883626Y1562517D01*
X20972150Y1627850D01*
X21052793Y1737118D01*
X21067818Y1780056D01*
X21097646Y1865298D01*
X21097646Y1865300D01*
X21100500Y1895730D01*
X21100500Y2704269D01*
X21097646Y2734699D01*
X21097646Y2734701D01*
X21061885Y2836898D01*
X21052793Y2862882D01*
X20972150Y2972150D01*
X20862882Y3052793D01*
X20860974Y3053460D01*
X20859172Y3054753D01*
X20854669Y3057133D01*
X20854994Y3057749D01*
X20804202Y3094180D01*
X20778455Y3159133D01*
X20791911Y3227695D01*
X20840299Y3278097D01*
X20901933Y3294500D01*
X24125500Y3294500D01*
X24192539Y3274815D01*
G37*
%TD.AperFunction*%
%TA.AperFunction,Conductor*%
G36*
X26501416Y14279815D02*
G01*
X26507306Y14275786D01*
X26508699Y14274773D01*
X26551341Y14219425D01*
X26557290Y14149809D01*
X26524657Y14088028D01*
X26480559Y14058859D01*
X26474020Y14056326D01*
X26474012Y14056322D01*
X26288869Y13941685D01*
X26288868Y13941685D01*
X26127945Y13794985D01*
X25996715Y13621208D01*
X25899651Y13426280D01*
X25849494Y13250000D01*
X26684314Y13250000D01*
X26672359Y13238045D01*
X26614835Y13125148D01*
X26595014Y13000000D01*
X26614835Y12874852D01*
X26672359Y12761955D01*
X26684314Y12750000D01*
X25849495Y12750000D01*
X25899651Y12573719D01*
X25996715Y12378791D01*
X26127945Y12205014D01*
X26288868Y12058314D01*
X26474012Y11943677D01*
X26474020Y11943673D01*
X26480568Y11941137D01*
X26535968Y11898562D01*
X26559556Y11832795D01*
X26543843Y11764715D01*
X26508655Y11725194D01*
X26438677Y11674352D01*
X26410950Y11654207D01*
X26287805Y11517440D01*
X26267683Y11482587D01*
X26195786Y11358059D01*
X26195783Y11358053D01*
X26140250Y11187137D01*
X26138915Y11183029D01*
X26119678Y11000000D01*
X26138915Y10816971D01*
X26138915Y10816968D01*
X26138916Y10816967D01*
X26195783Y10641946D01*
X26195786Y10641940D01*
X26282887Y10491077D01*
X26299500Y10429077D01*
X26299500Y9570921D01*
X26282887Y9508922D01*
X26213577Y9388874D01*
X26195786Y9358059D01*
X26195783Y9358053D01*
X26145816Y9204269D01*
X26138915Y9183029D01*
X26119678Y9000000D01*
X26138915Y8816971D01*
X26138915Y8816968D01*
X26138916Y8816967D01*
X26195783Y8641946D01*
X26195786Y8641940D01*
X26287804Y8482561D01*
X26410949Y8345793D01*
X26410951Y8345791D01*
X26559834Y8237621D01*
X26559839Y8237619D01*
X26727961Y8162765D01*
X26727965Y8162763D01*
X26736215Y8161010D01*
X26797695Y8127814D01*
X26831468Y8066649D01*
X26826811Y7996934D01*
X26785203Y7940804D01*
X26742662Y7922211D01*
X26743218Y7920269D01*
X26737175Y7918539D01*
X26737172Y7918539D01*
X26651572Y7884346D01*
X26605576Y7875500D01*
X26305249Y7875500D01*
X26305247Y7875499D01*
X26246770Y7863868D01*
X26246769Y7863867D01*
X26180447Y7819552D01*
X26136132Y7753230D01*
X26136131Y7753229D01*
X26124500Y7694752D01*
X26124500Y7520072D01*
X26104815Y7453033D01*
X26088181Y7432391D01*
X24537533Y5881743D01*
X24535284Y5879550D01*
X24475081Y5822323D01*
X24443189Y5776503D01*
X24437545Y5769018D01*
X24402266Y5725751D01*
X24402264Y5725747D01*
X24402263Y5725746D01*
X24402262Y5725744D01*
X24389065Y5700480D01*
X24380930Y5687053D01*
X24364647Y5663659D01*
X24342639Y5612374D01*
X24338597Y5603863D01*
X24322000Y5572089D01*
X24273514Y5521782D01*
X24212091Y5505500D01*
X21934500Y5505500D01*
X21867461Y5525185D01*
X21821706Y5577989D01*
X21810500Y5629500D01*
X21810500Y6294750D01*
X21810499Y6294752D01*
X21810132Y6296595D01*
X21806318Y6315772D01*
X21798868Y6353229D01*
X21798867Y6353230D01*
X21798867Y6353231D01*
X21754552Y6419552D01*
X21688231Y6463867D01*
X21688229Y6463867D01*
X21688229Y6463868D01*
X21644568Y6472552D01*
X21629751Y6475499D01*
X21629751Y6475500D01*
X21629748Y6475500D01*
X21059500Y6475500D01*
X20992461Y6495185D01*
X20946706Y6547989D01*
X20935500Y6599500D01*
X20935500Y6976653D01*
X20955185Y7043692D01*
X20965787Y7057855D01*
X21025374Y7126622D01*
X21025376Y7126626D01*
X21025377Y7126627D01*
X21085165Y7257543D01*
X21105647Y7400000D01*
X21085165Y7542457D01*
X21025377Y7673373D01*
X20931128Y7782143D01*
X20810053Y7859953D01*
X20795374Y7864263D01*
X20779121Y7869035D01*
X20671962Y7900499D01*
X20671962Y7900500D01*
X20671961Y7900500D01*
X20611189Y7900500D01*
X20544150Y7920185D01*
X20523508Y7936819D01*
X20460328Y7999999D01*
X22699150Y7999999D01*
X22718912Y7774114D01*
X22718914Y7774104D01*
X22777598Y7555090D01*
X22777602Y7555081D01*
X22873431Y7349574D01*
X22873433Y7349570D01*
X23003487Y7163834D01*
X23003492Y7163828D01*
X23163828Y7003492D01*
X23163834Y7003487D01*
X23349570Y6873433D01*
X23349574Y6873431D01*
X23555081Y6777602D01*
X23555090Y6777598D01*
X23774104Y6718914D01*
X23774114Y6718912D01*
X23999999Y6699150D01*
X24000000Y6699150D01*
X24000001Y6699150D01*
X24225885Y6718912D01*
X24225895Y6718914D01*
X24444909Y6777598D01*
X24444913Y6777600D01*
X24444917Y6777601D01*
X24650425Y6873431D01*
X24650429Y6873433D01*
X24836165Y7003487D01*
X24836171Y7003492D01*
X24996507Y7163828D01*
X24996512Y7163834D01*
X25126566Y7349570D01*
X25126568Y7349574D01*
X25126569Y7349575D01*
X25222399Y7555083D01*
X25281087Y7774110D01*
X25299145Y7980510D01*
X25300850Y7999999D01*
X25300850Y8000000D01*
X25293526Y8083709D01*
X25281087Y8225890D01*
X25222399Y8444917D01*
X25126569Y8650425D01*
X24996509Y8836170D01*
X24836170Y8996509D01*
X24650425Y9126569D01*
X24444917Y9222399D01*
X24225890Y9281087D01*
X24037648Y9297556D01*
X24000001Y9300850D01*
X23999999Y9300850D01*
X23954822Y9296897D01*
X23774110Y9281087D01*
X23555083Y9222399D01*
X23349575Y9126569D01*
X23349574Y9126568D01*
X23349570Y9126566D01*
X23163834Y8996512D01*
X23163828Y8996507D01*
X23003492Y8836171D01*
X23003487Y8836165D01*
X22873433Y8650429D01*
X22873431Y8650425D01*
X22777601Y8444917D01*
X22777600Y8444913D01*
X22777598Y8444909D01*
X22718914Y8225895D01*
X22718912Y8225885D01*
X22699150Y8000000D01*
X22699150Y7999999D01*
X20460328Y7999999D01*
X20432410Y8027917D01*
X19944033Y8516291D01*
X19936746Y8524243D01*
X19912455Y8553194D01*
X19879739Y8572082D01*
X19870625Y8577887D01*
X19839684Y8599554D01*
X19839681Y8599554D01*
X19834824Y8601819D01*
X19818099Y8608747D01*
X19813050Y8610584D01*
X19813045Y8610588D01*
X19775830Y8617149D01*
X19765319Y8619479D01*
X19728807Y8629264D01*
X19691181Y8625972D01*
X19680372Y8625500D01*
X18186189Y8625500D01*
X18119150Y8645185D01*
X18098508Y8661819D01*
X17661819Y9098507D01*
X17628334Y9159830D01*
X17625500Y9186188D01*
X17625500Y9800500D01*
X17645185Y9867539D01*
X17697989Y9913294D01*
X17749500Y9924500D01*
X17879270Y9924500D01*
X17909699Y9927353D01*
X17909701Y9927353D01*
X18037880Y9972206D01*
X18037882Y9972207D01*
X18104394Y10021295D01*
X18147150Y10052850D01*
X18227793Y10162118D01*
X18239006Y10194163D01*
X18272646Y10290298D01*
X18272646Y10290300D01*
X18275500Y10320730D01*
X18275500Y11329269D01*
X18272646Y11359699D01*
X18272646Y11359701D01*
X18250219Y11423790D01*
X18227793Y11487882D01*
X18147150Y11597150D01*
X18037882Y11677793D01*
X17952426Y11707695D01*
X17909700Y11722646D01*
X17879270Y11725500D01*
X17879266Y11725500D01*
X17070734Y11725500D01*
X17070730Y11725500D01*
X17040300Y11722646D01*
X17040298Y11722646D01*
X16944163Y11689006D01*
X16912118Y11677793D01*
X16802850Y11597150D01*
X16744022Y11517440D01*
X16722207Y11487882D01*
X16722206Y11487880D01*
X16677353Y11359701D01*
X16677353Y11359699D01*
X16674500Y11329269D01*
X16674500Y10320730D01*
X16677353Y10290300D01*
X16677353Y10290298D01*
X16722206Y10162119D01*
X16722207Y10162117D01*
X16802850Y10052850D01*
X16845604Y10021296D01*
X16919595Y9966689D01*
X16918137Y9964714D01*
X16958515Y9925420D01*
X16974500Y9864520D01*
X16974500Y9019626D01*
X16974028Y9008817D01*
X16970735Y8971191D01*
X16980512Y8934703D01*
X16982852Y8924148D01*
X16989410Y8886960D01*
X16991229Y8881961D01*
X16998206Y8865117D01*
X17000446Y8860313D01*
X17022105Y8829381D01*
X17027914Y8820264D01*
X17046804Y8787548D01*
X17046810Y8787540D01*
X17075743Y8763262D01*
X17083716Y8755956D01*
X17755962Y8083709D01*
X17763268Y8075736D01*
X17787540Y8046810D01*
X17787543Y8046807D01*
X17787545Y8046806D01*
X17820261Y8027917D01*
X17829378Y8022108D01*
X17860315Y8000446D01*
X17865118Y7998207D01*
X17881983Y7991221D01*
X17886958Y7989411D01*
X17924161Y7982850D01*
X17934717Y7980510D01*
X17971192Y7970736D01*
X18006128Y7973793D01*
X18008811Y7974028D01*
X18019618Y7974500D01*
X19513812Y7974500D01*
X19580851Y7954815D01*
X19601492Y7938181D01*
X19720121Y7819552D01*
X20058034Y7481638D01*
X20091519Y7420315D01*
X20092764Y7408731D01*
X20093091Y7408778D01*
X20114834Y7257543D01*
X20174622Y7126628D01*
X20174623Y7126626D01*
X20254213Y7034775D01*
X20283238Y6971219D01*
X20284500Y6953572D01*
X20284500Y6599500D01*
X20264815Y6532461D01*
X20212011Y6486706D01*
X20160500Y6475500D01*
X19590249Y6475500D01*
X19590247Y6475499D01*
X19531770Y6463868D01*
X19531769Y6463867D01*
X19465447Y6419552D01*
X19422722Y6355609D01*
X19369110Y6310804D01*
X19319620Y6300500D01*
X19299211Y6300500D01*
X19273765Y6303139D01*
X19264685Y6305043D01*
X19239821Y6301943D01*
X19235877Y6301452D01*
X19222192Y6300602D01*
X19220970Y6300501D01*
X19220964Y6300500D01*
X19220960Y6300500D01*
X19201966Y6297330D01*
X19196929Y6296596D01*
X19148896Y6290609D01*
X19148607Y6290573D01*
X19141561Y6288475D01*
X19134619Y6286092D01*
X19091810Y6262925D01*
X19087253Y6260580D01*
X19045329Y6240084D01*
X19043517Y6239198D01*
X19043514Y6239195D01*
X19037538Y6234929D01*
X19031746Y6230420D01*
X19031742Y6230418D01*
X19007118Y6203669D01*
X18998758Y6194588D01*
X18995210Y6190891D01*
X18686955Y5882637D01*
X18667098Y5866511D01*
X18659331Y5861437D01*
X18641497Y5838524D01*
X18632422Y5828248D01*
X18631627Y5827309D01*
X18631625Y5827307D01*
X18623169Y5815463D01*
X18620447Y5811651D01*
X18617385Y5807544D01*
X18587483Y5769126D01*
X18587482Y5769124D01*
X18583973Y5762640D01*
X18580759Y5756067D01*
X18566868Y5709409D01*
X18565306Y5704532D01*
X18546164Y5648771D01*
X18544405Y5649374D01*
X18519409Y5597750D01*
X18459794Y5561309D01*
X18389943Y5562883D01*
X18370075Y5571167D01*
X18315024Y5599965D01*
X18315022Y5599966D01*
X18285731Y5608566D01*
X18247985Y5619650D01*
X18176000Y5630000D01*
X18175998Y5630000D01*
X16235845Y5630000D01*
X16168806Y5649685D01*
X16153333Y5661726D01*
X16153194Y5661570D01*
X16152065Y5662574D01*
X16152057Y5662583D01*
X16133328Y5679257D01*
X16044993Y5725465D01*
X16044991Y5725465D01*
X16044991Y5725466D01*
X16000754Y5738455D01*
X15977954Y5745150D01*
X15905969Y5755500D01*
X15517107Y5755500D01*
X15517103Y5755500D01*
X15516533Y5755489D01*
X15507986Y5755337D01*
X15499140Y5755021D01*
X15418973Y5739075D01*
X15353508Y5714658D01*
X15306012Y5688723D01*
X15289921Y5681375D01*
X15240166Y5662818D01*
X15196834Y5655000D01*
X14203162Y5655000D01*
X14159830Y5662818D01*
X14157578Y5663658D01*
X14120921Y5677329D01*
X14100197Y5688169D01*
X14099927Y5687703D01*
X14095639Y5690194D01*
X14095629Y5690202D01*
X14021917Y5725465D01*
X13954878Y5745150D01*
X13882893Y5755500D01*
X13882891Y5755500D01*
X13449500Y5755500D01*
X13382461Y5775185D01*
X13336706Y5827989D01*
X13325500Y5879500D01*
X13325500Y7430823D01*
X13345185Y7497862D01*
X13366382Y7520477D01*
X13365580Y7521280D01*
X13372148Y7527848D01*
X13372148Y7527849D01*
X13372150Y7527850D01*
X13452793Y7637118D01*
X13472960Y7694752D01*
X13497646Y7765298D01*
X13497646Y7765300D01*
X13500500Y7795730D01*
X13500500Y9204269D01*
X13497646Y9234699D01*
X13497646Y9234701D01*
X13474499Y9300850D01*
X13452793Y9362882D01*
X13372150Y9472150D01*
X13262882Y9552793D01*
X13177426Y9582695D01*
X13134700Y9597646D01*
X13104270Y9600500D01*
X13104266Y9600500D01*
X12170734Y9600500D01*
X12170730Y9600500D01*
X12140300Y9597646D01*
X12140298Y9597646D01*
X12044163Y9564006D01*
X12012118Y9552793D01*
X11902850Y9472150D01*
X11864795Y9420587D01*
X11822207Y9362882D01*
X11822206Y9362880D01*
X11777353Y9234701D01*
X11777353Y9234699D01*
X11774500Y9204269D01*
X11774500Y7795730D01*
X11777353Y7765300D01*
X11777353Y7765298D01*
X11822206Y7637119D01*
X11822207Y7637118D01*
X11900271Y7531344D01*
X11924241Y7465715D01*
X11924500Y7457711D01*
X11924500Y5821922D01*
X11904815Y5754883D01*
X11861859Y5714168D01*
X11844937Y5704532D01*
X11805178Y5681892D01*
X11805175Y5681889D01*
X11805172Y5681888D01*
X11752368Y5636133D01*
X11720743Y5603359D01*
X11674535Y5515024D01*
X11674534Y5515022D01*
X11674533Y5515022D01*
X11654851Y5447990D01*
X11654848Y5447978D01*
X11644500Y5376001D01*
X11644500Y2074500D01*
X11624815Y2007461D01*
X11572011Y1961706D01*
X11520500Y1950500D01*
X9849211Y1950500D01*
X9823765Y1953139D01*
X9814685Y1955043D01*
X9789821Y1951943D01*
X9785877Y1951452D01*
X9772192Y1950602D01*
X9770970Y1950501D01*
X9770964Y1950500D01*
X9770960Y1950500D01*
X9751966Y1947330D01*
X9746929Y1946596D01*
X9698607Y1940573D01*
X9691567Y1938476D01*
X9684622Y1936092D01*
X9684619Y1936092D01*
X9684615Y1936090D01*
X9641817Y1912928D01*
X9637260Y1910582D01*
X9593516Y1889198D01*
X9593514Y1889196D01*
X9587534Y1884926D01*
X9581745Y1880420D01*
X9581744Y1880419D01*
X9581742Y1880418D01*
X9548757Y1844587D01*
X9545232Y1840914D01*
X9123330Y1419012D01*
X9062007Y1385527D01*
X9040367Y1387074D01*
X9041927Y1379663D01*
X9017065Y1314366D01*
X9005987Y1301669D01*
X8841137Y1136819D01*
X8779814Y1103334D01*
X8753456Y1100500D01*
X7995730Y1100500D01*
X7965300Y1097646D01*
X7965298Y1097646D01*
X7869163Y1064006D01*
X7837118Y1052793D01*
X7727850Y972150D01*
X7726863Y970812D01*
X7725405Y969705D01*
X7721279Y965579D01*
X7720714Y966143D01*
X7671213Y928564D01*
X7601557Y923110D01*
X7540009Y956180D01*
X7531369Y966829D01*
X7531185Y966670D01*
X7525377Y973373D01*
X7431128Y1082143D01*
X7310053Y1159953D01*
X7171962Y1200499D01*
X7171962Y1200500D01*
X7171961Y1200500D01*
X7146544Y1200500D01*
X7079505Y1220185D01*
X7058867Y1236814D01*
X6832630Y1463050D01*
X6816511Y1482902D01*
X6811437Y1490669D01*
X6788531Y1508496D01*
X6778291Y1517540D01*
X6777321Y1518360D01*
X6777307Y1518375D01*
X6761605Y1529584D01*
X6757556Y1532604D01*
X6719126Y1562517D01*
X6719120Y1562518D01*
X6712663Y1566013D01*
X6706070Y1569236D01*
X6706066Y1569240D01*
X6659382Y1583138D01*
X6654583Y1584674D01*
X6608488Y1600500D01*
X6608481Y1600500D01*
X6601248Y1601707D01*
X6593956Y1602616D01*
X6593954Y1602617D01*
X6593951Y1602616D01*
X6593951Y1602617D01*
X6545332Y1600606D01*
X6540207Y1600500D01*
X6000000Y1600500D01*
X6000000Y1949500D01*
X7200500Y1949500D01*
X7267539Y1929815D01*
X7313294Y1877011D01*
X7324500Y1825500D01*
X7324500Y1795730D01*
X7327353Y1765300D01*
X7327353Y1765298D01*
X7372206Y1637119D01*
X7372207Y1637117D01*
X7452850Y1527850D01*
X7562117Y1447207D01*
X7562119Y1447206D01*
X7690299Y1402353D01*
X7720730Y1399500D01*
X7720734Y1399500D01*
X8629270Y1399500D01*
X8659699Y1402353D01*
X8659701Y1402353D01*
X8787880Y1447206D01*
X8787886Y1447209D01*
X8844673Y1489120D01*
X8910301Y1513091D01*
X8915049Y1512024D01*
X8926817Y1566120D01*
X8935875Y1580321D01*
X8977793Y1637118D01*
X8990124Y1672359D01*
X9022646Y1765298D01*
X9022646Y1765300D01*
X9025500Y1795730D01*
X9025500Y4804269D01*
X9022646Y4834699D01*
X9022646Y4834701D01*
X9000219Y4898790D01*
X8977793Y4962882D01*
X8897150Y5072150D01*
X8787882Y5152793D01*
X8702426Y5182695D01*
X8659700Y5197646D01*
X8629270Y5200500D01*
X8629266Y5200500D01*
X7720734Y5200500D01*
X7720730Y5200500D01*
X7690300Y5197646D01*
X7690298Y5197646D01*
X7594163Y5164006D01*
X7562118Y5152793D01*
X7452850Y5072150D01*
X7372207Y4962882D01*
X7372206Y4962880D01*
X7327353Y4834701D01*
X7327353Y4834699D01*
X7324500Y4804269D01*
X7324500Y3074500D01*
X7304815Y3007461D01*
X7252011Y2961706D01*
X7200500Y2950500D01*
X6000000Y2950500D01*
X6000000Y6082052D01*
X6019685Y6149091D01*
X6072489Y6194846D01*
X6099808Y6203669D01*
X6233491Y6230261D01*
X6233501Y6230264D01*
X6379172Y6290602D01*
X6379185Y6290609D01*
X6510288Y6378210D01*
X6510292Y6378213D01*
X6621786Y6489707D01*
X6621789Y6489711D01*
X6709390Y6620814D01*
X6709397Y6620827D01*
X6769735Y6766498D01*
X6769737Y6766503D01*
X6800499Y6921153D01*
X6800500Y6921155D01*
X6800500Y12208196D01*
X6820185Y12275235D01*
X6872989Y12320990D01*
X6942147Y12330934D01*
X7005703Y12301909D01*
X7043477Y12243131D01*
X7043652Y12242530D01*
X7116147Y11990896D01*
X7136758Y11941137D01*
X7247263Y11674353D01*
X7412998Y11374478D01*
X7611269Y11095040D01*
X7839570Y10839573D01*
X7839573Y10839570D01*
X8095040Y10611269D01*
X8374478Y10412998D01*
X8674353Y10247263D01*
X8879910Y10162119D01*
X8990896Y10116147D01*
X8990897Y10116146D01*
X8990899Y10116146D01*
X9320124Y10021297D01*
X9320133Y10021295D01*
X9657906Y9963905D01*
X9657918Y9963903D01*
X10000000Y9944693D01*
X10342081Y9963903D01*
X10342093Y9963905D01*
X10679866Y10021295D01*
X10679875Y10021297D01*
X10924479Y10091766D01*
X11009104Y10116147D01*
X11325648Y10247264D01*
X11625521Y10412998D01*
X11648182Y10429077D01*
X11904959Y10611269D01*
X12160426Y10839570D01*
X12160429Y10839573D01*
X12388730Y11095040D01*
X12451161Y11183029D01*
X12587002Y11374479D01*
X12752736Y11674352D01*
X12883853Y11990896D01*
X12978704Y12320130D01*
X12991641Y12396271D01*
X13022277Y12459066D01*
X13082000Y12495329D01*
X13113889Y12499500D01*
X18886111Y12499500D01*
X18953150Y12479815D01*
X18998905Y12427011D01*
X19008359Y12396271D01*
X19021295Y12320133D01*
X19021297Y12320124D01*
X19075495Y12132001D01*
X19116147Y11990896D01*
X19136758Y11941137D01*
X19247263Y11674353D01*
X19412998Y11374478D01*
X19611269Y11095040D01*
X19839570Y10839573D01*
X19839573Y10839570D01*
X20095040Y10611269D01*
X20374478Y10412998D01*
X20674353Y10247263D01*
X20879910Y10162119D01*
X20990896Y10116147D01*
X20990897Y10116146D01*
X20990899Y10116146D01*
X21320124Y10021297D01*
X21320133Y10021295D01*
X21657906Y9963905D01*
X21657918Y9963903D01*
X22000000Y9944693D01*
X22342081Y9963903D01*
X22342093Y9963905D01*
X22679866Y10021295D01*
X22679875Y10021297D01*
X22924479Y10091766D01*
X23009104Y10116147D01*
X23325648Y10247264D01*
X23625521Y10412998D01*
X23648182Y10429077D01*
X23904959Y10611269D01*
X24160426Y10839570D01*
X24160429Y10839573D01*
X24388730Y11095040D01*
X24451161Y11183029D01*
X24587002Y11374479D01*
X24752736Y11674352D01*
X24883853Y11990896D01*
X24978704Y12320130D01*
X25036096Y12657914D01*
X25055307Y13000000D01*
X25036096Y13342086D01*
X24978704Y13679870D01*
X24883853Y14009104D01*
X24834584Y14128047D01*
X24827116Y14197517D01*
X24858391Y14259996D01*
X24918480Y14295648D01*
X24949146Y14299500D01*
X26434377Y14299500D01*
X26501416Y14279815D01*
G37*
%TD.AperFunction*%
%TD*%
M02*
