%TF.GenerationSoftware,KiCad,Pcbnew,8.0.2*%
%TF.CreationDate,2024-05-15T22:33:18-04:00*%
%TF.ProjectId,USB-C-3-way-splitter,5553422d-432d-4332-9d77-61792d73706c,rev?*%
%TF.SameCoordinates,Original*%
%TF.FileFunction,Paste,Top*%
%TF.FilePolarity,Positive*%
%FSLAX46Y46*%
G04 Gerber Fmt 4.6, Leading zero omitted, Abs format (unit mm)*
G04 Created by KiCad (PCBNEW 8.0.2) date 2024-05-15 22:33:18*
%MOMM*%
%LPD*%
G01*
G04 APERTURE LIST*
G04 Aperture macros list*
%AMRoundRect*
0 Rectangle with rounded corners*
0 $1 Rounding radius*
0 $2 $3 $4 $5 $6 $7 $8 $9 X,Y pos of 4 corners*
0 Add a 4 corners polygon primitive as box body*
4,1,4,$2,$3,$4,$5,$6,$7,$8,$9,$2,$3,0*
0 Add four circle primitives for the rounded corners*
1,1,$1+$1,$2,$3*
1,1,$1+$1,$4,$5*
1,1,$1+$1,$6,$7*
1,1,$1+$1,$8,$9*
0 Add four rect primitives between the rounded corners*
20,1,$1+$1,$2,$3,$4,$5,0*
20,1,$1+$1,$4,$5,$6,$7,0*
20,1,$1+$1,$6,$7,$8,$9,0*
20,1,$1+$1,$8,$9,$2,$3,0*%
G04 Aperture macros list end*
%ADD10RoundRect,0.250000X1.450000X-0.400000X1.450000X0.400000X-1.450000X0.400000X-1.450000X-0.400000X0*%
%ADD11RoundRect,0.112500X0.112500X0.637500X-0.112500X0.637500X-0.112500X-0.637500X0.112500X-0.637500X0*%
%ADD12RoundRect,0.250000X-0.350000X-0.450000X0.350000X-0.450000X0.350000X0.450000X-0.350000X0.450000X0*%
%ADD13RoundRect,0.150000X-0.825000X-0.150000X0.825000X-0.150000X0.825000X0.150000X-0.825000X0.150000X0*%
%ADD14RoundRect,0.250000X-0.450000X0.350000X-0.450000X-0.350000X0.450000X-0.350000X0.450000X0.350000X0*%
%ADD15RoundRect,0.250000X0.650000X-0.412500X0.650000X0.412500X-0.650000X0.412500X-0.650000X-0.412500X0*%
%ADD16RoundRect,0.225000X0.225000X0.375000X-0.225000X0.375000X-0.225000X-0.375000X0.225000X-0.375000X0*%
%ADD17RoundRect,0.250000X0.450000X-0.325000X0.450000X0.325000X-0.450000X0.325000X-0.450000X-0.325000X0*%
%ADD18RoundRect,0.250000X-0.337500X-0.475000X0.337500X-0.475000X0.337500X0.475000X-0.337500X0.475000X0*%
%ADD19RoundRect,0.162500X0.837500X0.162500X-0.837500X0.162500X-0.837500X-0.162500X0.837500X-0.162500X0*%
%ADD20RoundRect,0.250000X0.450000X-0.350000X0.450000X0.350000X-0.450000X0.350000X-0.450000X-0.350000X0*%
%ADD21RoundRect,0.250000X0.475000X-0.337500X0.475000X0.337500X-0.475000X0.337500X-0.475000X-0.337500X0*%
%ADD22RoundRect,0.150000X-0.150000X-0.200000X0.150000X-0.200000X0.150000X0.200000X-0.150000X0.200000X0*%
%ADD23RoundRect,0.150000X0.512500X0.150000X-0.512500X0.150000X-0.512500X-0.150000X0.512500X-0.150000X0*%
%ADD24R,1.450000X0.600000*%
%ADD25R,1.450000X0.300000*%
%ADD26RoundRect,0.225000X-0.375000X0.225000X-0.375000X-0.225000X0.375000X-0.225000X0.375000X0.225000X0*%
%ADD27RoundRect,0.250000X-0.650000X0.412500X-0.650000X-0.412500X0.650000X-0.412500X0.650000X0.412500X0*%
G04 APERTURE END LIST*
D10*
%TO.C,F1*%
X9100000Y1850000D03*
X9100000Y6300000D03*
%TD*%
D11*
%TO.C,D1*%
X14650000Y-5840000D03*
X13350000Y-5840000D03*
X14000000Y-8500000D03*
%TD*%
D12*
%TO.C,R1*%
X9500000Y-12100000D03*
X11500000Y-12100000D03*
%TD*%
D13*
%TO.C,U1*%
X8525000Y5000D03*
X8525000Y-1265000D03*
X8525000Y-2535000D03*
X8525000Y-3805000D03*
X13475000Y-3805000D03*
X13475000Y-2535000D03*
X13475000Y-1265000D03*
X13475000Y5000D03*
%TD*%
D14*
%TO.C,R3*%
X15800000Y-100000D03*
X15800000Y-2100000D03*
%TD*%
%TO.C,R7*%
X20700000Y1300000D03*
X20700000Y-700000D03*
%TD*%
D15*
%TO.C,C3*%
X12600000Y8275000D03*
X12600000Y11400000D03*
%TD*%
D16*
%TO.C,D4*%
X15150000Y2200000D03*
X11850000Y2200000D03*
%TD*%
D17*
%TO.C,D2*%
X8200000Y8200000D03*
X8200000Y10250000D03*
%TD*%
D18*
%TO.C,C5*%
X13500000Y-11000000D03*
X15575000Y-11000000D03*
%TD*%
D17*
%TO.C,D3*%
X21000000Y-5875000D03*
X21000000Y-3825000D03*
%TD*%
D19*
%TO.C,U2*%
X23100000Y3100000D03*
X23100000Y4050000D03*
X23100000Y5000000D03*
X19680000Y5000000D03*
X19680000Y4050000D03*
X19680000Y3100000D03*
%TD*%
D14*
%TO.C,R6*%
X12100000Y6300000D03*
X12100000Y4300000D03*
%TD*%
D20*
%TO.C,R5*%
X23100000Y-6700000D03*
X23100000Y-4700000D03*
%TD*%
D21*
%TO.C,C1*%
X14900000Y8162500D03*
X14900000Y10237500D03*
%TD*%
D20*
%TO.C,R4*%
X10200000Y8225000D03*
X10200000Y10225000D03*
%TD*%
D14*
%TO.C,R8*%
X15000000Y6300000D03*
X15000000Y4300000D03*
%TD*%
%TO.C,R2*%
X11500000Y-8000000D03*
X11500000Y-10000000D03*
%TD*%
D22*
%TO.C,D6*%
X23900000Y6500000D03*
X22500000Y6500000D03*
%TD*%
D23*
%TO.C,U3*%
X9337500Y-9950000D03*
X9337500Y-9000000D03*
X9337500Y-8050000D03*
X7062500Y-8050000D03*
X7062500Y-9000000D03*
X7062500Y-9950000D03*
%TD*%
D24*
%TO.C,J1*%
X4945000Y3250000D03*
X4945000Y2450000D03*
D25*
X4945000Y1250000D03*
X4945000Y250000D03*
X4945000Y-250000D03*
X4945000Y-1250000D03*
D24*
X4945000Y-2450000D03*
X4945000Y-3250000D03*
X4945000Y-3250000D03*
X4945000Y-2450000D03*
D25*
X4945000Y-1750000D03*
X4945000Y-750000D03*
X4945000Y750000D03*
X4945000Y1750000D03*
D24*
X4945000Y2450000D03*
X4945000Y3250000D03*
%TD*%
D26*
%TO.C,D5*%
X18100000Y1050000D03*
X18100000Y-2250000D03*
%TD*%
D27*
%TO.C,C2*%
X23000000Y1212500D03*
X23000000Y-1912500D03*
%TD*%
M02*
